;TYPE=PLATED
;Layer: PTH_Through
;EasyEDA Pro Client v3.2.121, 2026-07-22 15:45:00
;Gerber Generator version 0.3
M48
METRIC,LZ,0000.00000
;Hole size 1 = 0.30500 METRIC
T01C0.30500
;Hole size 2 = 0.40640 METRIC
T02C0.40640
;Hole size 3 = 1.00000 METRIC
T03C1.00000
;Hole size 4 = 1.02001 METRIC
T04C1.02001
;Hole size 5 = 1.04999 METRIC
T05C1.04999
;Hole size 6 = 1.10002 METRIC
T06C1.10002
;Hole size 7 = 2.00000 METRIC
T07C2.00000
;Hole size 8 = 3.20040 METRIC
T08C3.20040
%
G05
G90
T01
X1.016Y-23.495
X1.016Y-24.638
X1.016Y-25.798
X1.016Y-26.79944
X2.032Y-25.781
X3.429Y-26.035
X4.064Y-26.035
X2.032Y-26.797
X3.429Y-26.67
X4.064Y-26.67
X3.048Y-25.146
X2.032Y-24.638
X2.032Y-23.495
X22.987Y-17.272
X23.876Y-17.272
X24.765Y-17.272
X25.527Y-17.272
X26.416Y-17.272
X26.416Y-18.034
X26.416Y-18.796
X26.289Y-21.082
X26.289Y-22.098
X25.527Y-22.098
X24.638Y-22.098
X23.749Y-22.098
X22.86Y-22.098
X21.971Y-22.098
X22.098Y-17.272
X22.098Y-19.685
X29.083Y-21.971
X24.79655Y-24.22545
X19.685Y-14.732
X29.21Y-21.082
X45.847Y-15.113
X47.20417Y-15.70817
X33.147Y-21.082
X33.909Y-11.938
X36.195Y-13.462
X71.65955Y-7.58845
X71.628Y-5.715
X55.753Y-10.541
X43.18Y-17.272
X46.10415Y-13.96685
X61.849Y-14.478
X54.229Y-33.655
X54.864Y-14.732
X35.56624Y-26.79076
X44.45Y-16.637
X49.022Y-9.906
X57.658Y-4.826
X72.644Y-5.715
X62.23Y-8.763
X64.008Y-6.096
X60.071Y-23.495
X40.386Y-18.923
X42.799Y-19.177
X44.577Y-19.304
X49.149Y-19.685
X52.832Y-19.685
X54.737Y-19.685
X57.785Y-19.685
X59.309Y-19.685
X61.44128Y-17.55272
X63.37742Y-15.61658
X70.866Y-11.176
X73.279Y-11.176
X47.625Y-39.70299
X47.625Y-38.735
X47.371Y-37.719
X47.498Y-40.767
X49.276Y-42.672
X36.576Y-40.64
X59.182Y-43.815
X53.721Y-28.448
X72.263Y-28.194
X8.03387Y-25.36713
X5.08Y-17.272
X7.239Y-16.51
X9.144Y-16.51
X9.144Y-18.288
X19.939Y-29.972
X22.733Y-29.972
X26.162Y-29.972
X35.306Y-30.607
X17.399Y-32.385
X20.828Y-32.258
X23.622Y-32.258
X34.544Y-32.512
X10.16Y-34.925
X12.827Y-34.925
X13.97Y-34.925
X17.018Y-35.687
X20.066Y-35.814
X21.59Y-37.084
X11.303Y-37.973
X15.367Y-38.735
X10.795Y-38.608
X8.76413Y-38.73387
X9.49345Y-38.38555
X8.636Y-24.511
X7.366Y-24.13
X6.477Y-38.989
X34.544Y-10.00709
X37.846Y-10.00709
X41.021Y-9.906
X57.64936Y-7.112
X60.1345Y-6.0325
X9.017Y-15.367
X0.99009Y-10.414
X55.72707Y-43.70299
X75.12435Y-35.50152
X38.989Y-18.04264
X31.369Y-7.112
X69.66102Y-8.89
X54.61Y-8.382
X57.15Y-9.779
X3.429Y-23.495
X3.429Y-24.13
X4.064Y-23.495
X4.064Y-24.13
X4.0873Y-25.029
X6.45414Y-5.48781
X11.53414Y-5.48781
X22.71014Y-8.53186
X32.87014Y-8.53186
X32.87014Y-3.45186
X50.22375Y-38.18836
X46.71135Y-7.89686
X52.451Y-2.54
X56.87135Y-2.81686
X42.03013Y-3.95395
X54.03923Y-6.59086
X58.65114Y-38.65214
X58.65114Y-33.57214
X58.65114Y-28.49214
X63.73114Y-38.65214
X63.73114Y-33.57214
X63.73114Y-28.49214
X68.81114Y-33.57214
X68.81114Y-28.49214
X62.79147Y-9.95858
X64.11214Y-21.48586
X69.19214Y-21.48586
X74.27214Y-21.48586
X73.25614Y-4.27977
X78.33614Y-4.27977
X56.896Y-36.703
X69.977Y-1.143
X52.451Y-2.794
T02
X1.27Y-39.116
T03
X69.977Y-13.208
X67.437Y-15.748
X72.517Y-15.748
X58.547Y-13.208
X56.007Y-15.748
X61.087Y-15.748
T04
X9.779Y-40.64
X12.319Y-40.64
X14.859Y-40.64
X9.779Y-43.307
X12.319Y-43.307
X14.859Y-43.307
X1.778Y-36.449
X4.318Y-36.449
X6.858Y-36.449
X1.778Y-28.067
X4.318Y-28.067
X6.858Y-28.067
X1.778Y-33.655
X4.318Y-33.655
X6.858Y-33.655
X1.778Y-30.861
X4.318Y-30.861
X6.858Y-30.861
T05
X51.689Y-36.195
X51.689Y-33.655
X51.689Y-31.115
X51.689Y-28.575
X51.689Y-26.035
X51.689Y-23.495
X51.689Y-20.955
X51.689Y-18.415
X51.689Y-15.875
X51.689Y-13.335
X51.689Y-10.795
X51.689Y-8.255
X11.557Y-8.255
X11.557Y-10.795
X11.557Y-13.335
X11.557Y-15.875
X11.557Y-18.415
X11.557Y-20.955
X11.557Y-23.495
X11.557Y-26.035
X11.557Y-28.575
X11.557Y-31.115
X11.557Y-33.655
X11.557Y-36.195
X45.72Y-1.651
X43.18Y-1.651
X40.64Y-1.651
X38.1Y-1.651
X35.56Y-1.651
X33.02Y-1.651
X30.48Y-1.651
X27.94Y-1.651
X25.4Y-1.651
X22.86Y-1.651
X20.32Y-1.651
X17.78Y-1.651
X17.907Y-43.307
X20.447Y-43.307
X22.987Y-43.307
X25.527Y-43.307
X28.067Y-43.307
X30.607Y-43.307
X33.147Y-43.307
X35.687Y-43.307
X38.227Y-43.307
X40.767Y-43.307
X43.307Y-43.307
X45.847Y-43.307
T06
X78.359Y-8.763
X78.359Y-11.303
X78.359Y-13.843
X78.359Y-16.383
X78.359Y-18.923
X78.359Y-21.844
X78.359Y-24.384
X78.359Y-26.924
X78.359Y-29.464
X78.359Y-32.004
X24.13Y-12.573
X26.67Y-12.573
X29.21Y-12.573
X31.75Y-12.573
T07
X39.59Y-37.103
X16.29Y-37.103
T08
X4.0Y-4.0
X76.00047Y-4.00007
X4.0Y-41.0
X76.0Y-41.0
M30