G04 Layer: TopPasteMaskLayer*
G04 EasyEDA Pro v3.2.121, 2026-07-22 15:45:00*
G04 Gerber Generator version 0.3*
G04 Scale: 100 percent, Rotated: No, Reflected: No*
G04 Dimensions in millimeters*
G04 Leading zeros omitted, absolute positions, 4 integers and 5 decimals*
G04 Generated by custom config*
%FSLAX45Y45*%
%MOMM*%
%ADD10R,0.8X0.9*%
%ADD11R,0.8001X0.8001*%
%ADD12R,1.23X1.85999*%
%ADD13R,1.85999X1.23*%
%ADD14O,2.03551X0.57399*%
%ADD15O,1.5X0.27*%
%ADD16O,0.2715X1.5*%
%ADD17O,0.27X1.5*%
%ADD18R,2.49999X1.1*%
%ADD19R,2.34X3.59999*%
%ADD20R,2.2X1.2*%
%ADD21R,0.75001X0.5*%
%ADD22R,1.7X0.85001*%
G75*


G04 PolygonModel Start*
G36*
G01X705998Y-1251499D02*
G01X700999Y-1246497D01*
G01X700999Y-1166498D01*
G01X705998Y-1161499D01*
G01X785998Y-1161499D01*
G01X790999Y-1166498D01*
G01X790999Y-1190701D01*
G01X753999Y-1190701D01*
G01X753999Y-1223701D01*
G01X790999Y-1223701D01*
G01X790999Y-1246497D01*
G01X785998Y-1251499D01*
G01X705998Y-1251499D01*
G37*
G36*
G01X945002Y-1161501D02*
G01X950001Y-1166503D01*
G01X950001Y-1246502D01*
G01X945002Y-1251501D01*
G01X865002Y-1251501D01*
G01X860001Y-1246502D01*
G01X860001Y-1222299D01*
G01X897001Y-1222299D01*
G01X897001Y-1189299D01*
G01X860001Y-1189299D01*
G01X860001Y-1166503D01*
G01X865002Y-1161501D01*
G01X945002Y-1161501D01*
G37*
G36*
G01X6774901Y-515498D02*
G01X6779903Y-510499D01*
G01X6859902Y-510499D01*
G01X6864901Y-515498D01*
G01X6864901Y-595498D01*
G01X6859902Y-600499D01*
G01X6835699Y-600499D01*
G01X6835699Y-563499D01*
G01X6802699Y-563499D01*
G01X6802699Y-600499D01*
G01X6779903Y-600499D01*
G01X6774901Y-595498D01*
G01X6774901Y-515498D01*
G37*
G36*
G01X6864899Y-754502D02*
G01X6859897Y-759501D01*
G01X6779898Y-759501D01*
G01X6774899Y-754502D01*
G01X6774899Y-674502D01*
G01X6779898Y-669501D01*
G01X6804101Y-669501D01*
G01X6804101Y-706501D01*
G01X6837101Y-706501D01*
G01X6837101Y-669501D01*
G01X6859897Y-669501D01*
G01X6864899Y-674502D01*
G01X6864899Y-754502D01*
G37*
G36*
G01X5809102Y-666201D02*
G01X5814101Y-671203D01*
G01X5814101Y-751202D01*
G01X5809102Y-756201D01*
G01X5729102Y-756201D01*
G01X5724101Y-751202D01*
G01X5724101Y-726999D01*
G01X5761101Y-726999D01*
G01X5761101Y-693999D01*
G01X5724101Y-693999D01*
G01X5724101Y-671203D01*
G01X5729102Y-666201D01*
G01X5809102Y-666201D01*
G37*
G36*
G01X5570098Y-756199D02*
G01X5565099Y-751197D01*
G01X5565099Y-671198D01*
G01X5570098Y-666199D01*
G01X5650098Y-666199D01*
G01X5655099Y-671198D01*
G01X5655099Y-695401D01*
G01X5618099Y-695401D01*
G01X5618099Y-728401D01*
G01X5655099Y-728401D01*
G01X5655099Y-751197D01*
G01X5650098Y-756199D01*
G01X5570098Y-756199D01*
G37*
G36*
G01X5570098Y-908599D02*
G01X5565099Y-903597D01*
G01X5565099Y-823598D01*
G01X5570098Y-818599D01*
G01X5650098Y-818599D01*
G01X5655099Y-823598D01*
G01X5655099Y-847801D01*
G01X5618099Y-847801D01*
G01X5618099Y-880801D01*
G01X5655099Y-880801D01*
G01X5655099Y-903597D01*
G01X5650098Y-908599D01*
G01X5570098Y-908599D01*
G37*
G36*
G01X5809102Y-818601D02*
G01X5814101Y-823603D01*
G01X5814101Y-903602D01*
G01X5809102Y-908601D01*
G01X5729102Y-908601D01*
G01X5724101Y-903602D01*
G01X5724101Y-879399D01*
G01X5761101Y-879399D01*
G01X5761101Y-846399D01*
G01X5724101Y-846399D01*
G01X5724101Y-823603D01*
G01X5729102Y-818601D01*
G01X5809102Y-818601D01*
G37*
G36*
G01X6927301Y-515498D02*
G01X6932303Y-510499D01*
G01X7012302Y-510499D01*
G01X7017301Y-515498D01*
G01X7017301Y-595498D01*
G01X7012302Y-600499D01*
G01X6988099Y-600499D01*
G01X6988099Y-563499D01*
G01X6955099Y-563499D01*
G01X6955099Y-600499D01*
G01X6932303Y-600499D01*
G01X6927301Y-595498D01*
G01X6927301Y-515498D01*
G37*
G36*
G01X7017299Y-754502D02*
G01X7012297Y-759501D01*
G01X6932298Y-759501D01*
G01X6927299Y-754502D01*
G01X6927299Y-674502D01*
G01X6932298Y-669501D01*
G01X6956501Y-669501D01*
G01X6956501Y-706501D01*
G01X6989501Y-706501D01*
G01X6989501Y-669501D01*
G01X7012297Y-669501D01*
G01X7017299Y-674502D01*
G01X7017299Y-754502D01*
G37*
G36*
G01X3853901Y-1760098D02*
G01X3858903Y-1755099D01*
G01X3938902Y-1755099D01*
G01X3943901Y-1760098D01*
G01X3943901Y-1840098D01*
G01X3938902Y-1845099D01*
G01X3914699Y-1845099D01*
G01X3914699Y-1808099D01*
G01X3881699Y-1808099D01*
G01X3881699Y-1845099D01*
G01X3858903Y-1845099D01*
G01X3853901Y-1840098D01*
G01X3853901Y-1760098D01*
G37*
G36*
G01X3943899Y-1999102D02*
G01X3938897Y-2004101D01*
G01X3858898Y-2004101D01*
G01X3853899Y-1999102D01*
G01X3853899Y-1919102D01*
G01X3858898Y-1914101D01*
G01X3883101Y-1914101D01*
G01X3883101Y-1951101D01*
G01X3916101Y-1951101D01*
G01X3916101Y-1914101D01*
G01X3938897Y-1914101D01*
G01X3943899Y-1919102D01*
G01X3943899Y-1999102D01*
G37*
G36*
G01X4097190Y-1298298D02*
G01X4102189Y-1303299D01*
G01X4102189Y-1383299D01*
G01X4097190Y-1388298D01*
G01X4017190Y-1388298D01*
G01X4012189Y-1383299D01*
G01X4012189Y-1359096D01*
G01X4049189Y-1359096D01*
G01X4049189Y-1326096D01*
G01X4012189Y-1326096D01*
G01X4012189Y-1303299D01*
G01X4017190Y-1298298D01*
G01X4097190Y-1298298D01*
G37*
G36*
G01X3858186Y-1388295D02*
G01X3853188Y-1383294D01*
G01X3853188Y-1303294D01*
G01X3858186Y-1298296D01*
G01X3938186Y-1298296D01*
G01X3943187Y-1303294D01*
G01X3943187Y-1327498D01*
G01X3906187Y-1327498D01*
G01X3906187Y-1360498D01*
G01X3943187Y-1360498D01*
G01X3943187Y-1383294D01*
G01X3938186Y-1388295D01*
G01X3858186Y-1388295D01*
G37*
G36*
G01X704271Y-1587641D02*
G01X699272Y-1582639D01*
G01X699272Y-1502640D01*
G01X704271Y-1497641D01*
G01X784271Y-1497641D01*
G01X789272Y-1502640D01*
G01X789272Y-1526843D01*
G01X752272Y-1526843D01*
G01X752272Y-1559843D01*
G01X789272Y-1559843D01*
G01X789272Y-1582639D01*
G01X784271Y-1587641D01*
G01X704271Y-1587641D01*
G37*
G36*
G01X943275Y-1497643D02*
G01X948273Y-1502645D01*
G01X948273Y-1582645D01*
G01X943275Y-1587643D01*
G01X863275Y-1587643D01*
G01X858274Y-1582645D01*
G01X858274Y-1558441D01*
G01X895274Y-1558441D01*
G01X895274Y-1525441D01*
G01X858274Y-1525441D01*
G01X858274Y-1502645D01*
G01X863275Y-1497643D01*
G01X943275Y-1497643D01*
G37*
G36*
G01X4094602Y-1466301D02*
G01X4099601Y-1471303D01*
G01X4099601Y-1551302D01*
G01X4094602Y-1556301D01*
G01X4014602Y-1556301D01*
G01X4009601Y-1551302D01*
G01X4009601Y-1527099D01*
G01X4046601Y-1527099D01*
G01X4046601Y-1494099D01*
G01X4009601Y-1494099D01*
G01X4009601Y-1471303D01*
G01X4014602Y-1466301D01*
G01X4094602Y-1466301D01*
G37*
G36*
G01X3855598Y-1556299D02*
G01X3850599Y-1551297D01*
G01X3850599Y-1471298D01*
G01X3855598Y-1466299D01*
G01X3935598Y-1466299D01*
G01X3940599Y-1471298D01*
G01X3940599Y-1495501D01*
G01X3903599Y-1495501D01*
G01X3903599Y-1528501D01*
G01X3940599Y-1528501D01*
G01X3940599Y-1551297D01*
G01X3935598Y-1556299D01*
G01X3855598Y-1556299D01*
G37*
G36*
G01X3245333Y-995538D02*
G01X3250331Y-1000539D01*
G01X3250331Y-1080539D01*
G01X3245333Y-1085538D01*
G01X3165333Y-1085538D01*
G01X3160332Y-1080539D01*
G01X3160332Y-1056335D01*
G01X3197332Y-1056335D01*
G01X3197332Y-1023336D01*
G01X3160332Y-1023336D01*
G01X3160332Y-1000539D01*
G01X3165333Y-995538D01*
G01X3245333Y-995538D01*
G37*
G36*
G01X3006329Y-1085535D02*
G01X3001330Y-1080534D01*
G01X3001330Y-1000534D01*
G01X3006329Y-995535D01*
G01X3086329Y-995535D01*
G01X3091330Y-1000534D01*
G01X3091330Y-1024738D01*
G01X3054330Y-1024738D01*
G01X3054330Y-1057737D01*
G01X3091330Y-1057737D01*
G01X3091330Y-1080534D01*
G01X3086329Y-1085535D01*
G01X3006329Y-1085535D01*
G37*
G36*
G01X2703256Y-1085535D02*
G01X2698257Y-1080534D01*
G01X2698257Y-1000534D01*
G01X2703256Y-995535D01*
G01X2783256Y-995535D01*
G01X2788257Y-1000534D01*
G01X2788257Y-1024738D01*
G01X2751257Y-1024738D01*
G01X2751257Y-1057737D01*
G01X2788257Y-1057737D01*
G01X2788257Y-1080534D01*
G01X2783256Y-1085535D01*
G01X2703256Y-1085535D01*
G37*
G36*
G01X2942260Y-995538D02*
G01X2947259Y-1000539D01*
G01X2947259Y-1080539D01*
G01X2942260Y-1085538D01*
G01X2862260Y-1085538D01*
G01X2857259Y-1080539D01*
G01X2857259Y-1056335D01*
G01X2894259Y-1056335D01*
G01X2894259Y-1023336D01*
G01X2857259Y-1023336D01*
G01X2857259Y-1000539D01*
G01X2862260Y-995538D01*
G01X2942260Y-995538D01*
G37*

G04 Pad Start*
G54D10*
G01X6229198Y-190500D03*
G01X6369202Y-190500D03*
G01X6369202Y-368300D03*
G01X6229198Y-368300D03*
G01X755498Y-1028700D03*
G01X895502Y-1028700D03*
G01X6966102Y-889000D03*
G01X6826098Y-889000D03*
G01X2276200Y-1853126D03*
G01X2136195Y-1853126D03*
G01X2279802Y-2079125D03*
G01X2139798Y-2079125D03*
G01X7512202Y-3721100D03*
G01X7372198Y-3721100D03*
G01X7512435Y-3550152D03*
G01X7372430Y-3550152D03*
G54D11*
G01X4354431Y-1332484D03*
G01X4194411Y-1332992D03*
G01X4352290Y-1510284D03*
G01X4192270Y-1510792D03*
G01X740410Y-1372616D03*
G01X900430Y-1372108D03*
G54D12*
G01X535991Y-1041400D03*
G01X99009Y-1041400D03*
G54D13*
G01X4445000Y-563728D03*
G01X4445000Y-1000709D03*
G01X4114800Y-563728D03*
G01X4114800Y-1000709D03*
G01X3784600Y-563728D03*
G01X3784600Y-1000709D03*
G01X3454400Y-563728D03*
G01X3454400Y-1000709D03*
G54D14*
G01X6009716Y-596900D03*
G01X6009716Y-723900D03*
G01X6009716Y-850900D03*
G01X6009716Y-977900D03*
G01X6563284Y-596900D03*
G01X6563284Y-723900D03*
G01X6563284Y-850900D03*
G01X6563284Y-977900D03*
G54D15*
G01X2790119Y-1962294D03*
G01X2790119Y-2012307D03*
G01X2790119Y-2062294D03*
G01X2790119Y-2112307D03*
G01X2790119Y-2162294D03*
G01X2790119Y-2212306D03*
G01X2790119Y-2262294D03*
G01X2790119Y-2312306D03*
G01X2790119Y-2362293D03*
G01X2790119Y-2412306D03*
G01X2790119Y-2462293D03*
G01X2790119Y-2512306D03*
G54D17*
G01X2940106Y-2662293D03*
G01X2990119Y-2662293D03*
G01X3040106Y-2662293D03*
G01X3090119Y-2662293D03*
G01X3140106Y-2662293D03*
G01X3190119Y-2662293D03*
G01X3240106Y-2662293D03*
G01X3290118Y-2662293D03*
G01X3340106Y-2662293D03*
G01X3390118Y-2662293D03*
G01X3440105Y-2662293D03*
G01X3490118Y-2662293D03*
G54D15*
G01X3640105Y-2512306D03*
G01X3640105Y-2462293D03*
G01X3640105Y-2412306D03*
G01X3640105Y-2362293D03*
G01X3640105Y-2312306D03*
G01X3640105Y-2262294D03*
G01X3640105Y-2212306D03*
G01X3640105Y-2162294D03*
G01X3640105Y-2112307D03*
G01X3640105Y-2062294D03*
G01X3640105Y-2012307D03*
G01X3640105Y-1962294D03*
G54D17*
G01X3490118Y-1812307D03*
G01X3440105Y-1812307D03*
G01X3390118Y-1812307D03*
G01X3340106Y-1812307D03*
G01X3290118Y-1812307D03*
G01X3240106Y-1812307D03*
G01X3190119Y-1812307D03*
G01X3140106Y-1812307D03*
G01X3090119Y-1812307D03*
G01X3040106Y-1812307D03*
G01X2990119Y-1812307D03*
G01X2940106Y-1812307D03*
G54D18*
G01X325305Y-1916303D03*
G01X325305Y-2146300D03*
G01X325305Y-2376297D03*
G54D19*
G01X919297Y-2146300D03*
G54D20*
G01X7152688Y-4370299D03*
G01X7152688Y-4170299D03*
G01X7152688Y-3970299D03*
G01X7152688Y-3770300D03*
G01X7152688Y-3570300D03*
G01X7152688Y-3370301D03*
G01X7152688Y-3170301D03*
G01X7152688Y-2970301D03*
G01X5572707Y-2970301D03*
G01X5572707Y-3170301D03*
G01X5572707Y-3370301D03*
G01X5572707Y-3570300D03*
G01X5572707Y-3770300D03*
G01X5572707Y-3970299D03*
G01X5572707Y-4170299D03*
G01X5572707Y-4370299D03*
G54D21*
G01X2821000Y-674700D03*
G01X3021000Y-674700D03*
G01X2821000Y-774700D03*
G01X3021000Y-774700D03*
G01X2821000Y-874700D03*
G01X3021000Y-874700D03*
G54D22*
G01X2480275Y-2081624D03*
G01X2480275Y-1850626D03*
G04 Pad End*

M02*

