;TYPE=PLATED
;Layer: PTH_Through
;EasyEDA Pro Client v3.2.121, 2026-05-18 14:24:10
;Gerber Generator version 0.3
M48
METRIC,LZ,0000.00000
;Hole size 1 = 0.30480 METRIC
T01C0.30480
;Hole size 2 = 0.30500 METRIC
T02C0.30500
;Hole size 3 = 0.50800 METRIC
T03C0.50800
;Hole size 4 = 0.60000 METRIC
T04C0.60000
;Hole size 5 = 1.00000 METRIC
T05C1.00000
;Hole size 6 = 1.20000 METRIC
T06C1.20000
;Hole size 7 = 3.20040 METRIC
T07C3.20040
%
G05
G90
T01
X89.41562Y-49.14138
X90.41638Y-49.14138
X90.41638Y-48.14062
X89.41562Y-48.14062
T02
X21.082Y-68.834
X24.765Y-68.834
X22.225Y-70.231
X25.146Y-70.231
X25.652Y-76.5832
X25.652Y-77.4932
X32.0528Y-76.5832
X32.0528Y-77.4932
X35.179Y-51.562
X35.179Y-49.276
X48.63037Y-65.41927
X47.2249Y-66.95174
X51.7083Y-69.3227
X51.06483Y-69.96617
X65.2758Y-87.376
X64.3658Y-87.376
X65.2758Y-96.393
X64.3658Y-96.393
X49.90233Y-36.69433
X50.673Y-37.84221
X50.673Y-38.8943
X50.673Y-40.40231
X50.673Y-41.79342
X50.35096Y-43.12104
X49.38069Y-44.09131
X47.32828Y-44.958
X46.10271Y-45.32033
X48.43761Y-36.449
X46.68641Y-36.87959
X46.19279Y-38.26221
X44.9765Y-39.0975
X44.577Y-40.71745
X43.49276Y-42.65021
X42.03223Y-43.18477
X41.656Y-44.62775
X41.656Y-45.847
X84.36914Y-60.02986
X86.36Y-60.02986
X84.84464Y-42.672
X83.058Y-55.499
X5.43814Y-17.36186
X10.51814Y-17.36186
X86.71814Y-83.40186
X91.79814Y-83.40186
X5.43814Y-88.48186
X5.43814Y-83.40186
X5.43814Y-63.08186
X5.43814Y-52.92186
X5.43814Y-47.84186
X5.43814Y-37.68186
X5.43814Y-12.28186
X5.43814Y-7.20186
X5.43814Y-2.12186
X10.51814Y-93.56186
X10.51814Y-88.48186
X10.51814Y-83.40186
X10.51814Y-58.00186
X10.51814Y-52.92186
X10.51814Y-47.84186
X10.51814Y-42.76186
X10.51814Y-37.68186
X10.51814Y-7.20186
X10.51814Y-2.12186
X15.59814Y-93.56186
X15.59814Y-88.48186
X15.59814Y-83.40186
X15.59814Y-78.32186
X15.59814Y-7.20186
X15.59814Y-2.12186
X20.67814Y-93.56186
X20.67814Y-88.48186
X20.67814Y-83.40186
X20.67814Y-7.20186
X20.67814Y-2.12186
X25.75814Y-93.56186
X25.75814Y-88.48186
X25.75814Y-83.40186
X25.75814Y-7.20186
X25.75814Y-2.12186
X30.83814Y-93.56186
X30.83814Y-7.20186
X30.83814Y-2.12186
X35.91814Y-93.56186
X35.91814Y-88.48186
X35.91814Y-83.40186
X35.91814Y-7.20186
X35.91814Y-2.12186
X40.99814Y-93.56186
X40.99814Y-88.48186
X40.99814Y-83.40186
X40.99814Y-78.32186
X40.99814Y-7.20186
X40.99814Y-2.12186
X46.07814Y-93.56186
X46.07814Y-88.48186
X46.07814Y-83.40186
X46.07814Y-78.32186
X46.07814Y-73.24186
X46.07814Y-7.20186
X46.07814Y-2.12186
X51.15814Y-93.56186
X51.15814Y-88.48186
X51.15814Y-83.40186
X51.15814Y-78.32186
X51.15814Y-73.24186
X51.15814Y-68.16186
X51.15814Y-7.20186
X51.15814Y-2.12186
X56.23814Y-93.56186
X56.23814Y-88.48186
X56.23814Y-83.40186
X56.23814Y-78.32186
X56.23814Y-68.16186
X56.23814Y-63.08186
X56.23814Y-7.20186
X56.23814Y-2.12186
X61.31814Y-88.48186
X61.31814Y-83.40186
X61.31814Y-73.24186
X61.31814Y-68.16186
X61.31814Y-63.08186
X61.31814Y-7.20186
X61.31814Y-2.12186
X66.39814Y-83.40186
X66.39814Y-78.32186
X66.39814Y-73.24186
X66.39814Y-68.16186
X66.39814Y-63.08186
X66.39814Y-7.20186
X66.39814Y-2.12186
X71.47814Y-93.56186
X71.47814Y-88.48186
X71.47814Y-83.40186
X71.47814Y-78.32186
X71.47814Y-73.24186
X71.47814Y-68.16186
X71.47814Y-63.08186
X71.47814Y-7.20186
X71.47814Y-2.12186
X76.55814Y-88.48186
X76.55814Y-83.40186
X76.55814Y-78.32186
X76.55814Y-73.24186
X76.55814Y-68.16186
X76.55814Y-63.08186
X76.55814Y-22.44186
X76.55814Y-17.36186
X76.55814Y-12.28186
X76.55814Y-7.20186
X76.55814Y-2.12186
X81.63814Y-93.56186
X81.63814Y-88.48186
X81.63814Y-73.24186
X81.63814Y-68.16186
X81.63814Y-63.08186
X81.63814Y-17.36186
X81.63814Y-12.28186
X81.63814Y-7.20186
X81.63814Y-2.12186
X86.71814Y-93.56186
X86.71814Y-88.48186
X86.71814Y-58.00186
X86.71814Y-37.68186
X86.71814Y-32.60186
X86.71814Y-17.36186
X86.71814Y-12.28186
X86.71814Y-7.20186
X86.71814Y-2.12186
X91.79814Y-88.48186
X91.79814Y-47.84186
X91.79814Y-17.36186
X91.79814Y-12.28186
X91.79814Y-7.20186
X91.79814Y-2.12186
X96.87814Y-68.16186
X96.87814Y-63.08186
X96.87814Y-58.00186
X96.87814Y-52.92186
X96.87814Y-47.84186
X96.87814Y-42.76186
X96.87814Y-37.68186
X96.87814Y-32.60186
X96.87814Y-27.52186
X96.87814Y-22.44186
X96.87814Y-17.36186
X96.87814Y-12.28186
X96.87814Y-7.20186
X96.87814Y-2.12186
X96.87814Y-93.56186
X96.87814Y-83.40186
X8.10514Y-31.26486
X13.18514Y-31.26486
X13.18514Y-61.74486
X18.26514Y-21.10486
X18.26514Y-31.26486
X18.26514Y-61.74486
X18.26514Y-56.66486
X18.26514Y-51.58486
X18.26514Y-46.50486
X18.26514Y-41.42486
X18.26514Y-36.34486
X23.34514Y-26.18486
X23.34514Y-21.10486
X23.34514Y-16.02486
X23.34514Y-31.26486
X23.34514Y-61.74486
X23.34514Y-56.66486
X23.34514Y-51.58486
X23.34514Y-46.50486
X23.34514Y-41.42486
X23.34514Y-36.34486
X28.42514Y-26.18486
X28.42514Y-21.10486
X28.42514Y-16.02486
X28.42514Y-31.26486
X28.42514Y-66.82486
X28.42514Y-61.74486
X28.42514Y-56.66486
X28.42514Y-51.58486
X28.42514Y-46.50486
X28.42514Y-41.42486
X28.42514Y-36.34486
X33.50514Y-26.18486
X33.50514Y-21.10486
X33.50514Y-16.02486
X33.50514Y-31.26486
X33.50514Y-46.50486
X33.50514Y-41.42486
X33.50514Y-36.34486
X33.50514Y-82.06486
X38.58514Y-26.18486
X38.58514Y-21.10486
X38.58514Y-16.02486
X38.58514Y-31.26486
X38.58514Y-36.34486
X38.58514Y-41.42486
X38.58514Y-76.98486
X38.58514Y-71.90486
X38.58514Y-66.82486
X38.58514Y-61.74486
X38.58514Y-56.66486
X43.66514Y-71.90486
X43.66514Y-66.82486
X43.66514Y-61.74486
X43.66514Y-56.66486
X43.66514Y-41.42486
X43.66514Y-36.34486
X43.66514Y-26.18486
X43.66514Y-21.10486
X43.66514Y-16.02486
X48.74514Y-61.74486
X48.74514Y-56.66486
X48.74514Y-46.50486
X48.74514Y-26.18486
X48.74514Y-21.10486
X48.74514Y-16.02486
X53.82514Y-61.74486
X53.82514Y-56.66486
X53.82514Y-36.34486
X53.82514Y-26.18486
X53.82514Y-21.10486
X53.82514Y-16.02486
X58.90514Y-56.66486
X58.90514Y-51.58486
X58.90514Y-46.50486
X58.90514Y-41.42486
X58.90514Y-26.18486
X58.90514Y-21.10486
X58.90514Y-16.02486
X63.98514Y-56.66486
X63.98514Y-51.58486
X63.98514Y-46.50486
X63.98514Y-41.42486
X63.98514Y-31.26486
X63.98514Y-26.18486
X63.98514Y-21.10486
X63.98514Y-16.02486
X69.06514Y-56.66486
X69.06514Y-51.58486
X69.06514Y-46.50486
X69.06514Y-41.42486
X69.06514Y-31.26486
X69.06514Y-26.18486
X69.06514Y-21.10486
X69.06514Y-16.02486
X74.14514Y-56.66486
X74.14514Y-51.58486
X74.14514Y-46.50486
X74.14514Y-41.42486
X74.14514Y-31.26486
X79.22514Y-41.42486
X79.22514Y-31.26486
X11.78814Y-70.67685
X16.86814Y-70.67685
X12.70643Y-21.04703
X86.233Y-27.813
X86.741Y-54.991
X84.455Y-86.614
X83.566Y-86.614
X82.677Y-86.614
X86.995Y-84.709
X79.375Y-86.614
X81.153Y-86.614
X80.264Y-86.614
X88.519Y-84.328
X90.297Y-84.328
X89.408Y-84.328
X88.519Y-83.566
X90.297Y-83.566
X89.408Y-83.566
X85.09Y-85.344
X85.09Y-83.566
X85.09Y-84.455
X22.479Y-67.31
X23.368Y-67.564
T03
X85.471Y-39.1706
X78.486Y-35.814
X43.815Y-32.512
X36.703Y-32.639
T04
X60.69907Y-92.59396G85X60.69907Y-93.49396
X69.34909Y-92.59397G85X69.34909Y-93.494
X60.69902Y-96.94403G85X60.69902Y-97.54403
X69.34899Y-96.94403G85X69.34899Y-97.54403
T05
X91.44Y-64.389
X93.98Y-64.389
T06
X89.74511Y-86.05418G85X92.24513Y-86.05418
X92.24488Y-92.25382G85X89.74485Y-92.25382
X95.69514Y-87.80391G85X95.69514Y-90.30393
T07
X5.21339Y-56.38969
X5.27046Y-93.42954
X77.27Y-56.43
X77.27049Y-93.42954
X4.58339Y-4.57369
X76.64Y-4.614
X4.64046Y-41.61354
X76.64049Y-41.61354
M30