G04 Layer: BottomLayer*
G04 EasyEDA Pro v3.2.121, 2026-05-18 14:24:10*
G04 Gerber Generator version 0.3*
G04 Scale: 100 percent, Rotated: No, Reflected: No*
G04 Dimensions in millimeters*
G04 Leading zeros omitted, absolute positions, 4 integers and 5 decimals*
G04 Generated by one-click*
%FSLAX45Y45*%
%MOMM*%
%ADD10C,0.2032*%
%ADD11C,0.254*%
%ADD12C,3.2004*%
%ADD13C,1.6*%
%ADD14O,4.59999X2.0*%
%ADD15O,2.0X4.59999*%
%ADD16O,1.1083X2.0*%
%ADD17O,1.1X2.0*%
%ADD18O,1.2X1.8*%
%ADD19C,1.016*%
%ADD20C,0.61*%
%ADD21C,0.6096*%
%ADD22C,1.27*%
G75*


G04 Copper Start*
G36*
G01X9864186Y-35814D02*
G01X9864186Y-9864186D01*
G01X35814Y-9864186D01*
G01X35814Y-9694403D01*
G01X5974088Y-9694403D01*
G01X5974088Y-9754403D01*
G01X5975929Y-9773095D01*
G01X5981381Y-9791069D01*
G01X5990235Y-9807634D01*
G01X6002151Y-9822153D01*
G01X6016670Y-9834069D01*
G01X6033235Y-9842923D01*
G01X6051209Y-9848375D01*
G01X6069902Y-9850217D01*
G01X6088594Y-9848375D01*
G01X6106568Y-9842923D01*
G01X6123133Y-9834069D01*
G01X6137652Y-9822153D01*
G01X6149568Y-9807634D01*
G01X6158422Y-9791069D01*
G01X6163874Y-9773095D01*
G01X6165715Y-9754403D01*
G01X6165715Y-9694403D01*
G01X6163874Y-9675710D01*
G01X6158422Y-9657736D01*
G01X6149568Y-9641171D01*
G01X6145485Y-9636196D01*
G01X6370339Y-9636196D01*
G01X6371210Y-9650452D01*
G01X6375114Y-9664191D01*
G01X6381870Y-9676775D01*
G01X6391163Y-9687621D01*
G01X6402563Y-9696225D01*
G01X6415541Y-9702188D01*
G01X6429495Y-9705235D01*
G01X6443778Y-9705222D01*
G01X6457727Y-9702152D01*
G01X6470695Y-9696166D01*
G01X6482080Y-9687542D01*
G01X6493465Y-9696166D01*
G01X6506433Y-9702152D01*
G01X6520382Y-9705222D01*
G01X6534665Y-9705235D01*
G01X6548619Y-9702188D01*
G01X6561597Y-9696225D01*
G01X6564011Y-9694403D01*
G01X6839085Y-9694403D01*
G01X6839085Y-9754403D01*
G01X6840926Y-9773095D01*
G01X6846378Y-9791069D01*
G01X6855232Y-9807634D01*
G01X6867148Y-9822153D01*
G01X6881667Y-9834069D01*
G01X6898232Y-9842923D01*
G01X6916206Y-9848375D01*
G01X6934899Y-9850217D01*
G01X6953591Y-9848375D01*
G01X6971565Y-9842923D01*
G01X6988130Y-9834069D01*
G01X7002649Y-9822153D01*
G01X7014565Y-9807634D01*
G01X7023419Y-9791069D01*
G01X7028871Y-9773095D01*
G01X7030712Y-9754403D01*
G01X7030712Y-9694403D01*
G01X7028871Y-9675710D01*
G01X7023419Y-9657736D01*
G01X7014565Y-9641171D01*
G01X7002649Y-9626652D01*
G01X6988130Y-9614736D01*
G01X6971565Y-9605882D01*
G01X6953591Y-9600430D01*
G01X6934899Y-9598589D01*
G01X6916206Y-9600430D01*
G01X6898232Y-9605882D01*
G01X6881667Y-9614736D01*
G01X6867148Y-9626652D01*
G01X6855232Y-9641171D01*
G01X6846378Y-9657736D01*
G01X6840926Y-9675710D01*
G01X6839085Y-9694403D01*
G01X6839085Y-9694403D01*
G01X6564011Y-9694403D01*
G01X6572997Y-9687621D01*
G01X6582290Y-9676775D01*
G01X6589046Y-9664191D01*
G01X6592950Y-9650452D01*
G01X6593821Y-9636196D01*
G01X6591620Y-9622084D01*
G01X6586449Y-9608770D01*
G01X6578546Y-9596873D01*
G01X6576959Y-9594716D01*
G01X6576094Y-9593145D01*
G01X6576094Y-9583400D01*
G01X6574441Y-9570844D01*
G01X6569594Y-9559143D01*
G01X6561885Y-9549095D01*
G01X6550914Y-9538125D01*
G01X6550914Y-9348527D01*
G01X6721039Y-9348527D01*
G01X6721094Y-9364764D01*
G01X6721094Y-9364764D01*
G01X6724846Y-9380562D01*
G01X6732097Y-9395090D01*
G01X6742468Y-9407585D01*
G01X6755412Y-9417388D01*
G01X6770248Y-9423986D01*
G01X6786198Y-9427030D01*
G01X6802422Y-9426362D01*
G01X6818067Y-9422016D01*
G01X6832310Y-9414220D01*
G01X6844404Y-9403385D01*
G01X6853711Y-9390080D01*
G01X6863747Y-9405820D01*
G01X6876789Y-9419176D01*
G01X6892286Y-9429584D01*
G01X6909584Y-9436602D01*
G01X6927951Y-9439936D01*
G01X6946612Y-9439443D01*
G01X6964778Y-9435146D01*
G01X6981682Y-9427225D01*
G01X6996608Y-9416014D01*
G01X7008928Y-9401989D01*
G01X7018119Y-9385741D01*
G01X7023794Y-9367957D01*
G01X7025712Y-9349388D01*
G01X7025712Y-9342954D01*
G01X7531215Y-9342954D01*
G01X7533208Y-9370824D01*
G01X7539147Y-9398127D01*
G01X7548912Y-9424306D01*
G01X7562303Y-9448830D01*
G01X7579047Y-9471198D01*
G01X7598805Y-9490955D01*
G01X7621173Y-9507700D01*
G01X7645696Y-9521091D01*
G01X7671876Y-9530855D01*
G01X7699179Y-9536795D01*
G01X7727049Y-9538788D01*
G01X7754919Y-9536795D01*
G01X7782222Y-9530855D01*
G01X7808401Y-9521091D01*
G01X7832925Y-9507700D01*
G01X7855293Y-9490955D01*
G01X7875050Y-9471198D01*
G01X7891795Y-9448830D01*
G01X7905186Y-9424306D01*
G01X7914950Y-9398127D01*
G01X7920890Y-9370824D01*
G01X7922883Y-9342954D01*
G01X7920890Y-9315084D01*
G01X7914950Y-9287781D01*
G01X7905186Y-9261601D01*
G01X7891795Y-9237078D01*
G01X7875050Y-9214710D01*
G01X7874507Y-9214166D01*
G01X8834137Y-9214166D01*
G01X8834137Y-9236597D01*
G01X8837829Y-9258722D01*
G01X8845112Y-9279937D01*
G01X8855788Y-9299665D01*
G01X8869565Y-9317366D01*
G01X8886068Y-9332558D01*
G01X8904847Y-9344826D01*
G01X8925388Y-9353837D01*
G01X8947133Y-9359343D01*
G01X8969487Y-9361195D01*
G01X9229486Y-9361195D01*
G01X9251840Y-9359343D01*
G01X9273585Y-9353837D01*
G01X9294126Y-9344826D01*
G01X9312905Y-9332558D01*
G01X9329408Y-9317366D01*
G01X9343185Y-9299665D01*
G01X9353861Y-9279937D01*
G01X9361144Y-9258722D01*
G01X9364836Y-9236597D01*
G01X9364836Y-9214166D01*
G01X9361144Y-9192041D01*
G01X9353861Y-9170826D01*
G01X9343185Y-9151098D01*
G01X9329408Y-9133397D01*
G01X9312905Y-9118205D01*
G01X9294126Y-9105937D01*
G01X9273585Y-9096927D01*
G01X9251840Y-9091420D01*
G01X9229486Y-9089568D01*
G01X9229486Y-9089568D01*
G01X8969487Y-9089568D01*
G01X8947133Y-9091420D01*
G01X8925388Y-9096927D01*
G01X8904847Y-9105937D01*
G01X8886068Y-9118205D01*
G01X8869565Y-9133397D01*
G01X8855788Y-9151098D01*
G01X8845112Y-9170826D01*
G01X8837829Y-9192041D01*
G01X8834137Y-9214166D01*
G01X7874507Y-9214166D01*
G01X7855293Y-9194952D01*
G01X7832925Y-9178208D01*
G01X7808401Y-9164817D01*
G01X7782222Y-9155053D01*
G01X7754919Y-9149113D01*
G01X7727049Y-9147120D01*
G01X7699179Y-9149113D01*
G01X7671876Y-9155053D01*
G01X7645696Y-9164817D01*
G01X7621173Y-9178208D01*
G01X7598805Y-9194952D01*
G01X7579047Y-9214710D01*
G01X7562303Y-9237078D01*
G01X7548912Y-9261601D01*
G01X7539147Y-9287781D01*
G01X7533208Y-9315084D01*
G01X7531215Y-9342954D01*
G01X7531215Y-9342954D01*
G01X7025712Y-9342954D01*
G01X7025712Y-9259388D01*
G01X7023728Y-9240507D01*
G01X7017861Y-9222451D01*
G01X7008368Y-9206009D01*
G01X6995665Y-9191901D01*
G01X6980305Y-9180741D01*
G01X6962962Y-9173019D01*
G01X6944391Y-9169072D01*
G01X6925406Y-9169072D01*
G01X6906835Y-9173019D01*
G01X6889492Y-9180741D01*
G01X6874132Y-9191901D01*
G01X6861429Y-9206009D01*
G01X6851936Y-9222451D01*
G01X6846069Y-9240507D01*
G01X6844085Y-9259388D01*
G01X6844085Y-9309073D01*
G01X6831918Y-9298320D01*
G01X6817622Y-9290620D01*
G01X6801948Y-9286380D01*
G01X6785720Y-9285822D01*
G01X6769792Y-9288974D01*
G01X6755000Y-9295672D01*
G01X6742123Y-9305563D01*
G01X6731837Y-9318127D01*
G01X6724684Y-9332704D01*
G01X6721039Y-9348527D01*
G01X6550914Y-9348527D01*
G01X6550914Y-8838775D01*
G01X6561885Y-8827805D01*
G01X6569594Y-8817757D01*
G01X6574441Y-8806056D01*
G01X6576094Y-8793500D01*
G01X6576094Y-8783755D01*
G01X6576959Y-8782184D01*
G01X6578546Y-8780027D01*
G01X6581624Y-8775393D01*
G01X9433700Y-8775393D01*
G01X9433700Y-9035392D01*
G01X9435552Y-9057746D01*
G01X9441058Y-9079491D01*
G01X9450069Y-9100032D01*
G01X9462337Y-9118811D01*
G01X9477529Y-9135314D01*
G01X9495230Y-9149091D01*
G01X9514958Y-9159767D01*
G01X9536173Y-9167050D01*
G01X9558298Y-9170742D01*
G01X9580729Y-9170742D01*
G01X9602854Y-9167050D01*
G01X9624069Y-9159767D01*
G01X9643797Y-9149091D01*
G01X9661498Y-9135314D01*
G01X9676690Y-9118811D01*
G01X9688958Y-9100032D01*
G01X9697969Y-9079491D01*
G01X9703475Y-9057746D01*
G01X9705327Y-9035392D01*
G01X9705327Y-8775393D01*
G01X9703475Y-8753038D01*
G01X9697969Y-8731294D01*
G01X9688958Y-8710752D01*
G01X9676690Y-8691974D01*
G01X9661498Y-8675471D01*
G01X9643797Y-8661694D01*
G01X9624069Y-8651018D01*
G01X9602854Y-8643735D01*
G01X9580729Y-8640043D01*
G01X9558298Y-8640043D01*
G01X9536173Y-8643735D01*
G01X9514958Y-8651018D01*
G01X9495230Y-8661694D01*
G01X9477529Y-8675471D01*
G01X9462337Y-8691974D01*
G01X9450069Y-8710752D01*
G01X9441058Y-8731294D01*
G01X9435552Y-8753038D01*
G01X9433700Y-8775393D01*
G01X9433700Y-8775393D01*
G01X6581624Y-8775393D01*
G01X6586449Y-8768130D01*
G01X6591620Y-8754816D01*
G01X6593821Y-8740704D01*
G01X6592950Y-8726448D01*
G01X6589046Y-8712709D01*
G01X6582290Y-8700125D01*
G01X6572997Y-8689279D01*
G01X6561597Y-8680675D01*
G01X6548619Y-8674712D01*
G01X6534665Y-8671665D01*
G01X6520382Y-8671678D01*
G01X6506433Y-8674748D01*
G01X6493465Y-8680734D01*
G01X6482080Y-8689358D01*
G01X6470695Y-8680734D01*
G01X6457727Y-8674748D01*
G01X6443778Y-8671678D01*
G01X6429495Y-8671665D01*
G01X6415541Y-8674712D01*
G01X6402563Y-8680675D01*
G01X6391163Y-8689279D01*
G01X6381870Y-8700125D01*
G01X6375114Y-8712709D01*
G01X6371210Y-8726448D01*
G01X6370339Y-8740704D01*
G01X6372540Y-8754816D01*
G01X6377711Y-8768130D01*
G01X6385614Y-8780027D01*
G01X6387201Y-8782184D01*
G01X6388066Y-8783755D01*
G01X6388066Y-8793500D01*
G01X6389719Y-8806056D01*
G01X6394566Y-8817757D01*
G01X6402275Y-8827805D01*
G01X6413246Y-8838775D01*
G01X6413246Y-9538125D01*
G01X6402275Y-9549095D01*
G01X6402275Y-9549095D01*
G01X6394566Y-9559143D01*
G01X6389719Y-9570844D01*
G01X6388066Y-9583400D01*
G01X6388066Y-9593145D01*
G01X6387201Y-9594716D01*
G01X6385614Y-9596873D01*
G01X6377711Y-9608770D01*
G01X6372540Y-9622084D01*
G01X6370339Y-9636196D01*
G01X6145485Y-9636196D01*
G01X6137652Y-9626652D01*
G01X6123133Y-9614736D01*
G01X6106568Y-9605882D01*
G01X6088594Y-9600430D01*
G01X6069902Y-9598589D01*
G01X6051209Y-9600430D01*
G01X6033235Y-9605882D01*
G01X6016670Y-9614736D01*
G01X6002151Y-9626652D01*
G01X5990235Y-9641171D01*
G01X5981381Y-9657736D01*
G01X5975929Y-9675710D01*
G01X5974088Y-9694403D01*
G01X5974088Y-9694403D01*
G01X35814Y-9694403D01*
G01X35814Y-9342954D01*
G01X331212Y-9342954D01*
G01X333205Y-9370824D01*
G01X339145Y-9398127D01*
G01X348909Y-9424306D01*
G01X362300Y-9448830D01*
G01X379044Y-9471198D01*
G01X398802Y-9490955D01*
G01X421170Y-9507700D01*
G01X445694Y-9521091D01*
G01X471873Y-9530855D01*
G01X499176Y-9536795D01*
G01X527046Y-9538788D01*
G01X554916Y-9536795D01*
G01X582219Y-9530855D01*
G01X608398Y-9521091D01*
G01X632922Y-9507700D01*
G01X655290Y-9490955D01*
G01X675047Y-9471198D01*
G01X691792Y-9448830D01*
G01X705183Y-9424306D01*
G01X714947Y-9398127D01*
G01X720887Y-9370824D01*
G01X722880Y-9342954D01*
G01X720887Y-9315084D01*
G01X714947Y-9287781D01*
G01X705183Y-9261601D01*
G01X703974Y-9259388D01*
G01X5979088Y-9259388D01*
G01X5979088Y-9349388D01*
G01X5981007Y-9367959D01*
G01X5986683Y-9385745D01*
G01X5995876Y-9401994D01*
G01X6008198Y-9416020D01*
G01X6023127Y-9427230D01*
G01X6040034Y-9435150D01*
G01X6058202Y-9439445D01*
G01X6076866Y-9439935D01*
G01X6095234Y-9436597D01*
G01X6112533Y-9429574D01*
G01X6128029Y-9419162D01*
G01X6141069Y-9405801D01*
G01X6151101Y-9390055D01*
G01X6160405Y-9403366D01*
G01X6172497Y-9414207D01*
G01X6186741Y-9422009D01*
G01X6202388Y-9426359D01*
G01X6218615Y-9427031D01*
G01X6234568Y-9423989D01*
G01X6249408Y-9417392D01*
G01X6262355Y-9407587D01*
G01X6272727Y-9395091D01*
G01X6279981Y-9380560D01*
G01X6283733Y-9364759D01*
G01X6283733Y-9364759D01*
G01X6283786Y-9348519D01*
G01X6280138Y-9332693D01*
G01X6272981Y-9318115D01*
G01X6262690Y-9305551D01*
G01X6249808Y-9295662D01*
G01X6235012Y-9288967D01*
G01X6219079Y-9285819D01*
G01X6202849Y-9286384D01*
G01X6187174Y-9290632D01*
G01X6172879Y-9298340D01*
G01X6160715Y-9309101D01*
G01X6160715Y-9259388D01*
G01X6158731Y-9240507D01*
G01X6152864Y-9222451D01*
G01X6143371Y-9206009D01*
G01X6130668Y-9191901D01*
G01X6115308Y-9180741D01*
G01X6097965Y-9173019D01*
G01X6079394Y-9169072D01*
G01X6060409Y-9169072D01*
G01X6041838Y-9173019D01*
G01X6024495Y-9180741D01*
G01X6009135Y-9191901D01*
G01X5996432Y-9206009D01*
G01X5986939Y-9222451D01*
G01X5981072Y-9240507D01*
G01X5979088Y-9259388D01*
G01X703974Y-9259388D01*
G01X691792Y-9237078D01*
G01X675047Y-9214710D01*
G01X655290Y-9194952D01*
G01X632922Y-9178208D01*
G01X608398Y-9164817D01*
G01X582219Y-9155053D01*
G01X554916Y-9149113D01*
G01X527046Y-9147120D01*
G01X499176Y-9149113D01*
G01X471873Y-9155053D01*
G01X445694Y-9164817D01*
G01X421170Y-9178208D01*
G01X398802Y-9194952D01*
G01X379044Y-9214710D01*
G01X362300Y-9237078D01*
G01X348909Y-9261601D01*
G01X339145Y-9287781D01*
G01X333205Y-9315084D01*
G01X331212Y-9342954D01*
G01X331212Y-9342954D01*
G01X35814Y-9342954D01*
G01X35814Y-8661400D01*
G01X7871186Y-8661400D01*
G01X7872940Y-8676553D01*
G01X7878111Y-8690904D01*
G01X7886424Y-8703694D01*
G01X7897440Y-8714246D01*
G01X7910575Y-8722002D01*
G01X7925135Y-8726551D01*
G01X7940350Y-8727653D01*
G01X7955413Y-8725249D01*
G01X7969529Y-8719466D01*
G01X7981950Y-8710611D01*
G01X7995206Y-8719919D01*
G01X8010324Y-8725736D01*
G01X8026400Y-8727714D01*
G01X8042476Y-8725736D01*
G01X8057594Y-8719919D01*
G01X8070850Y-8710611D01*
G01X8083271Y-8719466D01*
G01X8097387Y-8725249D01*
G01X8112450Y-8727653D01*
G01X8127665Y-8726551D01*
G01X8142225Y-8722002D01*
G01X8155360Y-8714246D01*
G01X8166376Y-8703694D01*
G01X8174689Y-8690904D01*
G01X8179860Y-8676553D01*
G01X8181614Y-8661400D01*
G01X8201386Y-8661400D01*
G01X8203140Y-8676553D01*
G01X8208311Y-8690904D01*
G01X8216624Y-8703694D01*
G01X8227640Y-8714246D01*
G01X8240775Y-8722002D01*
G01X8255335Y-8726551D01*
G01X8270550Y-8727653D01*
G01X8285613Y-8725249D01*
G01X8299729Y-8719466D01*
G01X8312150Y-8710611D01*
G01X8325406Y-8719919D01*
G01X8340524Y-8725736D01*
G01X8356600Y-8727714D01*
G01X8372676Y-8725736D01*
G01X8387794Y-8719919D01*
G01X8401050Y-8710611D01*
G01X8413471Y-8719466D01*
G01X8427587Y-8725249D01*
G01X8442650Y-8727653D01*
G01X8457865Y-8726551D01*
G01X8472425Y-8722002D01*
G01X8485560Y-8714246D01*
G01X8496576Y-8703694D01*
G01X8504889Y-8690904D01*
G01X8510060Y-8676553D01*
G01X8511814Y-8661400D01*
G01X8510060Y-8646247D01*
G01X8504889Y-8631896D01*
G01X8496576Y-8619106D01*
G01X8485560Y-8608554D01*
G01X8472425Y-8600798D01*
G01X8457865Y-8596249D01*
G01X8442650Y-8595147D01*
G01X8427587Y-8597551D01*
G01X8413471Y-8603334D01*
G01X8401050Y-8612189D01*
G01X8387794Y-8602881D01*
G01X8372676Y-8597064D01*
G01X8356600Y-8595086D01*
G01X8340524Y-8597064D01*
G01X8325406Y-8602881D01*
G01X8312150Y-8612189D01*
G01X8312150Y-8612189D01*
G01X8299729Y-8603334D01*
G01X8285613Y-8597551D01*
G01X8270550Y-8595147D01*
G01X8255335Y-8596249D01*
G01X8240775Y-8600798D01*
G01X8227640Y-8608554D01*
G01X8216624Y-8619106D01*
G01X8208311Y-8631896D01*
G01X8203140Y-8646247D01*
G01X8201386Y-8661400D01*
G01X8181614Y-8661400D01*
G01X8179860Y-8646247D01*
G01X8174689Y-8631896D01*
G01X8166376Y-8619106D01*
G01X8155360Y-8608554D01*
G01X8142225Y-8600798D01*
G01X8127665Y-8596249D01*
G01X8112450Y-8595147D01*
G01X8097387Y-8597551D01*
G01X8083271Y-8603334D01*
G01X8070850Y-8612189D01*
G01X8057594Y-8602881D01*
G01X8042476Y-8597064D01*
G01X8026400Y-8595086D01*
G01X8010324Y-8597064D01*
G01X7995206Y-8602881D01*
G01X7981950Y-8612189D01*
G01X7981950Y-8612189D01*
G01X7969529Y-8603334D01*
G01X7955413Y-8597551D01*
G01X7940350Y-8595147D01*
G01X7925135Y-8596249D01*
G01X7910575Y-8600798D01*
G01X7897440Y-8608554D01*
G01X7886424Y-8619106D01*
G01X7878111Y-8631896D01*
G01X7872940Y-8646247D01*
G01X7871186Y-8661400D01*
G01X35814Y-8661400D01*
G01X35814Y-8445500D01*
G01X8442686Y-8445500D01*
G01X8444664Y-8461576D01*
G01X8450481Y-8476694D01*
G01X8459789Y-8489950D01*
G01X8450934Y-8502371D01*
G01X8445151Y-8516487D01*
G01X8442747Y-8531550D01*
G01X8443849Y-8546765D01*
G01X8448398Y-8561325D01*
G01X8456154Y-8574460D01*
G01X8466706Y-8585476D01*
G01X8479496Y-8593789D01*
G01X8493847Y-8598960D01*
G01X8509000Y-8600714D01*
G01X8509000Y-8600714D01*
G01X8524153Y-8598960D01*
G01X8538504Y-8593789D01*
G01X8551294Y-8585476D01*
G01X8561846Y-8574460D01*
G01X8569602Y-8561325D01*
G01X8574151Y-8546765D01*
G01X8575253Y-8531550D01*
G01X8572849Y-8516487D01*
G01X8567066Y-8502371D01*
G01X8558211Y-8489950D01*
G01X8567519Y-8476694D01*
G01X8569748Y-8470900D01*
G01X8633186Y-8470900D01*
G01X8635113Y-8486770D01*
G01X8640782Y-8501718D01*
G01X8649863Y-8514874D01*
G01X8661829Y-8525475D01*
G01X8675985Y-8532905D01*
G01X8691507Y-8536731D01*
G01X8707493Y-8536731D01*
G01X8723015Y-8532905D01*
G01X8737171Y-8525475D01*
G01X8749137Y-8514874D01*
G01X8758218Y-8501718D01*
G01X8763887Y-8486770D01*
G01X8765814Y-8470900D01*
G01X8763887Y-8455030D01*
G01X8758218Y-8440082D01*
G01X8749137Y-8426926D01*
G01X8737171Y-8416325D01*
G01X8723015Y-8408895D01*
G01X8707493Y-8405069D01*
G01X8691507Y-8405069D01*
G01X8675985Y-8408895D01*
G01X8661829Y-8416325D01*
G01X8649863Y-8426926D01*
G01X8640782Y-8440082D01*
G01X8635113Y-8455030D01*
G01X8633186Y-8470900D01*
G01X8633186Y-8470900D01*
G01X8569748Y-8470900D01*
G01X8573336Y-8461576D01*
G01X8575314Y-8445500D01*
G01X8573336Y-8429424D01*
G01X8567519Y-8414306D01*
G01X8558211Y-8401050D01*
G01X8567066Y-8388629D01*
G01X8572849Y-8374513D01*
G01X8575253Y-8359450D01*
G01X8574484Y-8348838D01*
G01X8786042Y-8348838D01*
G01X8786110Y-8364920D01*
G01X8790048Y-8380513D01*
G01X8797623Y-8394700D01*
G01X8790048Y-8408887D01*
G01X8786110Y-8424480D01*
G01X8786042Y-8440562D01*
G01X8789847Y-8456188D01*
G01X8797302Y-8470438D01*
G01X8807969Y-8482475D01*
G01X8821219Y-8491590D01*
G01X8836274Y-8497247D01*
G01X8852248Y-8499113D01*
G01X8868201Y-8497079D01*
G01X8883196Y-8491265D01*
G01X8896350Y-8482011D01*
G01X8902778Y-8487131D01*
G01X8884335Y-8499635D01*
G01X8868185Y-8514985D01*
G01X8854762Y-8532770D01*
G01X8844428Y-8552511D01*
G01X8837460Y-8573675D01*
G01X8834047Y-8595694D01*
G01X8834280Y-8617975D01*
G01X8838153Y-8639917D01*
G01X8845562Y-8660931D01*
G01X8856307Y-8680451D01*
G01X8870099Y-8697951D01*
G01X8886566Y-8712961D01*
G01X8905267Y-8725076D01*
G01X8925696Y-8733970D01*
G01X8947305Y-8739404D01*
G01X8969512Y-8741232D01*
G01X9229512Y-8741232D01*
G01X9251866Y-8739380D01*
G01X9273610Y-8733873D01*
G01X9294152Y-8724863D01*
G01X9312930Y-8712595D01*
G01X9329433Y-8697403D01*
G01X9343210Y-8679702D01*
G01X9353886Y-8659974D01*
G01X9361170Y-8638759D01*
G01X9364862Y-8616634D01*
G01X9364862Y-8594203D01*
G01X9361170Y-8572078D01*
G01X9353886Y-8550863D01*
G01X9343210Y-8531135D01*
G01X9329433Y-8513434D01*
G01X9312930Y-8498242D01*
G01X9294152Y-8485974D01*
G01X9273610Y-8476963D01*
G01X9251866Y-8471457D01*
G01X9229512Y-8469605D01*
G01X9084863Y-8469605D01*
G01X9092032Y-8455432D01*
G01X9095626Y-8439962D01*
G01X9095438Y-8424080D01*
G01X9091479Y-8408699D01*
G01X9083977Y-8394700D01*
G01X9091552Y-8380513D01*
G01X9095490Y-8364920D01*
G01X9095558Y-8348838D01*
G01X9091753Y-8333212D01*
G01X9084298Y-8318962D01*
G01X9073631Y-8306925D01*
G01X9060381Y-8297810D01*
G01X9045326Y-8292153D01*
G01X9029352Y-8290287D01*
G01X9013399Y-8292321D01*
G01X8998404Y-8298135D01*
G01X8985250Y-8307389D01*
G01X8971994Y-8298081D01*
G01X8956876Y-8292264D01*
G01X8940800Y-8290286D01*
G01X8940800Y-8290286D01*
G01X8924724Y-8292264D01*
G01X8909606Y-8298081D01*
G01X8896350Y-8307389D01*
G01X8883196Y-8298135D01*
G01X8868201Y-8292321D01*
G01X8852248Y-8290287D01*
G01X8836274Y-8292153D01*
G01X8821219Y-8297810D01*
G01X8807969Y-8306925D01*
G01X8797302Y-8318962D01*
G01X8789847Y-8333212D01*
G01X8786042Y-8348838D01*
G01X8574484Y-8348838D01*
G01X8574151Y-8344235D01*
G01X8569602Y-8329675D01*
G01X8561846Y-8316540D01*
G01X8551294Y-8305524D01*
G01X8538504Y-8297211D01*
G01X8524153Y-8292040D01*
G01X8509000Y-8290286D01*
G01X8493847Y-8292040D01*
G01X8479496Y-8297211D01*
G01X8466706Y-8305524D01*
G01X8456154Y-8316540D01*
G01X8448398Y-8329675D01*
G01X8443849Y-8344235D01*
G01X8442747Y-8359450D01*
G01X8445151Y-8374513D01*
G01X8450934Y-8388629D01*
G01X8459789Y-8401050D01*
G01X8450481Y-8414306D01*
G01X8444664Y-8429424D01*
G01X8442686Y-8445500D01*
G01X35814Y-8445500D01*
G01X35814Y-7756405D01*
G01X2499266Y-7756405D01*
G01X2502312Y-7770359D01*
G01X2508275Y-7783337D01*
G01X2516880Y-7794737D01*
G01X2527725Y-7804030D01*
G01X2540309Y-7810786D01*
G01X2554048Y-7814690D01*
G01X2568304Y-7815561D01*
G01X2582416Y-7813360D01*
G01X2595730Y-7808189D01*
G01X2607627Y-7800286D01*
G01X2609784Y-7798699D01*
G01X2611355Y-7797834D01*
G01X2621100Y-7797834D01*
G01X2633657Y-7796181D01*
G01X2645357Y-7791334D01*
G01X2655405Y-7783625D01*
G01X2666375Y-7772654D01*
G01X3104105Y-7772654D01*
G01X3115075Y-7783625D01*
G01X3125123Y-7791334D01*
G01X3136824Y-7796181D01*
G01X3149380Y-7797834D01*
G01X3159125Y-7797834D01*
G01X3160696Y-7798699D01*
G01X3162853Y-7800286D01*
G01X3174750Y-7808189D01*
G01X3188064Y-7813360D01*
G01X3202176Y-7815561D01*
G01X3216432Y-7814690D01*
G01X3230171Y-7810786D01*
G01X3242755Y-7804030D01*
G01X3253601Y-7794737D01*
G01X3262205Y-7783337D01*
G01X3268168Y-7770359D01*
G01X3271215Y-7756405D01*
G01X3271202Y-7742122D01*
G01X3268132Y-7728173D01*
G01X3262146Y-7715205D01*
G01X3253522Y-7703820D01*
G01X3262146Y-7692435D01*
G01X3268132Y-7679467D01*
G01X3271202Y-7665518D01*
G01X3271215Y-7651235D01*
G01X3268168Y-7637281D01*
G01X3262205Y-7624303D01*
G01X3253601Y-7612903D01*
G01X3242755Y-7603610D01*
G01X3230171Y-7596854D01*
G01X3216432Y-7592950D01*
G01X3202176Y-7592079D01*
G01X3188064Y-7594280D01*
G01X3174750Y-7599451D01*
G01X3162853Y-7607354D01*
G01X3160696Y-7608941D01*
G01X3159125Y-7609806D01*
G01X3149380Y-7609806D01*
G01X3136824Y-7611459D01*
G01X3125123Y-7616306D01*
G01X3115075Y-7624015D01*
G01X3104105Y-7634986D01*
G01X2666375Y-7634986D01*
G01X2655405Y-7624015D01*
G01X2645357Y-7616306D01*
G01X2633657Y-7611459D01*
G01X2621100Y-7609806D01*
G01X2611355Y-7609806D01*
G01X2611355Y-7609806D01*
G01X2609784Y-7608941D01*
G01X2607627Y-7607354D01*
G01X2595730Y-7599451D01*
G01X2582416Y-7594280D01*
G01X2568304Y-7592079D01*
G01X2554048Y-7592950D01*
G01X2540309Y-7596854D01*
G01X2527725Y-7603610D01*
G01X2516880Y-7612903D01*
G01X2508275Y-7624303D01*
G01X2502312Y-7637281D01*
G01X2499266Y-7651235D01*
G01X2499278Y-7665518D01*
G01X2502348Y-7679467D01*
G01X2508334Y-7692435D01*
G01X2516958Y-7703820D01*
G01X2508334Y-7715205D01*
G01X2502348Y-7728173D01*
G01X2499278Y-7742122D01*
G01X2499266Y-7756405D01*
G01X35814Y-7756405D01*
G01X35814Y-7023100D01*
G01X2156186Y-7023100D01*
G01X2157880Y-7037992D01*
G01X2162875Y-7052124D01*
G01X2170915Y-7064772D01*
G01X2181591Y-7075292D01*
G01X2194357Y-7083146D01*
G01X2208560Y-7087932D01*
G01X2223476Y-7089407D01*
G01X2238341Y-7087494D01*
G01X2252398Y-7082292D01*
G01X2264927Y-7074066D01*
G01X2267084Y-7072479D01*
G01X2268655Y-7071614D01*
G01X2468445Y-7071614D01*
G01X2470016Y-7072479D01*
G01X2472173Y-7074066D01*
G01X2484702Y-7082292D01*
G01X2498759Y-7087494D01*
G01X2513624Y-7089407D01*
G01X2528540Y-7087932D01*
G01X2542743Y-7083146D01*
G01X2555509Y-7075292D01*
G01X2566185Y-7064772D01*
G01X2574225Y-7052124D01*
G01X2579220Y-7037992D01*
G01X2580914Y-7023100D01*
G01X2579220Y-7008208D01*
G01X2574225Y-6994076D01*
G01X2566185Y-6981428D01*
G01X2555509Y-6970908D01*
G01X2542743Y-6963054D01*
G01X2528540Y-6958268D01*
G01X2513624Y-6956793D01*
G01X2498759Y-6958706D01*
G01X2484702Y-6963908D01*
G01X2472173Y-6972134D01*
G01X2470016Y-6973721D01*
G01X2468445Y-6974586D01*
G01X2268655Y-6974586D01*
G01X2267084Y-6973721D01*
G01X2267084Y-6973721D01*
G01X2264927Y-6972134D01*
G01X2252398Y-6963908D01*
G01X2238341Y-6958706D01*
G01X2223476Y-6956793D01*
G01X2208560Y-6958268D01*
G01X2194357Y-6963054D01*
G01X2181591Y-6970908D01*
G01X2170915Y-6981428D01*
G01X2162875Y-6994076D01*
G01X2157880Y-7008208D01*
G01X2156186Y-7023100D01*
G01X35814Y-7023100D01*
G01X35814Y-6883400D01*
G01X2041886Y-6883400D01*
G01X2043580Y-6898292D01*
G01X2048575Y-6912424D01*
G01X2056615Y-6925072D01*
G01X2067291Y-6935592D01*
G01X2080057Y-6943446D01*
G01X2094260Y-6948232D01*
G01X2109176Y-6949707D01*
G01X2124041Y-6947794D01*
G01X2138098Y-6942592D01*
G01X2150627Y-6934366D01*
G01X2152784Y-6932779D01*
G01X2154355Y-6931914D01*
G01X2430345Y-6931914D01*
G01X2431916Y-6932779D01*
G01X2434073Y-6934366D01*
G01X2446602Y-6942592D01*
G01X2460659Y-6947794D01*
G01X2475524Y-6949707D01*
G01X2490440Y-6948232D01*
G01X2504643Y-6943446D01*
G01X2517409Y-6935592D01*
G01X2528085Y-6925072D01*
G01X2536125Y-6912424D01*
G01X2541120Y-6898292D01*
G01X2542814Y-6883400D01*
G01X2541120Y-6868508D01*
G01X2536125Y-6854376D01*
G01X2528085Y-6841728D01*
G01X2517409Y-6831208D01*
G01X2504643Y-6823354D01*
G01X2490440Y-6818568D01*
G01X2475524Y-6817093D01*
G01X2460659Y-6819006D01*
G01X2446602Y-6824208D01*
G01X2434073Y-6832434D01*
G01X2431916Y-6834021D01*
G01X2431916Y-6834021D01*
G01X2430345Y-6834886D01*
G01X2154355Y-6834886D01*
G01X2152784Y-6834021D01*
G01X2150627Y-6832434D01*
G01X2138098Y-6824208D01*
G01X2124041Y-6819006D01*
G01X2109176Y-6817093D01*
G01X2094260Y-6818568D01*
G01X2080057Y-6823354D01*
G01X2067291Y-6831208D01*
G01X2056615Y-6841728D01*
G01X2048575Y-6854376D01*
G01X2043580Y-6868508D01*
G01X2041886Y-6883400D01*
G01X35814Y-6883400D01*
G01X35814Y-6728078D01*
G01X2181650Y-6728078D01*
G01X2182781Y-6743533D01*
G01X2187468Y-6758303D01*
G01X2195454Y-6771583D01*
G01X2206305Y-6782647D01*
G01X2219427Y-6790890D01*
G01X2234103Y-6795863D01*
G01X2249534Y-6797294D01*
G01X2264875Y-6795105D01*
G01X2279289Y-6789415D01*
G01X2288521Y-6801861D01*
G01X2300390Y-6811824D01*
G01X2314247Y-6818761D01*
G01X2329335Y-6822293D01*
G01X2344832Y-6822226D01*
G01X2359889Y-6818565D01*
G01X2373686Y-6811509D01*
G01X2385469Y-6801443D01*
G01X2394594Y-6788919D01*
G01X2400563Y-6774618D01*
G01X2403050Y-6759322D01*
G01X2401919Y-6743867D01*
G01X2397232Y-6729097D01*
G01X2389246Y-6715817D01*
G01X2378395Y-6704753D01*
G01X2365273Y-6696510D01*
G01X2361331Y-6695174D01*
G01X4656176Y-6695174D01*
G01X4657870Y-6710066D01*
G01X4662865Y-6724198D01*
G01X4670906Y-6736846D01*
G01X4681582Y-6747366D01*
G01X4694347Y-6755220D01*
G01X4708551Y-6760006D01*
G01X4723466Y-6761481D01*
G01X4738332Y-6759568D01*
G01X4752388Y-6754366D01*
G01X4764917Y-6746140D01*
G01X4767074Y-6744554D01*
G01X4768646Y-6743688D01*
G01X4820555Y-6743688D01*
G01X5018442Y-6941575D01*
G01X5018442Y-6957089D01*
G01X5018442Y-6957089D01*
G01X5020095Y-6969646D01*
G01X5024942Y-6981347D01*
G01X5032651Y-6991394D01*
G01X5039542Y-6998285D01*
G01X5040041Y-7000008D01*
G01X5040445Y-7002655D01*
G01X5043269Y-7016655D01*
G01X5049026Y-7029726D01*
G01X5057449Y-7041262D01*
G01X5068146Y-7050726D01*
G01X5080621Y-7057680D01*
G01X5094296Y-7061801D01*
G01X5108537Y-7062899D01*
G01X5122682Y-7060922D01*
G01X5136076Y-7055962D01*
G01X5148097Y-7048249D01*
G01X5158187Y-7038141D01*
G01X5165879Y-7026107D01*
G01X5170816Y-7012704D01*
G01X5172769Y-6998556D01*
G01X5186918Y-6996603D01*
G01X5200320Y-6991666D01*
G01X5212354Y-6983974D01*
G01X5222462Y-6973883D01*
G01X5230175Y-6961862D01*
G01X5235135Y-6948469D01*
G01X5237112Y-6934323D01*
G01X5236014Y-6920083D01*
G01X5231893Y-6906408D01*
G01X5224939Y-6893933D01*
G01X5215475Y-6883236D01*
G01X5203940Y-6874813D01*
G01X5190869Y-6869056D01*
G01X5176868Y-6866232D01*
G01X5174221Y-6865828D01*
G01X5172498Y-6865329D01*
G01X5165607Y-6858438D01*
G01X5155560Y-6850728D01*
G01X5143859Y-6845882D01*
G01X5131303Y-6844229D01*
G01X5115788Y-6844229D01*
G01X4911551Y-6639992D01*
G01X4911551Y-6588083D01*
G01X4912417Y-6586511D01*
G01X4914003Y-6584354D01*
G01X4922229Y-6571825D01*
G01X4927431Y-6557769D01*
G01X4929344Y-6542903D01*
G01X4927870Y-6527988D01*
G01X4923083Y-6513784D01*
G01X4915230Y-6501018D01*
G01X4904710Y-6490343D01*
G01X4892061Y-6482302D01*
G01X4877929Y-6477307D01*
G01X4863037Y-6475613D01*
G01X4848145Y-6477307D01*
G01X4834014Y-6482302D01*
G01X4821365Y-6490343D01*
G01X4810845Y-6501018D01*
G01X4802991Y-6513784D01*
G01X4798205Y-6527988D01*
G01X4796730Y-6542903D01*
G01X4798643Y-6557769D01*
G01X4803845Y-6571825D01*
G01X4812071Y-6584354D01*
G01X4813658Y-6586511D01*
G01X4814523Y-6588083D01*
G01X4814523Y-6646660D01*
G01X4768646Y-6646660D01*
G01X4767074Y-6645795D01*
G01X4764917Y-6644208D01*
G01X4752388Y-6635982D01*
G01X4738332Y-6630780D01*
G01X4723466Y-6628867D01*
G01X4708551Y-6630342D01*
G01X4694347Y-6635128D01*
G01X4681582Y-6642982D01*
G01X4670906Y-6653502D01*
G01X4662865Y-6666151D01*
G01X4657870Y-6680282D01*
G01X4656176Y-6695174D01*
G01X2361331Y-6695174D01*
G01X2350597Y-6691537D01*
G01X2335166Y-6690106D01*
G01X2319825Y-6692295D01*
G01X2305411Y-6697985D01*
G01X2296179Y-6685539D01*
G01X2284310Y-6675576D01*
G01X2270453Y-6668639D01*
G01X2255365Y-6665107D01*
G01X2239868Y-6665174D01*
G01X2224811Y-6668835D01*
G01X2211014Y-6675891D01*
G01X2199231Y-6685957D01*
G01X2190106Y-6698481D01*
G01X2184137Y-6712782D01*
G01X2184137Y-6712782D01*
G01X2181650Y-6728078D01*
G01X35814Y-6728078D01*
G01X35814Y-6438900D01*
G01X9028186Y-6438900D01*
G01X9030158Y-6460181D01*
G01X9036007Y-6480737D01*
G01X9045533Y-6499868D01*
G01X9058413Y-6516923D01*
G01X9074207Y-6531321D01*
G01X9092377Y-6542572D01*
G01X9112306Y-6550293D01*
G01X9133314Y-6554220D01*
G01X9154686Y-6554220D01*
G01X9175694Y-6550293D01*
G01X9195623Y-6542572D01*
G01X9213793Y-6531321D01*
G01X9229587Y-6516923D01*
G01X9242467Y-6499868D01*
G01X9251993Y-6480737D01*
G01X9257842Y-6460181D01*
G01X9259814Y-6438900D01*
G01X9282186Y-6438900D01*
G01X9284158Y-6460181D01*
G01X9290007Y-6480737D01*
G01X9299533Y-6499868D01*
G01X9312413Y-6516923D01*
G01X9328207Y-6531321D01*
G01X9346377Y-6542572D01*
G01X9366306Y-6550293D01*
G01X9387314Y-6554220D01*
G01X9408686Y-6554220D01*
G01X9429694Y-6550293D01*
G01X9449623Y-6542572D01*
G01X9467793Y-6531321D01*
G01X9483587Y-6516923D01*
G01X9496467Y-6499868D01*
G01X9505993Y-6480737D01*
G01X9511842Y-6460181D01*
G01X9513814Y-6438900D01*
G01X9511842Y-6417619D01*
G01X9505993Y-6397063D01*
G01X9496467Y-6377932D01*
G01X9483587Y-6360877D01*
G01X9467793Y-6346479D01*
G01X9449623Y-6335228D01*
G01X9429694Y-6327507D01*
G01X9408686Y-6323580D01*
G01X9387314Y-6323580D01*
G01X9366306Y-6327507D01*
G01X9346377Y-6335228D01*
G01X9328207Y-6346479D01*
G01X9312413Y-6360877D01*
G01X9299533Y-6377932D01*
G01X9290007Y-6397063D01*
G01X9284158Y-6417619D01*
G01X9282186Y-6438900D01*
G01X9282186Y-6438900D01*
G01X9259814Y-6438900D01*
G01X9257842Y-6417619D01*
G01X9251993Y-6397063D01*
G01X9242467Y-6377932D01*
G01X9229587Y-6360877D01*
G01X9213793Y-6346479D01*
G01X9195623Y-6335228D01*
G01X9175694Y-6327507D01*
G01X9154686Y-6323580D01*
G01X9133314Y-6323580D01*
G01X9112306Y-6327507D01*
G01X9092377Y-6335228D01*
G01X9074207Y-6346479D01*
G01X9058413Y-6360877D01*
G01X9045533Y-6377932D01*
G01X9036007Y-6397063D01*
G01X9030158Y-6417619D01*
G01X9028186Y-6438900D01*
G01X9028186Y-6438900D01*
G01X35814Y-6438900D01*
G01X35814Y-6002986D01*
G01X8370600Y-6002986D01*
G01X8372294Y-6017878D01*
G01X8377288Y-6032010D01*
G01X8385329Y-6044659D01*
G01X8396005Y-6055178D01*
G01X8408771Y-6063032D01*
G01X8422974Y-6067819D01*
G01X8437890Y-6069293D01*
G01X8452755Y-6067380D01*
G01X8466812Y-6062178D01*
G01X8479341Y-6053952D01*
G01X8481498Y-6052366D01*
G01X8483069Y-6051500D01*
G01X8589845Y-6051500D01*
G01X8591416Y-6052366D01*
G01X8593573Y-6053952D01*
G01X8606102Y-6062178D01*
G01X8620159Y-6067380D01*
G01X8635024Y-6069293D01*
G01X8649940Y-6067819D01*
G01X8664143Y-6063032D01*
G01X8676909Y-6055178D01*
G01X8687585Y-6044659D01*
G01X8695625Y-6032010D01*
G01X8700620Y-6017878D01*
G01X8702314Y-6002986D01*
G01X8700620Y-5988094D01*
G01X8695625Y-5973963D01*
G01X8687585Y-5961314D01*
G01X8676909Y-5950794D01*
G01X8664143Y-5942940D01*
G01X8649940Y-5938154D01*
G01X8635024Y-5936679D01*
G01X8620159Y-5938592D01*
G01X8606102Y-5943794D01*
G01X8593573Y-5952020D01*
G01X8591416Y-5953607D01*
G01X8589845Y-5954472D01*
G01X8483069Y-5954472D01*
G01X8481498Y-5953607D01*
G01X8481498Y-5953607D01*
G01X8479341Y-5952020D01*
G01X8466812Y-5943794D01*
G01X8452755Y-5938592D01*
G01X8437890Y-5936679D01*
G01X8422974Y-5938154D01*
G01X8408771Y-5942940D01*
G01X8396005Y-5950794D01*
G01X8385329Y-5961314D01*
G01X8377288Y-5973963D01*
G01X8372294Y-5988094D01*
G01X8370600Y-6002986D01*
G01X35814Y-6002986D01*
G01X35814Y-5638969D01*
G01X325505Y-5638969D01*
G01X327498Y-5666839D01*
G01X333437Y-5694141D01*
G01X343202Y-5720321D01*
G01X356593Y-5744845D01*
G01X373337Y-5767213D01*
G01X393095Y-5786970D01*
G01X415463Y-5803715D01*
G01X439986Y-5817106D01*
G01X466166Y-5826870D01*
G01X493469Y-5832809D01*
G01X521339Y-5834803D01*
G01X549209Y-5832809D01*
G01X576512Y-5826870D01*
G01X602691Y-5817106D01*
G01X627215Y-5803715D01*
G01X649583Y-5786970D01*
G01X669340Y-5767213D01*
G01X686085Y-5744845D01*
G01X699476Y-5720321D01*
G01X709240Y-5694141D01*
G01X715180Y-5666839D01*
G01X716884Y-5643000D01*
G01X7531166Y-5643000D01*
G01X7533159Y-5670870D01*
G01X7539099Y-5698173D01*
G01X7548863Y-5724352D01*
G01X7562254Y-5748876D01*
G01X7578999Y-5771244D01*
G01X7598756Y-5791001D01*
G01X7621124Y-5807746D01*
G01X7645648Y-5821137D01*
G01X7671827Y-5830901D01*
G01X7699130Y-5836841D01*
G01X7727000Y-5838834D01*
G01X7754870Y-5836841D01*
G01X7782173Y-5830901D01*
G01X7808352Y-5821137D01*
G01X7832876Y-5807746D01*
G01X7855244Y-5791001D01*
G01X7875002Y-5771244D01*
G01X7891746Y-5748876D01*
G01X7905137Y-5724352D01*
G01X7914901Y-5698173D01*
G01X7920841Y-5670870D01*
G01X7922834Y-5643000D01*
G01X7920841Y-5615130D01*
G01X7914901Y-5587827D01*
G01X7905137Y-5561648D01*
G01X7891746Y-5537124D01*
G01X7875002Y-5514756D01*
G01X7855244Y-5494998D01*
G01X7832876Y-5478254D01*
G01X7808352Y-5464863D01*
G01X7782173Y-5455099D01*
G01X7754870Y-5449159D01*
G01X7727000Y-5447166D01*
G01X7699130Y-5449159D01*
G01X7671827Y-5455099D01*
G01X7645648Y-5464863D01*
G01X7621124Y-5478254D01*
G01X7598756Y-5494998D01*
G01X7578999Y-5514756D01*
G01X7562254Y-5537124D01*
G01X7548863Y-5561648D01*
G01X7539099Y-5587827D01*
G01X7533159Y-5615130D01*
G01X7531166Y-5643000D01*
G01X7531166Y-5643000D01*
G01X716884Y-5643000D01*
G01X717173Y-5638969D01*
G01X715180Y-5611099D01*
G01X709240Y-5583796D01*
G01X699476Y-5557616D01*
G01X686085Y-5533093D01*
G01X669340Y-5510725D01*
G01X649583Y-5490967D01*
G01X627215Y-5474223D01*
G01X602691Y-5460832D01*
G01X576512Y-5451067D01*
G01X549209Y-5445128D01*
G01X521339Y-5443135D01*
G01X493469Y-5445128D01*
G01X466166Y-5451067D01*
G01X439986Y-5460832D01*
G01X415463Y-5474223D01*
G01X393095Y-5490967D01*
G01X373337Y-5510725D01*
G01X356593Y-5533093D01*
G01X343202Y-5557616D01*
G01X333437Y-5583796D01*
G01X327498Y-5611099D01*
G01X325505Y-5638969D01*
G01X325505Y-5638969D01*
G01X35814Y-5638969D01*
G01X35814Y-5155224D01*
G01X3451593Y-5155224D01*
G01X3453068Y-5170140D01*
G01X3457854Y-5184343D01*
G01X3465708Y-5197109D01*
G01X3476228Y-5207785D01*
G01X3488876Y-5215825D01*
G01X3503008Y-5220820D01*
G01X3517900Y-5222514D01*
G01X3532792Y-5220820D01*
G01X3546924Y-5215825D01*
G01X3559572Y-5207785D01*
G01X3570092Y-5197109D01*
G01X3577946Y-5184343D01*
G01X3582732Y-5170140D01*
G01X3584207Y-5155224D01*
G01X3582294Y-5140359D01*
G01X3577092Y-5126302D01*
G01X3568866Y-5113773D01*
G01X3567279Y-5111616D01*
G01X3566414Y-5110045D01*
G01X3566414Y-4973755D01*
G01X3567279Y-4972184D01*
G01X3568866Y-4970027D01*
G01X3577092Y-4957498D01*
G01X3582294Y-4943441D01*
G01X3584207Y-4928576D01*
G01X3582732Y-4913660D01*
G01X3577946Y-4899457D01*
G01X3570092Y-4886691D01*
G01X3559572Y-4876015D01*
G01X3546924Y-4867975D01*
G01X3532792Y-4862980D01*
G01X3517900Y-4861286D01*
G01X3503008Y-4862980D01*
G01X3488876Y-4867975D01*
G01X3476228Y-4876015D01*
G01X3465708Y-4886691D01*
G01X3457854Y-4899457D01*
G01X3453068Y-4913660D01*
G01X3451593Y-4928576D01*
G01X3453506Y-4943441D01*
G01X3458708Y-4957498D01*
G01X3466934Y-4970027D01*
G01X3468521Y-4972184D01*
G01X3469386Y-4973755D01*
G01X3469386Y-5110045D01*
G01X3468521Y-5111616D01*
G01X3468521Y-5111616D01*
G01X3466934Y-5113773D01*
G01X3458708Y-5126302D01*
G01X3453506Y-5140359D01*
G01X3451593Y-5155224D01*
G01X35814Y-5155224D01*
G01X35814Y-4161354D01*
G01X268212Y-4161354D01*
G01X270205Y-4189224D01*
G01X276145Y-4216527D01*
G01X285909Y-4242707D01*
G01X299300Y-4267230D01*
G01X316045Y-4289598D01*
G01X335802Y-4309356D01*
G01X358170Y-4326100D01*
G01X382694Y-4339491D01*
G01X408873Y-4349255D01*
G01X436176Y-4355195D01*
G01X464046Y-4357188D01*
G01X473933Y-4356481D01*
G01X4192626Y-4356481D01*
G01X4192626Y-4571340D01*
G01X4193418Y-4575325D01*
G01X4195676Y-4578703D01*
G01X4221736Y-4604764D01*
G01X4225115Y-4607021D01*
G01X4229100Y-4607814D01*
G01X4533900Y-4607814D01*
G01X4533900Y-4607814D01*
G01X4537885Y-4607021D01*
G01X4541264Y-4604764D01*
G01X4561328Y-4584700D01*
G01X7901686Y-4584700D01*
G01X7901686Y-5194300D01*
G01X7903339Y-5206856D01*
G01X7908186Y-5218557D01*
G01X7915895Y-5228605D01*
G01X8238859Y-5551568D01*
G01X8238859Y-5551568D01*
G01X8239358Y-5553291D01*
G01X8239761Y-5555938D01*
G01X8242804Y-5570614D01*
G01X8249065Y-5584232D01*
G01X8258224Y-5596096D01*
G01X8269813Y-5605600D01*
G01X8283241Y-5612259D01*
G01X8297821Y-5615732D01*
G01X8312809Y-5615843D01*
G01X8327439Y-5612584D01*
G01X8340963Y-5606124D01*
G01X8352691Y-5596791D01*
G01X8362024Y-5585063D01*
G01X8368484Y-5571539D01*
G01X8371743Y-5556909D01*
G01X8371632Y-5541921D01*
G01X8368159Y-5527341D01*
G01X8361500Y-5513913D01*
G01X8351996Y-5502324D01*
G01X8340132Y-5493165D01*
G01X8326514Y-5486904D01*
G01X8311838Y-5483861D01*
G01X8309191Y-5483458D01*
G01X8307468Y-5482959D01*
G01X7998714Y-5174205D01*
G01X7998714Y-4604795D01*
G01X8287795Y-4315714D01*
G01X8438308Y-4315714D01*
G01X8439880Y-4316579D01*
G01X8442037Y-4318166D01*
G01X8454566Y-4326392D01*
G01X8468622Y-4331594D01*
G01X8483488Y-4333507D01*
G01X8498403Y-4332032D01*
G01X8512607Y-4327246D01*
G01X8525372Y-4319392D01*
G01X8536048Y-4308872D01*
G01X8544089Y-4296224D01*
G01X8549084Y-4282092D01*
G01X8550778Y-4267200D01*
G01X8549084Y-4252308D01*
G01X8544089Y-4238176D01*
G01X8536048Y-4225528D01*
G01X8525372Y-4215008D01*
G01X8512607Y-4207154D01*
G01X8498403Y-4202368D01*
G01X8483488Y-4200893D01*
G01X8468622Y-4202806D01*
G01X8454566Y-4208008D01*
G01X8442037Y-4216234D01*
G01X8439880Y-4217821D01*
G01X8438308Y-4218686D01*
G01X8267700Y-4218686D01*
G01X8255144Y-4220339D01*
G01X8243443Y-4225186D01*
G01X8233395Y-4232895D01*
G01X7915895Y-4550395D01*
G01X7908186Y-4560443D01*
G01X7903339Y-4572144D01*
G01X7901686Y-4584700D01*
G01X4561328Y-4584700D01*
G01X4614414Y-4531614D01*
G01X4657774Y-4531614D01*
G01X4661759Y-4530821D01*
G01X4665138Y-4528564D01*
G01X4744459Y-4449243D01*
G01X4746716Y-4445864D01*
G01X4747509Y-4441879D01*
G01X4747509Y-4325092D01*
G01X4779514Y-4293088D01*
G01X5001026Y-4293088D01*
G01X5005012Y-4292295D01*
G01X5008390Y-4290037D01*
G01X5036564Y-4261864D01*
G01X5038821Y-4258485D01*
G01X5039614Y-4254500D01*
G01X5039614Y-4161354D01*
G01X7468215Y-4161354D01*
G01X7470208Y-4189224D01*
G01X7476148Y-4216527D01*
G01X7485912Y-4242707D01*
G01X7499303Y-4267230D01*
G01X7516047Y-4289598D01*
G01X7535805Y-4309356D01*
G01X7558173Y-4326100D01*
G01X7582697Y-4339491D01*
G01X7608876Y-4349255D01*
G01X7636179Y-4355195D01*
G01X7664049Y-4357188D01*
G01X7691919Y-4355195D01*
G01X7719222Y-4349255D01*
G01X7745401Y-4339491D01*
G01X7769925Y-4326100D01*
G01X7792293Y-4309356D01*
G01X7812050Y-4289598D01*
G01X7828795Y-4267230D01*
G01X7842186Y-4242707D01*
G01X7851950Y-4216527D01*
G01X7857890Y-4189224D01*
G01X7859883Y-4161354D01*
G01X7857890Y-4133484D01*
G01X7851950Y-4106181D01*
G01X7842186Y-4080002D01*
G01X7828795Y-4055478D01*
G01X7812050Y-4033110D01*
G01X7792293Y-4013353D01*
G01X7769925Y-3996608D01*
G01X7745401Y-3983217D01*
G01X7719222Y-3973453D01*
G01X7691919Y-3967513D01*
G01X7664049Y-3965520D01*
G01X7636179Y-3967513D01*
G01X7608876Y-3973453D01*
G01X7582697Y-3983217D01*
G01X7558173Y-3996608D01*
G01X7535805Y-4013353D01*
G01X7516047Y-4033110D01*
G01X7499303Y-4055478D01*
G01X7485912Y-4080002D01*
G01X7476148Y-4106181D01*
G01X7470208Y-4133484D01*
G01X7468215Y-4161354D01*
G01X7468215Y-4161354D01*
G01X5039614Y-4161354D01*
G01X5039614Y-3759200D01*
G01X5038821Y-3755215D01*
G01X5036564Y-3751836D01*
G01X4985764Y-3701036D01*
G01X4982385Y-3698779D01*
G01X4978400Y-3697986D01*
G01X4886567Y-3697986D01*
G01X4882582Y-3698779D01*
G01X4879203Y-3701036D01*
G01X4831341Y-3748898D01*
G01X4829084Y-3752277D01*
G01X4828291Y-3756262D01*
G01X4828291Y-3892884D01*
G01X4819989Y-3901186D01*
G01X4533900Y-3901186D01*
G01X4529915Y-3901979D01*
G01X4526536Y-3904236D01*
G01X4488436Y-3942336D01*
G01X4486179Y-3945715D01*
G01X4485386Y-3949700D01*
G01X4485386Y-4250186D01*
G01X4440686Y-4294886D01*
G01X4254221Y-4294886D01*
G01X4250235Y-4295679D01*
G01X4246857Y-4297936D01*
G01X4195676Y-4349117D01*
G01X4193418Y-4352496D01*
G01X4192626Y-4356481D01*
G01X473933Y-4356481D01*
G01X491916Y-4355195D01*
G01X519219Y-4349255D01*
G01X545398Y-4339491D01*
G01X569922Y-4326100D01*
G01X592290Y-4309356D01*
G01X612048Y-4289598D01*
G01X628792Y-4267230D01*
G01X642183Y-4242707D01*
G01X651947Y-4216527D01*
G01X657887Y-4189224D01*
G01X659880Y-4161354D01*
G01X657887Y-4133484D01*
G01X651947Y-4106181D01*
G01X642183Y-4080002D01*
G01X628792Y-4055478D01*
G01X612048Y-4033110D01*
G01X592290Y-4013353D01*
G01X569922Y-3996608D01*
G01X545398Y-3983217D01*
G01X519219Y-3973453D01*
G01X491916Y-3967513D01*
G01X464046Y-3965520D01*
G01X436176Y-3967513D01*
G01X408873Y-3973453D01*
G01X382694Y-3983217D01*
G01X358170Y-3996608D01*
G01X335802Y-4013353D01*
G01X316045Y-4033110D01*
G01X299300Y-4055478D01*
G01X285909Y-4080002D01*
G01X276145Y-4106181D01*
G01X270205Y-4133484D01*
G01X268212Y-4161354D01*
G01X268212Y-4161354D01*
G01X35814Y-4161354D01*
G01X35814Y-3581400D01*
G01X7749286Y-3581400D01*
G01X7751194Y-3600775D01*
G01X7756846Y-3619406D01*
G01X7766023Y-3636576D01*
G01X7778374Y-3651626D01*
G01X8114035Y-3987286D01*
G01X8129085Y-3999637D01*
G01X8146255Y-4008815D01*
G01X8164885Y-4014466D01*
G01X8184260Y-4016374D01*
G01X8547100Y-4016374D01*
G01X8547100Y-4016374D01*
G01X8566475Y-4014466D01*
G01X8585106Y-4008815D01*
G01X8602276Y-3999637D01*
G01X8617326Y-3987286D01*
G01X8629677Y-3972236D01*
G01X8638854Y-3955066D01*
G01X8644506Y-3936436D01*
G01X8646414Y-3917060D01*
G01X8644506Y-3897685D01*
G01X8638854Y-3879055D01*
G01X8629677Y-3861885D01*
G01X8617326Y-3846835D01*
G01X8602276Y-3834484D01*
G01X8585106Y-3825306D01*
G01X8566475Y-3819655D01*
G01X8547100Y-3817746D01*
G01X8225398Y-3817746D01*
G01X7918826Y-3511174D01*
G01X7903776Y-3498823D01*
G01X7886606Y-3489646D01*
G01X7867975Y-3483994D01*
G01X7848600Y-3482086D01*
G01X7829225Y-3483994D01*
G01X7810594Y-3489646D01*
G01X7793424Y-3498823D01*
G01X7778374Y-3511174D01*
G01X7766023Y-3526224D01*
G01X7756846Y-3543394D01*
G01X7751194Y-3562025D01*
G01X7749286Y-3581400D01*
G01X35814Y-3581400D01*
G01X35814Y-3261840D01*
G01X3571007Y-3261840D01*
G01X3572425Y-3280744D01*
G01X3577408Y-3299033D01*
G01X3585776Y-3316043D01*
G01X3597223Y-3331153D01*
G01X3611332Y-3343813D01*
G01X3627590Y-3353561D01*
G01X3645404Y-3360043D01*
G01X3664125Y-3363022D01*
G01X3683070Y-3362390D01*
G01X3701551Y-3358169D01*
G01X3718893Y-3350514D01*
G01X4381500Y-3350514D01*
G01X4400875Y-3348606D01*
G01X4419506Y-3342954D01*
G01X4436676Y-3333777D01*
G01X4451726Y-3321426D01*
G01X4464077Y-3306376D01*
G01X4473254Y-3289206D01*
G01X4478906Y-3270575D01*
G01X4480814Y-3251200D01*
G01X4478906Y-3231825D01*
G01X4473254Y-3213194D01*
G01X4464077Y-3196024D01*
G01X4451726Y-3180974D01*
G01X4436676Y-3168623D01*
G01X4419506Y-3159446D01*
G01X4400875Y-3153794D01*
G01X4381500Y-3151886D01*
G01X3683000Y-3151886D01*
G01X3663625Y-3153794D01*
G01X3644994Y-3159446D01*
G01X3627824Y-3168623D01*
G01X3612774Y-3180974D01*
G01X3600074Y-3193674D01*
G01X3600074Y-3193674D01*
G01X3588011Y-3208297D01*
G01X3578945Y-3224945D01*
G01X3573207Y-3243012D01*
G01X3571007Y-3261840D01*
G01X35814Y-3261840D01*
G01X35814Y-457369D01*
G01X262505Y-457369D01*
G01X264498Y-485239D01*
G01X270438Y-512541D01*
G01X280202Y-538721D01*
G01X293593Y-563245D01*
G01X310337Y-585613D01*
G01X330095Y-605370D01*
G01X352463Y-622115D01*
G01X376987Y-635506D01*
G01X403166Y-645270D01*
G01X430469Y-651209D01*
G01X458339Y-653203D01*
G01X486209Y-651209D01*
G01X513512Y-645270D01*
G01X539691Y-635506D01*
G01X564215Y-622115D01*
G01X586583Y-605370D01*
G01X606340Y-585613D01*
G01X623085Y-563245D01*
G01X636476Y-538721D01*
G01X646240Y-512541D01*
G01X652180Y-485239D01*
G01X653885Y-461400D01*
G01X7468166Y-461400D01*
G01X7470159Y-489270D01*
G01X7476099Y-516573D01*
G01X7485863Y-542752D01*
G01X7499254Y-567276D01*
G01X7515999Y-589644D01*
G01X7535756Y-609401D01*
G01X7558124Y-626146D01*
G01X7582648Y-639537D01*
G01X7608827Y-649301D01*
G01X7636130Y-655241D01*
G01X7664000Y-657234D01*
G01X7691870Y-655241D01*
G01X7719173Y-649301D01*
G01X7745353Y-639537D01*
G01X7769876Y-626146D01*
G01X7792244Y-609401D01*
G01X7812002Y-589644D01*
G01X7828746Y-567276D01*
G01X7842137Y-542752D01*
G01X7851902Y-516573D01*
G01X7857841Y-489270D01*
G01X7859834Y-461400D01*
G01X7857841Y-433530D01*
G01X7851902Y-406227D01*
G01X7842137Y-380048D01*
G01X7828746Y-355524D01*
G01X7812002Y-333156D01*
G01X7792244Y-313398D01*
G01X7769876Y-296654D01*
G01X7745353Y-283263D01*
G01X7719173Y-273499D01*
G01X7691870Y-267559D01*
G01X7664000Y-265566D01*
G01X7636130Y-267559D01*
G01X7608827Y-273499D01*
G01X7582648Y-283263D01*
G01X7558124Y-296654D01*
G01X7535756Y-313398D01*
G01X7515999Y-333156D01*
G01X7499254Y-355524D01*
G01X7485863Y-380048D01*
G01X7476099Y-406227D01*
G01X7470159Y-433530D01*
G01X7468166Y-461400D01*
G01X7468166Y-461400D01*
G01X653885Y-461400D01*
G01X654173Y-457369D01*
G01X652180Y-429499D01*
G01X646240Y-402196D01*
G01X636476Y-376016D01*
G01X623085Y-351493D01*
G01X606340Y-329125D01*
G01X586583Y-309367D01*
G01X564215Y-292623D01*
G01X539691Y-279232D01*
G01X513512Y-269467D01*
G01X486209Y-263528D01*
G01X458339Y-261535D01*
G01X430469Y-263528D01*
G01X403166Y-269467D01*
G01X376987Y-279232D01*
G01X352463Y-292623D01*
G01X330095Y-309367D01*
G01X310337Y-329125D01*
G01X293593Y-351493D01*
G01X280202Y-376016D01*
G01X270438Y-402196D01*
G01X264498Y-429499D01*
G01X262505Y-457369D01*
G01X262505Y-457369D01*
G01X35814Y-457369D01*
G01X35814Y-35814D01*
G01X9864186Y-35814D01*
G37*
G54D10*
G01X9864186Y-35814D02*
G01X9864186Y-9864186D01*
G01X35814Y-9864186D01*
G01X35814Y-35814D01*
G01X9864186Y-35814D01*
G01X262505Y-457369D02*
G03X654173Y-457369I195834J0D01*
G03X262505Y-457369I-195834J0D01*
G01X268212Y-4161354D02*
G03X659880Y-4161354I195834J0D01*
G03X268212Y-4161354I-195834J0D01*
G01X325505Y-5638969D02*
G03X717173Y-5638969I195834J0D01*
G03X325505Y-5638969I-195834J0D01*
G01X331212Y-9342954D02*
G03X722880Y-9342954I195834J0D01*
G03X331212Y-9342954I-195834J0D01*
G01X2431916Y-6834021D02*
G01X2430345Y-6834886D01*
G01X2154355Y-6834886D01*
G01X2152784Y-6834021D01*
G01X2150627Y-6832434D01*
G03X2041886Y-6883400I-42427J-50966D01*
G03X2150627Y-6934366I66314J0D01*
G01X2152784Y-6932779D01*
G01X2154355Y-6931914D01*
G01X2430345Y-6931914D01*
G01X2431916Y-6932779D01*
G01X2434073Y-6934366D01*
G03X2542814Y-6883400I42427J50966D01*
G03X2434073Y-6832434I-66314J0D01*
G01X2431916Y-6834021D01*
G01X2267084Y-6973721D02*
G01X2264927Y-6972134D01*
G03X2156186Y-7023100I-42427J-50966D01*
G03X2264927Y-7074066I66314J0D01*
G01X2267084Y-7072479D01*
G01X2268655Y-7071614D01*
G01X2468445Y-7071614D01*
G01X2470016Y-7072479D01*
G01X2472173Y-7074066D01*
G03X2580914Y-7023100I42427J50966D01*
G03X2472173Y-6972134I-66314J0D01*
G01X2470016Y-6973721D01*
G01X2468445Y-6974586D01*
G01X2268655Y-6974586D01*
G01X2267084Y-6973721D01*
G01X2184137Y-6712782D02*
G03X2279289Y-6789415I63763J-18218D01*
G03X2400563Y-6774618I57511J33015D01*
G03X2305411Y-6697985I-63763J18218D01*
G03X2184137Y-6712782I-57511J-33015D01*
G01X2611355Y-7609806D02*
G01X2609784Y-7608941D01*
G01X2607627Y-7607354D01*
G03X2516880Y-7612903I-42427J-50966D01*
G03X2516958Y-7703820I48321J-45417D01*
G03X2516880Y-7794737I48242J-45500D01*
G03X2607627Y-7800286I48321J45417D01*
G01X2609784Y-7798699D01*
G01X2611355Y-7797834D01*
G01X2621100Y-7797834D01*
G03X2655405Y-7783625I0J48514D01*
G01X2666375Y-7772654D01*
G01X3104105Y-7772654D01*
G01X3115075Y-7783625D01*
G03X3149380Y-7797834I34305J34305D01*
G01X3159125Y-7797834D01*
G01X3160696Y-7798699D01*
G01X3162853Y-7800286D01*
G03X3253601Y-7794737I42427J50966D01*
G03X3253522Y-7703820I-48321J45417D01*
G03X3253601Y-7612903I-48242J45500D01*
G03X3162853Y-7607354I-48321J-45417D01*
G01X3160696Y-7608941D01*
G01X3159125Y-7609806D01*
G01X3149380Y-7609806D01*
G03X3115075Y-7624015I0J-48514D01*
G01X3104105Y-7634986D01*
G01X2666375Y-7634986D01*
G01X2655405Y-7624015D01*
G03X2621100Y-7609806I-34305J-34305D01*
G01X2611355Y-7609806D01*
G01X3468521Y-5111616D02*
G01X3466934Y-5113773D01*
G03X3517900Y-5222514I50966J-42427D01*
G03X3568866Y-5113773I0J66314D01*
G01X3567279Y-5111616D01*
G01X3566414Y-5110045D01*
G01X3566414Y-4973755D01*
G01X3567279Y-4972184D01*
G01X3568866Y-4970027D01*
G03X3517900Y-4861286I-50966J42427D01*
G03X3466934Y-4970027I0J-66314D01*
G01X3468521Y-4972184D01*
G01X3469386Y-4973755D01*
G01X3469386Y-5110045D01*
G01X3468521Y-5111616D01*
G01X3600074Y-3193674D02*
G03X3718893Y-3350514I70226J-70226D01*
G01X4381500Y-3350514D01*
G03X4381500Y-3151886I0J99314D01*
G01X3683000Y-3151886D01*
G03X3612774Y-3180974I0J-99314D01*
G01X3600074Y-3193674D01*
G01X4533900Y-4607814D02*
G03X4541264Y-4604764I0J10414D01*
G01X4614414Y-4531614D01*
G01X4657774Y-4531614D01*
G03X4665138Y-4528564I0J10414D01*
G01X4744459Y-4449243D01*
G03X4747509Y-4441879I-7364J7364D01*
G01X4747509Y-4325092D01*
G01X4779514Y-4293088D01*
G01X5001026Y-4293088D01*
G03X5008390Y-4290037I0J10414D01*
G01X5036564Y-4261864D01*
G03X5039614Y-4254500I-7364J7364D01*
G01X5039614Y-3759200D01*
G03X5036564Y-3751836I-10414J0D01*
G01X4985764Y-3701036D01*
G03X4978400Y-3697986I-7364J-7364D01*
G01X4886567Y-3697986D01*
G03X4879203Y-3701036I0J-10414D01*
G01X4831341Y-3748898D01*
G03X4828291Y-3756262I7364J-7364D01*
G01X4828291Y-3892884D01*
G01X4819989Y-3901186D01*
G01X4533900Y-3901186D01*
G03X4526536Y-3904236I0J-10414D01*
G01X4488436Y-3942336D01*
G03X4485386Y-3949700I7364J-7364D01*
G01X4485386Y-4250186D01*
G01X4440686Y-4294886D01*
G01X4254221Y-4294886D01*
G03X4246857Y-4297936I0J-10414D01*
G01X4195676Y-4349117D01*
G03X4192626Y-4356481I7364J-7364D01*
G01X4192626Y-4571340D01*
G03X4195676Y-4578703I10414J0D01*
G01X4221736Y-4604764D01*
G03X4229100Y-4607814I7364J7364D01*
G01X4533900Y-4607814D01*
G01X5018442Y-6957089D02*
G03X5032651Y-6991394I48514J0D01*
G01X5039542Y-6998285D01*
G01X5040041Y-7000008D01*
G01X5040445Y-7002655D01*
G03X5108537Y-7062899I66039J6038D01*
G03X5172769Y-6998556I-2053J66282D01*
G03X5237112Y-6934323I-1939J66286D01*
G03X5176868Y-6866232I-66282J2053D01*
G01X5174221Y-6865828D01*
G01X5172498Y-6865329D01*
G01X5165607Y-6858438D01*
G03X5131303Y-6844229I-34305J-34304D01*
G01X5115788Y-6844229D01*
G01X4911551Y-6639992D01*
G01X4911551Y-6588083D01*
G01X4912417Y-6586511D01*
G01X4914003Y-6584354D01*
G03X4863037Y-6475613I-50966J42427D01*
G03X4812071Y-6584354I0J-66314D01*
G01X4813658Y-6586511D01*
G01X4814523Y-6588083D01*
G01X4814523Y-6646660D01*
G01X4768646Y-6646660D01*
G01X4767074Y-6645795D01*
G01X4764917Y-6644208D01*
G03X4656176Y-6695174I-42427J-50966D01*
G03X4764917Y-6746140I66314J0D01*
G01X4767074Y-6744554D01*
G01X4768646Y-6743688D01*
G01X4820555Y-6743688D01*
G01X5018442Y-6941575D01*
G01X5018442Y-6957089D01*
G01X5974088Y-9694403D02*
G01X5974088Y-9754403D01*
G03X6165715Y-9754403I95814J0D01*
G01X6165715Y-9694403D01*
G03X5974088Y-9694403I-95814J0D01*
G01X6283733Y-9364759D02*
G03X6160715Y-9309101I-70321J8352D01*
G01X6160715Y-9259388D01*
G03X5979088Y-9259388I-90814J0D01*
G01X5979088Y-9349388D01*
G03X6151101Y-9390055I90814J0D01*
G03X6283733Y-9364759I62311J33648D01*
G01X6402275Y-9549095D02*
G03X6388066Y-9583400I34305J-34305D01*
G01X6388066Y-9593145D01*
G01X6387201Y-9594716D01*
G01X6385614Y-9596873D01*
G03X6391163Y-9687621I50966J-42427D01*
G03X6482080Y-9687542I45417J48321D01*
G03X6572997Y-9687621I45500J48242D01*
G03X6578546Y-9596873I-45417J48321D01*
G01X6576959Y-9594716D01*
G01X6576094Y-9593145D01*
G01X6576094Y-9583400D01*
G03X6561885Y-9549095I-48514J0D01*
G01X6550914Y-9538125D01*
G01X6550914Y-8838775D01*
G01X6561885Y-8827805D01*
G03X6576094Y-8793500I-34305J34305D01*
G01X6576094Y-8783755D01*
G01X6576959Y-8782184D01*
G01X6578546Y-8780027D01*
G03X6572997Y-8689279I-50966J42427D01*
G03X6482080Y-8689358I-45417J-48321D01*
G03X6391163Y-8689279I-45500J-48242D01*
G03X6385614Y-8780027I45417J-48321D01*
G01X6387201Y-8782184D01*
G01X6388066Y-8783755D01*
G01X6388066Y-8793500D01*
G03X6402275Y-8827805I48514J0D01*
G01X6413246Y-8838775D01*
G01X6413246Y-9538125D01*
G01X6402275Y-9549095D01*
G01X6721094Y-9364764D02*
G03X6853711Y-9390080I70320J8357D01*
G03X7025712Y-9349388I81187J40692D01*
G01X7025712Y-9259388D01*
G03X6844085Y-9259388I-90814J0D01*
G01X6844085Y-9309073D01*
G03X6721094Y-9364764I-52671J-47335D01*
G01X6839085Y-9694403D02*
G01X6839085Y-9754403D01*
G03X7030712Y-9754403I95814J0D01*
G01X7030712Y-9694403D01*
G03X6839085Y-9694403I-95814J0D01*
G01X7468166Y-461400D02*
G03X7859834Y-461400I195834J0D01*
G03X7468166Y-461400I-195834J0D01*
G01X7468215Y-4161354D02*
G03X7859883Y-4161354I195834J0D01*
G03X7468215Y-4161354I-195834J0D01*
G01X7531166Y-5643000D02*
G03X7922834Y-5643000I195834J0D01*
G03X7531166Y-5643000I-195834J0D01*
G01X7531215Y-9342954D02*
G03X7922883Y-9342954I195834J0D01*
G03X7531215Y-9342954I-195834J0D01*
G01X8547100Y-4016374D02*
G03X8547100Y-3817746I0J99314D01*
G01X8225398Y-3817746D01*
G01X7918826Y-3511174D01*
G03X7778374Y-3651626I-70226J-70226D01*
G01X8114035Y-3987286D01*
G03X8184260Y-4016374I70226J70226D01*
G01X8547100Y-4016374D01*
G01X7981950Y-8612189D02*
G03X7871186Y-8661400I-44450J-49211D01*
G03X7981950Y-8710611I66314J0D01*
G03X8070850Y-8710611I44450J49211D01*
G03X8181614Y-8661400I44450J49211D01*
G03X8070850Y-8612189I-66314J0D01*
G03X7981950Y-8612189I-44450J-49211D01*
G01X8238859Y-5551568D02*
G01X8239358Y-5553291D01*
G01X8239761Y-5555938D01*
G03X8352691Y-5596791I66039J6038D01*
G03X8311838Y-5483861I-46891J46891D01*
G01X8309191Y-5483458D01*
G01X8307468Y-5482959D01*
G01X7998714Y-5174205D01*
G01X7998714Y-4604795D01*
G01X8287795Y-4315714D01*
G01X8438308Y-4315714D01*
G01X8439880Y-4316579D01*
G01X8442037Y-4318166D01*
G03X8550778Y-4267200I42427J50966D01*
G03X8442037Y-4216234I-66314J0D01*
G01X8439880Y-4217821D01*
G01X8438308Y-4218686D01*
G01X8267700Y-4218686D01*
G03X8233395Y-4232895I0J-48514D01*
G01X7915895Y-4550395D01*
G03X7901686Y-4584700I34305J-34305D01*
G01X7901686Y-5194300D01*
G03X7915895Y-5228605I48514J0D01*
G01X8238859Y-5551568D01*
G01X8312150Y-8612189D02*
G03X8201386Y-8661400I-44450J-49211D01*
G03X8312150Y-8710611I66314J0D01*
G03X8401050Y-8710611I44450J49211D01*
G03X8511814Y-8661400I44450J49211D01*
G03X8401050Y-8612189I-66314J0D01*
G03X8312150Y-8612189I-44450J-49211D01*
G01X8481498Y-5953607D02*
G01X8479341Y-5952020D01*
G03X8370600Y-6002986I-42427J-50966D01*
G03X8479341Y-6053952I66314J0D01*
G01X8481498Y-6052366D01*
G01X8483069Y-6051500D01*
G01X8589845Y-6051500D01*
G01X8591416Y-6052366D01*
G01X8593573Y-6053952D01*
G03X8702314Y-6002986I42427J50966D01*
G03X8593573Y-5952020I-66314J0D01*
G01X8591416Y-5953607D01*
G01X8589845Y-5954472D01*
G01X8483069Y-5954472D01*
G01X8481498Y-5953607D01*
G01X8509000Y-8600714D02*
G03X8558211Y-8489950I0J66314D01*
G03X8558211Y-8401050I-49211J44450D01*
G03X8509000Y-8290286I-49211J44450D01*
G03X8459789Y-8401050I0J-66314D01*
G03X8459789Y-8489950I49211J-44450D01*
G03X8509000Y-8600714I49211J-44450D01*
G01X8633186Y-8470900D02*
G03X8765814Y-8470900I66314J0D01*
G03X8633186Y-8470900I-66314J0D01*
G01X8940800Y-8290286D02*
G03X8896350Y-8307389I0J-66314D01*
G03X8807969Y-8306925I-44450J-49211D01*
G03X8797623Y-8394700I43931J-49675D01*
G03X8807969Y-8482475I54277J-38100D01*
G03X8896350Y-8482011I43931J49675D01*
G03X8902778Y-8487131I44450J49211D01*
G03X8969512Y-8741232I66734J-118287D01*
G01X9229512Y-8741232D01*
G03X9229512Y-8469605I0J135814D01*
G01X9084863Y-8469605D01*
G03X9083977Y-8394700I-55163J36805D01*
G03X9073631Y-8306925I-54277J38100D01*
G03X8985250Y-8307389I-43931J-49675D01*
G03X8940800Y-8290286I-44450J-49211D01*
G01X9229486Y-9089568D02*
G01X8969487Y-9089568D01*
G03X8969487Y-9361195I0J-135814D01*
G01X9229486Y-9361195D01*
G03X9229486Y-9089568I0J135814D01*
G01X9028186Y-6438900D02*
G03X9259814Y-6438900I115814J0D01*
G03X9028186Y-6438900I-115814J0D01*
G01X9282186Y-6438900D02*
G03X9513814Y-6438900I115814J0D01*
G03X9282186Y-6438900I-115814J0D01*
G01X9433700Y-8775393D02*
G01X9433700Y-9035392D01*
G03X9705327Y-9035392I135814J0D01*
G01X9705327Y-8775393D01*
G03X9433700Y-8775393I-135814J0D01*
G54D11*
G01X458339Y-457369D02*
G01X272665Y-457369D01*
G01X458339Y-457369D02*
G01X644013Y-457369D01*
G01X458339Y-457369D02*
G01X458339Y-271695D01*
G01X458339Y-457369D02*
G01X458339Y-643043D01*
G01X521339Y-5638969D02*
G01X335665Y-5638969D01*
G01X521339Y-5638969D02*
G01X707013Y-5638969D01*
G01X521339Y-5638969D02*
G01X521339Y-5453295D01*
G01X521339Y-5638969D02*
G01X521339Y-5824643D01*
G01X6069902Y-9724403D02*
G01X5984248Y-9724403D01*
G01X6069902Y-9724403D02*
G01X6155555Y-9724403D01*
G01X6069902Y-9724403D02*
G01X6069902Y-9608749D01*
G01X6069902Y-9724403D02*
G01X6069902Y-9840057D01*
G01X6069902Y-9304388D02*
G01X5989248Y-9304388D01*
G01X6069902Y-9304388D02*
G01X6150555Y-9304388D01*
G01X6069902Y-9304388D02*
G01X6069902Y-9178734D01*
G01X6069902Y-9304388D02*
G01X6069902Y-9430042D01*
G01X6934899Y-9724403D02*
G01X6849245Y-9724403D01*
G01X6934899Y-9724403D02*
G01X7020552Y-9724403D01*
G01X6934899Y-9724403D02*
G01X6934899Y-9608749D01*
G01X6934899Y-9724403D02*
G01X6934899Y-9840057D01*
G01X6934899Y-9304388D02*
G01X6854245Y-9304388D01*
G01X6934899Y-9304388D02*
G01X7015552Y-9304388D01*
G01X6934899Y-9304388D02*
G01X6934899Y-9178734D01*
G01X6934899Y-9304388D02*
G01X6934899Y-9430042D01*
G01X7664000Y-461400D02*
G01X7478326Y-461400D01*
G01X7664000Y-461400D02*
G01X7849674Y-461400D01*
G01X7664000Y-461400D02*
G01X7664000Y-275726D01*
G01X7664000Y-461400D02*
G01X7664000Y-647074D01*
G01X7664049Y-4161354D02*
G01X7478375Y-4161354D01*
G01X7664049Y-4161354D02*
G01X7849723Y-4161354D01*
G01X7664049Y-4161354D02*
G01X7664049Y-3975680D01*
G01X7664049Y-4161354D02*
G01X7664049Y-4347028D01*
G01X7727000Y-5643000D02*
G01X7541326Y-5643000D01*
G01X7727000Y-5643000D02*
G01X7912674Y-5643000D01*
G01X7727000Y-5643000D02*
G01X7727000Y-5457326D01*
G01X7727000Y-5643000D02*
G01X7727000Y-5828674D01*
G01X7727049Y-9342954D02*
G01X7541375Y-9342954D01*
G01X7727049Y-9342954D02*
G01X7912723Y-9342954D01*
G01X7727049Y-9342954D02*
G01X7727049Y-9157280D01*
G01X7727049Y-9342954D02*
G01X7727049Y-9528628D01*
G01X9099487Y-9225382D02*
G01X9099487Y-9099728D01*
G01X9099487Y-9225382D02*
G01X9099487Y-9351035D01*
G01X9099487Y-9225382D02*
G01X9355140Y-9225382D01*
G01X9099487Y-9225382D02*
G01X8843833Y-9225382D01*
G01X9398000Y-6438900D02*
G01X9292346Y-6438900D01*
G01X9398000Y-6438900D02*
G01X9503654Y-6438900D01*
G01X9398000Y-6438900D02*
G01X9398000Y-6333246D01*
G01X9398000Y-6438900D02*
G01X9398000Y-6544554D01*
G01X9569514Y-8905392D02*
G01X9569514Y-9161046D01*
G01X9569514Y-8905392D02*
G01X9569514Y-8649739D01*
G01X9569514Y-8905392D02*
G01X9443860Y-8905392D01*
G01X9569514Y-8905392D02*
G01X9695167Y-8905392D01*
G04 Copper End*

G04 TearDrop Start*
G36*
G01X2149724Y-6870700D02*
G01X2149724Y-6896100D01*
G01X2145129Y-6896975D01*
G01X2139372Y-6899280D01*
G01X2133453Y-6902539D01*
G01X2128374Y-6906275D01*
G01X2128374Y-6860525D01*
G01X2133453Y-6864261D01*
G01X2139372Y-6867520D01*
G01X2145129Y-6869825D01*
G01X2149724Y-6870700D01*
G37*
G36*
G01X2434976Y-6896100D02*
G01X2434976Y-6870700D01*
G01X2439571Y-6869825D01*
G01X2445328Y-6867520D01*
G01X2451247Y-6864261D01*
G01X2456326Y-6860525D01*
G01X2456326Y-6906275D01*
G01X2451247Y-6902539D01*
G01X2445328Y-6899280D01*
G01X2439571Y-6896975D01*
G01X2434976Y-6896100D01*
G37*
G36*
G01X2264024Y-7010400D02*
G01X2264024Y-7035800D01*
G01X2259429Y-7036675D01*
G01X2253672Y-7038980D01*
G01X2247753Y-7042239D01*
G01X2242674Y-7045975D01*
G01X2242674Y-7000225D01*
G01X2247753Y-7003961D01*
G01X2253672Y-7007220D01*
G01X2259429Y-7009525D01*
G01X2264024Y-7010400D01*
G37*
G36*
G01X2473076Y-7035800D02*
G01X2473076Y-7010400D01*
G01X2477671Y-7009525D01*
G01X2483428Y-7007220D01*
G01X2489347Y-7003961D01*
G01X2494426Y-7000225D01*
G01X2494426Y-7045975D01*
G01X2489347Y-7042239D01*
G01X2483428Y-7038980D01*
G01X2477671Y-7036675D01*
G01X2473076Y-7035800D01*
G37*
G36*
G01X2606724Y-7645620D02*
G01X2606724Y-7671020D01*
G01X2602129Y-7671894D01*
G01X2596373Y-7674200D01*
G01X2590454Y-7677459D01*
G01X2585374Y-7681195D01*
G01X2585374Y-7635445D01*
G01X2590454Y-7639181D01*
G01X2596373Y-7642440D01*
G01X2602129Y-7644745D01*
G01X2606724Y-7645620D01*
G37*
G36*
G01X2606724Y-7736620D02*
G01X2606724Y-7762020D01*
G01X2602129Y-7762895D01*
G01X2596373Y-7765200D01*
G01X2590454Y-7768459D01*
G01X2585374Y-7772195D01*
G01X2585374Y-7726445D01*
G01X2590454Y-7730181D01*
G01X2596373Y-7733440D01*
G01X2602129Y-7735746D01*
G01X2606724Y-7736620D01*
G37*
G36*
G01X3163756Y-7671020D02*
G01X3163756Y-7645620D01*
G01X3168351Y-7644745D01*
G01X3174108Y-7642440D01*
G01X3180027Y-7639181D01*
G01X3185106Y-7635445D01*
G01X3185106Y-7681195D01*
G01X3180027Y-7677459D01*
G01X3174108Y-7674200D01*
G01X3168351Y-7671894D01*
G01X3163756Y-7671020D01*
G37*
G36*
G01X3163756Y-7762020D02*
G01X3163756Y-7736620D01*
G01X3168351Y-7735746D01*
G01X3174108Y-7733440D01*
G01X3180027Y-7730181D01*
G01X3185106Y-7726445D01*
G01X3185106Y-7772195D01*
G01X3180027Y-7768459D01*
G01X3174108Y-7765200D01*
G01X3168351Y-7762895D01*
G01X3163756Y-7762020D01*
G37*
G36*
G01X3505200Y-5114676D02*
G01X3530600Y-5114676D01*
G01X3531475Y-5119271D01*
G01X3533780Y-5125028D01*
G01X3537039Y-5130947D01*
G01X3540775Y-5136026D01*
G01X3495025Y-5136026D01*
G01X3498761Y-5130947D01*
G01X3502020Y-5125028D01*
G01X3504325Y-5119271D01*
G01X3505200Y-5114676D01*
G37*
G36*
G01X3530600Y-4969124D02*
G01X3505200Y-4969124D01*
G01X3504325Y-4964529D01*
G01X3502020Y-4958772D01*
G01X3498761Y-4952853D01*
G01X3495025Y-4947774D01*
G01X3540775Y-4947774D01*
G01X3537039Y-4952853D01*
G01X3533780Y-4958772D01*
G01X3531475Y-4964529D01*
G01X3530600Y-4969124D01*
G37*
G36*
G01X4875737Y-6583451D02*
G01X4850337Y-6583451D01*
G01X4849463Y-6578857D01*
G01X4847157Y-6573100D01*
G01X4843898Y-6567181D01*
G01X4840162Y-6562101D01*
G01X4885912Y-6562101D01*
G01X4882176Y-6567181D01*
G01X4878917Y-6573100D01*
G01X4876612Y-6578857D01*
G01X4875737Y-6583451D01*
G37*
G36*
G01X4764014Y-6682474D02*
G01X4764014Y-6707874D01*
G01X4759420Y-6708749D01*
G01X4753663Y-6711054D01*
G01X4747744Y-6714313D01*
G01X4742664Y-6718049D01*
G01X4742664Y-6672299D01*
G01X4747744Y-6676035D01*
G01X4753663Y-6679294D01*
G01X4759420Y-6681600D01*
G01X4764014Y-6682474D01*
G37*
G36*
G01X5132488Y-6911888D02*
G01X5150448Y-6893928D01*
G01X5154316Y-6896558D01*
G01X5160017Y-6898999D01*
G01X5166506Y-6900880D01*
G01X5172740Y-6901830D01*
G01X5140390Y-6934180D01*
G01X5139440Y-6927946D01*
G01X5137559Y-6921457D01*
G01X5135118Y-6915756D01*
G01X5132488Y-6911888D01*
G37*
G36*
G01X5068141Y-6976235D02*
G01X5086102Y-6958275D01*
G01X5089969Y-6960905D01*
G01X5095670Y-6963346D01*
G01X5102159Y-6965227D01*
G01X5108393Y-6966177D01*
G01X5076043Y-6998527D01*
G01X5075093Y-6992293D01*
G01X5073212Y-6985803D01*
G01X5070772Y-6980102D01*
G01X5068141Y-6976235D01*
G37*
G36*
G01X6540280Y-8779124D02*
G01X6514880Y-8779124D01*
G01X6514006Y-8774529D01*
G01X6511700Y-8768772D01*
G01X6508441Y-8762853D01*
G01X6504705Y-8757774D01*
G01X6550455Y-8757774D01*
G01X6546719Y-8762853D01*
G01X6543460Y-8768772D01*
G01X6541155Y-8774529D01*
G01X6540280Y-8779124D01*
G37*
G36*
G01X6449280Y-8779124D02*
G01X6423880Y-8779124D01*
G01X6423005Y-8774529D01*
G01X6420700Y-8768772D01*
G01X6417441Y-8762853D01*
G01X6413705Y-8757774D01*
G01X6459455Y-8757774D01*
G01X6455719Y-8762853D01*
G01X6452460Y-8768772D01*
G01X6450154Y-8774529D01*
G01X6449280Y-8779124D01*
G37*
G36*
G01X6514880Y-9597776D02*
G01X6540280Y-9597776D01*
G01X6541155Y-9602371D01*
G01X6543460Y-9608128D01*
G01X6546719Y-9614047D01*
G01X6550455Y-9619126D01*
G01X6504705Y-9619126D01*
G01X6508441Y-9614047D01*
G01X6511700Y-9608128D01*
G01X6514006Y-9602371D01*
G01X6514880Y-9597776D01*
G37*
G36*
G01X6423880Y-9597776D02*
G01X6449280Y-9597776D01*
G01X6450154Y-9602371D01*
G01X6452460Y-9608128D01*
G01X6455719Y-9614047D01*
G01X6459455Y-9619126D01*
G01X6413705Y-9619126D01*
G01X6417441Y-9614047D01*
G01X6420700Y-9608128D01*
G01X6423005Y-9602371D01*
G01X6423880Y-9597776D01*
G37*
G36*
G01X8478438Y-5990286D02*
G01X8478438Y-6015686D01*
G01X8473843Y-6016561D01*
G01X8468086Y-6018866D01*
G01X8462167Y-6022125D01*
G01X8457088Y-6025861D01*
G01X8457088Y-5980111D01*
G01X8462167Y-5983847D01*
G01X8468086Y-5987106D01*
G01X8473843Y-5989412D01*
G01X8478438Y-5990286D01*
G37*
G36*
G01X8594476Y-6015686D02*
G01X8594476Y-5990286D01*
G01X8599071Y-5989412D01*
G01X8604828Y-5987106D01*
G01X8610747Y-5983847D01*
G01X8615826Y-5980111D01*
G01X8615826Y-6025861D01*
G01X8610747Y-6022125D01*
G01X8604828Y-6018866D01*
G01X8599071Y-6016561D01*
G01X8594476Y-6015686D01*
G37*
G36*
G01X8442940Y-4279900D02*
G01X8442940Y-4254500D01*
G01X8447534Y-4253625D01*
G01X8453291Y-4251320D01*
G01X8459210Y-4248061D01*
G01X8464290Y-4244325D01*
G01X8464290Y-4290075D01*
G01X8459210Y-4286339D01*
G01X8453291Y-4283080D01*
G01X8447534Y-4280775D01*
G01X8442940Y-4279900D01*
G37*
G36*
G01X8267458Y-5529518D02*
G01X8285418Y-5511558D01*
G01X8289285Y-5514188D01*
G01X8294986Y-5516629D01*
G01X8301476Y-5518510D01*
G01X8307710Y-5519460D01*
G01X8275360Y-5551810D01*
G01X8274410Y-5545576D01*
G01X8272529Y-5539086D01*
G01X8270088Y-5533385D01*
G01X8267458Y-5529518D01*
G37*
G04 TearDrop End*

G04 Pad Start*
G54D12*
G01X521339Y-5638969D03*
G01X527046Y-9342954D03*
G01X7727000Y-5643000D03*
G01X7727049Y-9342954D03*
G01X458339Y-457369D03*
G01X7664000Y-461400D03*
G01X464046Y-4161354D03*
G01X7664049Y-4161354D03*
G54D13*
G01X9144000Y-6438900D03*
G01X9398000Y-6438900D03*
G54D14*
G01X9099512Y-8605418D03*
G01X9099487Y-9225382D03*
G54D15*
G01X9569514Y-8905392D03*
G54D17*
G01X6069902Y-9304388D03*
G01X6934899Y-9304388D03*
G54D18*
G01X6069902Y-9724403D03*
G01X6934899Y-9724403D03*
G04 Pad End*

G04 Via Start*
G54D19*
G01X8547100Y-3917060D03*
G01X7848600Y-3581400D03*
G01X4381500Y-3251200D03*
G01X3670300Y-3263900D03*
G54D20*
G01X2108200Y-6883400D03*
G01X2476500Y-6883400D03*
G01X2222500Y-7023100D03*
G01X2514600Y-7023100D03*
G01X2565200Y-7658320D03*
G01X2565200Y-7749320D03*
G01X3205280Y-7658320D03*
G01X3205280Y-7749320D03*
G01X3517900Y-5156200D03*
G01X3517900Y-4927600D03*
G01X4863037Y-6541927D03*
G01X4722490Y-6695174D03*
G01X5170830Y-6932270D03*
G01X5106483Y-6996617D03*
G01X6527580Y-8737600D03*
G01X6436580Y-8737600D03*
G01X6527580Y-9639300D03*
G01X6436580Y-9639300D03*
G01X4990233Y-3669433D03*
G01X5067300Y-3784221D03*
G01X5067300Y-3889430D03*
G01X5067300Y-4040231D03*
G01X5067300Y-4179342D03*
G01X5035096Y-4312104D03*
G01X4938069Y-4409131D03*
G01X4732828Y-4495800D03*
G01X4610271Y-4532033D03*
G01X4843761Y-3644900D03*
G01X4668641Y-3687959D03*
G01X4619279Y-3826221D03*
G01X4497650Y-3909750D03*
G01X4457700Y-4071745D03*
G01X4349276Y-4265021D03*
G01X4203223Y-4318477D03*
G01X4165600Y-4462775D03*
G01X4165600Y-4584700D03*
G01X8436914Y-6002986D03*
G01X8636000Y-6002986D03*
G01X8484464Y-4267200D03*
G01X8305800Y-5549900D03*
G01X543814Y-1736186D03*
G01X1051814Y-1736186D03*
G01X8671814Y-8340186D03*
G01X9179814Y-8340186D03*
G01X543814Y-8848186D03*
G01X543814Y-8340186D03*
G01X543814Y-6308186D03*
G01X543814Y-5292186D03*
G01X543814Y-4784186D03*
G01X543814Y-3768186D03*
G01X543814Y-1228186D03*
G01X543814Y-720186D03*
G01X543814Y-212186D03*
G01X1051814Y-9356186D03*
G01X1051814Y-8848186D03*
G01X1051814Y-8340186D03*
G01X1051814Y-5800186D03*
G01X1051814Y-5292186D03*
G01X1051814Y-4784186D03*
G01X1051814Y-4276186D03*
G01X1051814Y-3768186D03*
G01X1051814Y-720186D03*
G01X1051814Y-212186D03*
G01X1559814Y-9356186D03*
G01X1559814Y-8848186D03*
G01X1559814Y-8340186D03*
G01X1559814Y-7832186D03*
G01X1559814Y-720186D03*
G01X1559814Y-212186D03*
G01X2067814Y-9356186D03*
G01X2067814Y-8848186D03*
G01X2067814Y-8340186D03*
G01X2067814Y-720186D03*
G01X2067814Y-212186D03*
G01X2575814Y-9356186D03*
G01X2575814Y-8848186D03*
G01X2575814Y-8340186D03*
G01X2575814Y-720186D03*
G01X2575814Y-212186D03*
G01X3083814Y-9356186D03*
G01X3083814Y-720186D03*
G01X3083814Y-212186D03*
G01X3591814Y-9356186D03*
G01X3591814Y-8848186D03*
G01X3591814Y-8340186D03*
G01X3591814Y-720186D03*
G01X3591814Y-212186D03*
G01X4099814Y-9356186D03*
G01X4099814Y-8848186D03*
G01X4099814Y-8340186D03*
G01X4099814Y-7832186D03*
G01X4099814Y-720186D03*
G01X4099814Y-212186D03*
G01X4607814Y-9356186D03*
G01X4607814Y-8848186D03*
G01X4607814Y-8340186D03*
G01X4607814Y-7832186D03*
G01X4607814Y-7324186D03*
G01X4607814Y-720186D03*
G01X4607814Y-212186D03*
G01X5115814Y-9356186D03*
G01X5115814Y-8848186D03*
G01X5115814Y-8340186D03*
G01X5115814Y-7832186D03*
G01X5115814Y-7324186D03*
G01X5115814Y-6816186D03*
G01X5115814Y-720186D03*
G01X5115814Y-212186D03*
G01X5623814Y-9356186D03*
G01X5623814Y-8848186D03*
G01X5623814Y-8340186D03*
G01X5623814Y-7832186D03*
G01X5623814Y-6816186D03*
G01X5623814Y-6308186D03*
G01X5623814Y-720186D03*
G01X5623814Y-212186D03*
G01X6131814Y-8848186D03*
G01X6131814Y-8340186D03*
G01X6131814Y-7324186D03*
G01X6131814Y-6816186D03*
G01X6131814Y-6308186D03*
G01X6131814Y-720186D03*
G01X6131814Y-212186D03*
G01X6639814Y-8340186D03*
G01X6639814Y-7832186D03*
G01X6639814Y-7324186D03*
G01X6639814Y-6816186D03*
G01X6639814Y-6308186D03*
G01X6639814Y-720186D03*
G01X6639814Y-212186D03*
G01X7147814Y-9356186D03*
G01X7147814Y-8848186D03*
G01X7147814Y-8340186D03*
G01X7147814Y-7832186D03*
G01X7147814Y-7324186D03*
G01X7147814Y-6816186D03*
G01X7147814Y-6308186D03*
G01X7147814Y-720186D03*
G01X7147814Y-212186D03*
G01X7655814Y-8848186D03*
G01X7655814Y-8340186D03*
G01X7655814Y-7832186D03*
G01X7655814Y-7324186D03*
G01X7655814Y-6816186D03*
G01X7655814Y-6308186D03*
G01X7655814Y-2244186D03*
G01X7655814Y-1736186D03*
G01X7655814Y-1228186D03*
G01X7655814Y-720186D03*
G01X7655814Y-212186D03*
G01X8163814Y-9356186D03*
G01X8163814Y-8848186D03*
G01X8163814Y-7324186D03*
G01X8163814Y-6816186D03*
G01X8163814Y-6308186D03*
G01X8163814Y-1736186D03*
G01X8163814Y-1228186D03*
G01X8163814Y-720186D03*
G01X8163814Y-212186D03*
G01X8671814Y-9356186D03*
G01X8671814Y-8848186D03*
G01X8671814Y-5800186D03*
G01X8671814Y-3768186D03*
G01X8671814Y-3260186D03*
G01X8671814Y-1736186D03*
G01X8671814Y-1228186D03*
G01X8671814Y-720186D03*
G01X8671814Y-212186D03*
G01X9179814Y-8848186D03*
G01X9179814Y-4784186D03*
G01X9179814Y-1736186D03*
G01X9179814Y-1228186D03*
G01X9179814Y-720186D03*
G01X9179814Y-212186D03*
G01X9687814Y-6816186D03*
G01X9687814Y-6308186D03*
G01X9687814Y-5800186D03*
G01X9687814Y-5292186D03*
G01X9687814Y-4784186D03*
G01X9687814Y-4276186D03*
G01X9687814Y-3768186D03*
G01X9687814Y-3260186D03*
G01X9687814Y-2752186D03*
G01X9687814Y-2244186D03*
G01X9687814Y-1736186D03*
G01X9687814Y-1228186D03*
G01X9687814Y-720186D03*
G01X9687814Y-212186D03*
G01X9687814Y-9356186D03*
G01X9687814Y-8340186D03*
G01X810514Y-3126486D03*
G01X1318514Y-3126486D03*
G01X1318514Y-6174486D03*
G01X1826514Y-2110486D03*
G01X1826514Y-3126486D03*
G01X1826514Y-6174486D03*
G01X1826514Y-5666486D03*
G01X1826514Y-5158486D03*
G01X1826514Y-4650486D03*
G01X1826514Y-4142486D03*
G01X1826514Y-3634486D03*
G01X2334514Y-2618486D03*
G01X2334514Y-2110486D03*
G01X2334514Y-1602486D03*
G01X2334514Y-3126486D03*
G01X2334514Y-6174486D03*
G01X2334514Y-5666486D03*
G01X2334514Y-5158486D03*
G01X2334514Y-4650486D03*
G01X2334514Y-4142486D03*
G01X2334514Y-3634486D03*
G01X2842514Y-2618486D03*
G01X2842514Y-2110486D03*
G01X2842514Y-1602486D03*
G01X2842514Y-3126486D03*
G01X2842514Y-6682486D03*
G01X2842514Y-6174486D03*
G01X2842514Y-5666486D03*
G01X2842514Y-5158486D03*
G01X2842514Y-4650486D03*
G01X2842514Y-4142486D03*
G01X2842514Y-3634486D03*
G01X3350514Y-2618486D03*
G01X3350514Y-2110486D03*
G01X3350514Y-1602486D03*
G01X3350514Y-3126486D03*
G01X3350514Y-4650486D03*
G01X3350514Y-4142486D03*
G01X3350514Y-3634486D03*
G01X3350514Y-8206486D03*
G01X3858514Y-2618486D03*
G01X3858514Y-2110486D03*
G01X3858514Y-1602486D03*
G01X3858514Y-3126486D03*
G01X3858514Y-3634486D03*
G01X3858514Y-4142486D03*
G01X3858514Y-7698486D03*
G01X3858514Y-7190486D03*
G01X3858514Y-6682486D03*
G01X3858514Y-6174486D03*
G01X3858514Y-5666486D03*
G01X4366514Y-7190486D03*
G01X4366514Y-6682486D03*
G01X4366514Y-6174486D03*
G01X4366514Y-5666486D03*
G01X4366514Y-4142486D03*
G01X4366514Y-3634486D03*
G01X4366514Y-2618486D03*
G01X4366514Y-2110486D03*
G01X4366514Y-1602486D03*
G01X4874514Y-6174486D03*
G01X4874514Y-5666486D03*
G01X4874514Y-4650486D03*
G01X4874514Y-2618486D03*
G01X4874514Y-2110486D03*
G01X4874514Y-1602486D03*
G01X5382514Y-6174486D03*
G01X5382514Y-5666486D03*
G01X5382514Y-3634486D03*
G01X5382514Y-2618486D03*
G01X5382514Y-2110486D03*
G01X5382514Y-1602486D03*
G01X5890514Y-5666486D03*
G01X5890514Y-5158486D03*
G01X5890514Y-4650486D03*
G01X5890514Y-4142486D03*
G01X5890514Y-2618486D03*
G01X5890514Y-2110486D03*
G01X5890514Y-1602486D03*
G01X6398514Y-5666486D03*
G01X6398514Y-5158486D03*
G01X6398514Y-4650486D03*
G01X6398514Y-4142486D03*
G01X6398514Y-3126486D03*
G01X6398514Y-2618486D03*
G01X6398514Y-2110486D03*
G01X6398514Y-1602486D03*
G01X6906514Y-5666486D03*
G01X6906514Y-5158486D03*
G01X6906514Y-4650486D03*
G01X6906514Y-4142486D03*
G01X6906514Y-3126486D03*
G01X6906514Y-2618486D03*
G01X6906514Y-2110486D03*
G01X6906514Y-1602486D03*
G01X7414514Y-5666486D03*
G01X7414514Y-5158486D03*
G01X7414514Y-4650486D03*
G01X7414514Y-4142486D03*
G01X7414514Y-3126486D03*
G01X7922514Y-4142486D03*
G01X7922514Y-3126486D03*
G01X1178814Y-7067685D03*
G01X1686814Y-7067685D03*
G01X1270643Y-2104703D03*
G01X8623300Y-2781300D03*
G01X8674100Y-5499100D03*
G01X8445500Y-8661400D03*
G01X8356600Y-8661400D03*
G01X8267700Y-8661400D03*
G01X8699500Y-8470900D03*
G01X7937500Y-8661400D03*
G01X8115300Y-8661400D03*
G01X8026400Y-8661400D03*
G01X8851900Y-8432800D03*
G01X9029700Y-8432800D03*
G01X8940800Y-8432800D03*
G01X8851900Y-8356600D03*
G01X9029700Y-8356600D03*
G01X8940800Y-8356600D03*
G01X8509000Y-8534400D03*
G01X8509000Y-8356600D03*
G01X8509000Y-8445500D03*
G01X2247900Y-6731000D03*
G01X2336800Y-6756400D03*
G54D21*
G01X8941562Y-4914138D03*
G01X9041638Y-4914138D03*
G01X9041638Y-4814062D03*
G01X8941562Y-4814062D03*
G04 Via End*

G04 Track Start*
G54D22*
G01X8547100Y-3917060D02*
G01X8184260Y-3917060D01*
G01X7848600Y-3581400D01*
G01X4381500Y-3251200D02*
G01X3683000Y-3251200D01*
G01X3670300Y-3263900D01*
G54D11*
G01X2108200Y-6883400D02*
G01X2476500Y-6883400D01*
G01X2222500Y-7023100D02*
G01X2514600Y-7023100D01*
G01X2565200Y-7658320D02*
G01X2621100Y-7658320D01*
G01X2565200Y-7749320D02*
G01X2621100Y-7749320D01*
G01X2621100Y-7658320D02*
G01X2646280Y-7683500D01*
G01X2621100Y-7749320D02*
G01X2646280Y-7724140D01*
G01X3124200Y-7724140D01*
G01X2646280Y-7683500D02*
G01X3124200Y-7683500D01*
G01X3149380Y-7658320D02*
G01X3205280Y-7658320D01*
G01X3149380Y-7749320D02*
G01X3205280Y-7749320D01*
G01X3124200Y-7683500D02*
G01X3149380Y-7658320D01*
G01X3124200Y-7724140D02*
G01X3149380Y-7749320D01*
G01X3517900Y-5156200D02*
G01X3517900Y-4927600D01*
G01X4863037Y-6541927D02*
G01X4863037Y-6660087D01*
G01X4722490Y-6695174D02*
G01X4840650Y-6695174D01*
G01X5131303Y-6892743D02*
G01X5170830Y-6932270D01*
G01X5066956Y-6957089D02*
G01X5106483Y-6996617D01*
G01X5095693Y-6892743D02*
G01X5131303Y-6892743D01*
G01X5066956Y-6921479D02*
G01X5066956Y-6957089D01*
G01X6527580Y-8737600D02*
G01X6527580Y-8793500D01*
G01X6436580Y-8737600D02*
G01X6436580Y-8793500D01*
G01X6527580Y-8793500D02*
G01X6502400Y-8818680D01*
G01X6436580Y-8793500D02*
G01X6461760Y-8818680D01*
G01X6527580Y-9583400D02*
G01X6527580Y-9639300D01*
G01X6436580Y-9583400D02*
G01X6436580Y-9639300D01*
G01X6502400Y-9558220D02*
G01X6527580Y-9583400D01*
G01X6461760Y-9558220D02*
G01X6436580Y-9583400D01*
G01X4863037Y-6660087D02*
G01X5095693Y-6892743D01*
G01X4840650Y-6695174D02*
G01X5066956Y-6921479D01*
G01X6502400Y-8818680D02*
G01X6502400Y-9558220D01*
G01X6461760Y-8818680D02*
G01X6461760Y-9558220D01*
G01X8436914Y-6002986D02*
G01X8636000Y-6002986D01*
G01X8484464Y-4267200D02*
G01X8267700Y-4267200D01*
G01X7950200Y-4584700D01*
G01X7950200Y-5194300D01*
G01X8305800Y-5549900D01*
G04 Track End*

M02*

