G04 Layer: DrillDrawingLayer*
G04 EasyEDA Pro v3.2.121, 2026-05-18 14:24:10*
G04 Gerber Generator version 0.3*
G04 Scale: 100 percent, Rotated: No, Reflected: No*
G04 Dimensions in millimeters*
G04 Leading zeros omitted, absolute positions, 4 integers and 5 decimals*
G04 Generated by one-click*
%FSLAX45Y45*%
%MOMM*%
%AMIconRect*4,1,4,0.28,-0.28,-0.28,-0.28,-0.28,0.28,0.28,0.28,0.28,-0.28,0*4,0,4,0.233333,-0.233333,0.233333,0.233333,-0.233333,0.233333,-0.233333,-0.233333,0.233333,-0.233333,0*%
%AMIconTriangle*4,1,3,-0.339593,0.240473,0.339593,0.240473,0,-0.37884,-0.339593,0.240473,0*4,0,3,-0.265673,0.19404,0,-0.27342,0.266233,0.19404,-0.265673,0.19404,0*%
%AMIconStar6*4,1,12,0.12068,0.20888,0.298527,0.172713,0.241313,0,0.298527,-0.17206,0.12068,-0.208227,0,-0.344073,-0.120073,-0.208227,-0.298573,-0.17206,-0.240707,0,-0.298573,0.17206,-0.120073,0.20888,0,0.344073,0.12068,0.20888,0*4,0,12,-0.000467,0.273467,-0.090067,0.171733,-0.237533,0.136733,-0.193667,-0.007467,-0.237533,-0.1372,-0.090067,-0.171733,-0.000467,-0.273933,0.090067,-0.171733,0.237533,-0.1372,0.194133,0.007,0.237533,0.1372,0.090067,0.171267,-0.000467,0.273467,0*%
%AMIconStar4*4,1,8,-0.311733,0.311733,0,0.202533,0.311733,0.311733,0.202533,0,0.311733,-0.311733,0,-0.202533,-0.304407,-0.311733,-0.202533,0,-0.311733,0.311733,0*4,0,8,0.233333,-0.233333,0.1512,0,0.233333,0.233333,0,0.1512,-0.233333,0.233333,-0.1512,0,-0.233333,-0.233333,0,-0.1512,0.233333,-0.233333,0*%
%AMIconPlus*4,1,12,0.1736,-0.28,-0.1736,-0.28,-0.1736,-0.1736,-0.28,-0.1736,-0.28,0.1736,-0.1736,0.1736,-0.1736,0.28,0.1736,0.28,0.1736,0.1736,0.28,0.1736,0.28,-0.1736,0.1736,-0.1736,0.1736,-0.28,0*4,0,12,0.126933,-0.233333,0.126933,-0.126933,0.233333,-0.126933,0.233333,0.126933,0.126933,0.126933,0.126933,0.233333,-0.126933,0.233333,-0.126933,0.126933,-0.233333,0.126933,-0.233333,-0.126933,-0.126933,-0.126933,-0.126933,-0.233333,0.126933,-0.233333,0*%
%AMIconX*4,1,16,0.28,-0.28,0.076347,-0.28,0,-0.203653,-0.076347,-0.28,-0.28,-0.28,-0.28,-0.076347,-0.203653,0,-0.28,0.076347,-0.28,0.28,-0.076347,0.28,0,0.203653,0.076347,0.28,0.28,0.28,0.28,0.076347,0.203653,0,0.28,-0.076347,0.28,-0.28,0*4,0,16,0.23352,-0.23296,0.23352,-0.095853,0.137107,0.000093,0.23352,0.095853,0.23352,0.2331,0.095853,0.2331,0,0.137107,-0.095853,0.2331,-0.23352,0.2331,-0.23352,0.095853,-0.137107,0.000093,-0.23352,-0.095853,-0.23352,-0.23296,-0.095853,-0.23296,0,-0.137107,0.095853,-0.23296,0.23352,-0.23296,0*%
%AMIconDiamond*4,1,4,0,-0.364,-0.364,0,0,0.364,0.364,0,0,-0.364,0*4,0,4,0,-0.284807,0.284807,0,0,0.28504,-0.284807,0,0,-0.284807,0*%
%ADD10IconRect*%
%ADD11C,0.616X0.522667*%
%ADD12IconTriangle*%
%ADD13IconStar6*%
%ADD14IconStar4*%
%ADD15IconPlus*%
%ADD16IconX*%
%ADD17IconDiamond*%
%ADD18C,0.2032*%
%ADD19C,0.254*%
G75*


G04 Drill Drawing Start*
G54D10*
G01X9144000Y-6438900D03*
G01X9398000Y-6438900D03*
G54D11*
G01X6069907Y-9304396D03*
G01X6934909Y-9304398D03*
G54D12*
G01X6069902Y-9724403D03*
G01X6934899Y-9724403D03*
G54D13*
G01X6213412Y-9356407D03*
G01X6791414Y-9356407D03*
G54D14*
G01X9099487Y-9225382D03*
G01X9099512Y-8605418D03*
G01X9569514Y-8905392D03*
G54D15*
G01X3670300Y-3263900D03*
G01X4381500Y-3251200D03*
G01X7848600Y-3581400D03*
G01X8547100Y-3917060D03*
G54D16*
G01X458339Y-457369D03*
G01X464046Y-4161354D03*
G01X521339Y-5638969D03*
G01X527046Y-9342954D03*
G01X7664000Y-461400D03*
G01X7664049Y-4161354D03*
G01X7727000Y-5643000D03*
G01X7727049Y-9342954D03*
G54D17*
G01X543814Y-8848186D03*
G01X543814Y-8340186D03*
G01X543814Y-6308186D03*
G01X543814Y-5292186D03*
G01X543814Y-4784186D03*
G01X543814Y-3768186D03*
G01X543814Y-1736186D03*
G01X543814Y-1228186D03*
G01X543814Y-720186D03*
G01X543814Y-212186D03*
G01X810514Y-3126486D03*
G01X1051814Y-9356186D03*
G01X1051814Y-8848186D03*
G01X1051814Y-8340186D03*
G01X1051814Y-5800186D03*
G01X1051814Y-5292186D03*
G01X1051814Y-4784186D03*
G01X1051814Y-4276186D03*
G01X1051814Y-3768186D03*
G01X1051814Y-1736186D03*
G01X1051814Y-720186D03*
G01X1051814Y-212186D03*
G01X1178814Y-7067685D03*
G01X1270643Y-2104703D03*
G01X1318514Y-6174486D03*
G01X1318514Y-3126486D03*
G01X1559814Y-9356186D03*
G01X1559814Y-8848186D03*
G01X1559814Y-8340186D03*
G01X1559814Y-7832186D03*
G01X1559814Y-720186D03*
G01X1559814Y-212186D03*
G01X1686814Y-7067685D03*
G01X1826514Y-6174486D03*
G01X1826514Y-5666486D03*
G01X1826514Y-5158486D03*
G01X1826514Y-4650486D03*
G01X1826514Y-4142486D03*
G01X1826514Y-3634486D03*
G01X1826514Y-3126486D03*
G01X1826514Y-2110486D03*
G01X2067814Y-9356186D03*
G01X2067814Y-8848186D03*
G01X2067814Y-8340186D03*
G01X2067814Y-720186D03*
G01X2067814Y-212186D03*
G01X2108200Y-6883400D03*
G01X2222500Y-7023100D03*
G01X2247900Y-6731000D03*
G01X2334514Y-6174486D03*
G01X2334514Y-5666486D03*
G01X2334514Y-5158486D03*
G01X2334514Y-4650486D03*
G01X2334514Y-4142486D03*
G01X2334514Y-3634486D03*
G01X2334514Y-3126486D03*
G01X2334514Y-2618486D03*
G01X2334514Y-2110486D03*
G01X2334514Y-1602486D03*
G01X2336800Y-6756400D03*
G01X2476500Y-6883400D03*
G01X2514600Y-7023100D03*
G01X2565200Y-7749320D03*
G01X2565200Y-7658320D03*
G01X2575814Y-9356186D03*
G01X2575814Y-8848186D03*
G01X2575814Y-8340186D03*
G01X2575814Y-720186D03*
G01X2575814Y-212186D03*
G01X2842514Y-6682486D03*
G01X2842514Y-6174486D03*
G01X2842514Y-5666486D03*
G01X2842514Y-5158486D03*
G01X2842514Y-4650486D03*
G01X2842514Y-4142486D03*
G01X2842514Y-3634486D03*
G01X2842514Y-3126486D03*
G01X2842514Y-2618486D03*
G01X2842514Y-2110486D03*
G01X2842514Y-1602486D03*
G01X3083814Y-9356186D03*
G01X3083814Y-720186D03*
G01X3083814Y-212186D03*
G01X3205280Y-7749320D03*
G01X3205280Y-7658320D03*
G01X3350514Y-8206486D03*
G01X3350514Y-4650486D03*
G01X3350514Y-4142486D03*
G01X3350514Y-3634486D03*
G01X3350514Y-3126486D03*
G01X3350514Y-2618486D03*
G01X3350514Y-2110486D03*
G01X3350514Y-1602486D03*
G01X3517900Y-5156200D03*
G01X3517900Y-4927600D03*
G01X3591814Y-9356186D03*
G01X3591814Y-8848186D03*
G01X3591814Y-8340186D03*
G01X3591814Y-720186D03*
G01X3591814Y-212186D03*
G01X3858514Y-7698486D03*
G01X3858514Y-7190486D03*
G01X3858514Y-6682486D03*
G01X3858514Y-6174486D03*
G01X3858514Y-5666486D03*
G01X3858514Y-4142486D03*
G01X3858514Y-3634486D03*
G01X3858514Y-3126486D03*
G01X3858514Y-2618486D03*
G01X3858514Y-2110486D03*
G01X3858514Y-1602486D03*
G01X4099814Y-9356186D03*
G01X4099814Y-8848186D03*
G01X4099814Y-8340186D03*
G01X4099814Y-7832186D03*
G01X4099814Y-720186D03*
G01X4099814Y-212186D03*
G01X4165600Y-4584700D03*
G01X4165600Y-4462775D03*
G01X4203223Y-4318477D03*
G01X4349276Y-4265021D03*
G01X4366514Y-7190486D03*
G01X4366514Y-6682486D03*
G01X4366514Y-6174486D03*
G01X4366514Y-5666486D03*
G01X4366514Y-4142486D03*
G01X4366514Y-3634486D03*
G01X4366514Y-2618486D03*
G01X4366514Y-2110486D03*
G01X4366514Y-1602486D03*
G01X4457700Y-4071745D03*
G01X4497650Y-3909750D03*
G01X4607814Y-9356186D03*
G01X4607814Y-8848186D03*
G01X4607814Y-8340186D03*
G01X4607814Y-7832186D03*
G01X4607814Y-7324186D03*
G01X4607814Y-720186D03*
G01X4607814Y-212186D03*
G01X4610271Y-4532033D03*
G01X4619279Y-3826221D03*
G01X4668641Y-3687959D03*
G01X4722490Y-6695174D03*
G01X4732828Y-4495800D03*
G01X4843761Y-3644900D03*
G01X4863037Y-6541927D03*
G01X4874514Y-6174486D03*
G01X4874514Y-5666486D03*
G01X4874514Y-4650486D03*
G01X4874514Y-2618486D03*
G01X4874514Y-2110486D03*
G01X4874514Y-1602486D03*
G01X4938069Y-4409131D03*
G01X4990233Y-3669433D03*
G01X5035096Y-4312104D03*
G01X5067300Y-4179342D03*
G01X5067300Y-4040231D03*
G01X5067300Y-3889430D03*
G01X5067300Y-3784221D03*
G01X5106483Y-6996617D03*
G01X5115814Y-9356186D03*
G01X5115814Y-8848186D03*
G01X5115814Y-8340186D03*
G01X5115814Y-7832186D03*
G01X5115814Y-7324186D03*
G01X5115814Y-6816186D03*
G01X5115814Y-720186D03*
G01X5115814Y-212186D03*
G01X5170830Y-6932270D03*
G01X5382514Y-6174486D03*
G01X5382514Y-5666486D03*
G01X5382514Y-3634486D03*
G01X5382514Y-2618486D03*
G01X5382514Y-2110486D03*
G01X5382514Y-1602486D03*
G01X5623814Y-9356186D03*
G01X5623814Y-8848186D03*
G01X5623814Y-8340186D03*
G01X5623814Y-7832186D03*
G01X5623814Y-6816186D03*
G01X5623814Y-6308186D03*
G01X5623814Y-720186D03*
G01X5623814Y-212186D03*
G01X5890514Y-5666486D03*
G01X5890514Y-5158486D03*
G01X5890514Y-4650486D03*
G01X5890514Y-4142486D03*
G01X5890514Y-2618486D03*
G01X5890514Y-2110486D03*
G01X5890514Y-1602486D03*
G01X6131814Y-8848186D03*
G01X6131814Y-8340186D03*
G01X6131814Y-7324186D03*
G01X6131814Y-6816186D03*
G01X6131814Y-6308186D03*
G01X6131814Y-720186D03*
G01X6131814Y-212186D03*
G01X6398514Y-5666486D03*
G01X6398514Y-5158486D03*
G01X6398514Y-4650486D03*
G01X6398514Y-4142486D03*
G01X6398514Y-3126486D03*
G01X6398514Y-2618486D03*
G01X6398514Y-2110486D03*
G01X6398514Y-1602486D03*
G01X6436580Y-9639300D03*
G01X6436580Y-8737600D03*
G01X6527580Y-9639300D03*
G01X6527580Y-8737600D03*
G01X6639814Y-8340186D03*
G01X6639814Y-7832186D03*
G01X6639814Y-7324186D03*
G01X6639814Y-6816186D03*
G01X6639814Y-6308186D03*
G01X6639814Y-720186D03*
G01X6639814Y-212186D03*
G01X6906514Y-5666486D03*
G01X6906514Y-5158486D03*
G01X6906514Y-4650486D03*
G01X6906514Y-4142486D03*
G01X6906514Y-3126486D03*
G01X6906514Y-2618486D03*
G01X6906514Y-2110486D03*
G01X6906514Y-1602486D03*
G01X7147814Y-9356186D03*
G01X7147814Y-8848186D03*
G01X7147814Y-8340186D03*
G01X7147814Y-7832186D03*
G01X7147814Y-7324186D03*
G01X7147814Y-6816186D03*
G01X7147814Y-6308186D03*
G01X7147814Y-720186D03*
G01X7147814Y-212186D03*
G01X7414514Y-5666486D03*
G01X7414514Y-5158486D03*
G01X7414514Y-4650486D03*
G01X7414514Y-4142486D03*
G01X7414514Y-3126486D03*
G01X7655814Y-8848186D03*
G01X7655814Y-8340186D03*
G01X7655814Y-7832186D03*
G01X7655814Y-7324186D03*
G01X7655814Y-6816186D03*
G01X7655814Y-6308186D03*
G01X7655814Y-2244186D03*
G01X7655814Y-1736186D03*
G01X7655814Y-1228186D03*
G01X7655814Y-720186D03*
G01X7655814Y-212186D03*
G01X7922514Y-4142486D03*
G01X7922514Y-3126486D03*
G01X7937500Y-8661400D03*
G01X8026400Y-8661400D03*
G01X8115300Y-8661400D03*
G01X8163814Y-9356186D03*
G01X8163814Y-8848186D03*
G01X8163814Y-7324186D03*
G01X8163814Y-6816186D03*
G01X8163814Y-6308186D03*
G01X8163814Y-1736186D03*
G01X8163814Y-1228186D03*
G01X8163814Y-720186D03*
G01X8163814Y-212186D03*
G01X8267700Y-8661400D03*
G01X8305800Y-5549900D03*
G01X8356600Y-8661400D03*
G01X8436914Y-6002986D03*
G01X8445500Y-8661400D03*
G01X8484464Y-4267200D03*
G01X8509000Y-8534400D03*
G01X8509000Y-8445500D03*
G01X8509000Y-8356600D03*
G01X8623300Y-2781300D03*
G01X8636000Y-6002986D03*
G01X8671814Y-9356186D03*
G01X8671814Y-8848186D03*
G01X8671814Y-8340186D03*
G01X8671814Y-5800186D03*
G01X8671814Y-3768186D03*
G01X8671814Y-3260186D03*
G01X8671814Y-1736186D03*
G01X8671814Y-1228186D03*
G01X8671814Y-720186D03*
G01X8671814Y-212186D03*
G01X8674100Y-5499100D03*
G01X8699500Y-8470900D03*
G01X8851900Y-8432800D03*
G01X8851900Y-8356600D03*
G01X8940800Y-8432800D03*
G01X8940800Y-8356600D03*
G01X8941562Y-4914138D03*
G01X8941562Y-4814062D03*
G01X9029700Y-8432800D03*
G01X9029700Y-8356600D03*
G01X9041638Y-4914138D03*
G01X9041638Y-4814062D03*
G01X9179814Y-8848186D03*
G01X9179814Y-8340186D03*
G01X9179814Y-4784186D03*
G01X9179814Y-1736186D03*
G01X9179814Y-1228186D03*
G01X9179814Y-720186D03*
G01X9179814Y-212186D03*
G01X9687814Y-9356186D03*
G01X9687814Y-8340186D03*
G01X9687814Y-6816186D03*
G01X9687814Y-6308186D03*
G01X9687814Y-5800186D03*
G01X9687814Y-5292186D03*
G01X9687814Y-4784186D03*
G01X9687814Y-4276186D03*
G01X9687814Y-3768186D03*
G01X9687814Y-3260186D03*
G01X9687814Y-2752186D03*
G01X9687814Y-2244186D03*
G01X9687814Y-1736186D03*
G01X9687814Y-1228186D03*
G01X9687814Y-720186D03*
G01X9687814Y-212186D03*
G04 Drill Drawing End*

G04 Text Start*
G54D18*
G01X12200446Y-221706D02*
G01X12200446Y-341848D01*
G01X12200446Y-221706D02*
G01X12246166Y-341848D01*
G01X12291886Y-221706D02*
G01X12246166Y-341848D01*
G01X12291886Y-221706D02*
G01X12291886Y-341848D01*
G01X12408218Y-261838D02*
G01X12408218Y-341848D01*
G01X12408218Y-278856D02*
G01X12396788Y-267426D01*
G01X12385358Y-261838D01*
G01X12368340Y-261838D01*
G01X12356910Y-267426D01*
G01X12345480Y-278856D01*
G01X12339638Y-296128D01*
G01X12339638Y-307558D01*
G01X12345480Y-324576D01*
G01X12356910Y-336006D01*
G01X12368340Y-341848D01*
G01X12385358Y-341848D01*
G01X12396788Y-336006D01*
G01X12408218Y-324576D01*
G01X12455970Y-261838D02*
G01X12455970Y-341848D01*
G01X12455970Y-296128D02*
G01X12461812Y-278856D01*
G01X12473242Y-267426D01*
G01X12484672Y-261838D01*
G01X12501690Y-261838D01*
G01X12549442Y-221706D02*
G01X12549442Y-341848D01*
G01X12606592Y-261838D02*
G01X12549442Y-318988D01*
G01X12572302Y-296128D02*
G01X12612434Y-341848D01*
G01X13737726Y-250408D02*
G01X13731884Y-238978D01*
G01X13720454Y-227548D01*
G01X13709024Y-221706D01*
G01X13686164Y-221706D01*
G01X13674734Y-227548D01*
G01X13663304Y-238978D01*
G01X13657716Y-250408D01*
G01X13651874Y-267426D01*
G01X13651874Y-296128D01*
G01X13657716Y-313146D01*
G01X13663304Y-324576D01*
G01X13674734Y-336006D01*
G01X13686164Y-341848D01*
G01X13709024Y-341848D01*
G01X13720454Y-336006D01*
G01X13731884Y-324576D01*
G01X13737726Y-313146D01*
G01X13814180Y-261838D02*
G01X13802750Y-267426D01*
G01X13791320Y-278856D01*
G01X13785478Y-296128D01*
G01X13785478Y-307558D01*
G01X13791320Y-324576D01*
G01X13802750Y-336006D01*
G01X13814180Y-341848D01*
G01X13831198Y-341848D01*
G01X13842628Y-336006D01*
G01X13854058Y-324576D01*
G01X13859900Y-307558D01*
G01X13859900Y-296128D01*
G01X13854058Y-278856D01*
G01X13842628Y-267426D01*
G01X13831198Y-261838D01*
G01X13814180Y-261838D01*
G01X13907652Y-261838D02*
G01X13907652Y-318988D01*
G01X13913494Y-336006D01*
G01X13924924Y-341848D01*
G01X13941942Y-341848D01*
G01X13953372Y-336006D01*
G01X13970644Y-318988D01*
G01X13970644Y-261838D02*
G01X13970644Y-341848D01*
G01X14018396Y-261838D02*
G01X14018396Y-341848D01*
G01X14018396Y-284698D02*
G01X14035668Y-267426D01*
G01X14047098Y-261838D01*
G01X14064116Y-261838D01*
G01X14075546Y-267426D01*
G01X14081388Y-284698D01*
G01X14081388Y-341848D01*
G01X14146412Y-221706D02*
G01X14146412Y-318988D01*
G01X14152000Y-336006D01*
G01X14163430Y-341848D01*
G01X14174860Y-341848D01*
G01X14129140Y-261838D02*
G01X14169272Y-261838D01*
G01X15146047Y-238978D02*
G01X15134617Y-227548D01*
G01X15117599Y-221706D01*
G01X15094739Y-221706D01*
G01X15077467Y-227548D01*
G01X15066037Y-238978D01*
G01X15066037Y-250408D01*
G01X15071879Y-261838D01*
G01X15077467Y-267426D01*
G01X15088897Y-273268D01*
G01X15123187Y-284698D01*
G01X15134617Y-290286D01*
G01X15140459Y-296128D01*
G01X15146047Y-307558D01*
G01X15146047Y-324576D01*
G01X15134617Y-336006D01*
G01X15117599Y-341848D01*
G01X15094739Y-341848D01*
G01X15077467Y-336006D01*
G01X15066037Y-324576D01*
G01X15193799Y-221706D02*
G01X15199641Y-227548D01*
G01X15205229Y-221706D01*
G01X15199641Y-216118D01*
G01X15193799Y-221706D01*
G01X15199641Y-261838D02*
G01X15199641Y-341848D01*
G01X15315973Y-261838D02*
G01X15252981Y-341848D01*
G01X15252981Y-261838D02*
G01X15315973Y-261838D01*
G01X15252981Y-341848D02*
G01X15315973Y-341848D01*
G01X15363725Y-296128D02*
G01X15432305Y-296128D01*
G01X15432305Y-284698D01*
G01X15426717Y-273268D01*
G01X15420875Y-267426D01*
G01X15409445Y-261838D01*
G01X15392427Y-261838D01*
G01X15380997Y-267426D01*
G01X15369567Y-278856D01*
G01X15363725Y-296128D01*
G01X15363725Y-307558D01*
G01X15369567Y-324576D01*
G01X15380997Y-336006D01*
G01X15392427Y-341848D01*
G01X15409445Y-341848D01*
G01X15420875Y-336006D01*
G01X15432305Y-324576D01*
G01X19101227Y-221706D02*
G01X19101227Y-341848D01*
G01X19101227Y-221706D02*
G01X19152789Y-221706D01*
G01X19169807Y-227548D01*
G01X19175649Y-233136D01*
G01X19181237Y-244566D01*
G01X19181237Y-261838D01*
G01X19175649Y-273268D01*
G01X19169807Y-278856D01*
G01X19152789Y-284698D01*
G01X19101227Y-284698D01*
G01X19228989Y-221706D02*
G01X19228989Y-341848D01*
G01X19345321Y-261838D02*
G01X19345321Y-341848D01*
G01X19345321Y-278856D02*
G01X19333891Y-267426D01*
G01X19322461Y-261838D01*
G01X19305443Y-261838D01*
G01X19294013Y-267426D01*
G01X19282583Y-278856D01*
G01X19276741Y-296128D01*
G01X19276741Y-307558D01*
G01X19282583Y-324576D01*
G01X19294013Y-336006D01*
G01X19305443Y-341848D01*
G01X19322461Y-341848D01*
G01X19333891Y-336006D01*
G01X19345321Y-324576D01*
G01X19410345Y-221706D02*
G01X19410345Y-318988D01*
G01X19415933Y-336006D01*
G01X19427363Y-341848D01*
G01X19438793Y-341848D01*
G01X19393073Y-261838D02*
G01X19433205Y-261838D01*
G01X19486545Y-296128D02*
G01X19555125Y-296128D01*
G01X19555125Y-284698D01*
G01X19549537Y-273268D01*
G01X19543695Y-267426D01*
G01X19532265Y-261838D01*
G01X19515247Y-261838D01*
G01X19503817Y-267426D01*
G01X19492387Y-278856D01*
G01X19486545Y-296128D01*
G01X19486545Y-307558D01*
G01X19492387Y-324576D01*
G01X19503817Y-336006D01*
G01X19515247Y-341848D01*
G01X19532265Y-341848D01*
G01X19543695Y-336006D01*
G01X19555125Y-324576D01*
G01X19671457Y-221706D02*
G01X19671457Y-341848D01*
G01X19671457Y-278856D02*
G01X19660027Y-267426D01*
G01X19648597Y-261838D01*
G01X19631579Y-261838D01*
G01X19620149Y-267426D01*
G01X19608719Y-278856D01*
G01X19602877Y-296128D01*
G01X19602877Y-307558D01*
G01X19608719Y-324576D01*
G01X19620149Y-336006D01*
G01X19631579Y-341848D01*
G01X19648597Y-341848D01*
G01X19660027Y-336006D01*
G01X19671457Y-324576D01*
G01X20642644Y-238978D02*
G01X20631214Y-227548D01*
G01X20614196Y-221706D01*
G01X20591336Y-221706D01*
G01X20574064Y-227548D01*
G01X20562634Y-238978D01*
G01X20562634Y-250408D01*
G01X20568476Y-261838D01*
G01X20574064Y-267426D01*
G01X20585494Y-273268D01*
G01X20619784Y-284698D01*
G01X20631214Y-290286D01*
G01X20637056Y-296128D01*
G01X20642644Y-307558D01*
G01X20642644Y-324576D01*
G01X20631214Y-336006D01*
G01X20614196Y-341848D01*
G01X20591336Y-341848D01*
G01X20574064Y-336006D01*
G01X20562634Y-324576D01*
G01X20690396Y-221706D02*
G01X20690396Y-341848D01*
G01X20690396Y-284698D02*
G01X20707668Y-267426D01*
G01X20719098Y-261838D01*
G01X20736116Y-261838D01*
G01X20747546Y-267426D01*
G01X20753388Y-284698D01*
G01X20753388Y-341848D01*
G01X20869720Y-261838D02*
G01X20869720Y-341848D01*
G01X20869720Y-278856D02*
G01X20858290Y-267426D01*
G01X20846860Y-261838D01*
G01X20829842Y-261838D01*
G01X20818412Y-267426D01*
G01X20806982Y-278856D01*
G01X20801140Y-296128D01*
G01X20801140Y-307558D01*
G01X20806982Y-324576D01*
G01X20818412Y-336006D01*
G01X20829842Y-341848D01*
G01X20846860Y-341848D01*
G01X20858290Y-336006D01*
G01X20869720Y-324576D01*
G01X20917472Y-261838D02*
G01X20917472Y-381726D01*
G01X20917472Y-278856D02*
G01X20928902Y-267426D01*
G01X20940332Y-261838D01*
G01X20957604Y-261838D01*
G01X20969034Y-267426D01*
G01X20980464Y-278856D01*
G01X20986052Y-296128D01*
G01X20986052Y-307558D01*
G01X20980464Y-324576D01*
G01X20969034Y-336006D01*
G01X20957604Y-341848D01*
G01X20940332Y-341848D01*
G01X20928902Y-336006D01*
G01X20917472Y-324576D01*
G01X21033804Y-296128D02*
G01X21102384Y-296128D01*
G01X21102384Y-284698D01*
G01X21096796Y-273268D01*
G01X21090954Y-267426D01*
G01X21079524Y-261838D01*
G01X21062506Y-261838D01*
G01X21051076Y-267426D01*
G01X21039646Y-278856D01*
G01X21033804Y-296128D01*
G01X21033804Y-307558D01*
G01X21039646Y-324576D01*
G01X21051076Y-336006D01*
G01X21062506Y-341848D01*
G01X21079524Y-341848D01*
G01X21090954Y-336006D01*
G01X21102384Y-324576D01*
G01X21993815Y-221706D02*
G01X22039535Y-341848D01*
G01X22085255Y-221706D02*
G01X22039535Y-341848D01*
G01X22133007Y-221706D02*
G01X22138849Y-227548D01*
G01X22144437Y-221706D01*
G01X22138849Y-216118D01*
G01X22133007Y-221706D01*
G01X22138849Y-261838D02*
G01X22138849Y-341848D01*
G01X22260769Y-261838D02*
G01X22260769Y-341848D01*
G01X22260769Y-278856D02*
G01X22249339Y-267426D01*
G01X22237909Y-261838D01*
G01X22220891Y-261838D01*
G01X22209461Y-267426D01*
G01X22198031Y-278856D01*
G01X22192189Y-296128D01*
G01X22192189Y-307558D01*
G01X22198031Y-324576D01*
G01X22209461Y-336006D01*
G01X22220891Y-341848D01*
G01X22237909Y-341848D01*
G01X22249339Y-336006D01*
G01X22260769Y-324576D01*
G01X22411391Y-198846D02*
G01X22308521Y-381726D01*
G01X22459143Y-221706D02*
G01X22459143Y-341848D01*
G01X22459143Y-221706D02*
G01X22510705Y-221706D01*
G01X22527723Y-227548D01*
G01X22533565Y-233136D01*
G01X22539153Y-244566D01*
G01X22539153Y-261838D01*
G01X22533565Y-273268D01*
G01X22527723Y-278856D01*
G01X22510705Y-284698D01*
G01X22459143Y-284698D01*
G01X22655485Y-261838D02*
G01X22655485Y-341848D01*
G01X22655485Y-278856D02*
G01X22644055Y-267426D01*
G01X22632625Y-261838D01*
G01X22615607Y-261838D01*
G01X22604177Y-267426D01*
G01X22592747Y-278856D01*
G01X22586905Y-296128D01*
G01X22586905Y-307558D01*
G01X22592747Y-324576D01*
G01X22604177Y-336006D01*
G01X22615607Y-341848D01*
G01X22632625Y-341848D01*
G01X22644055Y-336006D01*
G01X22655485Y-324576D01*
G01X22771817Y-221706D02*
G01X22771817Y-341848D01*
G01X22771817Y-278856D02*
G01X22760387Y-267426D01*
G01X22748957Y-261838D01*
G01X22731939Y-261838D01*
G01X22720509Y-267426D01*
G01X22709079Y-278856D01*
G01X22703237Y-296128D01*
G01X22703237Y-307558D01*
G01X22709079Y-324576D01*
G01X22720509Y-336006D01*
G01X22731939Y-341848D01*
G01X22748957Y-341848D01*
G01X22760387Y-336006D01*
G01X22771817Y-324576D01*
G01X23662994Y-221706D02*
G01X23662994Y-341848D01*
G01X23662994Y-221706D02*
G01X23714556Y-221706D01*
G01X23731574Y-227548D01*
G01X23737416Y-233136D01*
G01X23743004Y-244566D01*
G01X23743004Y-261838D01*
G01X23737416Y-273268D01*
G01X23731574Y-278856D01*
G01X23714556Y-284698D01*
G01X23662994Y-284698D01*
G01X23859336Y-261838D02*
G01X23859336Y-341848D01*
G01X23859336Y-278856D02*
G01X23847906Y-267426D01*
G01X23836476Y-261838D01*
G01X23819458Y-261838D01*
G01X23808028Y-267426D01*
G01X23796598Y-278856D01*
G01X23790756Y-296128D01*
G01X23790756Y-307558D01*
G01X23796598Y-324576D01*
G01X23808028Y-336006D01*
G01X23819458Y-341848D01*
G01X23836476Y-341848D01*
G01X23847906Y-336006D01*
G01X23859336Y-324576D01*
G01X23975668Y-221706D02*
G01X23975668Y-341848D01*
G01X23975668Y-278856D02*
G01X23964238Y-267426D01*
G01X23952808Y-261838D01*
G01X23935790Y-261838D01*
G01X23924360Y-267426D01*
G01X23912930Y-278856D01*
G01X23907088Y-296128D01*
G01X23907088Y-307558D01*
G01X23912930Y-324576D01*
G01X23924360Y-336006D01*
G01X23935790Y-341848D01*
G01X23952808Y-341848D01*
G01X23964238Y-336006D01*
G01X23975668Y-324576D01*
G01X24231446Y-238978D02*
G01X24220016Y-227548D01*
G01X24202998Y-221706D01*
G01X24180138Y-221706D01*
G01X24162866Y-227548D01*
G01X24151436Y-238978D01*
G01X24151436Y-250408D01*
G01X24157278Y-261838D01*
G01X24162866Y-267426D01*
G01X24174296Y-273268D01*
G01X24208586Y-284698D01*
G01X24220016Y-290286D01*
G01X24225858Y-296128D01*
G01X24231446Y-307558D01*
G01X24231446Y-324576D01*
G01X24220016Y-336006D01*
G01X24202998Y-341848D01*
G01X24180138Y-341848D01*
G01X24162866Y-336006D01*
G01X24151436Y-324576D01*
G01X24279198Y-221706D02*
G01X24279198Y-341848D01*
G01X24279198Y-284698D02*
G01X24296470Y-267426D01*
G01X24307900Y-261838D01*
G01X24324918Y-261838D01*
G01X24336348Y-267426D01*
G01X24342190Y-284698D01*
G01X24342190Y-341848D01*
G01X24458522Y-261838D02*
G01X24458522Y-341848D01*
G01X24458522Y-278856D02*
G01X24447092Y-267426D01*
G01X24435662Y-261838D01*
G01X24418644Y-261838D01*
G01X24407214Y-267426D01*
G01X24395784Y-278856D01*
G01X24389942Y-296128D01*
G01X24389942Y-307558D01*
G01X24395784Y-324576D01*
G01X24407214Y-336006D01*
G01X24418644Y-341848D01*
G01X24435662Y-341848D01*
G01X24447092Y-336006D01*
G01X24458522Y-324576D01*
G01X24506274Y-261838D02*
G01X24506274Y-381726D01*
G01X24506274Y-278856D02*
G01X24517704Y-267426D01*
G01X24529134Y-261838D01*
G01X24546406Y-261838D01*
G01X24557836Y-267426D01*
G01X24569266Y-278856D01*
G01X24574854Y-296128D01*
G01X24574854Y-307558D01*
G01X24569266Y-324576D01*
G01X24557836Y-336006D01*
G01X24546406Y-341848D01*
G01X24529134Y-341848D01*
G01X24517704Y-336006D01*
G01X24506274Y-324576D01*
G01X24622606Y-296128D02*
G01X24691186Y-296128D01*
G01X24691186Y-284698D01*
G01X24685598Y-273268D01*
G01X24679756Y-267426D01*
G01X24668326Y-261838D01*
G01X24651308Y-261838D01*
G01X24639878Y-267426D01*
G01X24628448Y-278856D01*
G01X24622606Y-296128D01*
G01X24622606Y-307558D01*
G01X24628448Y-324576D01*
G01X24639878Y-336006D01*
G01X24651308Y-341848D01*
G01X24668326Y-341848D01*
G01X24679756Y-336006D01*
G01X24691186Y-324576D01*
G01X25582363Y-221706D02*
G01X25582363Y-341848D01*
G01X25582363Y-341848D02*
G01X25650943Y-341848D01*
G01X25767275Y-261838D02*
G01X25767275Y-341848D01*
G01X25767275Y-278856D02*
G01X25755845Y-267426D01*
G01X25744415Y-261838D01*
G01X25727397Y-261838D01*
G01X25715967Y-267426D01*
G01X25704537Y-278856D01*
G01X25698695Y-296128D01*
G01X25698695Y-307558D01*
G01X25704537Y-324576D01*
G01X25715967Y-336006D01*
G01X25727397Y-341848D01*
G01X25744415Y-341848D01*
G01X25755845Y-336006D01*
G01X25767275Y-324576D01*
G01X25820869Y-261838D02*
G01X25855159Y-341848D01*
G01X25889449Y-261838D02*
G01X25855159Y-341848D01*
G01X25843729Y-364708D01*
G01X25832299Y-376138D01*
G01X25820869Y-381726D01*
G01X25815027Y-381726D01*
G01X25937201Y-296128D02*
G01X26005781Y-296128D01*
G01X26005781Y-284698D01*
G01X26000193Y-273268D01*
G01X25994351Y-267426D01*
G01X25982921Y-261838D01*
G01X25965903Y-261838D01*
G01X25954473Y-267426D01*
G01X25943043Y-278856D01*
G01X25937201Y-296128D01*
G01X25937201Y-307558D01*
G01X25943043Y-324576D01*
G01X25954473Y-336006D01*
G01X25965903Y-341848D01*
G01X25982921Y-341848D01*
G01X25994351Y-336006D01*
G01X26005781Y-324576D01*
G01X26053533Y-261838D02*
G01X26053533Y-341848D01*
G01X26053533Y-296128D02*
G01X26059375Y-278856D01*
G01X26070805Y-267426D01*
G01X26082235Y-261838D01*
G01X26099253Y-261838D01*
G01X26275021Y-221706D02*
G01X26275021Y-341848D01*
G01X26275021Y-221706D02*
G01X26326583Y-221706D01*
G01X26343601Y-227548D01*
G01X26349443Y-233136D01*
G01X26355031Y-244566D01*
G01X26355031Y-261838D01*
G01X26349443Y-273268D01*
G01X26343601Y-278856D01*
G01X26326583Y-284698D01*
G01X26275021Y-284698D01*
G01X26471363Y-261838D02*
G01X26471363Y-341848D01*
G01X26471363Y-278856D02*
G01X26459933Y-267426D01*
G01X26448503Y-261838D01*
G01X26431485Y-261838D01*
G01X26420055Y-267426D01*
G01X26408625Y-278856D01*
G01X26402783Y-296128D01*
G01X26402783Y-307558D01*
G01X26408625Y-324576D01*
G01X26420055Y-336006D01*
G01X26431485Y-341848D01*
G01X26448503Y-341848D01*
G01X26459933Y-336006D01*
G01X26471363Y-324576D01*
G01X26519115Y-221706D02*
G01X26524957Y-227548D01*
G01X26530545Y-221706D01*
G01X26524957Y-216118D01*
G01X26519115Y-221706D01*
G01X26524957Y-261838D02*
G01X26524957Y-341848D01*
G01X26578297Y-261838D02*
G01X26578297Y-341848D01*
G01X26578297Y-296128D02*
G01X26584139Y-278856D01*
G01X26595569Y-267426D01*
G01X26606999Y-261838D01*
G01X26624017Y-261838D01*
G01X13657716Y-830979D02*
G01X13657716Y-825137D01*
G01X13663304Y-813707D01*
G01X13669146Y-808119D01*
G01X13680576Y-802277D01*
G01X13703436Y-802277D01*
G01X13714866Y-808119D01*
G01X13720454Y-813707D01*
G01X13726296Y-825137D01*
G01X13726296Y-836567D01*
G01X13720454Y-847997D01*
G01X13709024Y-865269D01*
G01X13651874Y-922419D01*
G01X13731884Y-922419D01*
G01X15077467Y-802277D02*
G01X15140459Y-802277D01*
G01X15106169Y-847997D01*
G01X15123187Y-847997D01*
G01X15134617Y-853839D01*
G01X15140459Y-859427D01*
G01X15146047Y-876699D01*
G01X15146047Y-888129D01*
G01X15140459Y-905147D01*
G01X15129029Y-916577D01*
G01X15111757Y-922419D01*
G01X15094739Y-922419D01*
G01X15077467Y-916577D01*
G01X15071879Y-910989D01*
G01X15066037Y-899559D01*
G01X15268221Y-842409D02*
G01X15262379Y-859427D01*
G01X15250949Y-870857D01*
G01X15233931Y-876699D01*
G01X15228089Y-876699D01*
G01X15211071Y-870857D01*
G01X15199641Y-859427D01*
G01X15193799Y-842409D01*
G01X15193799Y-836567D01*
G01X15199641Y-819549D01*
G01X15211071Y-808119D01*
G01X15228089Y-802277D01*
G01X15233931Y-802277D01*
G01X15250949Y-808119D01*
G01X15262379Y-819549D01*
G01X15268221Y-842409D01*
G01X15268221Y-870857D01*
G01X15262379Y-899559D01*
G01X15250949Y-916577D01*
G01X15233931Y-922419D01*
G01X15222501Y-922419D01*
G01X15205229Y-916577D01*
G01X15199641Y-905147D01*
G01X15321815Y-893717D02*
G01X15315973Y-899559D01*
G01X15321815Y-905147D01*
G01X15327403Y-899559D01*
G01X15321815Y-893717D01*
G01X15432305Y-802277D02*
G01X15375155Y-882287D01*
G01X15461007Y-882287D01*
G01X15432305Y-802277D02*
G01X15432305Y-922419D01*
G01X15508759Y-842409D02*
G01X15571751Y-922419D01*
G01X15571751Y-842409D02*
G01X15508759Y-922419D01*
G01X15630933Y-802277D02*
G01X15693925Y-802277D01*
G01X15659635Y-847997D01*
G01X15676653Y-847997D01*
G01X15688083Y-853839D01*
G01X15693925Y-859427D01*
G01X15699513Y-876699D01*
G01X15699513Y-888129D01*
G01X15693925Y-905147D01*
G01X15682495Y-916577D01*
G01X15665223Y-922419D01*
G01X15648205Y-922419D01*
G01X15630933Y-916577D01*
G01X15625345Y-910989D01*
G01X15619503Y-899559D01*
G01X15821687Y-842409D02*
G01X15815845Y-859427D01*
G01X15804415Y-870857D01*
G01X15787397Y-876699D01*
G01X15781555Y-876699D01*
G01X15764537Y-870857D01*
G01X15753107Y-859427D01*
G01X15747265Y-842409D01*
G01X15747265Y-836567D01*
G01X15753107Y-819549D01*
G01X15764537Y-808119D01*
G01X15781555Y-802277D01*
G01X15787397Y-802277D01*
G01X15804415Y-808119D01*
G01X15815845Y-819549D01*
G01X15821687Y-842409D01*
G01X15821687Y-870857D01*
G01X15815845Y-899559D01*
G01X15804415Y-916577D01*
G01X15787397Y-922419D01*
G01X15775967Y-922419D01*
G01X15758695Y-916577D01*
G01X15753107Y-905147D01*
G01X15875281Y-893717D02*
G01X15869439Y-899559D01*
G01X15875281Y-905147D01*
G01X15880869Y-899559D01*
G01X15875281Y-893717D01*
G01X15985771Y-802277D02*
G01X15928621Y-882287D01*
G01X16014473Y-882287D01*
G01X15985771Y-802277D02*
G01X15985771Y-922419D01*
G01X16062225Y-842409D02*
G01X16062225Y-922419D01*
G01X16062225Y-865269D02*
G01X16079497Y-847997D01*
G01X16090927Y-842409D01*
G01X16107945Y-842409D01*
G01X16119375Y-847997D01*
G01X16125217Y-865269D01*
G01X16125217Y-922419D01*
G01X16125217Y-865269D02*
G01X16142235Y-847997D01*
G01X16153665Y-842409D01*
G01X16170937Y-842409D01*
G01X16182367Y-847997D01*
G01X16187955Y-865269D01*
G01X16187955Y-922419D01*
G01X16235707Y-802277D02*
G01X16241549Y-808119D01*
G01X16247137Y-802277D01*
G01X16241549Y-796689D01*
G01X16235707Y-802277D01*
G01X16241549Y-842409D02*
G01X16241549Y-922419D01*
G01X16294889Y-802277D02*
G01X16294889Y-922419D01*
G01X16382773Y-779417D02*
G01X16371343Y-790847D01*
G01X16359913Y-808119D01*
G01X16348483Y-830979D01*
G01X16342641Y-859427D01*
G01X16342641Y-882287D01*
G01X16348483Y-910989D01*
G01X16359913Y-933849D01*
G01X16371343Y-950867D01*
G01X16382773Y-962297D01*
G01X16430525Y-825137D02*
G01X16441955Y-819549D01*
G01X16459227Y-802277D01*
G01X16459227Y-922419D01*
G01X16512821Y-893717D02*
G01X16506979Y-899559D01*
G01X16512821Y-905147D01*
G01X16518409Y-899559D01*
G01X16512821Y-893717D01*
G01X16600451Y-802277D02*
G01X16583433Y-808119D01*
G01X16572003Y-825137D01*
G01X16566161Y-853839D01*
G01X16566161Y-870857D01*
G01X16572003Y-899559D01*
G01X16583433Y-916577D01*
G01X16600451Y-922419D01*
G01X16611881Y-922419D01*
G01X16629153Y-916577D01*
G01X16640583Y-899559D01*
G01X16646171Y-870857D01*
G01X16646171Y-853839D01*
G01X16640583Y-825137D01*
G01X16629153Y-808119D01*
G01X16611881Y-802277D01*
G01X16600451Y-802277D01*
G01X16728213Y-802277D02*
G01X16711195Y-808119D01*
G01X16699765Y-825137D01*
G01X16693923Y-853839D01*
G01X16693923Y-870857D01*
G01X16699765Y-899559D01*
G01X16711195Y-916577D01*
G01X16728213Y-922419D01*
G01X16739643Y-922419D01*
G01X16756915Y-916577D01*
G01X16768345Y-899559D01*
G01X16773933Y-870857D01*
G01X16773933Y-853839D01*
G01X16768345Y-825137D01*
G01X16756915Y-808119D01*
G01X16739643Y-802277D01*
G01X16728213Y-802277D01*
G01X16855975Y-802277D02*
G01X16838957Y-808119D01*
G01X16827527Y-825137D01*
G01X16821685Y-853839D01*
G01X16821685Y-870857D01*
G01X16827527Y-899559D01*
G01X16838957Y-916577D01*
G01X16855975Y-922419D01*
G01X16867405Y-922419D01*
G01X16884677Y-916577D01*
G01X16896107Y-899559D01*
G01X16901695Y-870857D01*
G01X16901695Y-853839D01*
G01X16896107Y-825137D01*
G01X16884677Y-808119D01*
G01X16867405Y-802277D01*
G01X16855975Y-802277D01*
G01X16949447Y-842409D02*
G01X17012439Y-922419D01*
G01X17012439Y-842409D02*
G01X16949447Y-922419D01*
G01X17060191Y-825137D02*
G01X17071621Y-819549D01*
G01X17088893Y-802277D01*
G01X17088893Y-922419D01*
G01X17142487Y-893717D02*
G01X17136645Y-899559D01*
G01X17142487Y-905147D01*
G01X17148075Y-899559D01*
G01X17142487Y-893717D01*
G01X17230117Y-802277D02*
G01X17213099Y-808119D01*
G01X17201669Y-825137D01*
G01X17195827Y-853839D01*
G01X17195827Y-870857D01*
G01X17201669Y-899559D01*
G01X17213099Y-916577D01*
G01X17230117Y-922419D01*
G01X17241547Y-922419D01*
G01X17258819Y-916577D01*
G01X17270249Y-899559D01*
G01X17275837Y-870857D01*
G01X17275837Y-853839D01*
G01X17270249Y-825137D01*
G01X17258819Y-808119D01*
G01X17241547Y-802277D01*
G01X17230117Y-802277D01*
G01X17357879Y-802277D02*
G01X17340861Y-808119D01*
G01X17329431Y-825137D01*
G01X17323589Y-853839D01*
G01X17323589Y-870857D01*
G01X17329431Y-899559D01*
G01X17340861Y-916577D01*
G01X17357879Y-922419D01*
G01X17369309Y-922419D01*
G01X17386581Y-916577D01*
G01X17398011Y-899559D01*
G01X17403599Y-870857D01*
G01X17403599Y-853839D01*
G01X17398011Y-825137D01*
G01X17386581Y-808119D01*
G01X17369309Y-802277D01*
G01X17357879Y-802277D01*
G01X17485641Y-802277D02*
G01X17468623Y-808119D01*
G01X17457193Y-825137D01*
G01X17451351Y-853839D01*
G01X17451351Y-870857D01*
G01X17457193Y-899559D01*
G01X17468623Y-916577D01*
G01X17485641Y-922419D01*
G01X17497071Y-922419D01*
G01X17514343Y-916577D01*
G01X17525773Y-899559D01*
G01X17531361Y-870857D01*
G01X17531361Y-853839D01*
G01X17525773Y-825137D01*
G01X17514343Y-808119D01*
G01X17497071Y-802277D01*
G01X17485641Y-802277D01*
G01X17579113Y-842409D02*
G01X17579113Y-922419D01*
G01X17579113Y-865269D02*
G01X17596385Y-847997D01*
G01X17607815Y-842409D01*
G01X17624833Y-842409D01*
G01X17636263Y-847997D01*
G01X17642105Y-865269D01*
G01X17642105Y-922419D01*
G01X17642105Y-865269D02*
G01X17659123Y-847997D01*
G01X17670553Y-842409D01*
G01X17687825Y-842409D01*
G01X17699255Y-847997D01*
G01X17704843Y-865269D01*
G01X17704843Y-922419D01*
G01X17752595Y-842409D02*
G01X17752595Y-922419D01*
G01X17752595Y-865269D02*
G01X17769867Y-847997D01*
G01X17781297Y-842409D01*
G01X17798315Y-842409D01*
G01X17809745Y-847997D01*
G01X17815587Y-865269D01*
G01X17815587Y-922419D01*
G01X17815587Y-865269D02*
G01X17832605Y-847997D01*
G01X17844035Y-842409D01*
G01X17861307Y-842409D01*
G01X17872737Y-847997D01*
G01X17878325Y-865269D01*
G01X17878325Y-922419D01*
G01X17926077Y-779417D02*
G01X17937507Y-790847D01*
G01X17948937Y-808119D01*
G01X17960367Y-830979D01*
G01X17966209Y-859427D01*
G01X17966209Y-882287D01*
G01X17960367Y-910989D01*
G01X17948937Y-933849D01*
G01X17937507Y-950867D01*
G01X17926077Y-962297D01*
G01X19101227Y-802277D02*
G01X19101227Y-922419D01*
G01X19101227Y-802277D02*
G01X19152789Y-802277D01*
G01X19169807Y-808119D01*
G01X19175649Y-813707D01*
G01X19181237Y-825137D01*
G01X19181237Y-842409D01*
G01X19175649Y-853839D01*
G01X19169807Y-859427D01*
G01X19152789Y-865269D01*
G01X19101227Y-865269D01*
G01X19269121Y-802277D02*
G01X19269121Y-922419D01*
G01X19228989Y-802277D02*
G01X19308999Y-802277D01*
G01X19356751Y-802277D02*
G01X19356751Y-922419D01*
G01X19436761Y-802277D02*
G01X19436761Y-922419D01*
G01X19356751Y-859427D02*
G01X19436761Y-859427D01*
G01X20562634Y-802277D02*
G01X20562634Y-922419D01*
G01X20562634Y-802277D02*
G01X20614196Y-802277D01*
G01X20631214Y-808119D01*
G01X20637056Y-813707D01*
G01X20642644Y-825137D01*
G01X20642644Y-836567D01*
G01X20637056Y-847997D01*
G01X20631214Y-853839D01*
G01X20614196Y-859427D01*
G01X20562634Y-859427D01*
G01X20602766Y-859427D02*
G01X20642644Y-922419D01*
G01X20719098Y-842409D02*
G01X20707668Y-847997D01*
G01X20696238Y-859427D01*
G01X20690396Y-876699D01*
G01X20690396Y-888129D01*
G01X20696238Y-905147D01*
G01X20707668Y-916577D01*
G01X20719098Y-922419D01*
G01X20736116Y-922419D01*
G01X20747546Y-916577D01*
G01X20758976Y-905147D01*
G01X20764818Y-888129D01*
G01X20764818Y-876699D01*
G01X20758976Y-859427D01*
G01X20747546Y-847997D01*
G01X20736116Y-842409D01*
G01X20719098Y-842409D01*
G01X20812570Y-842409D02*
G01X20812570Y-899559D01*
G01X20818412Y-916577D01*
G01X20829842Y-922419D01*
G01X20846860Y-922419D01*
G01X20858290Y-916577D01*
G01X20875562Y-899559D01*
G01X20875562Y-842409D02*
G01X20875562Y-922419D01*
G01X20923314Y-842409D02*
G01X20923314Y-922419D01*
G01X20923314Y-865269D02*
G01X20940586Y-847997D01*
G01X20952016Y-842409D01*
G01X20969034Y-842409D01*
G01X20980464Y-847997D01*
G01X20986306Y-865269D01*
G01X20986306Y-922419D01*
G01X21102638Y-802277D02*
G01X21102638Y-922419D01*
G01X21102638Y-859427D02*
G01X21091208Y-847997D01*
G01X21079778Y-842409D01*
G01X21062760Y-842409D01*
G01X21051330Y-847997D01*
G01X21039900Y-859427D01*
G01X21034058Y-876699D01*
G01X21034058Y-888129D01*
G01X21039900Y-905147D01*
G01X21051330Y-916577D01*
G01X21062760Y-922419D01*
G01X21079778Y-922419D01*
G01X21091208Y-916577D01*
G01X21102638Y-905147D01*
G01X21993815Y-802277D02*
G01X21993815Y-922419D01*
G01X21993815Y-802277D02*
G01X22045377Y-802277D01*
G01X22062395Y-808119D01*
G01X22068237Y-813707D01*
G01X22073825Y-825137D01*
G01X22073825Y-842409D01*
G01X22068237Y-853839D01*
G01X22062395Y-859427D01*
G01X22045377Y-865269D01*
G01X21993815Y-865269D01*
G01X22190157Y-842409D02*
G01X22190157Y-922419D01*
G01X22190157Y-859427D02*
G01X22178727Y-847997D01*
G01X22167297Y-842409D01*
G01X22150279Y-842409D01*
G01X22138849Y-847997D01*
G01X22127419Y-859427D01*
G01X22121577Y-876699D01*
G01X22121577Y-888129D01*
G01X22127419Y-905147D01*
G01X22138849Y-916577D01*
G01X22150279Y-922419D01*
G01X22167297Y-922419D01*
G01X22178727Y-916577D01*
G01X22190157Y-905147D01*
G01X22306489Y-802277D02*
G01X22306489Y-922419D01*
G01X22306489Y-859427D02*
G01X22295059Y-847997D01*
G01X22283629Y-842409D01*
G01X22266611Y-842409D01*
G01X22255181Y-847997D01*
G01X22243751Y-859427D01*
G01X22237909Y-876699D01*
G01X22237909Y-888129D01*
G01X22243751Y-905147D01*
G01X22255181Y-916577D01*
G01X22266611Y-922419D01*
G01X22283629Y-922419D01*
G01X22295059Y-916577D01*
G01X22306489Y-905147D01*
G01X23662994Y-802277D02*
G01X23662994Y-922419D01*
G01X23662994Y-802277D02*
G01X23714556Y-802277D01*
G01X23731574Y-808119D01*
G01X23737416Y-813707D01*
G01X23743004Y-825137D01*
G01X23743004Y-836567D01*
G01X23737416Y-847997D01*
G01X23731574Y-853839D01*
G01X23714556Y-859427D01*
G01X23662994Y-859427D01*
G01X23703126Y-859427D02*
G01X23743004Y-922419D01*
G01X23819458Y-842409D02*
G01X23808028Y-847997D01*
G01X23796598Y-859427D01*
G01X23790756Y-876699D01*
G01X23790756Y-888129D01*
G01X23796598Y-905147D01*
G01X23808028Y-916577D01*
G01X23819458Y-922419D01*
G01X23836476Y-922419D01*
G01X23847906Y-916577D01*
G01X23859336Y-905147D01*
G01X23865178Y-888129D01*
G01X23865178Y-876699D01*
G01X23859336Y-859427D01*
G01X23847906Y-847997D01*
G01X23836476Y-842409D01*
G01X23819458Y-842409D01*
G01X23912930Y-842409D02*
G01X23912930Y-899559D01*
G01X23918772Y-916577D01*
G01X23930202Y-922419D01*
G01X23947220Y-922419D01*
G01X23958650Y-916577D01*
G01X23975922Y-899559D01*
G01X23975922Y-842409D02*
G01X23975922Y-922419D01*
G01X24023674Y-842409D02*
G01X24023674Y-922419D01*
G01X24023674Y-865269D02*
G01X24040946Y-847997D01*
G01X24052376Y-842409D01*
G01X24069394Y-842409D01*
G01X24080824Y-847997D01*
G01X24086666Y-865269D01*
G01X24086666Y-922419D01*
G01X24202998Y-802277D02*
G01X24202998Y-922419D01*
G01X24202998Y-859427D02*
G01X24191568Y-847997D01*
G01X24180138Y-842409D01*
G01X24163120Y-842409D01*
G01X24151690Y-847997D01*
G01X24140260Y-859427D01*
G01X24134418Y-876699D01*
G01X24134418Y-888129D01*
G01X24140260Y-905147D01*
G01X24151690Y-916577D01*
G01X24163120Y-922419D01*
G01X24180138Y-922419D01*
G01X24191568Y-916577D01*
G01X24202998Y-905147D01*
G01X25622495Y-802277D02*
G01X25622495Y-922419D01*
G01X25582363Y-802277D02*
G01X25662373Y-802277D01*
G01X25738827Y-842409D02*
G01X25727397Y-847997D01*
G01X25715967Y-859427D01*
G01X25710125Y-876699D01*
G01X25710125Y-888129D01*
G01X25715967Y-905147D01*
G01X25727397Y-916577D01*
G01X25738827Y-922419D01*
G01X25755845Y-922419D01*
G01X25767275Y-916577D01*
G01X25778705Y-905147D01*
G01X25784547Y-888129D01*
G01X25784547Y-876699D01*
G01X25778705Y-859427D01*
G01X25767275Y-847997D01*
G01X25755845Y-842409D01*
G01X25738827Y-842409D01*
G01X25832299Y-842409D02*
G01X25832299Y-962297D01*
G01X25832299Y-859427D02*
G01X25843729Y-847997D01*
G01X25855159Y-842409D01*
G01X25872431Y-842409D01*
G01X25883861Y-847997D01*
G01X25895291Y-859427D01*
G01X25900879Y-876699D01*
G01X25900879Y-888129D01*
G01X25895291Y-905147D01*
G01X25883861Y-916577D01*
G01X25872431Y-922419D01*
G01X25855159Y-922419D01*
G01X25843729Y-916577D01*
G01X25832299Y-905147D01*
G01X26076647Y-802277D02*
G01X26076647Y-922419D01*
G01X26076647Y-922419D02*
G01X26145227Y-922419D01*
G01X26261559Y-842409D02*
G01X26261559Y-922419D01*
G01X26261559Y-859427D02*
G01X26250129Y-847997D01*
G01X26238699Y-842409D01*
G01X26221681Y-842409D01*
G01X26210251Y-847997D01*
G01X26198821Y-859427D01*
G01X26192979Y-876699D01*
G01X26192979Y-888129D01*
G01X26198821Y-905147D01*
G01X26210251Y-916577D01*
G01X26221681Y-922419D01*
G01X26238699Y-922419D01*
G01X26250129Y-916577D01*
G01X26261559Y-905147D01*
G01X26315153Y-842409D02*
G01X26349443Y-922419D01*
G01X26383733Y-842409D02*
G01X26349443Y-922419D01*
G01X26338013Y-945279D01*
G01X26326583Y-956709D01*
G01X26315153Y-962297D01*
G01X26309311Y-962297D01*
G01X26431485Y-876699D02*
G01X26500065Y-876699D01*
G01X26500065Y-865269D01*
G01X26494477Y-853839D01*
G01X26488635Y-847997D01*
G01X26477205Y-842409D01*
G01X26460187Y-842409D01*
G01X26448757Y-847997D01*
G01X26437327Y-859427D01*
G01X26431485Y-876699D01*
G01X26431485Y-888129D01*
G01X26437327Y-905147D01*
G01X26448757Y-916577D01*
G01X26460187Y-922419D01*
G01X26477205Y-922419D01*
G01X26488635Y-916577D01*
G01X26500065Y-905147D01*
G01X26547817Y-842409D02*
G01X26547817Y-922419D01*
G01X26547817Y-876699D02*
G01X26553659Y-859427D01*
G01X26565089Y-847997D01*
G01X26576519Y-842409D01*
G01X26593537Y-842409D01*
G01X26641289Y-870857D02*
G01X26744159Y-870857D01*
G01X26791911Y-802277D02*
G01X26791911Y-922419D01*
G01X26791911Y-802277D02*
G01X26843473Y-802277D01*
G01X26860491Y-808119D01*
G01X26866333Y-813707D01*
G01X26871921Y-825137D01*
G01X26871921Y-836567D01*
G01X26866333Y-847997D01*
G01X26860491Y-853839D01*
G01X26843473Y-859427D01*
G01X26791911Y-859427D02*
G01X26843473Y-859427D01*
G01X26860491Y-865269D01*
G01X26866333Y-870857D01*
G01X26871921Y-882287D01*
G01X26871921Y-899559D01*
G01X26866333Y-910989D01*
G01X26860491Y-916577D01*
G01X26843473Y-922419D01*
G01X26791911Y-922419D01*
G01X26948375Y-842409D02*
G01X26936945Y-847997D01*
G01X26925515Y-859427D01*
G01X26919673Y-876699D01*
G01X26919673Y-888129D01*
G01X26925515Y-905147D01*
G01X26936945Y-916577D01*
G01X26948375Y-922419D01*
G01X26965393Y-922419D01*
G01X26976823Y-916577D01*
G01X26988253Y-905147D01*
G01X26994095Y-888129D01*
G01X26994095Y-876699D01*
G01X26988253Y-859427D01*
G01X26976823Y-847997D01*
G01X26965393Y-842409D01*
G01X26948375Y-842409D01*
G01X27059119Y-802277D02*
G01X27059119Y-899559D01*
G01X27064707Y-916577D01*
G01X27076137Y-922419D01*
G01X27087567Y-922419D01*
G01X27041847Y-842409D02*
G01X27081979Y-842409D01*
G01X27152591Y-802277D02*
G01X27152591Y-899559D01*
G01X27158179Y-916577D01*
G01X27169609Y-922419D01*
G01X27181039Y-922419D01*
G01X27135319Y-842409D02*
G01X27175451Y-842409D01*
G01X27257493Y-842409D02*
G01X27246063Y-847997D01*
G01X27234633Y-859427D01*
G01X27228791Y-876699D01*
G01X27228791Y-888129D01*
G01X27234633Y-905147D01*
G01X27246063Y-916577D01*
G01X27257493Y-922419D01*
G01X27274511Y-922419D01*
G01X27285941Y-916577D01*
G01X27297371Y-905147D01*
G01X27303213Y-888129D01*
G01X27303213Y-876699D01*
G01X27297371Y-859427D01*
G01X27285941Y-847997D01*
G01X27274511Y-842409D01*
G01X27257493Y-842409D01*
G01X27350965Y-842409D02*
G01X27350965Y-922419D01*
G01X27350965Y-865269D02*
G01X27368237Y-847997D01*
G01X27379667Y-842409D01*
G01X27396685Y-842409D01*
G01X27408115Y-847997D01*
G01X27413957Y-865269D01*
G01X27413957Y-922419D01*
G01X27413957Y-865269D02*
G01X27430975Y-847997D01*
G01X27442405Y-842409D01*
G01X27459677Y-842409D01*
G01X27471107Y-847997D01*
G01X27476695Y-865269D01*
G01X27476695Y-922419D01*
G01X27652463Y-802277D02*
G01X27652463Y-922419D01*
G01X27652463Y-922419D02*
G01X27721043Y-922419D01*
G01X27837375Y-842409D02*
G01X27837375Y-922419D01*
G01X27837375Y-859427D02*
G01X27825945Y-847997D01*
G01X27814515Y-842409D01*
G01X27797497Y-842409D01*
G01X27786067Y-847997D01*
G01X27774637Y-859427D01*
G01X27768795Y-876699D01*
G01X27768795Y-888129D01*
G01X27774637Y-905147D01*
G01X27786067Y-916577D01*
G01X27797497Y-922419D01*
G01X27814515Y-922419D01*
G01X27825945Y-916577D01*
G01X27837375Y-905147D01*
G01X27890969Y-842409D02*
G01X27925259Y-922419D01*
G01X27959549Y-842409D02*
G01X27925259Y-922419D01*
G01X27913829Y-945279D01*
G01X27902399Y-956709D01*
G01X27890969Y-962297D01*
G01X27885127Y-962297D01*
G01X28007301Y-876699D02*
G01X28075881Y-876699D01*
G01X28075881Y-865269D01*
G01X28070293Y-853839D01*
G01X28064451Y-847997D01*
G01X28053021Y-842409D01*
G01X28036003Y-842409D01*
G01X28024573Y-847997D01*
G01X28013143Y-859427D01*
G01X28007301Y-876699D01*
G01X28007301Y-888129D01*
G01X28013143Y-905147D01*
G01X28024573Y-916577D01*
G01X28036003Y-922419D01*
G01X28053021Y-922419D01*
G01X28064451Y-916577D01*
G01X28075881Y-905147D01*
G01X28123633Y-842409D02*
G01X28123633Y-922419D01*
G01X28123633Y-876699D02*
G01X28129475Y-859427D01*
G01X28140905Y-847997D01*
G01X28152335Y-842409D01*
G01X28169353Y-842409D01*
G01X13657716Y-1411551D02*
G01X13657716Y-1405709D01*
G01X13663304Y-1394279D01*
G01X13669146Y-1388691D01*
G01X13680576Y-1382849D01*
G01X13703436Y-1382849D01*
G01X13714866Y-1388691D01*
G01X13720454Y-1394279D01*
G01X13726296Y-1405709D01*
G01X13726296Y-1417139D01*
G01X13720454Y-1428569D01*
G01X13709024Y-1445841D01*
G01X13651874Y-1502991D01*
G01X13731884Y-1502991D01*
G01X15071879Y-1411551D02*
G01X15071879Y-1405709D01*
G01X15077467Y-1394279D01*
G01X15083309Y-1388691D01*
G01X15094739Y-1382849D01*
G01X15117599Y-1382849D01*
G01X15129029Y-1388691D01*
G01X15134617Y-1394279D01*
G01X15140459Y-1405709D01*
G01X15140459Y-1417139D01*
G01X15134617Y-1428569D01*
G01X15123187Y-1445841D01*
G01X15066037Y-1502991D01*
G01X15146047Y-1502991D01*
G01X15205229Y-1382849D02*
G01X15268221Y-1382849D01*
G01X15233931Y-1428569D01*
G01X15250949Y-1428569D01*
G01X15262379Y-1434411D01*
G01X15268221Y-1439999D01*
G01X15273809Y-1457271D01*
G01X15273809Y-1468701D01*
G01X15268221Y-1485719D01*
G01X15256791Y-1497149D01*
G01X15239519Y-1502991D01*
G01X15222501Y-1502991D01*
G01X15205229Y-1497149D01*
G01X15199641Y-1491561D01*
G01X15193799Y-1480131D01*
G01X15327403Y-1474289D02*
G01X15321561Y-1480131D01*
G01X15327403Y-1485719D01*
G01X15332991Y-1480131D01*
G01X15327403Y-1474289D01*
G01X15449323Y-1400121D02*
G01X15443735Y-1388691D01*
G01X15426463Y-1382849D01*
G01X15415033Y-1382849D01*
G01X15398015Y-1388691D01*
G01X15386585Y-1405709D01*
G01X15380743Y-1434411D01*
G01X15380743Y-1462859D01*
G01X15386585Y-1485719D01*
G01X15398015Y-1497149D01*
G01X15415033Y-1502991D01*
G01X15420875Y-1502991D01*
G01X15437893Y-1497149D01*
G01X15449323Y-1485719D01*
G01X15455165Y-1468701D01*
G01X15455165Y-1462859D01*
G01X15449323Y-1445841D01*
G01X15437893Y-1434411D01*
G01X15420875Y-1428569D01*
G01X15415033Y-1428569D01*
G01X15398015Y-1434411D01*
G01X15386585Y-1445841D01*
G01X15380743Y-1462859D01*
G01X15502917Y-1422981D02*
G01X15565909Y-1502991D01*
G01X15565909Y-1422981D02*
G01X15502917Y-1502991D01*
G01X15682241Y-1382849D02*
G01X15625091Y-1382849D01*
G01X15619503Y-1434411D01*
G01X15625091Y-1428569D01*
G01X15642363Y-1422981D01*
G01X15659381Y-1422981D01*
G01X15676653Y-1428569D01*
G01X15688083Y-1439999D01*
G01X15693671Y-1457271D01*
G01X15693671Y-1468701D01*
G01X15688083Y-1485719D01*
G01X15676653Y-1497149D01*
G01X15659381Y-1502991D01*
G01X15642363Y-1502991D01*
G01X15625091Y-1497149D01*
G01X15619503Y-1491561D01*
G01X15613661Y-1480131D01*
G01X15815845Y-1422981D02*
G01X15810003Y-1439999D01*
G01X15798573Y-1451429D01*
G01X15781555Y-1457271D01*
G01X15775713Y-1457271D01*
G01X15758695Y-1451429D01*
G01X15747265Y-1439999D01*
G01X15741423Y-1422981D01*
G01X15741423Y-1417139D01*
G01X15747265Y-1400121D01*
G01X15758695Y-1388691D01*
G01X15775713Y-1382849D01*
G01X15781555Y-1382849D01*
G01X15798573Y-1388691D01*
G01X15810003Y-1400121D01*
G01X15815845Y-1422981D01*
G01X15815845Y-1451429D01*
G01X15810003Y-1480131D01*
G01X15798573Y-1497149D01*
G01X15781555Y-1502991D01*
G01X15770125Y-1502991D01*
G01X15752853Y-1497149D01*
G01X15747265Y-1485719D01*
G01X15869439Y-1474289D02*
G01X15863597Y-1480131D01*
G01X15869439Y-1485719D01*
G01X15875027Y-1480131D01*
G01X15869439Y-1474289D01*
G01X15922779Y-1405709D02*
G01X15934209Y-1400121D01*
G01X15951481Y-1382849D01*
G01X15951481Y-1502991D01*
G01X15999233Y-1422981D02*
G01X15999233Y-1502991D01*
G01X15999233Y-1445841D02*
G01X16016505Y-1428569D01*
G01X16027935Y-1422981D01*
G01X16044953Y-1422981D01*
G01X16056383Y-1428569D01*
G01X16062225Y-1445841D01*
G01X16062225Y-1502991D01*
G01X16062225Y-1445841D02*
G01X16079243Y-1428569D01*
G01X16090673Y-1422981D01*
G01X16107945Y-1422981D01*
G01X16119375Y-1428569D01*
G01X16124963Y-1445841D01*
G01X16124963Y-1502991D01*
G01X16172715Y-1382849D02*
G01X16178557Y-1388691D01*
G01X16184145Y-1382849D01*
G01X16178557Y-1377261D01*
G01X16172715Y-1382849D01*
G01X16178557Y-1422981D02*
G01X16178557Y-1502991D01*
G01X16231897Y-1382849D02*
G01X16231897Y-1502991D01*
G01X16319781Y-1359989D02*
G01X16308351Y-1371419D01*
G01X16296921Y-1388691D01*
G01X16285491Y-1411551D01*
G01X16279649Y-1439999D01*
G01X16279649Y-1462859D01*
G01X16285491Y-1491561D01*
G01X16296921Y-1514421D01*
G01X16308351Y-1531439D01*
G01X16319781Y-1542869D01*
G01X16401823Y-1382849D02*
G01X16384805Y-1388691D01*
G01X16373375Y-1405709D01*
G01X16367533Y-1434411D01*
G01X16367533Y-1451429D01*
G01X16373375Y-1480131D01*
G01X16384805Y-1497149D01*
G01X16401823Y-1502991D01*
G01X16413253Y-1502991D01*
G01X16430525Y-1497149D01*
G01X16441955Y-1480131D01*
G01X16447543Y-1451429D01*
G01X16447543Y-1434411D01*
G01X16441955Y-1405709D01*
G01X16430525Y-1388691D01*
G01X16413253Y-1382849D01*
G01X16401823Y-1382849D01*
G01X16501137Y-1474289D02*
G01X16495295Y-1480131D01*
G01X16501137Y-1485719D01*
G01X16506725Y-1480131D01*
G01X16501137Y-1474289D01*
G01X16623057Y-1400121D02*
G01X16617469Y-1388691D01*
G01X16600197Y-1382849D01*
G01X16588767Y-1382849D01*
G01X16571749Y-1388691D01*
G01X16560319Y-1405709D01*
G01X16554477Y-1434411D01*
G01X16554477Y-1462859D01*
G01X16560319Y-1485719D01*
G01X16571749Y-1497149D01*
G01X16588767Y-1502991D01*
G01X16594609Y-1502991D01*
G01X16611627Y-1497149D01*
G01X16623057Y-1485719D01*
G01X16628899Y-1468701D01*
G01X16628899Y-1462859D01*
G01X16623057Y-1445841D01*
G01X16611627Y-1434411D01*
G01X16594609Y-1428569D01*
G01X16588767Y-1428569D01*
G01X16571749Y-1434411D01*
G01X16560319Y-1445841D01*
G01X16554477Y-1462859D01*
G01X16710941Y-1382849D02*
G01X16693923Y-1388691D01*
G01X16682493Y-1405709D01*
G01X16676651Y-1434411D01*
G01X16676651Y-1451429D01*
G01X16682493Y-1480131D01*
G01X16693923Y-1497149D01*
G01X16710941Y-1502991D01*
G01X16722371Y-1502991D01*
G01X16739643Y-1497149D01*
G01X16751073Y-1480131D01*
G01X16756661Y-1451429D01*
G01X16756661Y-1434411D01*
G01X16751073Y-1405709D01*
G01X16739643Y-1388691D01*
G01X16722371Y-1382849D01*
G01X16710941Y-1382849D01*
G01X16838703Y-1382849D02*
G01X16821685Y-1388691D01*
G01X16810255Y-1405709D01*
G01X16804413Y-1434411D01*
G01X16804413Y-1451429D01*
G01X16810255Y-1480131D01*
G01X16821685Y-1497149D01*
G01X16838703Y-1502991D01*
G01X16850133Y-1502991D01*
G01X16867405Y-1497149D01*
G01X16878835Y-1480131D01*
G01X16884423Y-1451429D01*
G01X16884423Y-1434411D01*
G01X16878835Y-1405709D01*
G01X16867405Y-1388691D01*
G01X16850133Y-1382849D01*
G01X16838703Y-1382849D01*
G01X16932175Y-1422981D02*
G01X16995167Y-1502991D01*
G01X16995167Y-1422981D02*
G01X16932175Y-1502991D01*
G01X17042919Y-1405709D02*
G01X17054349Y-1400121D01*
G01X17071621Y-1382849D01*
G01X17071621Y-1502991D01*
G01X17125215Y-1474289D02*
G01X17119373Y-1480131D01*
G01X17125215Y-1485719D01*
G01X17130803Y-1480131D01*
G01X17125215Y-1474289D01*
G01X17247135Y-1382849D02*
G01X17189985Y-1382849D01*
G01X17184397Y-1434411D01*
G01X17189985Y-1428569D01*
G01X17207257Y-1422981D01*
G01X17224275Y-1422981D01*
G01X17241547Y-1428569D01*
G01X17252977Y-1439999D01*
G01X17258565Y-1457271D01*
G01X17258565Y-1468701D01*
G01X17252977Y-1485719D01*
G01X17241547Y-1497149D01*
G01X17224275Y-1502991D01*
G01X17207257Y-1502991D01*
G01X17189985Y-1497149D01*
G01X17184397Y-1491561D01*
G01X17178555Y-1480131D01*
G01X17340607Y-1382849D02*
G01X17323589Y-1388691D01*
G01X17312159Y-1405709D01*
G01X17306317Y-1434411D01*
G01X17306317Y-1451429D01*
G01X17312159Y-1480131D01*
G01X17323589Y-1497149D01*
G01X17340607Y-1502991D01*
G01X17352037Y-1502991D01*
G01X17369309Y-1497149D01*
G01X17380739Y-1480131D01*
G01X17386327Y-1451429D01*
G01X17386327Y-1434411D01*
G01X17380739Y-1405709D01*
G01X17369309Y-1388691D01*
G01X17352037Y-1382849D01*
G01X17340607Y-1382849D01*
G01X17468369Y-1382849D02*
G01X17451351Y-1388691D01*
G01X17439921Y-1405709D01*
G01X17434079Y-1434411D01*
G01X17434079Y-1451429D01*
G01X17439921Y-1480131D01*
G01X17451351Y-1497149D01*
G01X17468369Y-1502991D01*
G01X17479799Y-1502991D01*
G01X17497071Y-1497149D01*
G01X17508501Y-1480131D01*
G01X17514089Y-1451429D01*
G01X17514089Y-1434411D01*
G01X17508501Y-1405709D01*
G01X17497071Y-1388691D01*
G01X17479799Y-1382849D01*
G01X17468369Y-1382849D01*
G01X17561841Y-1422981D02*
G01X17561841Y-1502991D01*
G01X17561841Y-1445841D02*
G01X17579113Y-1428569D01*
G01X17590543Y-1422981D01*
G01X17607561Y-1422981D01*
G01X17618991Y-1428569D01*
G01X17624833Y-1445841D01*
G01X17624833Y-1502991D01*
G01X17624833Y-1445841D02*
G01X17641851Y-1428569D01*
G01X17653281Y-1422981D01*
G01X17670553Y-1422981D01*
G01X17681983Y-1428569D01*
G01X17687571Y-1445841D01*
G01X17687571Y-1502991D01*
G01X17735323Y-1422981D02*
G01X17735323Y-1502991D01*
G01X17735323Y-1445841D02*
G01X17752595Y-1428569D01*
G01X17764025Y-1422981D01*
G01X17781043Y-1422981D01*
G01X17792473Y-1428569D01*
G01X17798315Y-1445841D01*
G01X17798315Y-1502991D01*
G01X17798315Y-1445841D02*
G01X17815333Y-1428569D01*
G01X17826763Y-1422981D01*
G01X17844035Y-1422981D01*
G01X17855465Y-1428569D01*
G01X17861053Y-1445841D01*
G01X17861053Y-1502991D01*
G01X17908805Y-1359989D02*
G01X17920235Y-1371419D01*
G01X17931665Y-1388691D01*
G01X17943095Y-1411551D01*
G01X17948937Y-1439999D01*
G01X17948937Y-1462859D01*
G01X17943095Y-1491561D01*
G01X17931665Y-1514421D01*
G01X17920235Y-1531439D01*
G01X17908805Y-1542869D01*
G01X19101227Y-1382849D02*
G01X19101227Y-1502991D01*
G01X19101227Y-1382849D02*
G01X19152789Y-1382849D01*
G01X19169807Y-1388691D01*
G01X19175649Y-1394279D01*
G01X19181237Y-1405709D01*
G01X19181237Y-1422981D01*
G01X19175649Y-1434411D01*
G01X19169807Y-1439999D01*
G01X19152789Y-1445841D01*
G01X19101227Y-1445841D01*
G01X19269121Y-1382849D02*
G01X19269121Y-1502991D01*
G01X19228989Y-1382849D02*
G01X19308999Y-1382849D01*
G01X19356751Y-1382849D02*
G01X19356751Y-1502991D01*
G01X19436761Y-1382849D02*
G01X19436761Y-1502991D01*
G01X19356751Y-1439999D02*
G01X19436761Y-1439999D01*
G01X20642644Y-1400121D02*
G01X20631214Y-1388691D01*
G01X20614196Y-1382849D01*
G01X20591336Y-1382849D01*
G01X20574064Y-1388691D01*
G01X20562634Y-1400121D01*
G01X20562634Y-1411551D01*
G01X20568476Y-1422981D01*
G01X20574064Y-1428569D01*
G01X20585494Y-1434411D01*
G01X20619784Y-1445841D01*
G01X20631214Y-1451429D01*
G01X20637056Y-1457271D01*
G01X20642644Y-1468701D01*
G01X20642644Y-1485719D01*
G01X20631214Y-1497149D01*
G01X20614196Y-1502991D01*
G01X20591336Y-1502991D01*
G01X20574064Y-1497149D01*
G01X20562634Y-1485719D01*
G01X20690396Y-1382849D02*
G01X20690396Y-1502991D01*
G01X20766850Y-1422981D02*
G01X20755420Y-1428569D01*
G01X20743990Y-1439999D01*
G01X20738148Y-1457271D01*
G01X20738148Y-1468701D01*
G01X20743990Y-1485719D01*
G01X20755420Y-1497149D01*
G01X20766850Y-1502991D01*
G01X20783868Y-1502991D01*
G01X20795298Y-1497149D01*
G01X20806728Y-1485719D01*
G01X20812570Y-1468701D01*
G01X20812570Y-1457271D01*
G01X20806728Y-1439999D01*
G01X20795298Y-1428569D01*
G01X20783868Y-1422981D01*
G01X20766850Y-1422981D01*
G01X20877594Y-1382849D02*
G01X20877594Y-1480131D01*
G01X20883182Y-1497149D01*
G01X20894612Y-1502991D01*
G01X20906042Y-1502991D01*
G01X20860322Y-1422981D02*
G01X20900454Y-1422981D01*
G01X21993815Y-1382849D02*
G01X21993815Y-1502991D01*
G01X21993815Y-1382849D02*
G01X22045377Y-1382849D01*
G01X22062395Y-1388691D01*
G01X22068237Y-1394279D01*
G01X22073825Y-1405709D01*
G01X22073825Y-1422981D01*
G01X22068237Y-1434411D01*
G01X22062395Y-1439999D01*
G01X22045377Y-1445841D01*
G01X21993815Y-1445841D01*
G01X22190157Y-1422981D02*
G01X22190157Y-1502991D01*
G01X22190157Y-1439999D02*
G01X22178727Y-1428569D01*
G01X22167297Y-1422981D01*
G01X22150279Y-1422981D01*
G01X22138849Y-1428569D01*
G01X22127419Y-1439999D01*
G01X22121577Y-1457271D01*
G01X22121577Y-1468701D01*
G01X22127419Y-1485719D01*
G01X22138849Y-1497149D01*
G01X22150279Y-1502991D01*
G01X22167297Y-1502991D01*
G01X22178727Y-1497149D01*
G01X22190157Y-1485719D01*
G01X22306489Y-1382849D02*
G01X22306489Y-1502991D01*
G01X22306489Y-1439999D02*
G01X22295059Y-1428569D01*
G01X22283629Y-1422981D01*
G01X22266611Y-1422981D01*
G01X22255181Y-1428569D01*
G01X22243751Y-1439999D01*
G01X22237909Y-1457271D01*
G01X22237909Y-1468701D01*
G01X22243751Y-1485719D01*
G01X22255181Y-1497149D01*
G01X22266611Y-1502991D01*
G01X22283629Y-1502991D01*
G01X22295059Y-1497149D01*
G01X22306489Y-1485719D01*
G01X23697284Y-1382849D02*
G01X23685854Y-1388691D01*
G01X23674424Y-1400121D01*
G01X23668836Y-1411551D01*
G01X23662994Y-1428569D01*
G01X23662994Y-1457271D01*
G01X23668836Y-1474289D01*
G01X23674424Y-1485719D01*
G01X23685854Y-1497149D01*
G01X23697284Y-1502991D01*
G01X23720144Y-1502991D01*
G01X23731574Y-1497149D01*
G01X23743004Y-1485719D01*
G01X23748846Y-1474289D01*
G01X23754434Y-1457271D01*
G01X23754434Y-1428569D01*
G01X23748846Y-1411551D01*
G01X23743004Y-1400121D01*
G01X23731574Y-1388691D01*
G01X23720144Y-1382849D01*
G01X23697284Y-1382849D01*
G01X23802186Y-1422981D02*
G01X23836476Y-1502991D01*
G01X23870766Y-1422981D02*
G01X23836476Y-1502991D01*
G01X23987098Y-1422981D02*
G01X23987098Y-1502991D01*
G01X23987098Y-1439999D02*
G01X23975668Y-1428569D01*
G01X23964238Y-1422981D01*
G01X23947220Y-1422981D01*
G01X23935790Y-1428569D01*
G01X23924360Y-1439999D01*
G01X23918518Y-1457271D01*
G01X23918518Y-1468701D01*
G01X23924360Y-1485719D01*
G01X23935790Y-1497149D01*
G01X23947220Y-1502991D01*
G01X23964238Y-1502991D01*
G01X23975668Y-1497149D01*
G01X23987098Y-1485719D01*
G01X24034850Y-1382849D02*
G01X24034850Y-1502991D01*
G01X25622495Y-1382849D02*
G01X25622495Y-1502991D01*
G01X25582363Y-1382849D02*
G01X25662373Y-1382849D01*
G01X25738827Y-1422981D02*
G01X25727397Y-1428569D01*
G01X25715967Y-1439999D01*
G01X25710125Y-1457271D01*
G01X25710125Y-1468701D01*
G01X25715967Y-1485719D01*
G01X25727397Y-1497149D01*
G01X25738827Y-1502991D01*
G01X25755845Y-1502991D01*
G01X25767275Y-1497149D01*
G01X25778705Y-1485719D01*
G01X25784547Y-1468701D01*
G01X25784547Y-1457271D01*
G01X25778705Y-1439999D01*
G01X25767275Y-1428569D01*
G01X25755845Y-1422981D01*
G01X25738827Y-1422981D01*
G01X25832299Y-1422981D02*
G01X25832299Y-1542869D01*
G01X25832299Y-1439999D02*
G01X25843729Y-1428569D01*
G01X25855159Y-1422981D01*
G01X25872431Y-1422981D01*
G01X25883861Y-1428569D01*
G01X25895291Y-1439999D01*
G01X25900879Y-1457271D01*
G01X25900879Y-1468701D01*
G01X25895291Y-1485719D01*
G01X25883861Y-1497149D01*
G01X25872431Y-1502991D01*
G01X25855159Y-1502991D01*
G01X25843729Y-1497149D01*
G01X25832299Y-1485719D01*
G01X26076647Y-1382849D02*
G01X26076647Y-1502991D01*
G01X26076647Y-1502991D02*
G01X26145227Y-1502991D01*
G01X26261559Y-1422981D02*
G01X26261559Y-1502991D01*
G01X26261559Y-1439999D02*
G01X26250129Y-1428569D01*
G01X26238699Y-1422981D01*
G01X26221681Y-1422981D01*
G01X26210251Y-1428569D01*
G01X26198821Y-1439999D01*
G01X26192979Y-1457271D01*
G01X26192979Y-1468701D01*
G01X26198821Y-1485719D01*
G01X26210251Y-1497149D01*
G01X26221681Y-1502991D01*
G01X26238699Y-1502991D01*
G01X26250129Y-1497149D01*
G01X26261559Y-1485719D01*
G01X26315153Y-1422981D02*
G01X26349443Y-1502991D01*
G01X26383733Y-1422981D02*
G01X26349443Y-1502991D01*
G01X26338013Y-1525851D01*
G01X26326583Y-1537281D01*
G01X26315153Y-1542869D01*
G01X26309311Y-1542869D01*
G01X26431485Y-1457271D02*
G01X26500065Y-1457271D01*
G01X26500065Y-1445841D01*
G01X26494477Y-1434411D01*
G01X26488635Y-1428569D01*
G01X26477205Y-1422981D01*
G01X26460187Y-1422981D01*
G01X26448757Y-1428569D01*
G01X26437327Y-1439999D01*
G01X26431485Y-1457271D01*
G01X26431485Y-1468701D01*
G01X26437327Y-1485719D01*
G01X26448757Y-1497149D01*
G01X26460187Y-1502991D01*
G01X26477205Y-1502991D01*
G01X26488635Y-1497149D01*
G01X26500065Y-1485719D01*
G01X26547817Y-1422981D02*
G01X26547817Y-1502991D01*
G01X26547817Y-1457271D02*
G01X26553659Y-1439999D01*
G01X26565089Y-1428569D01*
G01X26576519Y-1422981D01*
G01X26593537Y-1422981D01*
G01X26641289Y-1451429D02*
G01X26744159Y-1451429D01*
G01X26791911Y-1382849D02*
G01X26791911Y-1502991D01*
G01X26791911Y-1382849D02*
G01X26843473Y-1382849D01*
G01X26860491Y-1388691D01*
G01X26866333Y-1394279D01*
G01X26871921Y-1405709D01*
G01X26871921Y-1417139D01*
G01X26866333Y-1428569D01*
G01X26860491Y-1434411D01*
G01X26843473Y-1439999D01*
G01X26791911Y-1439999D02*
G01X26843473Y-1439999D01*
G01X26860491Y-1445841D01*
G01X26866333Y-1451429D01*
G01X26871921Y-1462859D01*
G01X26871921Y-1480131D01*
G01X26866333Y-1491561D01*
G01X26860491Y-1497149D01*
G01X26843473Y-1502991D01*
G01X26791911Y-1502991D01*
G01X26948375Y-1422981D02*
G01X26936945Y-1428569D01*
G01X26925515Y-1439999D01*
G01X26919673Y-1457271D01*
G01X26919673Y-1468701D01*
G01X26925515Y-1485719D01*
G01X26936945Y-1497149D01*
G01X26948375Y-1502991D01*
G01X26965393Y-1502991D01*
G01X26976823Y-1497149D01*
G01X26988253Y-1485719D01*
G01X26994095Y-1468701D01*
G01X26994095Y-1457271D01*
G01X26988253Y-1439999D01*
G01X26976823Y-1428569D01*
G01X26965393Y-1422981D01*
G01X26948375Y-1422981D01*
G01X27059119Y-1382849D02*
G01X27059119Y-1480131D01*
G01X27064707Y-1497149D01*
G01X27076137Y-1502991D01*
G01X27087567Y-1502991D01*
G01X27041847Y-1422981D02*
G01X27081979Y-1422981D01*
G01X27152591Y-1382849D02*
G01X27152591Y-1480131D01*
G01X27158179Y-1497149D01*
G01X27169609Y-1502991D01*
G01X27181039Y-1502991D01*
G01X27135319Y-1422981D02*
G01X27175451Y-1422981D01*
G01X27257493Y-1422981D02*
G01X27246063Y-1428569D01*
G01X27234633Y-1439999D01*
G01X27228791Y-1457271D01*
G01X27228791Y-1468701D01*
G01X27234633Y-1485719D01*
G01X27246063Y-1497149D01*
G01X27257493Y-1502991D01*
G01X27274511Y-1502991D01*
G01X27285941Y-1497149D01*
G01X27297371Y-1485719D01*
G01X27303213Y-1468701D01*
G01X27303213Y-1457271D01*
G01X27297371Y-1439999D01*
G01X27285941Y-1428569D01*
G01X27274511Y-1422981D01*
G01X27257493Y-1422981D01*
G01X27350965Y-1422981D02*
G01X27350965Y-1502991D01*
G01X27350965Y-1445841D02*
G01X27368237Y-1428569D01*
G01X27379667Y-1422981D01*
G01X27396685Y-1422981D01*
G01X27408115Y-1428569D01*
G01X27413957Y-1445841D01*
G01X27413957Y-1502991D01*
G01X27413957Y-1445841D02*
G01X27430975Y-1428569D01*
G01X27442405Y-1422981D01*
G01X27459677Y-1422981D01*
G01X27471107Y-1428569D01*
G01X27476695Y-1445841D01*
G01X27476695Y-1502991D01*
G01X27652463Y-1382849D02*
G01X27652463Y-1502991D01*
G01X27652463Y-1502991D02*
G01X27721043Y-1502991D01*
G01X27837375Y-1422981D02*
G01X27837375Y-1502991D01*
G01X27837375Y-1439999D02*
G01X27825945Y-1428569D01*
G01X27814515Y-1422981D01*
G01X27797497Y-1422981D01*
G01X27786067Y-1428569D01*
G01X27774637Y-1439999D01*
G01X27768795Y-1457271D01*
G01X27768795Y-1468701D01*
G01X27774637Y-1485719D01*
G01X27786067Y-1497149D01*
G01X27797497Y-1502991D01*
G01X27814515Y-1502991D01*
G01X27825945Y-1497149D01*
G01X27837375Y-1485719D01*
G01X27890969Y-1422981D02*
G01X27925259Y-1502991D01*
G01X27959549Y-1422981D02*
G01X27925259Y-1502991D01*
G01X27913829Y-1525851D01*
G01X27902399Y-1537281D01*
G01X27890969Y-1542869D01*
G01X27885127Y-1542869D01*
G01X28007301Y-1457271D02*
G01X28075881Y-1457271D01*
G01X28075881Y-1445841D01*
G01X28070293Y-1434411D01*
G01X28064451Y-1428569D01*
G01X28053021Y-1422981D01*
G01X28036003Y-1422981D01*
G01X28024573Y-1428569D01*
G01X28013143Y-1439999D01*
G01X28007301Y-1457271D01*
G01X28007301Y-1468701D01*
G01X28013143Y-1485719D01*
G01X28024573Y-1497149D01*
G01X28036003Y-1502991D01*
G01X28053021Y-1502991D01*
G01X28064451Y-1497149D01*
G01X28075881Y-1485719D01*
G01X28123633Y-1422981D02*
G01X28123633Y-1502991D01*
G01X28123633Y-1457271D02*
G01X28129475Y-1439999D01*
G01X28140905Y-1428569D01*
G01X28152335Y-1422981D01*
G01X28169353Y-1422981D01*
G01X13657716Y-1992122D02*
G01X13657716Y-1986280D01*
G01X13663304Y-1974850D01*
G01X13669146Y-1969262D01*
G01X13680576Y-1963420D01*
G01X13703436Y-1963420D01*
G01X13714866Y-1969262D01*
G01X13720454Y-1974850D01*
G01X13726296Y-1986280D01*
G01X13726296Y-1997710D01*
G01X13720454Y-2009140D01*
G01X13709024Y-2026412D01*
G01X13651874Y-2083562D01*
G01X13731884Y-2083562D01*
G01X15071879Y-1992122D02*
G01X15071879Y-1986280D01*
G01X15077467Y-1974850D01*
G01X15083309Y-1969262D01*
G01X15094739Y-1963420D01*
G01X15117599Y-1963420D01*
G01X15129029Y-1969262D01*
G01X15134617Y-1974850D01*
G01X15140459Y-1986280D01*
G01X15140459Y-1997710D01*
G01X15134617Y-2009140D01*
G01X15123187Y-2026412D01*
G01X15066037Y-2083562D01*
G01X15146047Y-2083562D01*
G01X15205229Y-1963420D02*
G01X15268221Y-1963420D01*
G01X15233931Y-2009140D01*
G01X15250949Y-2009140D01*
G01X15262379Y-2014982D01*
G01X15268221Y-2020570D01*
G01X15273809Y-2037842D01*
G01X15273809Y-2049272D01*
G01X15268221Y-2066290D01*
G01X15256791Y-2077720D01*
G01X15239519Y-2083562D01*
G01X15222501Y-2083562D01*
G01X15205229Y-2077720D01*
G01X15199641Y-2072132D01*
G01X15193799Y-2060702D01*
G01X15327403Y-2054860D02*
G01X15321561Y-2060702D01*
G01X15327403Y-2066290D01*
G01X15332991Y-2060702D01*
G01X15327403Y-2054860D01*
G01X15449323Y-1980692D02*
G01X15443735Y-1969262D01*
G01X15426463Y-1963420D01*
G01X15415033Y-1963420D01*
G01X15398015Y-1969262D01*
G01X15386585Y-1986280D01*
G01X15380743Y-2014982D01*
G01X15380743Y-2043430D01*
G01X15386585Y-2066290D01*
G01X15398015Y-2077720D01*
G01X15415033Y-2083562D01*
G01X15420875Y-2083562D01*
G01X15437893Y-2077720D01*
G01X15449323Y-2066290D01*
G01X15455165Y-2049272D01*
G01X15455165Y-2043430D01*
G01X15449323Y-2026412D01*
G01X15437893Y-2014982D01*
G01X15420875Y-2009140D01*
G01X15415033Y-2009140D01*
G01X15398015Y-2014982D01*
G01X15386585Y-2026412D01*
G01X15380743Y-2043430D01*
G01X15502917Y-2003552D02*
G01X15565909Y-2083562D01*
G01X15565909Y-2003552D02*
G01X15502917Y-2083562D01*
G01X15670811Y-1963420D02*
G01X15613661Y-2043430D01*
G01X15699513Y-2043430D01*
G01X15670811Y-1963420D02*
G01X15670811Y-2083562D01*
G01X15827275Y-1963420D02*
G01X15770125Y-2083562D01*
G01X15747265Y-1963420D02*
G01X15827275Y-1963420D01*
G01X15880869Y-2054860D02*
G01X15875027Y-2060702D01*
G01X15880869Y-2066290D01*
G01X15886457Y-2060702D01*
G01X15880869Y-2054860D01*
G01X15940051Y-1992122D02*
G01X15940051Y-1986280D01*
G01X15945639Y-1974850D01*
G01X15951481Y-1969262D01*
G01X15962911Y-1963420D01*
G01X15985771Y-1963420D01*
G01X15997201Y-1969262D01*
G01X16002789Y-1974850D01*
G01X16008631Y-1986280D01*
G01X16008631Y-1997710D01*
G01X16002789Y-2009140D01*
G01X15991359Y-2026412D01*
G01X15934209Y-2083562D01*
G01X16014219Y-2083562D01*
G01X16061971Y-2003552D02*
G01X16061971Y-2083562D01*
G01X16061971Y-2026412D02*
G01X16079243Y-2009140D01*
G01X16090673Y-2003552D01*
G01X16107691Y-2003552D01*
G01X16119121Y-2009140D01*
G01X16124963Y-2026412D01*
G01X16124963Y-2083562D01*
G01X16124963Y-2026412D02*
G01X16141981Y-2009140D01*
G01X16153411Y-2003552D01*
G01X16170683Y-2003552D01*
G01X16182113Y-2009140D01*
G01X16187701Y-2026412D01*
G01X16187701Y-2083562D01*
G01X16235453Y-1963420D02*
G01X16241295Y-1969262D01*
G01X16246883Y-1963420D01*
G01X16241295Y-1957832D01*
G01X16235453Y-1963420D01*
G01X16241295Y-2003552D02*
G01X16241295Y-2083562D01*
G01X16294635Y-1963420D02*
G01X16294635Y-2083562D01*
G01X16382519Y-1940560D02*
G01X16371089Y-1951990D01*
G01X16359659Y-1969262D01*
G01X16348229Y-1992122D01*
G01X16342387Y-2020570D01*
G01X16342387Y-2043430D01*
G01X16348229Y-2072132D01*
G01X16359659Y-2094992D01*
G01X16371089Y-2112010D01*
G01X16382519Y-2123440D01*
G01X16464561Y-1963420D02*
G01X16447543Y-1969262D01*
G01X16436113Y-1986280D01*
G01X16430271Y-2014982D01*
G01X16430271Y-2032000D01*
G01X16436113Y-2060702D01*
G01X16447543Y-2077720D01*
G01X16464561Y-2083562D01*
G01X16475991Y-2083562D01*
G01X16493263Y-2077720D01*
G01X16504693Y-2060702D01*
G01X16510281Y-2032000D01*
G01X16510281Y-2014982D01*
G01X16504693Y-1986280D01*
G01X16493263Y-1969262D01*
G01X16475991Y-1963420D01*
G01X16464561Y-1963420D01*
G01X16563875Y-2054860D02*
G01X16558033Y-2060702D01*
G01X16563875Y-2066290D01*
G01X16569463Y-2060702D01*
G01X16563875Y-2054860D01*
G01X16685795Y-1980692D02*
G01X16680207Y-1969262D01*
G01X16662935Y-1963420D01*
G01X16651505Y-1963420D01*
G01X16634487Y-1969262D01*
G01X16623057Y-1986280D01*
G01X16617215Y-2014982D01*
G01X16617215Y-2043430D01*
G01X16623057Y-2066290D01*
G01X16634487Y-2077720D01*
G01X16651505Y-2083562D01*
G01X16657347Y-2083562D01*
G01X16674365Y-2077720D01*
G01X16685795Y-2066290D01*
G01X16691637Y-2049272D01*
G01X16691637Y-2043430D01*
G01X16685795Y-2026412D01*
G01X16674365Y-2014982D01*
G01X16657347Y-2009140D01*
G01X16651505Y-2009140D01*
G01X16634487Y-2014982D01*
G01X16623057Y-2026412D01*
G01X16617215Y-2043430D01*
G01X16773679Y-1963420D02*
G01X16756661Y-1969262D01*
G01X16745231Y-1986280D01*
G01X16739389Y-2014982D01*
G01X16739389Y-2032000D01*
G01X16745231Y-2060702D01*
G01X16756661Y-2077720D01*
G01X16773679Y-2083562D01*
G01X16785109Y-2083562D01*
G01X16802381Y-2077720D01*
G01X16813811Y-2060702D01*
G01X16819399Y-2032000D01*
G01X16819399Y-2014982D01*
G01X16813811Y-1986280D01*
G01X16802381Y-1969262D01*
G01X16785109Y-1963420D01*
G01X16773679Y-1963420D01*
G01X16901441Y-1963420D02*
G01X16884423Y-1969262D01*
G01X16872993Y-1986280D01*
G01X16867151Y-2014982D01*
G01X16867151Y-2032000D01*
G01X16872993Y-2060702D01*
G01X16884423Y-2077720D01*
G01X16901441Y-2083562D01*
G01X16912871Y-2083562D01*
G01X16930143Y-2077720D01*
G01X16941573Y-2060702D01*
G01X16947161Y-2032000D01*
G01X16947161Y-2014982D01*
G01X16941573Y-1986280D01*
G01X16930143Y-1969262D01*
G01X16912871Y-1963420D01*
G01X16901441Y-1963420D01*
G01X16994913Y-2003552D02*
G01X17057905Y-2083562D01*
G01X17057905Y-2003552D02*
G01X16994913Y-2083562D01*
G01X17105657Y-1986280D02*
G01X17117087Y-1980692D01*
G01X17134359Y-1963420D01*
G01X17134359Y-2083562D01*
G01X17187953Y-2054860D02*
G01X17182111Y-2060702D01*
G01X17187953Y-2066290D01*
G01X17193541Y-2060702D01*
G01X17187953Y-2054860D01*
G01X17247135Y-1992122D02*
G01X17247135Y-1986280D01*
G01X17252723Y-1974850D01*
G01X17258565Y-1969262D01*
G01X17269995Y-1963420D01*
G01X17292855Y-1963420D01*
G01X17304285Y-1969262D01*
G01X17309873Y-1974850D01*
G01X17315715Y-1986280D01*
G01X17315715Y-1997710D01*
G01X17309873Y-2009140D01*
G01X17298443Y-2026412D01*
G01X17241293Y-2083562D01*
G01X17321303Y-2083562D01*
G01X17403345Y-1963420D02*
G01X17386327Y-1969262D01*
G01X17374897Y-1986280D01*
G01X17369055Y-2014982D01*
G01X17369055Y-2032000D01*
G01X17374897Y-2060702D01*
G01X17386327Y-2077720D01*
G01X17403345Y-2083562D01*
G01X17414775Y-2083562D01*
G01X17432047Y-2077720D01*
G01X17443477Y-2060702D01*
G01X17449065Y-2032000D01*
G01X17449065Y-2014982D01*
G01X17443477Y-1986280D01*
G01X17432047Y-1969262D01*
G01X17414775Y-1963420D01*
G01X17403345Y-1963420D01*
G01X17531107Y-1963420D02*
G01X17514089Y-1969262D01*
G01X17502659Y-1986280D01*
G01X17496817Y-2014982D01*
G01X17496817Y-2032000D01*
G01X17502659Y-2060702D01*
G01X17514089Y-2077720D01*
G01X17531107Y-2083562D01*
G01X17542537Y-2083562D01*
G01X17559809Y-2077720D01*
G01X17571239Y-2060702D01*
G01X17576827Y-2032000D01*
G01X17576827Y-2014982D01*
G01X17571239Y-1986280D01*
G01X17559809Y-1969262D01*
G01X17542537Y-1963420D01*
G01X17531107Y-1963420D01*
G01X17624579Y-2003552D02*
G01X17624579Y-2083562D01*
G01X17624579Y-2026412D02*
G01X17641851Y-2009140D01*
G01X17653281Y-2003552D01*
G01X17670299Y-2003552D01*
G01X17681729Y-2009140D01*
G01X17687571Y-2026412D01*
G01X17687571Y-2083562D01*
G01X17687571Y-2026412D02*
G01X17704589Y-2009140D01*
G01X17716019Y-2003552D01*
G01X17733291Y-2003552D01*
G01X17744721Y-2009140D01*
G01X17750309Y-2026412D01*
G01X17750309Y-2083562D01*
G01X17798061Y-2003552D02*
G01X17798061Y-2083562D01*
G01X17798061Y-2026412D02*
G01X17815333Y-2009140D01*
G01X17826763Y-2003552D01*
G01X17843781Y-2003552D01*
G01X17855211Y-2009140D01*
G01X17861053Y-2026412D01*
G01X17861053Y-2083562D01*
G01X17861053Y-2026412D02*
G01X17878071Y-2009140D01*
G01X17889501Y-2003552D01*
G01X17906773Y-2003552D01*
G01X17918203Y-2009140D01*
G01X17923791Y-2026412D01*
G01X17923791Y-2083562D01*
G01X17971543Y-1940560D02*
G01X17982973Y-1951990D01*
G01X17994403Y-1969262D01*
G01X18005833Y-1992122D01*
G01X18011675Y-2020570D01*
G01X18011675Y-2043430D01*
G01X18005833Y-2072132D01*
G01X17994403Y-2094992D01*
G01X17982973Y-2112010D01*
G01X17971543Y-2123440D01*
G01X19101227Y-1963420D02*
G01X19101227Y-2083562D01*
G01X19101227Y-1963420D02*
G01X19152789Y-1963420D01*
G01X19169807Y-1969262D01*
G01X19175649Y-1974850D01*
G01X19181237Y-1986280D01*
G01X19181237Y-2003552D01*
G01X19175649Y-2014982D01*
G01X19169807Y-2020570D01*
G01X19152789Y-2026412D01*
G01X19101227Y-2026412D01*
G01X19269121Y-1963420D02*
G01X19269121Y-2083562D01*
G01X19228989Y-1963420D02*
G01X19308999Y-1963420D01*
G01X19356751Y-1963420D02*
G01X19356751Y-2083562D01*
G01X19436761Y-1963420D02*
G01X19436761Y-2083562D01*
G01X19356751Y-2020570D02*
G01X19436761Y-2020570D01*
G01X20642644Y-1980692D02*
G01X20631214Y-1969262D01*
G01X20614196Y-1963420D01*
G01X20591336Y-1963420D01*
G01X20574064Y-1969262D01*
G01X20562634Y-1980692D01*
G01X20562634Y-1992122D01*
G01X20568476Y-2003552D01*
G01X20574064Y-2009140D01*
G01X20585494Y-2014982D01*
G01X20619784Y-2026412D01*
G01X20631214Y-2032000D01*
G01X20637056Y-2037842D01*
G01X20642644Y-2049272D01*
G01X20642644Y-2066290D01*
G01X20631214Y-2077720D01*
G01X20614196Y-2083562D01*
G01X20591336Y-2083562D01*
G01X20574064Y-2077720D01*
G01X20562634Y-2066290D01*
G01X20690396Y-1963420D02*
G01X20690396Y-2083562D01*
G01X20766850Y-2003552D02*
G01X20755420Y-2009140D01*
G01X20743990Y-2020570D01*
G01X20738148Y-2037842D01*
G01X20738148Y-2049272D01*
G01X20743990Y-2066290D01*
G01X20755420Y-2077720D01*
G01X20766850Y-2083562D01*
G01X20783868Y-2083562D01*
G01X20795298Y-2077720D01*
G01X20806728Y-2066290D01*
G01X20812570Y-2049272D01*
G01X20812570Y-2037842D01*
G01X20806728Y-2020570D01*
G01X20795298Y-2009140D01*
G01X20783868Y-2003552D01*
G01X20766850Y-2003552D01*
G01X20877594Y-1963420D02*
G01X20877594Y-2060702D01*
G01X20883182Y-2077720D01*
G01X20894612Y-2083562D01*
G01X20906042Y-2083562D01*
G01X20860322Y-2003552D02*
G01X20900454Y-2003552D01*
G01X21993815Y-1963420D02*
G01X21993815Y-2083562D01*
G01X21993815Y-1963420D02*
G01X22045377Y-1963420D01*
G01X22062395Y-1969262D01*
G01X22068237Y-1974850D01*
G01X22073825Y-1986280D01*
G01X22073825Y-2003552D01*
G01X22068237Y-2014982D01*
G01X22062395Y-2020570D01*
G01X22045377Y-2026412D01*
G01X21993815Y-2026412D01*
G01X22190157Y-2003552D02*
G01X22190157Y-2083562D01*
G01X22190157Y-2020570D02*
G01X22178727Y-2009140D01*
G01X22167297Y-2003552D01*
G01X22150279Y-2003552D01*
G01X22138849Y-2009140D01*
G01X22127419Y-2020570D01*
G01X22121577Y-2037842D01*
G01X22121577Y-2049272D01*
G01X22127419Y-2066290D01*
G01X22138849Y-2077720D01*
G01X22150279Y-2083562D01*
G01X22167297Y-2083562D01*
G01X22178727Y-2077720D01*
G01X22190157Y-2066290D01*
G01X22306489Y-1963420D02*
G01X22306489Y-2083562D01*
G01X22306489Y-2020570D02*
G01X22295059Y-2009140D01*
G01X22283629Y-2003552D01*
G01X22266611Y-2003552D01*
G01X22255181Y-2009140D01*
G01X22243751Y-2020570D01*
G01X22237909Y-2037842D01*
G01X22237909Y-2049272D01*
G01X22243751Y-2066290D01*
G01X22255181Y-2077720D01*
G01X22266611Y-2083562D01*
G01X22283629Y-2083562D01*
G01X22295059Y-2077720D01*
G01X22306489Y-2066290D01*
G01X23697284Y-1963420D02*
G01X23685854Y-1969262D01*
G01X23674424Y-1980692D01*
G01X23668836Y-1992122D01*
G01X23662994Y-2009140D01*
G01X23662994Y-2037842D01*
G01X23668836Y-2054860D01*
G01X23674424Y-2066290D01*
G01X23685854Y-2077720D01*
G01X23697284Y-2083562D01*
G01X23720144Y-2083562D01*
G01X23731574Y-2077720D01*
G01X23743004Y-2066290D01*
G01X23748846Y-2054860D01*
G01X23754434Y-2037842D01*
G01X23754434Y-2009140D01*
G01X23748846Y-1992122D01*
G01X23743004Y-1980692D01*
G01X23731574Y-1969262D01*
G01X23720144Y-1963420D01*
G01X23697284Y-1963420D01*
G01X23802186Y-2003552D02*
G01X23836476Y-2083562D01*
G01X23870766Y-2003552D02*
G01X23836476Y-2083562D01*
G01X23987098Y-2003552D02*
G01X23987098Y-2083562D01*
G01X23987098Y-2020570D02*
G01X23975668Y-2009140D01*
G01X23964238Y-2003552D01*
G01X23947220Y-2003552D01*
G01X23935790Y-2009140D01*
G01X23924360Y-2020570D01*
G01X23918518Y-2037842D01*
G01X23918518Y-2049272D01*
G01X23924360Y-2066290D01*
G01X23935790Y-2077720D01*
G01X23947220Y-2083562D01*
G01X23964238Y-2083562D01*
G01X23975668Y-2077720D01*
G01X23987098Y-2066290D01*
G01X24034850Y-1963420D02*
G01X24034850Y-2083562D01*
G01X25622495Y-1963420D02*
G01X25622495Y-2083562D01*
G01X25582363Y-1963420D02*
G01X25662373Y-1963420D01*
G01X25738827Y-2003552D02*
G01X25727397Y-2009140D01*
G01X25715967Y-2020570D01*
G01X25710125Y-2037842D01*
G01X25710125Y-2049272D01*
G01X25715967Y-2066290D01*
G01X25727397Y-2077720D01*
G01X25738827Y-2083562D01*
G01X25755845Y-2083562D01*
G01X25767275Y-2077720D01*
G01X25778705Y-2066290D01*
G01X25784547Y-2049272D01*
G01X25784547Y-2037842D01*
G01X25778705Y-2020570D01*
G01X25767275Y-2009140D01*
G01X25755845Y-2003552D01*
G01X25738827Y-2003552D01*
G01X25832299Y-2003552D02*
G01X25832299Y-2123440D01*
G01X25832299Y-2020570D02*
G01X25843729Y-2009140D01*
G01X25855159Y-2003552D01*
G01X25872431Y-2003552D01*
G01X25883861Y-2009140D01*
G01X25895291Y-2020570D01*
G01X25900879Y-2037842D01*
G01X25900879Y-2049272D01*
G01X25895291Y-2066290D01*
G01X25883861Y-2077720D01*
G01X25872431Y-2083562D01*
G01X25855159Y-2083562D01*
G01X25843729Y-2077720D01*
G01X25832299Y-2066290D01*
G01X26076647Y-1963420D02*
G01X26076647Y-2083562D01*
G01X26076647Y-2083562D02*
G01X26145227Y-2083562D01*
G01X26261559Y-2003552D02*
G01X26261559Y-2083562D01*
G01X26261559Y-2020570D02*
G01X26250129Y-2009140D01*
G01X26238699Y-2003552D01*
G01X26221681Y-2003552D01*
G01X26210251Y-2009140D01*
G01X26198821Y-2020570D01*
G01X26192979Y-2037842D01*
G01X26192979Y-2049272D01*
G01X26198821Y-2066290D01*
G01X26210251Y-2077720D01*
G01X26221681Y-2083562D01*
G01X26238699Y-2083562D01*
G01X26250129Y-2077720D01*
G01X26261559Y-2066290D01*
G01X26315153Y-2003552D02*
G01X26349443Y-2083562D01*
G01X26383733Y-2003552D02*
G01X26349443Y-2083562D01*
G01X26338013Y-2106422D01*
G01X26326583Y-2117852D01*
G01X26315153Y-2123440D01*
G01X26309311Y-2123440D01*
G01X26431485Y-2037842D02*
G01X26500065Y-2037842D01*
G01X26500065Y-2026412D01*
G01X26494477Y-2014982D01*
G01X26488635Y-2009140D01*
G01X26477205Y-2003552D01*
G01X26460187Y-2003552D01*
G01X26448757Y-2009140D01*
G01X26437327Y-2020570D01*
G01X26431485Y-2037842D01*
G01X26431485Y-2049272D01*
G01X26437327Y-2066290D01*
G01X26448757Y-2077720D01*
G01X26460187Y-2083562D01*
G01X26477205Y-2083562D01*
G01X26488635Y-2077720D01*
G01X26500065Y-2066290D01*
G01X26547817Y-2003552D02*
G01X26547817Y-2083562D01*
G01X26547817Y-2037842D02*
G01X26553659Y-2020570D01*
G01X26565089Y-2009140D01*
G01X26576519Y-2003552D01*
G01X26593537Y-2003552D01*
G01X26641289Y-2032000D02*
G01X26744159Y-2032000D01*
G01X26791911Y-1963420D02*
G01X26791911Y-2083562D01*
G01X26791911Y-1963420D02*
G01X26843473Y-1963420D01*
G01X26860491Y-1969262D01*
G01X26866333Y-1974850D01*
G01X26871921Y-1986280D01*
G01X26871921Y-1997710D01*
G01X26866333Y-2009140D01*
G01X26860491Y-2014982D01*
G01X26843473Y-2020570D01*
G01X26791911Y-2020570D02*
G01X26843473Y-2020570D01*
G01X26860491Y-2026412D01*
G01X26866333Y-2032000D01*
G01X26871921Y-2043430D01*
G01X26871921Y-2060702D01*
G01X26866333Y-2072132D01*
G01X26860491Y-2077720D01*
G01X26843473Y-2083562D01*
G01X26791911Y-2083562D01*
G01X26948375Y-2003552D02*
G01X26936945Y-2009140D01*
G01X26925515Y-2020570D01*
G01X26919673Y-2037842D01*
G01X26919673Y-2049272D01*
G01X26925515Y-2066290D01*
G01X26936945Y-2077720D01*
G01X26948375Y-2083562D01*
G01X26965393Y-2083562D01*
G01X26976823Y-2077720D01*
G01X26988253Y-2066290D01*
G01X26994095Y-2049272D01*
G01X26994095Y-2037842D01*
G01X26988253Y-2020570D01*
G01X26976823Y-2009140D01*
G01X26965393Y-2003552D01*
G01X26948375Y-2003552D01*
G01X27059119Y-1963420D02*
G01X27059119Y-2060702D01*
G01X27064707Y-2077720D01*
G01X27076137Y-2083562D01*
G01X27087567Y-2083562D01*
G01X27041847Y-2003552D02*
G01X27081979Y-2003552D01*
G01X27152591Y-1963420D02*
G01X27152591Y-2060702D01*
G01X27158179Y-2077720D01*
G01X27169609Y-2083562D01*
G01X27181039Y-2083562D01*
G01X27135319Y-2003552D02*
G01X27175451Y-2003552D01*
G01X27257493Y-2003552D02*
G01X27246063Y-2009140D01*
G01X27234633Y-2020570D01*
G01X27228791Y-2037842D01*
G01X27228791Y-2049272D01*
G01X27234633Y-2066290D01*
G01X27246063Y-2077720D01*
G01X27257493Y-2083562D01*
G01X27274511Y-2083562D01*
G01X27285941Y-2077720D01*
G01X27297371Y-2066290D01*
G01X27303213Y-2049272D01*
G01X27303213Y-2037842D01*
G01X27297371Y-2020570D01*
G01X27285941Y-2009140D01*
G01X27274511Y-2003552D01*
G01X27257493Y-2003552D01*
G01X27350965Y-2003552D02*
G01X27350965Y-2083562D01*
G01X27350965Y-2026412D02*
G01X27368237Y-2009140D01*
G01X27379667Y-2003552D01*
G01X27396685Y-2003552D01*
G01X27408115Y-2009140D01*
G01X27413957Y-2026412D01*
G01X27413957Y-2083562D01*
G01X27413957Y-2026412D02*
G01X27430975Y-2009140D01*
G01X27442405Y-2003552D01*
G01X27459677Y-2003552D01*
G01X27471107Y-2009140D01*
G01X27476695Y-2026412D01*
G01X27476695Y-2083562D01*
G01X27652463Y-1963420D02*
G01X27652463Y-2083562D01*
G01X27652463Y-2083562D02*
G01X27721043Y-2083562D01*
G01X27837375Y-2003552D02*
G01X27837375Y-2083562D01*
G01X27837375Y-2020570D02*
G01X27825945Y-2009140D01*
G01X27814515Y-2003552D01*
G01X27797497Y-2003552D01*
G01X27786067Y-2009140D01*
G01X27774637Y-2020570D01*
G01X27768795Y-2037842D01*
G01X27768795Y-2049272D01*
G01X27774637Y-2066290D01*
G01X27786067Y-2077720D01*
G01X27797497Y-2083562D01*
G01X27814515Y-2083562D01*
G01X27825945Y-2077720D01*
G01X27837375Y-2066290D01*
G01X27890969Y-2003552D02*
G01X27925259Y-2083562D01*
G01X27959549Y-2003552D02*
G01X27925259Y-2083562D01*
G01X27913829Y-2106422D01*
G01X27902399Y-2117852D01*
G01X27890969Y-2123440D01*
G01X27885127Y-2123440D01*
G01X28007301Y-2037842D02*
G01X28075881Y-2037842D01*
G01X28075881Y-2026412D01*
G01X28070293Y-2014982D01*
G01X28064451Y-2009140D01*
G01X28053021Y-2003552D01*
G01X28036003Y-2003552D01*
G01X28024573Y-2009140D01*
G01X28013143Y-2020570D01*
G01X28007301Y-2037842D01*
G01X28007301Y-2049272D01*
G01X28013143Y-2066290D01*
G01X28024573Y-2077720D01*
G01X28036003Y-2083562D01*
G01X28053021Y-2083562D01*
G01X28064451Y-2077720D01*
G01X28075881Y-2066290D01*
G01X28123633Y-2003552D02*
G01X28123633Y-2083562D01*
G01X28123633Y-2037842D02*
G01X28129475Y-2020570D01*
G01X28140905Y-2009140D01*
G01X28152335Y-2003552D01*
G01X28169353Y-2003552D01*
G01X13657716Y-2572693D02*
G01X13657716Y-2566851D01*
G01X13663304Y-2555421D01*
G01X13669146Y-2549833D01*
G01X13680576Y-2543991D01*
G01X13703436Y-2543991D01*
G01X13714866Y-2549833D01*
G01X13720454Y-2555421D01*
G01X13726296Y-2566851D01*
G01X13726296Y-2578281D01*
G01X13720454Y-2589711D01*
G01X13709024Y-2606983D01*
G01X13651874Y-2664133D01*
G01X13731884Y-2664133D01*
G01X15071879Y-2572693D02*
G01X15071879Y-2566851D01*
G01X15077467Y-2555421D01*
G01X15083309Y-2549833D01*
G01X15094739Y-2543991D01*
G01X15117599Y-2543991D01*
G01X15129029Y-2549833D01*
G01X15134617Y-2555421D01*
G01X15140459Y-2566851D01*
G01X15140459Y-2578281D01*
G01X15134617Y-2589711D01*
G01X15123187Y-2606983D01*
G01X15066037Y-2664133D01*
G01X15146047Y-2664133D01*
G01X15273809Y-2543991D02*
G01X15216659Y-2664133D01*
G01X15193799Y-2543991D02*
G01X15273809Y-2543991D01*
G01X15327403Y-2635431D02*
G01X15321561Y-2641273D01*
G01X15327403Y-2646861D01*
G01X15332991Y-2641273D01*
G01X15327403Y-2635431D01*
G01X15449323Y-2561263D02*
G01X15443735Y-2549833D01*
G01X15426463Y-2543991D01*
G01X15415033Y-2543991D01*
G01X15398015Y-2549833D01*
G01X15386585Y-2566851D01*
G01X15380743Y-2595553D01*
G01X15380743Y-2624001D01*
G01X15386585Y-2646861D01*
G01X15398015Y-2658291D01*
G01X15415033Y-2664133D01*
G01X15420875Y-2664133D01*
G01X15437893Y-2658291D01*
G01X15449323Y-2646861D01*
G01X15455165Y-2629843D01*
G01X15455165Y-2624001D01*
G01X15449323Y-2606983D01*
G01X15437893Y-2595553D01*
G01X15420875Y-2589711D01*
G01X15415033Y-2589711D01*
G01X15398015Y-2595553D01*
G01X15386585Y-2606983D01*
G01X15380743Y-2624001D01*
G01X15502917Y-2584123D02*
G01X15502917Y-2664133D01*
G01X15502917Y-2606983D02*
G01X15520189Y-2589711D01*
G01X15531619Y-2584123D01*
G01X15548637Y-2584123D01*
G01X15560067Y-2589711D01*
G01X15565909Y-2606983D01*
G01X15565909Y-2664133D01*
G01X15565909Y-2606983D02*
G01X15582927Y-2589711D01*
G01X15594357Y-2584123D01*
G01X15611629Y-2584123D01*
G01X15623059Y-2589711D01*
G01X15628647Y-2606983D01*
G01X15628647Y-2664133D01*
G01X15676399Y-2543991D02*
G01X15682241Y-2549833D01*
G01X15687829Y-2543991D01*
G01X15682241Y-2538403D01*
G01X15676399Y-2543991D01*
G01X15682241Y-2584123D02*
G01X15682241Y-2664133D01*
G01X15735581Y-2543991D02*
G01X15735581Y-2664133D01*
G01X15823465Y-2521131D02*
G01X15812035Y-2532561D01*
G01X15800605Y-2549833D01*
G01X15789175Y-2572693D01*
G01X15783333Y-2601141D01*
G01X15783333Y-2624001D01*
G01X15789175Y-2652703D01*
G01X15800605Y-2675563D01*
G01X15812035Y-2692581D01*
G01X15823465Y-2704011D01*
G01X15905507Y-2543991D02*
G01X15888489Y-2549833D01*
G01X15877059Y-2566851D01*
G01X15871217Y-2595553D01*
G01X15871217Y-2612571D01*
G01X15877059Y-2641273D01*
G01X15888489Y-2658291D01*
G01X15905507Y-2664133D01*
G01X15916937Y-2664133D01*
G01X15934209Y-2658291D01*
G01X15945639Y-2641273D01*
G01X15951227Y-2612571D01*
G01X15951227Y-2595553D01*
G01X15945639Y-2566851D01*
G01X15934209Y-2549833D01*
G01X15916937Y-2543991D01*
G01X15905507Y-2543991D01*
G01X16004821Y-2635431D02*
G01X15998979Y-2641273D01*
G01X16004821Y-2646861D01*
G01X16010409Y-2641273D01*
G01X16004821Y-2635431D01*
G01X16138171Y-2543991D02*
G01X16081021Y-2664133D01*
G01X16058161Y-2543991D02*
G01X16138171Y-2543991D01*
G01X16220213Y-2543991D02*
G01X16203195Y-2549833D01*
G01X16191765Y-2566851D01*
G01X16185923Y-2595553D01*
G01X16185923Y-2612571D01*
G01X16191765Y-2641273D01*
G01X16203195Y-2658291D01*
G01X16220213Y-2664133D01*
G01X16231643Y-2664133D01*
G01X16248915Y-2658291D01*
G01X16260345Y-2641273D01*
G01X16265933Y-2612571D01*
G01X16265933Y-2595553D01*
G01X16260345Y-2566851D01*
G01X16248915Y-2549833D01*
G01X16231643Y-2543991D01*
G01X16220213Y-2543991D01*
G01X16347975Y-2543991D02*
G01X16330957Y-2549833D01*
G01X16319527Y-2566851D01*
G01X16313685Y-2595553D01*
G01X16313685Y-2612571D01*
G01X16319527Y-2641273D01*
G01X16330957Y-2658291D01*
G01X16347975Y-2664133D01*
G01X16359405Y-2664133D01*
G01X16376677Y-2658291D01*
G01X16388107Y-2641273D01*
G01X16393695Y-2612571D01*
G01X16393695Y-2595553D01*
G01X16388107Y-2566851D01*
G01X16376677Y-2549833D01*
G01X16359405Y-2543991D01*
G01X16347975Y-2543991D01*
G01X16441447Y-2584123D02*
G01X16441447Y-2664133D01*
G01X16441447Y-2606983D02*
G01X16458719Y-2589711D01*
G01X16470149Y-2584123D01*
G01X16487167Y-2584123D01*
G01X16498597Y-2589711D01*
G01X16504439Y-2606983D01*
G01X16504439Y-2664133D01*
G01X16504439Y-2606983D02*
G01X16521457Y-2589711D01*
G01X16532887Y-2584123D01*
G01X16550159Y-2584123D01*
G01X16561589Y-2589711D01*
G01X16567177Y-2606983D01*
G01X16567177Y-2664133D01*
G01X16614929Y-2584123D02*
G01X16614929Y-2664133D01*
G01X16614929Y-2606983D02*
G01X16632201Y-2589711D01*
G01X16643631Y-2584123D01*
G01X16660649Y-2584123D01*
G01X16672079Y-2589711D01*
G01X16677921Y-2606983D01*
G01X16677921Y-2664133D01*
G01X16677921Y-2606983D02*
G01X16694939Y-2589711D01*
G01X16706369Y-2584123D01*
G01X16723641Y-2584123D01*
G01X16735071Y-2589711D01*
G01X16740659Y-2606983D01*
G01X16740659Y-2664133D01*
G01X16788411Y-2521131D02*
G01X16799841Y-2532561D01*
G01X16811271Y-2549833D01*
G01X16822701Y-2572693D01*
G01X16828543Y-2601141D01*
G01X16828543Y-2624001D01*
G01X16822701Y-2652703D01*
G01X16811271Y-2675563D01*
G01X16799841Y-2692581D01*
G01X16788411Y-2704011D01*
G01X19101227Y-2543991D02*
G01X19101227Y-2664133D01*
G01X19101227Y-2543991D02*
G01X19181237Y-2664133D01*
G01X19181237Y-2543991D02*
G01X19181237Y-2664133D01*
G01X19228989Y-2543991D02*
G01X19228989Y-2664133D01*
G01X19228989Y-2543991D02*
G01X19280551Y-2543991D01*
G01X19297569Y-2549833D01*
G01X19303411Y-2555421D01*
G01X19308999Y-2566851D01*
G01X19308999Y-2584123D01*
G01X19303411Y-2595553D01*
G01X19297569Y-2601141D01*
G01X19280551Y-2606983D01*
G01X19228989Y-2606983D01*
G01X19396883Y-2543991D02*
G01X19396883Y-2664133D01*
G01X19356751Y-2543991D02*
G01X19436761Y-2543991D01*
G01X19484513Y-2543991D02*
G01X19484513Y-2664133D01*
G01X19564523Y-2543991D02*
G01X19564523Y-2664133D01*
G01X19484513Y-2601141D02*
G01X19564523Y-2601141D01*
G01X20562634Y-2543991D02*
G01X20562634Y-2664133D01*
G01X20562634Y-2543991D02*
G01X20614196Y-2543991D01*
G01X20631214Y-2549833D01*
G01X20637056Y-2555421D01*
G01X20642644Y-2566851D01*
G01X20642644Y-2578281D01*
G01X20637056Y-2589711D01*
G01X20631214Y-2595553D01*
G01X20614196Y-2601141D01*
G01X20562634Y-2601141D01*
G01X20602766Y-2601141D02*
G01X20642644Y-2664133D01*
G01X20719098Y-2584123D02*
G01X20707668Y-2589711D01*
G01X20696238Y-2601141D01*
G01X20690396Y-2618413D01*
G01X20690396Y-2629843D01*
G01X20696238Y-2646861D01*
G01X20707668Y-2658291D01*
G01X20719098Y-2664133D01*
G01X20736116Y-2664133D01*
G01X20747546Y-2658291D01*
G01X20758976Y-2646861D01*
G01X20764818Y-2629843D01*
G01X20764818Y-2618413D01*
G01X20758976Y-2601141D01*
G01X20747546Y-2589711D01*
G01X20736116Y-2584123D01*
G01X20719098Y-2584123D01*
G01X20812570Y-2584123D02*
G01X20812570Y-2641273D01*
G01X20818412Y-2658291D01*
G01X20829842Y-2664133D01*
G01X20846860Y-2664133D01*
G01X20858290Y-2658291D01*
G01X20875562Y-2641273D01*
G01X20875562Y-2584123D02*
G01X20875562Y-2664133D01*
G01X20923314Y-2584123D02*
G01X20923314Y-2664133D01*
G01X20923314Y-2606983D02*
G01X20940586Y-2589711D01*
G01X20952016Y-2584123D01*
G01X20969034Y-2584123D01*
G01X20980464Y-2589711D01*
G01X20986306Y-2606983D01*
G01X20986306Y-2664133D01*
G01X21102638Y-2543991D02*
G01X21102638Y-2664133D01*
G01X21102638Y-2601141D02*
G01X21091208Y-2589711D01*
G01X21079778Y-2584123D01*
G01X21062760Y-2584123D01*
G01X21051330Y-2589711D01*
G01X21039900Y-2601141D01*
G01X21034058Y-2618413D01*
G01X21034058Y-2629843D01*
G01X21039900Y-2646861D01*
G01X21051330Y-2658291D01*
G01X21062760Y-2664133D01*
G01X21079778Y-2664133D01*
G01X21091208Y-2658291D01*
G01X21102638Y-2646861D01*
G01X21993815Y-2543991D02*
G01X22039535Y-2664133D01*
G01X22085255Y-2543991D02*
G01X22039535Y-2664133D01*
G01X22133007Y-2543991D02*
G01X22138849Y-2549833D01*
G01X22144437Y-2543991D01*
G01X22138849Y-2538403D01*
G01X22133007Y-2543991D01*
G01X22138849Y-2584123D02*
G01X22138849Y-2664133D01*
G01X22260769Y-2584123D02*
G01X22260769Y-2664133D01*
G01X22260769Y-2601141D02*
G01X22249339Y-2589711D01*
G01X22237909Y-2584123D01*
G01X22220891Y-2584123D01*
G01X22209461Y-2589711D01*
G01X22198031Y-2601141D01*
G01X22192189Y-2618413D01*
G01X22192189Y-2629843D01*
G01X22198031Y-2646861D01*
G01X22209461Y-2658291D01*
G01X22220891Y-2664133D01*
G01X22237909Y-2664133D01*
G01X22249339Y-2658291D01*
G01X22260769Y-2646861D01*
G01X25622495Y-2543991D02*
G01X25622495Y-2664133D01*
G01X25582363Y-2543991D02*
G01X25662373Y-2543991D01*
G01X25738827Y-2584123D02*
G01X25727397Y-2589711D01*
G01X25715967Y-2601141D01*
G01X25710125Y-2618413D01*
G01X25710125Y-2629843D01*
G01X25715967Y-2646861D01*
G01X25727397Y-2658291D01*
G01X25738827Y-2664133D01*
G01X25755845Y-2664133D01*
G01X25767275Y-2658291D01*
G01X25778705Y-2646861D01*
G01X25784547Y-2629843D01*
G01X25784547Y-2618413D01*
G01X25778705Y-2601141D01*
G01X25767275Y-2589711D01*
G01X25755845Y-2584123D01*
G01X25738827Y-2584123D01*
G01X25832299Y-2584123D02*
G01X25832299Y-2704011D01*
G01X25832299Y-2601141D02*
G01X25843729Y-2589711D01*
G01X25855159Y-2584123D01*
G01X25872431Y-2584123D01*
G01X25883861Y-2589711D01*
G01X25895291Y-2601141D01*
G01X25900879Y-2618413D01*
G01X25900879Y-2629843D01*
G01X25895291Y-2646861D01*
G01X25883861Y-2658291D01*
G01X25872431Y-2664133D01*
G01X25855159Y-2664133D01*
G01X25843729Y-2658291D01*
G01X25832299Y-2646861D01*
G01X26076647Y-2543991D02*
G01X26076647Y-2664133D01*
G01X26076647Y-2664133D02*
G01X26145227Y-2664133D01*
G01X26261559Y-2584123D02*
G01X26261559Y-2664133D01*
G01X26261559Y-2601141D02*
G01X26250129Y-2589711D01*
G01X26238699Y-2584123D01*
G01X26221681Y-2584123D01*
G01X26210251Y-2589711D01*
G01X26198821Y-2601141D01*
G01X26192979Y-2618413D01*
G01X26192979Y-2629843D01*
G01X26198821Y-2646861D01*
G01X26210251Y-2658291D01*
G01X26221681Y-2664133D01*
G01X26238699Y-2664133D01*
G01X26250129Y-2658291D01*
G01X26261559Y-2646861D01*
G01X26315153Y-2584123D02*
G01X26349443Y-2664133D01*
G01X26383733Y-2584123D02*
G01X26349443Y-2664133D01*
G01X26338013Y-2686993D01*
G01X26326583Y-2698423D01*
G01X26315153Y-2704011D01*
G01X26309311Y-2704011D01*
G01X26431485Y-2618413D02*
G01X26500065Y-2618413D01*
G01X26500065Y-2606983D01*
G01X26494477Y-2595553D01*
G01X26488635Y-2589711D01*
G01X26477205Y-2584123D01*
G01X26460187Y-2584123D01*
G01X26448757Y-2589711D01*
G01X26437327Y-2601141D01*
G01X26431485Y-2618413D01*
G01X26431485Y-2629843D01*
G01X26437327Y-2646861D01*
G01X26448757Y-2658291D01*
G01X26460187Y-2664133D01*
G01X26477205Y-2664133D01*
G01X26488635Y-2658291D01*
G01X26500065Y-2646861D01*
G01X26547817Y-2584123D02*
G01X26547817Y-2664133D01*
G01X26547817Y-2618413D02*
G01X26553659Y-2601141D01*
G01X26565089Y-2589711D01*
G01X26576519Y-2584123D01*
G01X26593537Y-2584123D01*
G01X26641289Y-2612571D02*
G01X26744159Y-2612571D01*
G01X26791911Y-2543991D02*
G01X26791911Y-2664133D01*
G01X26791911Y-2543991D02*
G01X26843473Y-2543991D01*
G01X26860491Y-2549833D01*
G01X26866333Y-2555421D01*
G01X26871921Y-2566851D01*
G01X26871921Y-2578281D01*
G01X26866333Y-2589711D01*
G01X26860491Y-2595553D01*
G01X26843473Y-2601141D01*
G01X26791911Y-2601141D02*
G01X26843473Y-2601141D01*
G01X26860491Y-2606983D01*
G01X26866333Y-2612571D01*
G01X26871921Y-2624001D01*
G01X26871921Y-2641273D01*
G01X26866333Y-2652703D01*
G01X26860491Y-2658291D01*
G01X26843473Y-2664133D01*
G01X26791911Y-2664133D01*
G01X26948375Y-2584123D02*
G01X26936945Y-2589711D01*
G01X26925515Y-2601141D01*
G01X26919673Y-2618413D01*
G01X26919673Y-2629843D01*
G01X26925515Y-2646861D01*
G01X26936945Y-2658291D01*
G01X26948375Y-2664133D01*
G01X26965393Y-2664133D01*
G01X26976823Y-2658291D01*
G01X26988253Y-2646861D01*
G01X26994095Y-2629843D01*
G01X26994095Y-2618413D01*
G01X26988253Y-2601141D01*
G01X26976823Y-2589711D01*
G01X26965393Y-2584123D01*
G01X26948375Y-2584123D01*
G01X27059119Y-2543991D02*
G01X27059119Y-2641273D01*
G01X27064707Y-2658291D01*
G01X27076137Y-2664133D01*
G01X27087567Y-2664133D01*
G01X27041847Y-2584123D02*
G01X27081979Y-2584123D01*
G01X27152591Y-2543991D02*
G01X27152591Y-2641273D01*
G01X27158179Y-2658291D01*
G01X27169609Y-2664133D01*
G01X27181039Y-2664133D01*
G01X27135319Y-2584123D02*
G01X27175451Y-2584123D01*
G01X27257493Y-2584123D02*
G01X27246063Y-2589711D01*
G01X27234633Y-2601141D01*
G01X27228791Y-2618413D01*
G01X27228791Y-2629843D01*
G01X27234633Y-2646861D01*
G01X27246063Y-2658291D01*
G01X27257493Y-2664133D01*
G01X27274511Y-2664133D01*
G01X27285941Y-2658291D01*
G01X27297371Y-2646861D01*
G01X27303213Y-2629843D01*
G01X27303213Y-2618413D01*
G01X27297371Y-2601141D01*
G01X27285941Y-2589711D01*
G01X27274511Y-2584123D01*
G01X27257493Y-2584123D01*
G01X27350965Y-2584123D02*
G01X27350965Y-2664133D01*
G01X27350965Y-2606983D02*
G01X27368237Y-2589711D01*
G01X27379667Y-2584123D01*
G01X27396685Y-2584123D01*
G01X27408115Y-2589711D01*
G01X27413957Y-2606983D01*
G01X27413957Y-2664133D01*
G01X27413957Y-2606983D02*
G01X27430975Y-2589711D01*
G01X27442405Y-2584123D01*
G01X27459677Y-2584123D01*
G01X27471107Y-2589711D01*
G01X27476695Y-2606983D01*
G01X27476695Y-2664133D01*
G01X27652463Y-2543991D02*
G01X27652463Y-2664133D01*
G01X27652463Y-2664133D02*
G01X27721043Y-2664133D01*
G01X27837375Y-2584123D02*
G01X27837375Y-2664133D01*
G01X27837375Y-2601141D02*
G01X27825945Y-2589711D01*
G01X27814515Y-2584123D01*
G01X27797497Y-2584123D01*
G01X27786067Y-2589711D01*
G01X27774637Y-2601141D01*
G01X27768795Y-2618413D01*
G01X27768795Y-2629843D01*
G01X27774637Y-2646861D01*
G01X27786067Y-2658291D01*
G01X27797497Y-2664133D01*
G01X27814515Y-2664133D01*
G01X27825945Y-2658291D01*
G01X27837375Y-2646861D01*
G01X27890969Y-2584123D02*
G01X27925259Y-2664133D01*
G01X27959549Y-2584123D02*
G01X27925259Y-2664133D01*
G01X27913829Y-2686993D01*
G01X27902399Y-2698423D01*
G01X27890969Y-2704011D01*
G01X27885127Y-2704011D01*
G01X28007301Y-2618413D02*
G01X28075881Y-2618413D01*
G01X28075881Y-2606983D01*
G01X28070293Y-2595553D01*
G01X28064451Y-2589711D01*
G01X28053021Y-2584123D01*
G01X28036003Y-2584123D01*
G01X28024573Y-2589711D01*
G01X28013143Y-2601141D01*
G01X28007301Y-2618413D01*
G01X28007301Y-2629843D01*
G01X28013143Y-2646861D01*
G01X28024573Y-2658291D01*
G01X28036003Y-2664133D01*
G01X28053021Y-2664133D01*
G01X28064451Y-2658291D01*
G01X28075881Y-2646861D01*
G01X28123633Y-2584123D02*
G01X28123633Y-2664133D01*
G01X28123633Y-2618413D02*
G01X28129475Y-2601141D01*
G01X28140905Y-2589711D01*
G01X28152335Y-2584123D01*
G01X28169353Y-2584123D01*
G01X13663304Y-3124563D02*
G01X13726296Y-3124563D01*
G01X13692006Y-3170283D01*
G01X13709024Y-3170283D01*
G01X13720454Y-3176125D01*
G01X13726296Y-3181713D01*
G01X13731884Y-3198985D01*
G01X13731884Y-3210415D01*
G01X13726296Y-3227433D01*
G01X13714866Y-3238863D01*
G01X13697594Y-3244705D01*
G01X13680576Y-3244705D01*
G01X13663304Y-3238863D01*
G01X13657716Y-3233275D01*
G01X13651874Y-3221845D01*
G01X15123187Y-3124563D02*
G01X15066037Y-3204573D01*
G01X15151889Y-3204573D01*
G01X15123187Y-3124563D02*
G01X15123187Y-3244705D01*
G01X15279651Y-3124563D02*
G01X15222501Y-3244705D01*
G01X15199641Y-3124563D02*
G01X15279651Y-3124563D01*
G01X15333245Y-3216003D02*
G01X15327403Y-3221845D01*
G01X15333245Y-3227433D01*
G01X15338833Y-3221845D01*
G01X15333245Y-3216003D01*
G01X15392427Y-3153265D02*
G01X15392427Y-3147423D01*
G01X15398015Y-3135993D01*
G01X15403857Y-3130405D01*
G01X15415287Y-3124563D01*
G01X15438147Y-3124563D01*
G01X15449577Y-3130405D01*
G01X15455165Y-3135993D01*
G01X15461007Y-3147423D01*
G01X15461007Y-3158853D01*
G01X15455165Y-3170283D01*
G01X15443735Y-3187555D01*
G01X15386585Y-3244705D01*
G01X15466595Y-3244705D01*
G01X15514347Y-3164695D02*
G01X15577339Y-3244705D01*
G01X15577339Y-3164695D02*
G01X15514347Y-3244705D01*
G01X15625091Y-3147423D02*
G01X15636521Y-3141835D01*
G01X15653793Y-3124563D01*
G01X15653793Y-3244705D01*
G01X15758695Y-3124563D02*
G01X15701545Y-3204573D01*
G01X15787397Y-3204573D01*
G01X15758695Y-3124563D02*
G01X15758695Y-3244705D01*
G01X15903729Y-3124563D02*
G01X15846579Y-3124563D01*
G01X15840991Y-3176125D01*
G01X15846579Y-3170283D01*
G01X15863851Y-3164695D01*
G01X15880869Y-3164695D01*
G01X15898141Y-3170283D01*
G01X15909571Y-3181713D01*
G01X15915159Y-3198985D01*
G01X15915159Y-3210415D01*
G01X15909571Y-3227433D01*
G01X15898141Y-3238863D01*
G01X15880869Y-3244705D01*
G01X15863851Y-3244705D01*
G01X15846579Y-3238863D01*
G01X15840991Y-3233275D01*
G01X15835149Y-3221845D01*
G01X15968753Y-3216003D02*
G01X15962911Y-3221845D01*
G01X15968753Y-3227433D01*
G01X15974341Y-3221845D01*
G01X15968753Y-3216003D01*
G01X16102103Y-3124563D02*
G01X16044953Y-3244705D01*
G01X16022093Y-3124563D02*
G01X16102103Y-3124563D01*
G01X16149855Y-3164695D02*
G01X16149855Y-3244705D01*
G01X16149855Y-3187555D02*
G01X16167127Y-3170283D01*
G01X16178557Y-3164695D01*
G01X16195575Y-3164695D01*
G01X16207005Y-3170283D01*
G01X16212847Y-3187555D01*
G01X16212847Y-3244705D01*
G01X16212847Y-3187555D02*
G01X16229865Y-3170283D01*
G01X16241295Y-3164695D01*
G01X16258567Y-3164695D01*
G01X16269997Y-3170283D01*
G01X16275585Y-3187555D01*
G01X16275585Y-3244705D01*
G01X16323337Y-3124563D02*
G01X16329179Y-3130405D01*
G01X16334767Y-3124563D01*
G01X16329179Y-3118975D01*
G01X16323337Y-3124563D01*
G01X16329179Y-3164695D02*
G01X16329179Y-3244705D01*
G01X16382519Y-3124563D02*
G01X16382519Y-3244705D01*
G01X16470403Y-3101703D02*
G01X16458973Y-3113133D01*
G01X16447543Y-3130405D01*
G01X16436113Y-3153265D01*
G01X16430271Y-3181713D01*
G01X16430271Y-3204573D01*
G01X16436113Y-3233275D01*
G01X16447543Y-3256135D01*
G01X16458973Y-3273153D01*
G01X16470403Y-3284583D01*
G01X16518155Y-3147423D02*
G01X16529585Y-3141835D01*
G01X16546857Y-3124563D01*
G01X16546857Y-3244705D01*
G01X16600451Y-3216003D02*
G01X16594609Y-3221845D01*
G01X16600451Y-3227433D01*
G01X16606039Y-3221845D01*
G01X16600451Y-3216003D01*
G01X16659633Y-3153265D02*
G01X16659633Y-3147423D01*
G01X16665221Y-3135993D01*
G01X16671063Y-3130405D01*
G01X16682493Y-3124563D01*
G01X16705353Y-3124563D01*
G01X16716783Y-3130405D01*
G01X16722371Y-3135993D01*
G01X16728213Y-3147423D01*
G01X16728213Y-3158853D01*
G01X16722371Y-3170283D01*
G01X16710941Y-3187555D01*
G01X16653791Y-3244705D01*
G01X16733801Y-3244705D01*
G01X16815843Y-3124563D02*
G01X16798825Y-3130405D01*
G01X16787395Y-3147423D01*
G01X16781553Y-3176125D01*
G01X16781553Y-3193143D01*
G01X16787395Y-3221845D01*
G01X16798825Y-3238863D01*
G01X16815843Y-3244705D01*
G01X16827273Y-3244705D01*
G01X16844545Y-3238863D01*
G01X16855975Y-3221845D01*
G01X16861563Y-3193143D01*
G01X16861563Y-3176125D01*
G01X16855975Y-3147423D01*
G01X16844545Y-3130405D01*
G01X16827273Y-3124563D01*
G01X16815843Y-3124563D01*
G01X16943605Y-3124563D02*
G01X16926587Y-3130405D01*
G01X16915157Y-3147423D01*
G01X16909315Y-3176125D01*
G01X16909315Y-3193143D01*
G01X16915157Y-3221845D01*
G01X16926587Y-3238863D01*
G01X16943605Y-3244705D01*
G01X16955035Y-3244705D01*
G01X16972307Y-3238863D01*
G01X16983737Y-3221845D01*
G01X16989325Y-3193143D01*
G01X16989325Y-3176125D01*
G01X16983737Y-3147423D01*
G01X16972307Y-3130405D01*
G01X16955035Y-3124563D01*
G01X16943605Y-3124563D01*
G01X17037077Y-3164695D02*
G01X17100069Y-3244705D01*
G01X17100069Y-3164695D02*
G01X17037077Y-3244705D01*
G01X17159251Y-3124563D02*
G01X17222243Y-3124563D01*
G01X17187953Y-3170283D01*
G01X17204971Y-3170283D01*
G01X17216401Y-3176125D01*
G01X17222243Y-3181713D01*
G01X17227831Y-3198985D01*
G01X17227831Y-3210415D01*
G01X17222243Y-3227433D01*
G01X17210813Y-3238863D01*
G01X17193541Y-3244705D01*
G01X17176523Y-3244705D01*
G01X17159251Y-3238863D01*
G01X17153663Y-3233275D01*
G01X17147821Y-3221845D01*
G01X17281425Y-3216003D02*
G01X17275583Y-3221845D01*
G01X17281425Y-3227433D01*
G01X17287013Y-3221845D01*
G01X17281425Y-3216003D01*
G01X17414775Y-3124563D02*
G01X17357625Y-3244705D01*
G01X17334765Y-3124563D02*
G01X17414775Y-3124563D01*
G01X17496817Y-3124563D02*
G01X17479799Y-3130405D01*
G01X17468369Y-3147423D01*
G01X17462527Y-3176125D01*
G01X17462527Y-3193143D01*
G01X17468369Y-3221845D01*
G01X17479799Y-3238863D01*
G01X17496817Y-3244705D01*
G01X17508247Y-3244705D01*
G01X17525519Y-3238863D01*
G01X17536949Y-3221845D01*
G01X17542537Y-3193143D01*
G01X17542537Y-3176125D01*
G01X17536949Y-3147423D01*
G01X17525519Y-3130405D01*
G01X17508247Y-3124563D01*
G01X17496817Y-3124563D01*
G01X17624579Y-3124563D02*
G01X17607561Y-3130405D01*
G01X17596131Y-3147423D01*
G01X17590289Y-3176125D01*
G01X17590289Y-3193143D01*
G01X17596131Y-3221845D01*
G01X17607561Y-3238863D01*
G01X17624579Y-3244705D01*
G01X17636009Y-3244705D01*
G01X17653281Y-3238863D01*
G01X17664711Y-3221845D01*
G01X17670299Y-3193143D01*
G01X17670299Y-3176125D01*
G01X17664711Y-3147423D01*
G01X17653281Y-3130405D01*
G01X17636009Y-3124563D01*
G01X17624579Y-3124563D01*
G01X17718051Y-3164695D02*
G01X17718051Y-3244705D01*
G01X17718051Y-3187555D02*
G01X17735323Y-3170283D01*
G01X17746753Y-3164695D01*
G01X17763771Y-3164695D01*
G01X17775201Y-3170283D01*
G01X17781043Y-3187555D01*
G01X17781043Y-3244705D01*
G01X17781043Y-3187555D02*
G01X17798061Y-3170283D01*
G01X17809491Y-3164695D01*
G01X17826763Y-3164695D01*
G01X17838193Y-3170283D01*
G01X17843781Y-3187555D01*
G01X17843781Y-3244705D01*
G01X17891533Y-3164695D02*
G01X17891533Y-3244705D01*
G01X17891533Y-3187555D02*
G01X17908805Y-3170283D01*
G01X17920235Y-3164695D01*
G01X17937253Y-3164695D01*
G01X17948683Y-3170283D01*
G01X17954525Y-3187555D01*
G01X17954525Y-3244705D01*
G01X17954525Y-3187555D02*
G01X17971543Y-3170283D01*
G01X17982973Y-3164695D01*
G01X18000245Y-3164695D01*
G01X18011675Y-3170283D01*
G01X18017263Y-3187555D01*
G01X18017263Y-3244705D01*
G01X18065015Y-3101703D02*
G01X18076445Y-3113133D01*
G01X18087875Y-3130405D01*
G01X18099305Y-3153265D01*
G01X18105147Y-3181713D01*
G01X18105147Y-3204573D01*
G01X18099305Y-3233275D01*
G01X18087875Y-3256135D01*
G01X18076445Y-3273153D01*
G01X18065015Y-3284583D01*
G01X19101227Y-3124563D02*
G01X19101227Y-3244705D01*
G01X19101227Y-3124563D02*
G01X19152789Y-3124563D01*
G01X19169807Y-3130405D01*
G01X19175649Y-3135993D01*
G01X19181237Y-3147423D01*
G01X19181237Y-3164695D01*
G01X19175649Y-3176125D01*
G01X19169807Y-3181713D01*
G01X19152789Y-3187555D01*
G01X19101227Y-3187555D01*
G01X19269121Y-3124563D02*
G01X19269121Y-3244705D01*
G01X19228989Y-3124563D02*
G01X19308999Y-3124563D01*
G01X19356751Y-3124563D02*
G01X19356751Y-3244705D01*
G01X19436761Y-3124563D02*
G01X19436761Y-3244705D01*
G01X19356751Y-3181713D02*
G01X19436761Y-3181713D01*
G01X20642644Y-3141835D02*
G01X20631214Y-3130405D01*
G01X20614196Y-3124563D01*
G01X20591336Y-3124563D01*
G01X20574064Y-3130405D01*
G01X20562634Y-3141835D01*
G01X20562634Y-3153265D01*
G01X20568476Y-3164695D01*
G01X20574064Y-3170283D01*
G01X20585494Y-3176125D01*
G01X20619784Y-3187555D01*
G01X20631214Y-3193143D01*
G01X20637056Y-3198985D01*
G01X20642644Y-3210415D01*
G01X20642644Y-3227433D01*
G01X20631214Y-3238863D01*
G01X20614196Y-3244705D01*
G01X20591336Y-3244705D01*
G01X20574064Y-3238863D01*
G01X20562634Y-3227433D01*
G01X20690396Y-3124563D02*
G01X20690396Y-3244705D01*
G01X20766850Y-3164695D02*
G01X20755420Y-3170283D01*
G01X20743990Y-3181713D01*
G01X20738148Y-3198985D01*
G01X20738148Y-3210415D01*
G01X20743990Y-3227433D01*
G01X20755420Y-3238863D01*
G01X20766850Y-3244705D01*
G01X20783868Y-3244705D01*
G01X20795298Y-3238863D01*
G01X20806728Y-3227433D01*
G01X20812570Y-3210415D01*
G01X20812570Y-3198985D01*
G01X20806728Y-3181713D01*
G01X20795298Y-3170283D01*
G01X20783868Y-3164695D01*
G01X20766850Y-3164695D01*
G01X20877594Y-3124563D02*
G01X20877594Y-3221845D01*
G01X20883182Y-3238863D01*
G01X20894612Y-3244705D01*
G01X20906042Y-3244705D01*
G01X20860322Y-3164695D02*
G01X20900454Y-3164695D01*
G01X21993815Y-3124563D02*
G01X21993815Y-3244705D01*
G01X21993815Y-3124563D02*
G01X22045377Y-3124563D01*
G01X22062395Y-3130405D01*
G01X22068237Y-3135993D01*
G01X22073825Y-3147423D01*
G01X22073825Y-3164695D01*
G01X22068237Y-3176125D01*
G01X22062395Y-3181713D01*
G01X22045377Y-3187555D01*
G01X21993815Y-3187555D01*
G01X22190157Y-3164695D02*
G01X22190157Y-3244705D01*
G01X22190157Y-3181713D02*
G01X22178727Y-3170283D01*
G01X22167297Y-3164695D01*
G01X22150279Y-3164695D01*
G01X22138849Y-3170283D01*
G01X22127419Y-3181713D01*
G01X22121577Y-3198985D01*
G01X22121577Y-3210415D01*
G01X22127419Y-3227433D01*
G01X22138849Y-3238863D01*
G01X22150279Y-3244705D01*
G01X22167297Y-3244705D01*
G01X22178727Y-3238863D01*
G01X22190157Y-3227433D01*
G01X22306489Y-3124563D02*
G01X22306489Y-3244705D01*
G01X22306489Y-3181713D02*
G01X22295059Y-3170283D01*
G01X22283629Y-3164695D01*
G01X22266611Y-3164695D01*
G01X22255181Y-3170283D01*
G01X22243751Y-3181713D01*
G01X22237909Y-3198985D01*
G01X22237909Y-3210415D01*
G01X22243751Y-3227433D01*
G01X22255181Y-3238863D01*
G01X22266611Y-3244705D01*
G01X22283629Y-3244705D01*
G01X22295059Y-3238863D01*
G01X22306489Y-3227433D01*
G01X23697284Y-3124563D02*
G01X23685854Y-3130405D01*
G01X23674424Y-3141835D01*
G01X23668836Y-3153265D01*
G01X23662994Y-3170283D01*
G01X23662994Y-3198985D01*
G01X23668836Y-3216003D01*
G01X23674424Y-3227433D01*
G01X23685854Y-3238863D01*
G01X23697284Y-3244705D01*
G01X23720144Y-3244705D01*
G01X23731574Y-3238863D01*
G01X23743004Y-3227433D01*
G01X23748846Y-3216003D01*
G01X23754434Y-3198985D01*
G01X23754434Y-3170283D01*
G01X23748846Y-3153265D01*
G01X23743004Y-3141835D01*
G01X23731574Y-3130405D01*
G01X23720144Y-3124563D01*
G01X23697284Y-3124563D01*
G01X23802186Y-3164695D02*
G01X23836476Y-3244705D01*
G01X23870766Y-3164695D02*
G01X23836476Y-3244705D01*
G01X23987098Y-3164695D02*
G01X23987098Y-3244705D01*
G01X23987098Y-3181713D02*
G01X23975668Y-3170283D01*
G01X23964238Y-3164695D01*
G01X23947220Y-3164695D01*
G01X23935790Y-3170283D01*
G01X23924360Y-3181713D01*
G01X23918518Y-3198985D01*
G01X23918518Y-3210415D01*
G01X23924360Y-3227433D01*
G01X23935790Y-3238863D01*
G01X23947220Y-3244705D01*
G01X23964238Y-3244705D01*
G01X23975668Y-3238863D01*
G01X23987098Y-3227433D01*
G01X24034850Y-3124563D02*
G01X24034850Y-3244705D01*
G01X25622495Y-3124563D02*
G01X25622495Y-3244705D01*
G01X25582363Y-3124563D02*
G01X25662373Y-3124563D01*
G01X25738827Y-3164695D02*
G01X25727397Y-3170283D01*
G01X25715967Y-3181713D01*
G01X25710125Y-3198985D01*
G01X25710125Y-3210415D01*
G01X25715967Y-3227433D01*
G01X25727397Y-3238863D01*
G01X25738827Y-3244705D01*
G01X25755845Y-3244705D01*
G01X25767275Y-3238863D01*
G01X25778705Y-3227433D01*
G01X25784547Y-3210415D01*
G01X25784547Y-3198985D01*
G01X25778705Y-3181713D01*
G01X25767275Y-3170283D01*
G01X25755845Y-3164695D01*
G01X25738827Y-3164695D01*
G01X25832299Y-3164695D02*
G01X25832299Y-3284583D01*
G01X25832299Y-3181713D02*
G01X25843729Y-3170283D01*
G01X25855159Y-3164695D01*
G01X25872431Y-3164695D01*
G01X25883861Y-3170283D01*
G01X25895291Y-3181713D01*
G01X25900879Y-3198985D01*
G01X25900879Y-3210415D01*
G01X25895291Y-3227433D01*
G01X25883861Y-3238863D01*
G01X25872431Y-3244705D01*
G01X25855159Y-3244705D01*
G01X25843729Y-3238863D01*
G01X25832299Y-3227433D01*
G01X26076647Y-3124563D02*
G01X26076647Y-3244705D01*
G01X26076647Y-3244705D02*
G01X26145227Y-3244705D01*
G01X26261559Y-3164695D02*
G01X26261559Y-3244705D01*
G01X26261559Y-3181713D02*
G01X26250129Y-3170283D01*
G01X26238699Y-3164695D01*
G01X26221681Y-3164695D01*
G01X26210251Y-3170283D01*
G01X26198821Y-3181713D01*
G01X26192979Y-3198985D01*
G01X26192979Y-3210415D01*
G01X26198821Y-3227433D01*
G01X26210251Y-3238863D01*
G01X26221681Y-3244705D01*
G01X26238699Y-3244705D01*
G01X26250129Y-3238863D01*
G01X26261559Y-3227433D01*
G01X26315153Y-3164695D02*
G01X26349443Y-3244705D01*
G01X26383733Y-3164695D02*
G01X26349443Y-3244705D01*
G01X26338013Y-3267565D01*
G01X26326583Y-3278995D01*
G01X26315153Y-3284583D01*
G01X26309311Y-3284583D01*
G01X26431485Y-3198985D02*
G01X26500065Y-3198985D01*
G01X26500065Y-3187555D01*
G01X26494477Y-3176125D01*
G01X26488635Y-3170283D01*
G01X26477205Y-3164695D01*
G01X26460187Y-3164695D01*
G01X26448757Y-3170283D01*
G01X26437327Y-3181713D01*
G01X26431485Y-3198985D01*
G01X26431485Y-3210415D01*
G01X26437327Y-3227433D01*
G01X26448757Y-3238863D01*
G01X26460187Y-3244705D01*
G01X26477205Y-3244705D01*
G01X26488635Y-3238863D01*
G01X26500065Y-3227433D01*
G01X26547817Y-3164695D02*
G01X26547817Y-3244705D01*
G01X26547817Y-3198985D02*
G01X26553659Y-3181713D01*
G01X26565089Y-3170283D01*
G01X26576519Y-3164695D01*
G01X26593537Y-3164695D01*
G01X26641289Y-3193143D02*
G01X26744159Y-3193143D01*
G01X26791911Y-3124563D02*
G01X26791911Y-3244705D01*
G01X26791911Y-3124563D02*
G01X26843473Y-3124563D01*
G01X26860491Y-3130405D01*
G01X26866333Y-3135993D01*
G01X26871921Y-3147423D01*
G01X26871921Y-3158853D01*
G01X26866333Y-3170283D01*
G01X26860491Y-3176125D01*
G01X26843473Y-3181713D01*
G01X26791911Y-3181713D02*
G01X26843473Y-3181713D01*
G01X26860491Y-3187555D01*
G01X26866333Y-3193143D01*
G01X26871921Y-3204573D01*
G01X26871921Y-3221845D01*
G01X26866333Y-3233275D01*
G01X26860491Y-3238863D01*
G01X26843473Y-3244705D01*
G01X26791911Y-3244705D01*
G01X26948375Y-3164695D02*
G01X26936945Y-3170283D01*
G01X26925515Y-3181713D01*
G01X26919673Y-3198985D01*
G01X26919673Y-3210415D01*
G01X26925515Y-3227433D01*
G01X26936945Y-3238863D01*
G01X26948375Y-3244705D01*
G01X26965393Y-3244705D01*
G01X26976823Y-3238863D01*
G01X26988253Y-3227433D01*
G01X26994095Y-3210415D01*
G01X26994095Y-3198985D01*
G01X26988253Y-3181713D01*
G01X26976823Y-3170283D01*
G01X26965393Y-3164695D01*
G01X26948375Y-3164695D01*
G01X27059119Y-3124563D02*
G01X27059119Y-3221845D01*
G01X27064707Y-3238863D01*
G01X27076137Y-3244705D01*
G01X27087567Y-3244705D01*
G01X27041847Y-3164695D02*
G01X27081979Y-3164695D01*
G01X27152591Y-3124563D02*
G01X27152591Y-3221845D01*
G01X27158179Y-3238863D01*
G01X27169609Y-3244705D01*
G01X27181039Y-3244705D01*
G01X27135319Y-3164695D02*
G01X27175451Y-3164695D01*
G01X27257493Y-3164695D02*
G01X27246063Y-3170283D01*
G01X27234633Y-3181713D01*
G01X27228791Y-3198985D01*
G01X27228791Y-3210415D01*
G01X27234633Y-3227433D01*
G01X27246063Y-3238863D01*
G01X27257493Y-3244705D01*
G01X27274511Y-3244705D01*
G01X27285941Y-3238863D01*
G01X27297371Y-3227433D01*
G01X27303213Y-3210415D01*
G01X27303213Y-3198985D01*
G01X27297371Y-3181713D01*
G01X27285941Y-3170283D01*
G01X27274511Y-3164695D01*
G01X27257493Y-3164695D01*
G01X27350965Y-3164695D02*
G01X27350965Y-3244705D01*
G01X27350965Y-3187555D02*
G01X27368237Y-3170283D01*
G01X27379667Y-3164695D01*
G01X27396685Y-3164695D01*
G01X27408115Y-3170283D01*
G01X27413957Y-3187555D01*
G01X27413957Y-3244705D01*
G01X27413957Y-3187555D02*
G01X27430975Y-3170283D01*
G01X27442405Y-3164695D01*
G01X27459677Y-3164695D01*
G01X27471107Y-3170283D01*
G01X27476695Y-3187555D01*
G01X27476695Y-3244705D01*
G01X27652463Y-3124563D02*
G01X27652463Y-3244705D01*
G01X27652463Y-3244705D02*
G01X27721043Y-3244705D01*
G01X27837375Y-3164695D02*
G01X27837375Y-3244705D01*
G01X27837375Y-3181713D02*
G01X27825945Y-3170283D01*
G01X27814515Y-3164695D01*
G01X27797497Y-3164695D01*
G01X27786067Y-3170283D01*
G01X27774637Y-3181713D01*
G01X27768795Y-3198985D01*
G01X27768795Y-3210415D01*
G01X27774637Y-3227433D01*
G01X27786067Y-3238863D01*
G01X27797497Y-3244705D01*
G01X27814515Y-3244705D01*
G01X27825945Y-3238863D01*
G01X27837375Y-3227433D01*
G01X27890969Y-3164695D02*
G01X27925259Y-3244705D01*
G01X27959549Y-3164695D02*
G01X27925259Y-3244705D01*
G01X27913829Y-3267565D01*
G01X27902399Y-3278995D01*
G01X27890969Y-3284583D01*
G01X27885127Y-3284583D01*
G01X28007301Y-3198985D02*
G01X28075881Y-3198985D01*
G01X28075881Y-3187555D01*
G01X28070293Y-3176125D01*
G01X28064451Y-3170283D01*
G01X28053021Y-3164695D01*
G01X28036003Y-3164695D01*
G01X28024573Y-3170283D01*
G01X28013143Y-3181713D01*
G01X28007301Y-3198985D01*
G01X28007301Y-3210415D01*
G01X28013143Y-3227433D01*
G01X28024573Y-3238863D01*
G01X28036003Y-3244705D01*
G01X28053021Y-3244705D01*
G01X28064451Y-3238863D01*
G01X28075881Y-3227433D01*
G01X28123633Y-3164695D02*
G01X28123633Y-3244705D01*
G01X28123633Y-3198985D02*
G01X28129475Y-3181713D01*
G01X28140905Y-3170283D01*
G01X28152335Y-3164695D01*
G01X28169353Y-3164695D01*
G01X13709024Y-3705134D02*
G01X13651874Y-3785144D01*
G01X13737726Y-3785144D01*
G01X13709024Y-3705134D02*
G01X13709024Y-3825276D01*
G01X15071879Y-3733836D02*
G01X15071879Y-3727994D01*
G01X15077467Y-3716564D01*
G01X15083309Y-3710976D01*
G01X15094739Y-3705134D01*
G01X15117599Y-3705134D01*
G01X15129029Y-3710976D01*
G01X15134617Y-3716564D01*
G01X15140459Y-3727994D01*
G01X15140459Y-3739424D01*
G01X15134617Y-3750854D01*
G01X15123187Y-3768126D01*
G01X15066037Y-3825276D01*
G01X15146047Y-3825276D01*
G01X15228089Y-3705134D02*
G01X15211071Y-3710976D01*
G01X15199641Y-3727994D01*
G01X15193799Y-3756696D01*
G01X15193799Y-3773714D01*
G01X15199641Y-3802416D01*
G01X15211071Y-3819434D01*
G01X15228089Y-3825276D01*
G01X15239519Y-3825276D01*
G01X15256791Y-3819434D01*
G01X15268221Y-3802416D01*
G01X15273809Y-3773714D01*
G01X15273809Y-3756696D01*
G01X15268221Y-3727994D01*
G01X15256791Y-3710976D01*
G01X15239519Y-3705134D01*
G01X15228089Y-3705134D01*
G01X15327403Y-3796574D02*
G01X15321561Y-3802416D01*
G01X15327403Y-3808004D01*
G01X15332991Y-3802416D01*
G01X15327403Y-3796574D01*
G01X15415033Y-3705134D02*
G01X15398015Y-3710976D01*
G01X15386585Y-3727994D01*
G01X15380743Y-3756696D01*
G01X15380743Y-3773714D01*
G01X15386585Y-3802416D01*
G01X15398015Y-3819434D01*
G01X15415033Y-3825276D01*
G01X15426463Y-3825276D01*
G01X15443735Y-3819434D01*
G01X15455165Y-3802416D01*
G01X15460753Y-3773714D01*
G01X15460753Y-3756696D01*
G01X15455165Y-3727994D01*
G01X15443735Y-3710976D01*
G01X15426463Y-3705134D01*
G01X15415033Y-3705134D01*
G01X15508505Y-3745266D02*
G01X15508505Y-3825276D01*
G01X15508505Y-3768126D02*
G01X15525777Y-3750854D01*
G01X15537207Y-3745266D01*
G01X15554225Y-3745266D01*
G01X15565655Y-3750854D01*
G01X15571497Y-3768126D01*
G01X15571497Y-3825276D01*
G01X15571497Y-3768126D02*
G01X15588515Y-3750854D01*
G01X15599945Y-3745266D01*
G01X15617217Y-3745266D01*
G01X15628647Y-3750854D01*
G01X15634235Y-3768126D01*
G01X15634235Y-3825276D01*
G01X15681987Y-3705134D02*
G01X15687829Y-3710976D01*
G01X15693417Y-3705134D01*
G01X15687829Y-3699546D01*
G01X15681987Y-3705134D01*
G01X15687829Y-3745266D02*
G01X15687829Y-3825276D01*
G01X15741169Y-3705134D02*
G01X15741169Y-3825276D01*
G01X15829053Y-3682274D02*
G01X15817623Y-3693704D01*
G01X15806193Y-3710976D01*
G01X15794763Y-3733836D01*
G01X15788921Y-3762284D01*
G01X15788921Y-3785144D01*
G01X15794763Y-3813846D01*
G01X15806193Y-3836706D01*
G01X15817623Y-3853724D01*
G01X15829053Y-3865154D01*
G01X15911095Y-3705134D02*
G01X15894077Y-3710976D01*
G01X15882647Y-3727994D01*
G01X15876805Y-3756696D01*
G01X15876805Y-3773714D01*
G01X15882647Y-3802416D01*
G01X15894077Y-3819434D01*
G01X15911095Y-3825276D01*
G01X15922525Y-3825276D01*
G01X15939797Y-3819434D01*
G01X15951227Y-3802416D01*
G01X15956815Y-3773714D01*
G01X15956815Y-3756696D01*
G01X15951227Y-3727994D01*
G01X15939797Y-3710976D01*
G01X15922525Y-3705134D01*
G01X15911095Y-3705134D01*
G01X16010409Y-3796574D02*
G01X16004567Y-3802416D01*
G01X16010409Y-3808004D01*
G01X16015997Y-3802416D01*
G01X16010409Y-3796574D01*
G01X16132329Y-3705134D02*
G01X16075179Y-3705134D01*
G01X16069591Y-3756696D01*
G01X16075179Y-3750854D01*
G01X16092451Y-3745266D01*
G01X16109469Y-3745266D01*
G01X16126741Y-3750854D01*
G01X16138171Y-3762284D01*
G01X16143759Y-3779556D01*
G01X16143759Y-3790986D01*
G01X16138171Y-3808004D01*
G01X16126741Y-3819434D01*
G01X16109469Y-3825276D01*
G01X16092451Y-3825276D01*
G01X16075179Y-3819434D01*
G01X16069591Y-3813846D01*
G01X16063749Y-3802416D01*
G01X16225801Y-3705134D02*
G01X16208783Y-3710976D01*
G01X16197353Y-3727994D01*
G01X16191511Y-3756696D01*
G01X16191511Y-3773714D01*
G01X16197353Y-3802416D01*
G01X16208783Y-3819434D01*
G01X16225801Y-3825276D01*
G01X16237231Y-3825276D01*
G01X16254503Y-3819434D01*
G01X16265933Y-3802416D01*
G01X16271521Y-3773714D01*
G01X16271521Y-3756696D01*
G01X16265933Y-3727994D01*
G01X16254503Y-3710976D01*
G01X16237231Y-3705134D01*
G01X16225801Y-3705134D01*
G01X16347975Y-3705134D02*
G01X16330703Y-3710976D01*
G01X16325115Y-3722406D01*
G01X16325115Y-3733836D01*
G01X16330703Y-3745266D01*
G01X16342133Y-3750854D01*
G01X16364993Y-3756696D01*
G01X16382265Y-3762284D01*
G01X16393695Y-3773714D01*
G01X16399283Y-3785144D01*
G01X16399283Y-3802416D01*
G01X16393695Y-3813846D01*
G01X16387853Y-3819434D01*
G01X16370835Y-3825276D01*
G01X16347975Y-3825276D01*
G01X16330703Y-3819434D01*
G01X16325115Y-3813846D01*
G01X16319273Y-3802416D01*
G01X16319273Y-3785144D01*
G01X16325115Y-3773714D01*
G01X16336545Y-3762284D01*
G01X16353563Y-3756696D01*
G01X16376423Y-3750854D01*
G01X16387853Y-3745266D01*
G01X16393695Y-3733836D01*
G01X16393695Y-3722406D01*
G01X16387853Y-3710976D01*
G01X16370835Y-3705134D01*
G01X16347975Y-3705134D01*
G01X16447035Y-3745266D02*
G01X16447035Y-3825276D01*
G01X16447035Y-3768126D02*
G01X16464307Y-3750854D01*
G01X16475737Y-3745266D01*
G01X16492755Y-3745266D01*
G01X16504185Y-3750854D01*
G01X16510027Y-3768126D01*
G01X16510027Y-3825276D01*
G01X16510027Y-3768126D02*
G01X16527045Y-3750854D01*
G01X16538475Y-3745266D01*
G01X16555747Y-3745266D01*
G01X16567177Y-3750854D01*
G01X16572765Y-3768126D01*
G01X16572765Y-3825276D01*
G01X16620517Y-3745266D02*
G01X16620517Y-3825276D01*
G01X16620517Y-3768126D02*
G01X16637789Y-3750854D01*
G01X16649219Y-3745266D01*
G01X16666237Y-3745266D01*
G01X16677667Y-3750854D01*
G01X16683509Y-3768126D01*
G01X16683509Y-3825276D01*
G01X16683509Y-3768126D02*
G01X16700527Y-3750854D01*
G01X16711957Y-3745266D01*
G01X16729229Y-3745266D01*
G01X16740659Y-3750854D01*
G01X16746247Y-3768126D01*
G01X16746247Y-3825276D01*
G01X16793999Y-3682274D02*
G01X16805429Y-3693704D01*
G01X16816859Y-3710976D01*
G01X16828289Y-3733836D01*
G01X16834131Y-3762284D01*
G01X16834131Y-3785144D01*
G01X16828289Y-3813846D01*
G01X16816859Y-3836706D01*
G01X16805429Y-3853724D01*
G01X16793999Y-3865154D01*
G01X19101227Y-3705134D02*
G01X19101227Y-3825276D01*
G01X19101227Y-3705134D02*
G01X19152789Y-3705134D01*
G01X19169807Y-3710976D01*
G01X19175649Y-3716564D01*
G01X19181237Y-3727994D01*
G01X19181237Y-3745266D01*
G01X19175649Y-3756696D01*
G01X19169807Y-3762284D01*
G01X19152789Y-3768126D01*
G01X19101227Y-3768126D01*
G01X19269121Y-3705134D02*
G01X19269121Y-3825276D01*
G01X19228989Y-3705134D02*
G01X19308999Y-3705134D01*
G01X19356751Y-3705134D02*
G01X19356751Y-3825276D01*
G01X19436761Y-3705134D02*
G01X19436761Y-3825276D01*
G01X19356751Y-3762284D02*
G01X19436761Y-3762284D01*
G01X20562634Y-3705134D02*
G01X20562634Y-3825276D01*
G01X20562634Y-3705134D02*
G01X20614196Y-3705134D01*
G01X20631214Y-3710976D01*
G01X20637056Y-3716564D01*
G01X20642644Y-3727994D01*
G01X20642644Y-3739424D01*
G01X20637056Y-3750854D01*
G01X20631214Y-3756696D01*
G01X20614196Y-3762284D01*
G01X20562634Y-3762284D01*
G01X20602766Y-3762284D02*
G01X20642644Y-3825276D01*
G01X20719098Y-3745266D02*
G01X20707668Y-3750854D01*
G01X20696238Y-3762284D01*
G01X20690396Y-3779556D01*
G01X20690396Y-3790986D01*
G01X20696238Y-3808004D01*
G01X20707668Y-3819434D01*
G01X20719098Y-3825276D01*
G01X20736116Y-3825276D01*
G01X20747546Y-3819434D01*
G01X20758976Y-3808004D01*
G01X20764818Y-3790986D01*
G01X20764818Y-3779556D01*
G01X20758976Y-3762284D01*
G01X20747546Y-3750854D01*
G01X20736116Y-3745266D01*
G01X20719098Y-3745266D01*
G01X20812570Y-3745266D02*
G01X20812570Y-3802416D01*
G01X20818412Y-3819434D01*
G01X20829842Y-3825276D01*
G01X20846860Y-3825276D01*
G01X20858290Y-3819434D01*
G01X20875562Y-3802416D01*
G01X20875562Y-3745266D02*
G01X20875562Y-3825276D01*
G01X20923314Y-3745266D02*
G01X20923314Y-3825276D01*
G01X20923314Y-3768126D02*
G01X20940586Y-3750854D01*
G01X20952016Y-3745266D01*
G01X20969034Y-3745266D01*
G01X20980464Y-3750854D01*
G01X20986306Y-3768126D01*
G01X20986306Y-3825276D01*
G01X21102638Y-3705134D02*
G01X21102638Y-3825276D01*
G01X21102638Y-3762284D02*
G01X21091208Y-3750854D01*
G01X21079778Y-3745266D01*
G01X21062760Y-3745266D01*
G01X21051330Y-3750854D01*
G01X21039900Y-3762284D01*
G01X21034058Y-3779556D01*
G01X21034058Y-3790986D01*
G01X21039900Y-3808004D01*
G01X21051330Y-3819434D01*
G01X21062760Y-3825276D01*
G01X21079778Y-3825276D01*
G01X21091208Y-3819434D01*
G01X21102638Y-3808004D01*
G01X21993815Y-3705134D02*
G01X22039535Y-3825276D01*
G01X22085255Y-3705134D02*
G01X22039535Y-3825276D01*
G01X22133007Y-3705134D02*
G01X22138849Y-3710976D01*
G01X22144437Y-3705134D01*
G01X22138849Y-3699546D01*
G01X22133007Y-3705134D01*
G01X22138849Y-3745266D02*
G01X22138849Y-3825276D01*
G01X22260769Y-3745266D02*
G01X22260769Y-3825276D01*
G01X22260769Y-3762284D02*
G01X22249339Y-3750854D01*
G01X22237909Y-3745266D01*
G01X22220891Y-3745266D01*
G01X22209461Y-3750854D01*
G01X22198031Y-3762284D01*
G01X22192189Y-3779556D01*
G01X22192189Y-3790986D01*
G01X22198031Y-3808004D01*
G01X22209461Y-3819434D01*
G01X22220891Y-3825276D01*
G01X22237909Y-3825276D01*
G01X22249339Y-3819434D01*
G01X22260769Y-3808004D01*
G01X25622495Y-3705134D02*
G01X25622495Y-3825276D01*
G01X25582363Y-3705134D02*
G01X25662373Y-3705134D01*
G01X25738827Y-3745266D02*
G01X25727397Y-3750854D01*
G01X25715967Y-3762284D01*
G01X25710125Y-3779556D01*
G01X25710125Y-3790986D01*
G01X25715967Y-3808004D01*
G01X25727397Y-3819434D01*
G01X25738827Y-3825276D01*
G01X25755845Y-3825276D01*
G01X25767275Y-3819434D01*
G01X25778705Y-3808004D01*
G01X25784547Y-3790986D01*
G01X25784547Y-3779556D01*
G01X25778705Y-3762284D01*
G01X25767275Y-3750854D01*
G01X25755845Y-3745266D01*
G01X25738827Y-3745266D01*
G01X25832299Y-3745266D02*
G01X25832299Y-3865154D01*
G01X25832299Y-3762284D02*
G01X25843729Y-3750854D01*
G01X25855159Y-3745266D01*
G01X25872431Y-3745266D01*
G01X25883861Y-3750854D01*
G01X25895291Y-3762284D01*
G01X25900879Y-3779556D01*
G01X25900879Y-3790986D01*
G01X25895291Y-3808004D01*
G01X25883861Y-3819434D01*
G01X25872431Y-3825276D01*
G01X25855159Y-3825276D01*
G01X25843729Y-3819434D01*
G01X25832299Y-3808004D01*
G01X26076647Y-3705134D02*
G01X26076647Y-3825276D01*
G01X26076647Y-3825276D02*
G01X26145227Y-3825276D01*
G01X26261559Y-3745266D02*
G01X26261559Y-3825276D01*
G01X26261559Y-3762284D02*
G01X26250129Y-3750854D01*
G01X26238699Y-3745266D01*
G01X26221681Y-3745266D01*
G01X26210251Y-3750854D01*
G01X26198821Y-3762284D01*
G01X26192979Y-3779556D01*
G01X26192979Y-3790986D01*
G01X26198821Y-3808004D01*
G01X26210251Y-3819434D01*
G01X26221681Y-3825276D01*
G01X26238699Y-3825276D01*
G01X26250129Y-3819434D01*
G01X26261559Y-3808004D01*
G01X26315153Y-3745266D02*
G01X26349443Y-3825276D01*
G01X26383733Y-3745266D02*
G01X26349443Y-3825276D01*
G01X26338013Y-3848136D01*
G01X26326583Y-3859566D01*
G01X26315153Y-3865154D01*
G01X26309311Y-3865154D01*
G01X26431485Y-3779556D02*
G01X26500065Y-3779556D01*
G01X26500065Y-3768126D01*
G01X26494477Y-3756696D01*
G01X26488635Y-3750854D01*
G01X26477205Y-3745266D01*
G01X26460187Y-3745266D01*
G01X26448757Y-3750854D01*
G01X26437327Y-3762284D01*
G01X26431485Y-3779556D01*
G01X26431485Y-3790986D01*
G01X26437327Y-3808004D01*
G01X26448757Y-3819434D01*
G01X26460187Y-3825276D01*
G01X26477205Y-3825276D01*
G01X26488635Y-3819434D01*
G01X26500065Y-3808004D01*
G01X26547817Y-3745266D02*
G01X26547817Y-3825276D01*
G01X26547817Y-3779556D02*
G01X26553659Y-3762284D01*
G01X26565089Y-3750854D01*
G01X26576519Y-3745266D01*
G01X26593537Y-3745266D01*
G01X26641289Y-3773714D02*
G01X26744159Y-3773714D01*
G01X26791911Y-3705134D02*
G01X26791911Y-3825276D01*
G01X26791911Y-3705134D02*
G01X26843473Y-3705134D01*
G01X26860491Y-3710976D01*
G01X26866333Y-3716564D01*
G01X26871921Y-3727994D01*
G01X26871921Y-3739424D01*
G01X26866333Y-3750854D01*
G01X26860491Y-3756696D01*
G01X26843473Y-3762284D01*
G01X26791911Y-3762284D02*
G01X26843473Y-3762284D01*
G01X26860491Y-3768126D01*
G01X26866333Y-3773714D01*
G01X26871921Y-3785144D01*
G01X26871921Y-3802416D01*
G01X26866333Y-3813846D01*
G01X26860491Y-3819434D01*
G01X26843473Y-3825276D01*
G01X26791911Y-3825276D01*
G01X26948375Y-3745266D02*
G01X26936945Y-3750854D01*
G01X26925515Y-3762284D01*
G01X26919673Y-3779556D01*
G01X26919673Y-3790986D01*
G01X26925515Y-3808004D01*
G01X26936945Y-3819434D01*
G01X26948375Y-3825276D01*
G01X26965393Y-3825276D01*
G01X26976823Y-3819434D01*
G01X26988253Y-3808004D01*
G01X26994095Y-3790986D01*
G01X26994095Y-3779556D01*
G01X26988253Y-3762284D01*
G01X26976823Y-3750854D01*
G01X26965393Y-3745266D01*
G01X26948375Y-3745266D01*
G01X27059119Y-3705134D02*
G01X27059119Y-3802416D01*
G01X27064707Y-3819434D01*
G01X27076137Y-3825276D01*
G01X27087567Y-3825276D01*
G01X27041847Y-3745266D02*
G01X27081979Y-3745266D01*
G01X27152591Y-3705134D02*
G01X27152591Y-3802416D01*
G01X27158179Y-3819434D01*
G01X27169609Y-3825276D01*
G01X27181039Y-3825276D01*
G01X27135319Y-3745266D02*
G01X27175451Y-3745266D01*
G01X27257493Y-3745266D02*
G01X27246063Y-3750854D01*
G01X27234633Y-3762284D01*
G01X27228791Y-3779556D01*
G01X27228791Y-3790986D01*
G01X27234633Y-3808004D01*
G01X27246063Y-3819434D01*
G01X27257493Y-3825276D01*
G01X27274511Y-3825276D01*
G01X27285941Y-3819434D01*
G01X27297371Y-3808004D01*
G01X27303213Y-3790986D01*
G01X27303213Y-3779556D01*
G01X27297371Y-3762284D01*
G01X27285941Y-3750854D01*
G01X27274511Y-3745266D01*
G01X27257493Y-3745266D01*
G01X27350965Y-3745266D02*
G01X27350965Y-3825276D01*
G01X27350965Y-3768126D02*
G01X27368237Y-3750854D01*
G01X27379667Y-3745266D01*
G01X27396685Y-3745266D01*
G01X27408115Y-3750854D01*
G01X27413957Y-3768126D01*
G01X27413957Y-3825276D01*
G01X27413957Y-3768126D02*
G01X27430975Y-3750854D01*
G01X27442405Y-3745266D01*
G01X27459677Y-3745266D01*
G01X27471107Y-3750854D01*
G01X27476695Y-3768126D01*
G01X27476695Y-3825276D01*
G01X27652463Y-3705134D02*
G01X27652463Y-3825276D01*
G01X27652463Y-3825276D02*
G01X27721043Y-3825276D01*
G01X27837375Y-3745266D02*
G01X27837375Y-3825276D01*
G01X27837375Y-3762284D02*
G01X27825945Y-3750854D01*
G01X27814515Y-3745266D01*
G01X27797497Y-3745266D01*
G01X27786067Y-3750854D01*
G01X27774637Y-3762284D01*
G01X27768795Y-3779556D01*
G01X27768795Y-3790986D01*
G01X27774637Y-3808004D01*
G01X27786067Y-3819434D01*
G01X27797497Y-3825276D01*
G01X27814515Y-3825276D01*
G01X27825945Y-3819434D01*
G01X27837375Y-3808004D01*
G01X27890969Y-3745266D02*
G01X27925259Y-3825276D01*
G01X27959549Y-3745266D02*
G01X27925259Y-3825276D01*
G01X27913829Y-3848136D01*
G01X27902399Y-3859566D01*
G01X27890969Y-3865154D01*
G01X27885127Y-3865154D01*
G01X28007301Y-3779556D02*
G01X28075881Y-3779556D01*
G01X28075881Y-3768126D01*
G01X28070293Y-3756696D01*
G01X28064451Y-3750854D01*
G01X28053021Y-3745266D01*
G01X28036003Y-3745266D01*
G01X28024573Y-3750854D01*
G01X28013143Y-3762284D01*
G01X28007301Y-3779556D01*
G01X28007301Y-3790986D01*
G01X28013143Y-3808004D01*
G01X28024573Y-3819434D01*
G01X28036003Y-3825276D01*
G01X28053021Y-3825276D01*
G01X28064451Y-3819434D01*
G01X28075881Y-3808004D01*
G01X28123633Y-3745266D02*
G01X28123633Y-3825276D01*
G01X28123633Y-3779556D02*
G01X28129475Y-3762284D01*
G01X28140905Y-3750854D01*
G01X28152335Y-3745266D01*
G01X28169353Y-3745266D01*
G01X13680576Y-4285706D02*
G01X13663304Y-4291548D01*
G01X13657716Y-4302978D01*
G01X13657716Y-4314408D01*
G01X13663304Y-4325838D01*
G01X13674734Y-4331426D01*
G01X13697594Y-4337268D01*
G01X13714866Y-4342856D01*
G01X13726296Y-4354286D01*
G01X13731884Y-4365716D01*
G01X13731884Y-4382988D01*
G01X13726296Y-4394418D01*
G01X13720454Y-4400006D01*
G01X13703436Y-4405848D01*
G01X13680576Y-4405848D01*
G01X13663304Y-4400006D01*
G01X13657716Y-4394418D01*
G01X13651874Y-4382988D01*
G01X13651874Y-4365716D01*
G01X13657716Y-4354286D01*
G01X13669146Y-4342856D01*
G01X13686164Y-4337268D01*
G01X13709024Y-4331426D01*
G01X13720454Y-4325838D01*
G01X13726296Y-4314408D01*
G01X13726296Y-4302978D01*
G01X13720454Y-4291548D01*
G01X13703436Y-4285706D01*
G01X13680576Y-4285706D01*
G01X15066037Y-4308566D02*
G01X15077467Y-4302978D01*
G01X15094739Y-4285706D01*
G01X15094739Y-4405848D01*
G01X15148333Y-4314408D02*
G01X15148333Y-4308566D01*
G01X15153921Y-4297136D01*
G01X15159763Y-4291548D01*
G01X15171193Y-4285706D01*
G01X15194053Y-4285706D01*
G01X15205483Y-4291548D01*
G01X15211071Y-4297136D01*
G01X15216913Y-4308566D01*
G01X15216913Y-4319996D01*
G01X15211071Y-4331426D01*
G01X15199641Y-4348698D01*
G01X15142491Y-4405848D01*
G01X15222501Y-4405848D01*
G01X15338833Y-4302978D02*
G01X15333245Y-4291548D01*
G01X15315973Y-4285706D01*
G01X15304543Y-4285706D01*
G01X15287525Y-4291548D01*
G01X15276095Y-4308566D01*
G01X15270253Y-4337268D01*
G01X15270253Y-4365716D01*
G01X15276095Y-4388576D01*
G01X15287525Y-4400006D01*
G01X15304543Y-4405848D01*
G01X15310385Y-4405848D01*
G01X15327403Y-4400006D01*
G01X15338833Y-4388576D01*
G01X15344675Y-4371558D01*
G01X15344675Y-4365716D01*
G01X15338833Y-4348698D01*
G01X15327403Y-4337268D01*
G01X15310385Y-4331426D01*
G01X15304543Y-4331426D01*
G01X15287525Y-4337268D01*
G01X15276095Y-4348698D01*
G01X15270253Y-4365716D01*
G01X15398269Y-4377146D02*
G01X15392427Y-4382988D01*
G01X15398269Y-4388576D01*
G01X15403857Y-4382988D01*
G01X15398269Y-4377146D01*
G01X15485899Y-4285706D02*
G01X15468881Y-4291548D01*
G01X15457451Y-4308566D01*
G01X15451609Y-4337268D01*
G01X15451609Y-4354286D01*
G01X15457451Y-4382988D01*
G01X15468881Y-4400006D01*
G01X15485899Y-4405848D01*
G01X15497329Y-4405848D01*
G01X15514601Y-4400006D01*
G01X15526031Y-4382988D01*
G01X15531619Y-4354286D01*
G01X15531619Y-4337268D01*
G01X15526031Y-4308566D01*
G01X15514601Y-4291548D01*
G01X15497329Y-4285706D01*
G01X15485899Y-4285706D01*
G01X15579371Y-4325838D02*
G01X15642363Y-4405848D01*
G01X15642363Y-4325838D02*
G01X15579371Y-4405848D01*
G01X15690115Y-4308566D02*
G01X15701545Y-4302978D01*
G01X15718817Y-4285706D01*
G01X15718817Y-4405848D01*
G01X15772411Y-4314408D02*
G01X15772411Y-4308566D01*
G01X15777999Y-4297136D01*
G01X15783841Y-4291548D01*
G01X15795271Y-4285706D01*
G01X15818131Y-4285706D01*
G01X15829561Y-4291548D01*
G01X15835149Y-4297136D01*
G01X15840991Y-4308566D01*
G01X15840991Y-4319996D01*
G01X15835149Y-4331426D01*
G01X15823719Y-4348698D01*
G01X15766569Y-4405848D01*
G01X15846579Y-4405848D01*
G01X15962911Y-4302978D02*
G01X15957323Y-4291548D01*
G01X15940051Y-4285706D01*
G01X15928621Y-4285706D01*
G01X15911603Y-4291548D01*
G01X15900173Y-4308566D01*
G01X15894331Y-4337268D01*
G01X15894331Y-4365716D01*
G01X15900173Y-4388576D01*
G01X15911603Y-4400006D01*
G01X15928621Y-4405848D01*
G01X15934463Y-4405848D01*
G01X15951481Y-4400006D01*
G01X15962911Y-4388576D01*
G01X15968753Y-4371558D01*
G01X15968753Y-4365716D01*
G01X15962911Y-4348698D01*
G01X15951481Y-4337268D01*
G01X15934463Y-4331426D01*
G01X15928621Y-4331426D01*
G01X15911603Y-4337268D01*
G01X15900173Y-4348698D01*
G01X15894331Y-4365716D01*
G01X16022347Y-4377146D02*
G01X16016505Y-4382988D01*
G01X16022347Y-4388576D01*
G01X16027935Y-4382988D01*
G01X16022347Y-4377146D01*
G01X16109977Y-4285706D02*
G01X16092959Y-4291548D01*
G01X16081529Y-4308566D01*
G01X16075687Y-4337268D01*
G01X16075687Y-4354286D01*
G01X16081529Y-4382988D01*
G01X16092959Y-4400006D01*
G01X16109977Y-4405848D01*
G01X16121407Y-4405848D01*
G01X16138679Y-4400006D01*
G01X16150109Y-4382988D01*
G01X16155697Y-4354286D01*
G01X16155697Y-4337268D01*
G01X16150109Y-4308566D01*
G01X16138679Y-4291548D01*
G01X16121407Y-4285706D01*
G01X16109977Y-4285706D01*
G01X16203449Y-4325838D02*
G01X16203449Y-4405848D01*
G01X16203449Y-4348698D02*
G01X16220721Y-4331426D01*
G01X16232151Y-4325838D01*
G01X16249169Y-4325838D01*
G01X16260599Y-4331426D01*
G01X16266441Y-4348698D01*
G01X16266441Y-4405848D01*
G01X16266441Y-4348698D02*
G01X16283459Y-4331426D01*
G01X16294889Y-4325838D01*
G01X16312161Y-4325838D01*
G01X16323591Y-4331426D01*
G01X16329179Y-4348698D01*
G01X16329179Y-4405848D01*
G01X16376931Y-4285706D02*
G01X16382773Y-4291548D01*
G01X16388361Y-4285706D01*
G01X16382773Y-4280118D01*
G01X16376931Y-4285706D01*
G01X16382773Y-4325838D02*
G01X16382773Y-4405848D01*
G01X16436113Y-4285706D02*
G01X16436113Y-4405848D01*
G01X16523997Y-4262846D02*
G01X16512567Y-4274276D01*
G01X16501137Y-4291548D01*
G01X16489707Y-4314408D01*
G01X16483865Y-4342856D01*
G01X16483865Y-4365716D01*
G01X16489707Y-4394418D01*
G01X16501137Y-4417278D01*
G01X16512567Y-4434296D01*
G01X16523997Y-4445726D01*
G01X16583179Y-4285706D02*
G01X16646171Y-4285706D01*
G01X16611881Y-4331426D01*
G01X16628899Y-4331426D01*
G01X16640329Y-4337268D01*
G01X16646171Y-4342856D01*
G01X16651759Y-4360128D01*
G01X16651759Y-4371558D01*
G01X16646171Y-4388576D01*
G01X16634741Y-4400006D01*
G01X16617469Y-4405848D01*
G01X16600451Y-4405848D01*
G01X16583179Y-4400006D01*
G01X16577591Y-4394418D01*
G01X16571749Y-4382988D01*
G01X16705353Y-4377146D02*
G01X16699511Y-4382988D01*
G01X16705353Y-4388576D01*
G01X16710941Y-4382988D01*
G01X16705353Y-4377146D01*
G01X16764535Y-4314408D02*
G01X16764535Y-4308566D01*
G01X16770123Y-4297136D01*
G01X16775965Y-4291548D01*
G01X16787395Y-4285706D01*
G01X16810255Y-4285706D01*
G01X16821685Y-4291548D01*
G01X16827273Y-4297136D01*
G01X16833115Y-4308566D01*
G01X16833115Y-4319996D01*
G01X16827273Y-4331426D01*
G01X16815843Y-4348698D01*
G01X16758693Y-4405848D01*
G01X16838703Y-4405848D01*
G01X16920745Y-4285706D02*
G01X16903727Y-4291548D01*
G01X16892297Y-4308566D01*
G01X16886455Y-4337268D01*
G01X16886455Y-4354286D01*
G01X16892297Y-4382988D01*
G01X16903727Y-4400006D01*
G01X16920745Y-4405848D01*
G01X16932175Y-4405848D01*
G01X16949447Y-4400006D01*
G01X16960877Y-4382988D01*
G01X16966465Y-4354286D01*
G01X16966465Y-4337268D01*
G01X16960877Y-4308566D01*
G01X16949447Y-4291548D01*
G01X16932175Y-4285706D01*
G01X16920745Y-4285706D01*
G01X17048507Y-4285706D02*
G01X17031489Y-4291548D01*
G01X17020059Y-4308566D01*
G01X17014217Y-4337268D01*
G01X17014217Y-4354286D01*
G01X17020059Y-4382988D01*
G01X17031489Y-4400006D01*
G01X17048507Y-4405848D01*
G01X17059937Y-4405848D01*
G01X17077209Y-4400006D01*
G01X17088639Y-4382988D01*
G01X17094227Y-4354286D01*
G01X17094227Y-4337268D01*
G01X17088639Y-4308566D01*
G01X17077209Y-4291548D01*
G01X17059937Y-4285706D01*
G01X17048507Y-4285706D01*
G01X17141979Y-4325838D02*
G01X17204971Y-4405848D01*
G01X17204971Y-4325838D02*
G01X17141979Y-4405848D01*
G01X17264153Y-4285706D02*
G01X17327145Y-4285706D01*
G01X17292855Y-4331426D01*
G01X17309873Y-4331426D01*
G01X17321303Y-4337268D01*
G01X17327145Y-4342856D01*
G01X17332733Y-4360128D01*
G01X17332733Y-4371558D01*
G01X17327145Y-4388576D01*
G01X17315715Y-4400006D01*
G01X17298443Y-4405848D01*
G01X17281425Y-4405848D01*
G01X17264153Y-4400006D01*
G01X17258565Y-4394418D01*
G01X17252723Y-4382988D01*
G01X17386327Y-4377146D02*
G01X17380485Y-4382988D01*
G01X17386327Y-4388576D01*
G01X17391915Y-4382988D01*
G01X17386327Y-4377146D01*
G01X17445509Y-4314408D02*
G01X17445509Y-4308566D01*
G01X17451097Y-4297136D01*
G01X17456939Y-4291548D01*
G01X17468369Y-4285706D01*
G01X17491229Y-4285706D01*
G01X17502659Y-4291548D01*
G01X17508247Y-4297136D01*
G01X17514089Y-4308566D01*
G01X17514089Y-4319996D01*
G01X17508247Y-4331426D01*
G01X17496817Y-4348698D01*
G01X17439667Y-4405848D01*
G01X17519677Y-4405848D01*
G01X17601719Y-4285706D02*
G01X17584701Y-4291548D01*
G01X17573271Y-4308566D01*
G01X17567429Y-4337268D01*
G01X17567429Y-4354286D01*
G01X17573271Y-4382988D01*
G01X17584701Y-4400006D01*
G01X17601719Y-4405848D01*
G01X17613149Y-4405848D01*
G01X17630421Y-4400006D01*
G01X17641851Y-4382988D01*
G01X17647439Y-4354286D01*
G01X17647439Y-4337268D01*
G01X17641851Y-4308566D01*
G01X17630421Y-4291548D01*
G01X17613149Y-4285706D01*
G01X17601719Y-4285706D01*
G01X17729481Y-4285706D02*
G01X17712463Y-4291548D01*
G01X17701033Y-4308566D01*
G01X17695191Y-4337268D01*
G01X17695191Y-4354286D01*
G01X17701033Y-4382988D01*
G01X17712463Y-4400006D01*
G01X17729481Y-4405848D01*
G01X17740911Y-4405848D01*
G01X17758183Y-4400006D01*
G01X17769613Y-4382988D01*
G01X17775201Y-4354286D01*
G01X17775201Y-4337268D01*
G01X17769613Y-4308566D01*
G01X17758183Y-4291548D01*
G01X17740911Y-4285706D01*
G01X17729481Y-4285706D01*
G01X17822953Y-4325838D02*
G01X17822953Y-4405848D01*
G01X17822953Y-4348698D02*
G01X17840225Y-4331426D01*
G01X17851655Y-4325838D01*
G01X17868673Y-4325838D01*
G01X17880103Y-4331426D01*
G01X17885945Y-4348698D01*
G01X17885945Y-4405848D01*
G01X17885945Y-4348698D02*
G01X17902963Y-4331426D01*
G01X17914393Y-4325838D01*
G01X17931665Y-4325838D01*
G01X17943095Y-4331426D01*
G01X17948683Y-4348698D01*
G01X17948683Y-4405848D01*
G01X17996435Y-4325838D02*
G01X17996435Y-4405848D01*
G01X17996435Y-4348698D02*
G01X18013707Y-4331426D01*
G01X18025137Y-4325838D01*
G01X18042155Y-4325838D01*
G01X18053585Y-4331426D01*
G01X18059427Y-4348698D01*
G01X18059427Y-4405848D01*
G01X18059427Y-4348698D02*
G01X18076445Y-4331426D01*
G01X18087875Y-4325838D01*
G01X18105147Y-4325838D01*
G01X18116577Y-4331426D01*
G01X18122165Y-4348698D01*
G01X18122165Y-4405848D01*
G01X18169917Y-4262846D02*
G01X18181347Y-4274276D01*
G01X18192777Y-4291548D01*
G01X18204207Y-4314408D01*
G01X18210049Y-4342856D01*
G01X18210049Y-4365716D01*
G01X18204207Y-4394418D01*
G01X18192777Y-4417278D01*
G01X18181347Y-4434296D01*
G01X18169917Y-4445726D01*
G01X19101227Y-4285706D02*
G01X19101227Y-4405848D01*
G01X19101227Y-4285706D02*
G01X19152789Y-4285706D01*
G01X19169807Y-4291548D01*
G01X19175649Y-4297136D01*
G01X19181237Y-4308566D01*
G01X19181237Y-4325838D01*
G01X19175649Y-4337268D01*
G01X19169807Y-4342856D01*
G01X19152789Y-4348698D01*
G01X19101227Y-4348698D01*
G01X19269121Y-4285706D02*
G01X19269121Y-4405848D01*
G01X19228989Y-4285706D02*
G01X19308999Y-4285706D01*
G01X19356751Y-4285706D02*
G01X19356751Y-4405848D01*
G01X19436761Y-4285706D02*
G01X19436761Y-4405848D01*
G01X19356751Y-4342856D02*
G01X19436761Y-4342856D01*
G01X20562634Y-4285706D02*
G01X20562634Y-4405848D01*
G01X20562634Y-4285706D02*
G01X20614196Y-4285706D01*
G01X20631214Y-4291548D01*
G01X20637056Y-4297136D01*
G01X20642644Y-4308566D01*
G01X20642644Y-4319996D01*
G01X20637056Y-4331426D01*
G01X20631214Y-4337268D01*
G01X20614196Y-4342856D01*
G01X20562634Y-4342856D01*
G01X20602766Y-4342856D02*
G01X20642644Y-4405848D01*
G01X20719098Y-4325838D02*
G01X20707668Y-4331426D01*
G01X20696238Y-4342856D01*
G01X20690396Y-4360128D01*
G01X20690396Y-4371558D01*
G01X20696238Y-4388576D01*
G01X20707668Y-4400006D01*
G01X20719098Y-4405848D01*
G01X20736116Y-4405848D01*
G01X20747546Y-4400006D01*
G01X20758976Y-4388576D01*
G01X20764818Y-4371558D01*
G01X20764818Y-4360128D01*
G01X20758976Y-4342856D01*
G01X20747546Y-4331426D01*
G01X20736116Y-4325838D01*
G01X20719098Y-4325838D01*
G01X20812570Y-4325838D02*
G01X20812570Y-4382988D01*
G01X20818412Y-4400006D01*
G01X20829842Y-4405848D01*
G01X20846860Y-4405848D01*
G01X20858290Y-4400006D01*
G01X20875562Y-4382988D01*
G01X20875562Y-4325838D02*
G01X20875562Y-4405848D01*
G01X20923314Y-4325838D02*
G01X20923314Y-4405848D01*
G01X20923314Y-4348698D02*
G01X20940586Y-4331426D01*
G01X20952016Y-4325838D01*
G01X20969034Y-4325838D01*
G01X20980464Y-4331426D01*
G01X20986306Y-4348698D01*
G01X20986306Y-4405848D01*
G01X21102638Y-4285706D02*
G01X21102638Y-4405848D01*
G01X21102638Y-4342856D02*
G01X21091208Y-4331426D01*
G01X21079778Y-4325838D01*
G01X21062760Y-4325838D01*
G01X21051330Y-4331426D01*
G01X21039900Y-4342856D01*
G01X21034058Y-4360128D01*
G01X21034058Y-4371558D01*
G01X21039900Y-4388576D01*
G01X21051330Y-4400006D01*
G01X21062760Y-4405848D01*
G01X21079778Y-4405848D01*
G01X21091208Y-4400006D01*
G01X21102638Y-4388576D01*
G01X21993815Y-4285706D02*
G01X21993815Y-4405848D01*
G01X21993815Y-4285706D02*
G01X22045377Y-4285706D01*
G01X22062395Y-4291548D01*
G01X22068237Y-4297136D01*
G01X22073825Y-4308566D01*
G01X22073825Y-4325838D01*
G01X22068237Y-4337268D01*
G01X22062395Y-4342856D01*
G01X22045377Y-4348698D01*
G01X21993815Y-4348698D01*
G01X22190157Y-4325838D02*
G01X22190157Y-4405848D01*
G01X22190157Y-4342856D02*
G01X22178727Y-4331426D01*
G01X22167297Y-4325838D01*
G01X22150279Y-4325838D01*
G01X22138849Y-4331426D01*
G01X22127419Y-4342856D01*
G01X22121577Y-4360128D01*
G01X22121577Y-4371558D01*
G01X22127419Y-4388576D01*
G01X22138849Y-4400006D01*
G01X22150279Y-4405848D01*
G01X22167297Y-4405848D01*
G01X22178727Y-4400006D01*
G01X22190157Y-4388576D01*
G01X22306489Y-4285706D02*
G01X22306489Y-4405848D01*
G01X22306489Y-4342856D02*
G01X22295059Y-4331426D01*
G01X22283629Y-4325838D01*
G01X22266611Y-4325838D01*
G01X22255181Y-4331426D01*
G01X22243751Y-4342856D01*
G01X22237909Y-4360128D01*
G01X22237909Y-4371558D01*
G01X22243751Y-4388576D01*
G01X22255181Y-4400006D01*
G01X22266611Y-4405848D01*
G01X22283629Y-4405848D01*
G01X22295059Y-4400006D01*
G01X22306489Y-4388576D01*
G01X23662994Y-4285706D02*
G01X23662994Y-4405848D01*
G01X23662994Y-4285706D02*
G01X23714556Y-4285706D01*
G01X23731574Y-4291548D01*
G01X23737416Y-4297136D01*
G01X23743004Y-4308566D01*
G01X23743004Y-4319996D01*
G01X23737416Y-4331426D01*
G01X23731574Y-4337268D01*
G01X23714556Y-4342856D01*
G01X23662994Y-4342856D01*
G01X23703126Y-4342856D02*
G01X23743004Y-4405848D01*
G01X23819458Y-4325838D02*
G01X23808028Y-4331426D01*
G01X23796598Y-4342856D01*
G01X23790756Y-4360128D01*
G01X23790756Y-4371558D01*
G01X23796598Y-4388576D01*
G01X23808028Y-4400006D01*
G01X23819458Y-4405848D01*
G01X23836476Y-4405848D01*
G01X23847906Y-4400006D01*
G01X23859336Y-4388576D01*
G01X23865178Y-4371558D01*
G01X23865178Y-4360128D01*
G01X23859336Y-4342856D01*
G01X23847906Y-4331426D01*
G01X23836476Y-4325838D01*
G01X23819458Y-4325838D01*
G01X23912930Y-4325838D02*
G01X23912930Y-4382988D01*
G01X23918772Y-4400006D01*
G01X23930202Y-4405848D01*
G01X23947220Y-4405848D01*
G01X23958650Y-4400006D01*
G01X23975922Y-4382988D01*
G01X23975922Y-4325838D02*
G01X23975922Y-4405848D01*
G01X24023674Y-4325838D02*
G01X24023674Y-4405848D01*
G01X24023674Y-4348698D02*
G01X24040946Y-4331426D01*
G01X24052376Y-4325838D01*
G01X24069394Y-4325838D01*
G01X24080824Y-4331426D01*
G01X24086666Y-4348698D01*
G01X24086666Y-4405848D01*
G01X24202998Y-4285706D02*
G01X24202998Y-4405848D01*
G01X24202998Y-4342856D02*
G01X24191568Y-4331426D01*
G01X24180138Y-4325838D01*
G01X24163120Y-4325838D01*
G01X24151690Y-4331426D01*
G01X24140260Y-4342856D01*
G01X24134418Y-4360128D01*
G01X24134418Y-4371558D01*
G01X24140260Y-4388576D01*
G01X24151690Y-4400006D01*
G01X24163120Y-4405848D01*
G01X24180138Y-4405848D01*
G01X24191568Y-4400006D01*
G01X24202998Y-4388576D01*
G01X25622495Y-4285706D02*
G01X25622495Y-4405848D01*
G01X25582363Y-4285706D02*
G01X25662373Y-4285706D01*
G01X25738827Y-4325838D02*
G01X25727397Y-4331426D01*
G01X25715967Y-4342856D01*
G01X25710125Y-4360128D01*
G01X25710125Y-4371558D01*
G01X25715967Y-4388576D01*
G01X25727397Y-4400006D01*
G01X25738827Y-4405848D01*
G01X25755845Y-4405848D01*
G01X25767275Y-4400006D01*
G01X25778705Y-4388576D01*
G01X25784547Y-4371558D01*
G01X25784547Y-4360128D01*
G01X25778705Y-4342856D01*
G01X25767275Y-4331426D01*
G01X25755845Y-4325838D01*
G01X25738827Y-4325838D01*
G01X25832299Y-4325838D02*
G01X25832299Y-4445726D01*
G01X25832299Y-4342856D02*
G01X25843729Y-4331426D01*
G01X25855159Y-4325838D01*
G01X25872431Y-4325838D01*
G01X25883861Y-4331426D01*
G01X25895291Y-4342856D01*
G01X25900879Y-4360128D01*
G01X25900879Y-4371558D01*
G01X25895291Y-4388576D01*
G01X25883861Y-4400006D01*
G01X25872431Y-4405848D01*
G01X25855159Y-4405848D01*
G01X25843729Y-4400006D01*
G01X25832299Y-4388576D01*
G01X26076647Y-4285706D02*
G01X26076647Y-4405848D01*
G01X26076647Y-4405848D02*
G01X26145227Y-4405848D01*
G01X26261559Y-4325838D02*
G01X26261559Y-4405848D01*
G01X26261559Y-4342856D02*
G01X26250129Y-4331426D01*
G01X26238699Y-4325838D01*
G01X26221681Y-4325838D01*
G01X26210251Y-4331426D01*
G01X26198821Y-4342856D01*
G01X26192979Y-4360128D01*
G01X26192979Y-4371558D01*
G01X26198821Y-4388576D01*
G01X26210251Y-4400006D01*
G01X26221681Y-4405848D01*
G01X26238699Y-4405848D01*
G01X26250129Y-4400006D01*
G01X26261559Y-4388576D01*
G01X26315153Y-4325838D02*
G01X26349443Y-4405848D01*
G01X26383733Y-4325838D02*
G01X26349443Y-4405848D01*
G01X26338013Y-4428708D01*
G01X26326583Y-4440138D01*
G01X26315153Y-4445726D01*
G01X26309311Y-4445726D01*
G01X26431485Y-4360128D02*
G01X26500065Y-4360128D01*
G01X26500065Y-4348698D01*
G01X26494477Y-4337268D01*
G01X26488635Y-4331426D01*
G01X26477205Y-4325838D01*
G01X26460187Y-4325838D01*
G01X26448757Y-4331426D01*
G01X26437327Y-4342856D01*
G01X26431485Y-4360128D01*
G01X26431485Y-4371558D01*
G01X26437327Y-4388576D01*
G01X26448757Y-4400006D01*
G01X26460187Y-4405848D01*
G01X26477205Y-4405848D01*
G01X26488635Y-4400006D01*
G01X26500065Y-4388576D01*
G01X26547817Y-4325838D02*
G01X26547817Y-4405848D01*
G01X26547817Y-4360128D02*
G01X26553659Y-4342856D01*
G01X26565089Y-4331426D01*
G01X26576519Y-4325838D01*
G01X26593537Y-4325838D01*
G01X26641289Y-4354286D02*
G01X26744159Y-4354286D01*
G01X26791911Y-4285706D02*
G01X26791911Y-4405848D01*
G01X26791911Y-4285706D02*
G01X26843473Y-4285706D01*
G01X26860491Y-4291548D01*
G01X26866333Y-4297136D01*
G01X26871921Y-4308566D01*
G01X26871921Y-4319996D01*
G01X26866333Y-4331426D01*
G01X26860491Y-4337268D01*
G01X26843473Y-4342856D01*
G01X26791911Y-4342856D02*
G01X26843473Y-4342856D01*
G01X26860491Y-4348698D01*
G01X26866333Y-4354286D01*
G01X26871921Y-4365716D01*
G01X26871921Y-4382988D01*
G01X26866333Y-4394418D01*
G01X26860491Y-4400006D01*
G01X26843473Y-4405848D01*
G01X26791911Y-4405848D01*
G01X26948375Y-4325838D02*
G01X26936945Y-4331426D01*
G01X26925515Y-4342856D01*
G01X26919673Y-4360128D01*
G01X26919673Y-4371558D01*
G01X26925515Y-4388576D01*
G01X26936945Y-4400006D01*
G01X26948375Y-4405848D01*
G01X26965393Y-4405848D01*
G01X26976823Y-4400006D01*
G01X26988253Y-4388576D01*
G01X26994095Y-4371558D01*
G01X26994095Y-4360128D01*
G01X26988253Y-4342856D01*
G01X26976823Y-4331426D01*
G01X26965393Y-4325838D01*
G01X26948375Y-4325838D01*
G01X27059119Y-4285706D02*
G01X27059119Y-4382988D01*
G01X27064707Y-4400006D01*
G01X27076137Y-4405848D01*
G01X27087567Y-4405848D01*
G01X27041847Y-4325838D02*
G01X27081979Y-4325838D01*
G01X27152591Y-4285706D02*
G01X27152591Y-4382988D01*
G01X27158179Y-4400006D01*
G01X27169609Y-4405848D01*
G01X27181039Y-4405848D01*
G01X27135319Y-4325838D02*
G01X27175451Y-4325838D01*
G01X27257493Y-4325838D02*
G01X27246063Y-4331426D01*
G01X27234633Y-4342856D01*
G01X27228791Y-4360128D01*
G01X27228791Y-4371558D01*
G01X27234633Y-4388576D01*
G01X27246063Y-4400006D01*
G01X27257493Y-4405848D01*
G01X27274511Y-4405848D01*
G01X27285941Y-4400006D01*
G01X27297371Y-4388576D01*
G01X27303213Y-4371558D01*
G01X27303213Y-4360128D01*
G01X27297371Y-4342856D01*
G01X27285941Y-4331426D01*
G01X27274511Y-4325838D01*
G01X27257493Y-4325838D01*
G01X27350965Y-4325838D02*
G01X27350965Y-4405848D01*
G01X27350965Y-4348698D02*
G01X27368237Y-4331426D01*
G01X27379667Y-4325838D01*
G01X27396685Y-4325838D01*
G01X27408115Y-4331426D01*
G01X27413957Y-4348698D01*
G01X27413957Y-4405848D01*
G01X27413957Y-4348698D02*
G01X27430975Y-4331426D01*
G01X27442405Y-4325838D01*
G01X27459677Y-4325838D01*
G01X27471107Y-4331426D01*
G01X27476695Y-4348698D01*
G01X27476695Y-4405848D01*
G01X27652463Y-4285706D02*
G01X27652463Y-4405848D01*
G01X27652463Y-4405848D02*
G01X27721043Y-4405848D01*
G01X27837375Y-4325838D02*
G01X27837375Y-4405848D01*
G01X27837375Y-4342856D02*
G01X27825945Y-4331426D01*
G01X27814515Y-4325838D01*
G01X27797497Y-4325838D01*
G01X27786067Y-4331426D01*
G01X27774637Y-4342856D01*
G01X27768795Y-4360128D01*
G01X27768795Y-4371558D01*
G01X27774637Y-4388576D01*
G01X27786067Y-4400006D01*
G01X27797497Y-4405848D01*
G01X27814515Y-4405848D01*
G01X27825945Y-4400006D01*
G01X27837375Y-4388576D01*
G01X27890969Y-4325838D02*
G01X27925259Y-4405848D01*
G01X27959549Y-4325838D02*
G01X27925259Y-4405848D01*
G01X27913829Y-4428708D01*
G01X27902399Y-4440138D01*
G01X27890969Y-4445726D01*
G01X27885127Y-4445726D01*
G01X28007301Y-4360128D02*
G01X28075881Y-4360128D01*
G01X28075881Y-4348698D01*
G01X28070293Y-4337268D01*
G01X28064451Y-4331426D01*
G01X28053021Y-4325838D01*
G01X28036003Y-4325838D01*
G01X28024573Y-4331426D01*
G01X28013143Y-4342856D01*
G01X28007301Y-4360128D01*
G01X28007301Y-4371558D01*
G01X28013143Y-4388576D01*
G01X28024573Y-4400006D01*
G01X28036003Y-4405848D01*
G01X28053021Y-4405848D01*
G01X28064451Y-4400006D01*
G01X28075881Y-4388576D01*
G01X28123633Y-4325838D02*
G01X28123633Y-4405848D01*
G01X28123633Y-4360128D02*
G01X28129475Y-4342856D01*
G01X28140905Y-4331426D01*
G01X28152335Y-4325838D01*
G01X28169353Y-4325838D01*
G01X13663304Y-4866277D02*
G01X13726296Y-4866277D01*
G01X13692006Y-4911997D01*
G01X13709024Y-4911997D01*
G01X13720454Y-4917839D01*
G01X13726296Y-4923427D01*
G01X13731884Y-4940699D01*
G01X13731884Y-4952129D01*
G01X13726296Y-4969147D01*
G01X13714866Y-4980577D01*
G01X13697594Y-4986419D01*
G01X13680576Y-4986419D01*
G01X13663304Y-4980577D01*
G01X13657716Y-4974989D01*
G01X13651874Y-4963559D01*
G01X13779636Y-4889137D02*
G01X13791066Y-4883549D01*
G01X13808338Y-4866277D01*
G01X13808338Y-4986419D01*
G01X13930512Y-4906409D02*
G01X13924670Y-4923427D01*
G01X13913240Y-4934857D01*
G01X13896222Y-4940699D01*
G01X13890380Y-4940699D01*
G01X13873362Y-4934857D01*
G01X13861932Y-4923427D01*
G01X13856090Y-4906409D01*
G01X13856090Y-4900567D01*
G01X13861932Y-4883549D01*
G01X13873362Y-4872119D01*
G01X13890380Y-4866277D01*
G01X13896222Y-4866277D01*
G01X13913240Y-4872119D01*
G01X13924670Y-4883549D01*
G01X13930512Y-4906409D01*
G01X13930512Y-4934857D01*
G01X13924670Y-4963559D01*
G01X13913240Y-4980577D01*
G01X13896222Y-4986419D01*
G01X13884792Y-4986419D01*
G01X13867520Y-4980577D01*
G01X13861932Y-4969147D01*
G01X15066037Y-4889137D02*
G01X15077467Y-4883549D01*
G01X15094739Y-4866277D01*
G01X15094739Y-4986419D01*
G01X15148333Y-4894979D02*
G01X15148333Y-4889137D01*
G01X15153921Y-4877707D01*
G01X15159763Y-4872119D01*
G01X15171193Y-4866277D01*
G01X15194053Y-4866277D01*
G01X15205483Y-4872119D01*
G01X15211071Y-4877707D01*
G01X15216913Y-4889137D01*
G01X15216913Y-4900567D01*
G01X15211071Y-4911997D01*
G01X15199641Y-4929269D01*
G01X15142491Y-4986419D01*
G01X15222501Y-4986419D01*
G01X15276095Y-4957717D02*
G01X15270253Y-4963559D01*
G01X15276095Y-4969147D01*
G01X15281683Y-4963559D01*
G01X15276095Y-4957717D01*
G01X15363725Y-4866277D02*
G01X15346707Y-4872119D01*
G01X15335277Y-4889137D01*
G01X15329435Y-4917839D01*
G01X15329435Y-4934857D01*
G01X15335277Y-4963559D01*
G01X15346707Y-4980577D01*
G01X15363725Y-4986419D01*
G01X15375155Y-4986419D01*
G01X15392427Y-4980577D01*
G01X15403857Y-4963559D01*
G01X15409445Y-4934857D01*
G01X15409445Y-4917839D01*
G01X15403857Y-4889137D01*
G01X15392427Y-4872119D01*
G01X15375155Y-4866277D01*
G01X15363725Y-4866277D01*
G01X15457197Y-4906409D02*
G01X15457197Y-4986419D01*
G01X15457197Y-4929269D02*
G01X15474469Y-4911997D01*
G01X15485899Y-4906409D01*
G01X15502917Y-4906409D01*
G01X15514347Y-4911997D01*
G01X15520189Y-4929269D01*
G01X15520189Y-4986419D01*
G01X15520189Y-4929269D02*
G01X15537207Y-4911997D01*
G01X15548637Y-4906409D01*
G01X15565909Y-4906409D01*
G01X15577339Y-4911997D01*
G01X15582927Y-4929269D01*
G01X15582927Y-4986419D01*
G01X15630679Y-4866277D02*
G01X15636521Y-4872119D01*
G01X15642109Y-4866277D01*
G01X15636521Y-4860689D01*
G01X15630679Y-4866277D01*
G01X15636521Y-4906409D02*
G01X15636521Y-4986419D01*
G01X15689861Y-4866277D02*
G01X15689861Y-4986419D01*
G01X15777745Y-4843417D02*
G01X15766315Y-4854847D01*
G01X15754885Y-4872119D01*
G01X15743455Y-4894979D01*
G01X15737613Y-4923427D01*
G01X15737613Y-4946287D01*
G01X15743455Y-4974989D01*
G01X15754885Y-4997849D01*
G01X15766315Y-5014867D01*
G01X15777745Y-5026297D01*
G01X15859787Y-4866277D02*
G01X15842769Y-4872119D01*
G01X15831339Y-4889137D01*
G01X15825497Y-4917839D01*
G01X15825497Y-4934857D01*
G01X15831339Y-4963559D01*
G01X15842769Y-4980577D01*
G01X15859787Y-4986419D01*
G01X15871217Y-4986419D01*
G01X15888489Y-4980577D01*
G01X15899919Y-4963559D01*
G01X15905507Y-4934857D01*
G01X15905507Y-4917839D01*
G01X15899919Y-4889137D01*
G01X15888489Y-4872119D01*
G01X15871217Y-4866277D01*
G01X15859787Y-4866277D01*
G01X15959101Y-4957717D02*
G01X15953259Y-4963559D01*
G01X15959101Y-4969147D01*
G01X15964689Y-4963559D01*
G01X15959101Y-4957717D01*
G01X16023871Y-4866277D02*
G01X16086863Y-4866277D01*
G01X16052573Y-4911997D01*
G01X16069591Y-4911997D01*
G01X16081021Y-4917839D01*
G01X16086863Y-4923427D01*
G01X16092451Y-4940699D01*
G01X16092451Y-4952129D01*
G01X16086863Y-4969147D01*
G01X16075433Y-4980577D01*
G01X16058161Y-4986419D01*
G01X16041143Y-4986419D01*
G01X16023871Y-4980577D01*
G01X16018283Y-4974989D01*
G01X16012441Y-4963559D01*
G01X16174493Y-4866277D02*
G01X16157475Y-4872119D01*
G01X16146045Y-4889137D01*
G01X16140203Y-4917839D01*
G01X16140203Y-4934857D01*
G01X16146045Y-4963559D01*
G01X16157475Y-4980577D01*
G01X16174493Y-4986419D01*
G01X16185923Y-4986419D01*
G01X16203195Y-4980577D01*
G01X16214625Y-4963559D01*
G01X16220213Y-4934857D01*
G01X16220213Y-4917839D01*
G01X16214625Y-4889137D01*
G01X16203195Y-4872119D01*
G01X16185923Y-4866277D01*
G01X16174493Y-4866277D01*
G01X16336545Y-4866277D02*
G01X16279395Y-4866277D01*
G01X16273807Y-4917839D01*
G01X16279395Y-4911997D01*
G01X16296667Y-4906409D01*
G01X16313685Y-4906409D01*
G01X16330957Y-4911997D01*
G01X16342387Y-4923427D01*
G01X16347975Y-4940699D01*
G01X16347975Y-4952129D01*
G01X16342387Y-4969147D01*
G01X16330957Y-4980577D01*
G01X16313685Y-4986419D01*
G01X16296667Y-4986419D01*
G01X16279395Y-4980577D01*
G01X16273807Y-4974989D01*
G01X16267965Y-4963559D01*
G01X16395727Y-4906409D02*
G01X16395727Y-4986419D01*
G01X16395727Y-4929269D02*
G01X16412999Y-4911997D01*
G01X16424429Y-4906409D01*
G01X16441447Y-4906409D01*
G01X16452877Y-4911997D01*
G01X16458719Y-4929269D01*
G01X16458719Y-4986419D01*
G01X16458719Y-4929269D02*
G01X16475737Y-4911997D01*
G01X16487167Y-4906409D01*
G01X16504439Y-4906409D01*
G01X16515869Y-4911997D01*
G01X16521457Y-4929269D01*
G01X16521457Y-4986419D01*
G01X16569209Y-4906409D02*
G01X16569209Y-4986419D01*
G01X16569209Y-4929269D02*
G01X16586481Y-4911997D01*
G01X16597911Y-4906409D01*
G01X16614929Y-4906409D01*
G01X16626359Y-4911997D01*
G01X16632201Y-4929269D01*
G01X16632201Y-4986419D01*
G01X16632201Y-4929269D02*
G01X16649219Y-4911997D01*
G01X16660649Y-4906409D01*
G01X16677921Y-4906409D01*
G01X16689351Y-4911997D01*
G01X16694939Y-4929269D01*
G01X16694939Y-4986419D01*
G01X16742691Y-4843417D02*
G01X16754121Y-4854847D01*
G01X16765551Y-4872119D01*
G01X16776981Y-4894979D01*
G01X16782823Y-4923427D01*
G01X16782823Y-4946287D01*
G01X16776981Y-4974989D01*
G01X16765551Y-4997849D01*
G01X16754121Y-5014867D01*
G01X16742691Y-5026297D01*
G01X19101227Y-4866277D02*
G01X19101227Y-4986419D01*
G01X19101227Y-4866277D02*
G01X19152789Y-4866277D01*
G01X19169807Y-4872119D01*
G01X19175649Y-4877707D01*
G01X19181237Y-4889137D01*
G01X19181237Y-4906409D01*
G01X19175649Y-4917839D01*
G01X19169807Y-4923427D01*
G01X19152789Y-4929269D01*
G01X19101227Y-4929269D01*
G01X19269121Y-4866277D02*
G01X19269121Y-4986419D01*
G01X19228989Y-4866277D02*
G01X19308999Y-4866277D01*
G01X19356751Y-4866277D02*
G01X19356751Y-4986419D01*
G01X19436761Y-4866277D02*
G01X19436761Y-4986419D01*
G01X19356751Y-4923427D02*
G01X19436761Y-4923427D01*
G01X20562634Y-4866277D02*
G01X20562634Y-4986419D01*
G01X20562634Y-4866277D02*
G01X20614196Y-4866277D01*
G01X20631214Y-4872119D01*
G01X20637056Y-4877707D01*
G01X20642644Y-4889137D01*
G01X20642644Y-4900567D01*
G01X20637056Y-4911997D01*
G01X20631214Y-4917839D01*
G01X20614196Y-4923427D01*
G01X20562634Y-4923427D01*
G01X20602766Y-4923427D02*
G01X20642644Y-4986419D01*
G01X20719098Y-4906409D02*
G01X20707668Y-4911997D01*
G01X20696238Y-4923427D01*
G01X20690396Y-4940699D01*
G01X20690396Y-4952129D01*
G01X20696238Y-4969147D01*
G01X20707668Y-4980577D01*
G01X20719098Y-4986419D01*
G01X20736116Y-4986419D01*
G01X20747546Y-4980577D01*
G01X20758976Y-4969147D01*
G01X20764818Y-4952129D01*
G01X20764818Y-4940699D01*
G01X20758976Y-4923427D01*
G01X20747546Y-4911997D01*
G01X20736116Y-4906409D01*
G01X20719098Y-4906409D01*
G01X20812570Y-4906409D02*
G01X20812570Y-4963559D01*
G01X20818412Y-4980577D01*
G01X20829842Y-4986419D01*
G01X20846860Y-4986419D01*
G01X20858290Y-4980577D01*
G01X20875562Y-4963559D01*
G01X20875562Y-4906409D02*
G01X20875562Y-4986419D01*
G01X20923314Y-4906409D02*
G01X20923314Y-4986419D01*
G01X20923314Y-4929269D02*
G01X20940586Y-4911997D01*
G01X20952016Y-4906409D01*
G01X20969034Y-4906409D01*
G01X20980464Y-4911997D01*
G01X20986306Y-4929269D01*
G01X20986306Y-4986419D01*
G01X21102638Y-4866277D02*
G01X21102638Y-4986419D01*
G01X21102638Y-4923427D02*
G01X21091208Y-4911997D01*
G01X21079778Y-4906409D01*
G01X21062760Y-4906409D01*
G01X21051330Y-4911997D01*
G01X21039900Y-4923427D01*
G01X21034058Y-4940699D01*
G01X21034058Y-4952129D01*
G01X21039900Y-4969147D01*
G01X21051330Y-4980577D01*
G01X21062760Y-4986419D01*
G01X21079778Y-4986419D01*
G01X21091208Y-4980577D01*
G01X21102638Y-4969147D01*
G01X21993815Y-4866277D02*
G01X22039535Y-4986419D01*
G01X22085255Y-4866277D02*
G01X22039535Y-4986419D01*
G01X22133007Y-4866277D02*
G01X22138849Y-4872119D01*
G01X22144437Y-4866277D01*
G01X22138849Y-4860689D01*
G01X22133007Y-4866277D01*
G01X22138849Y-4906409D02*
G01X22138849Y-4986419D01*
G01X22260769Y-4906409D02*
G01X22260769Y-4986419D01*
G01X22260769Y-4923427D02*
G01X22249339Y-4911997D01*
G01X22237909Y-4906409D01*
G01X22220891Y-4906409D01*
G01X22209461Y-4911997D01*
G01X22198031Y-4923427D01*
G01X22192189Y-4940699D01*
G01X22192189Y-4952129D01*
G01X22198031Y-4969147D01*
G01X22209461Y-4980577D01*
G01X22220891Y-4986419D01*
G01X22237909Y-4986419D01*
G01X22249339Y-4980577D01*
G01X22260769Y-4969147D01*
G01X25622495Y-4866277D02*
G01X25622495Y-4986419D01*
G01X25582363Y-4866277D02*
G01X25662373Y-4866277D01*
G01X25738827Y-4906409D02*
G01X25727397Y-4911997D01*
G01X25715967Y-4923427D01*
G01X25710125Y-4940699D01*
G01X25710125Y-4952129D01*
G01X25715967Y-4969147D01*
G01X25727397Y-4980577D01*
G01X25738827Y-4986419D01*
G01X25755845Y-4986419D01*
G01X25767275Y-4980577D01*
G01X25778705Y-4969147D01*
G01X25784547Y-4952129D01*
G01X25784547Y-4940699D01*
G01X25778705Y-4923427D01*
G01X25767275Y-4911997D01*
G01X25755845Y-4906409D01*
G01X25738827Y-4906409D01*
G01X25832299Y-4906409D02*
G01X25832299Y-5026297D01*
G01X25832299Y-4923427D02*
G01X25843729Y-4911997D01*
G01X25855159Y-4906409D01*
G01X25872431Y-4906409D01*
G01X25883861Y-4911997D01*
G01X25895291Y-4923427D01*
G01X25900879Y-4940699D01*
G01X25900879Y-4952129D01*
G01X25895291Y-4969147D01*
G01X25883861Y-4980577D01*
G01X25872431Y-4986419D01*
G01X25855159Y-4986419D01*
G01X25843729Y-4980577D01*
G01X25832299Y-4969147D01*
G01X26076647Y-4866277D02*
G01X26076647Y-4986419D01*
G01X26076647Y-4986419D02*
G01X26145227Y-4986419D01*
G01X26261559Y-4906409D02*
G01X26261559Y-4986419D01*
G01X26261559Y-4923427D02*
G01X26250129Y-4911997D01*
G01X26238699Y-4906409D01*
G01X26221681Y-4906409D01*
G01X26210251Y-4911997D01*
G01X26198821Y-4923427D01*
G01X26192979Y-4940699D01*
G01X26192979Y-4952129D01*
G01X26198821Y-4969147D01*
G01X26210251Y-4980577D01*
G01X26221681Y-4986419D01*
G01X26238699Y-4986419D01*
G01X26250129Y-4980577D01*
G01X26261559Y-4969147D01*
G01X26315153Y-4906409D02*
G01X26349443Y-4986419D01*
G01X26383733Y-4906409D02*
G01X26349443Y-4986419D01*
G01X26338013Y-5009279D01*
G01X26326583Y-5020709D01*
G01X26315153Y-5026297D01*
G01X26309311Y-5026297D01*
G01X26431485Y-4940699D02*
G01X26500065Y-4940699D01*
G01X26500065Y-4929269D01*
G01X26494477Y-4917839D01*
G01X26488635Y-4911997D01*
G01X26477205Y-4906409D01*
G01X26460187Y-4906409D01*
G01X26448757Y-4911997D01*
G01X26437327Y-4923427D01*
G01X26431485Y-4940699D01*
G01X26431485Y-4952129D01*
G01X26437327Y-4969147D01*
G01X26448757Y-4980577D01*
G01X26460187Y-4986419D01*
G01X26477205Y-4986419D01*
G01X26488635Y-4980577D01*
G01X26500065Y-4969147D01*
G01X26547817Y-4906409D02*
G01X26547817Y-4986419D01*
G01X26547817Y-4940699D02*
G01X26553659Y-4923427D01*
G01X26565089Y-4911997D01*
G01X26576519Y-4906409D01*
G01X26593537Y-4906409D01*
G01X26641289Y-4934857D02*
G01X26744159Y-4934857D01*
G01X26791911Y-4866277D02*
G01X26791911Y-4986419D01*
G01X26791911Y-4866277D02*
G01X26843473Y-4866277D01*
G01X26860491Y-4872119D01*
G01X26866333Y-4877707D01*
G01X26871921Y-4889137D01*
G01X26871921Y-4900567D01*
G01X26866333Y-4911997D01*
G01X26860491Y-4917839D01*
G01X26843473Y-4923427D01*
G01X26791911Y-4923427D02*
G01X26843473Y-4923427D01*
G01X26860491Y-4929269D01*
G01X26866333Y-4934857D01*
G01X26871921Y-4946287D01*
G01X26871921Y-4963559D01*
G01X26866333Y-4974989D01*
G01X26860491Y-4980577D01*
G01X26843473Y-4986419D01*
G01X26791911Y-4986419D01*
G01X26948375Y-4906409D02*
G01X26936945Y-4911997D01*
G01X26925515Y-4923427D01*
G01X26919673Y-4940699D01*
G01X26919673Y-4952129D01*
G01X26925515Y-4969147D01*
G01X26936945Y-4980577D01*
G01X26948375Y-4986419D01*
G01X26965393Y-4986419D01*
G01X26976823Y-4980577D01*
G01X26988253Y-4969147D01*
G01X26994095Y-4952129D01*
G01X26994095Y-4940699D01*
G01X26988253Y-4923427D01*
G01X26976823Y-4911997D01*
G01X26965393Y-4906409D01*
G01X26948375Y-4906409D01*
G01X27059119Y-4866277D02*
G01X27059119Y-4963559D01*
G01X27064707Y-4980577D01*
G01X27076137Y-4986419D01*
G01X27087567Y-4986419D01*
G01X27041847Y-4906409D02*
G01X27081979Y-4906409D01*
G01X27152591Y-4866277D02*
G01X27152591Y-4963559D01*
G01X27158179Y-4980577D01*
G01X27169609Y-4986419D01*
G01X27181039Y-4986419D01*
G01X27135319Y-4906409D02*
G01X27175451Y-4906409D01*
G01X27257493Y-4906409D02*
G01X27246063Y-4911997D01*
G01X27234633Y-4923427D01*
G01X27228791Y-4940699D01*
G01X27228791Y-4952129D01*
G01X27234633Y-4969147D01*
G01X27246063Y-4980577D01*
G01X27257493Y-4986419D01*
G01X27274511Y-4986419D01*
G01X27285941Y-4980577D01*
G01X27297371Y-4969147D01*
G01X27303213Y-4952129D01*
G01X27303213Y-4940699D01*
G01X27297371Y-4923427D01*
G01X27285941Y-4911997D01*
G01X27274511Y-4906409D01*
G01X27257493Y-4906409D01*
G01X27350965Y-4906409D02*
G01X27350965Y-4986419D01*
G01X27350965Y-4929269D02*
G01X27368237Y-4911997D01*
G01X27379667Y-4906409D01*
G01X27396685Y-4906409D01*
G01X27408115Y-4911997D01*
G01X27413957Y-4929269D01*
G01X27413957Y-4986419D01*
G01X27413957Y-4929269D02*
G01X27430975Y-4911997D01*
G01X27442405Y-4906409D01*
G01X27459677Y-4906409D01*
G01X27471107Y-4911997D01*
G01X27476695Y-4929269D01*
G01X27476695Y-4986419D01*
G01X27652463Y-4866277D02*
G01X27652463Y-4986419D01*
G01X27652463Y-4986419D02*
G01X27721043Y-4986419D01*
G01X27837375Y-4906409D02*
G01X27837375Y-4986419D01*
G01X27837375Y-4923427D02*
G01X27825945Y-4911997D01*
G01X27814515Y-4906409D01*
G01X27797497Y-4906409D01*
G01X27786067Y-4911997D01*
G01X27774637Y-4923427D01*
G01X27768795Y-4940699D01*
G01X27768795Y-4952129D01*
G01X27774637Y-4969147D01*
G01X27786067Y-4980577D01*
G01X27797497Y-4986419D01*
G01X27814515Y-4986419D01*
G01X27825945Y-4980577D01*
G01X27837375Y-4969147D01*
G01X27890969Y-4906409D02*
G01X27925259Y-4986419D01*
G01X27959549Y-4906409D02*
G01X27925259Y-4986419D01*
G01X27913829Y-5009279D01*
G01X27902399Y-5020709D01*
G01X27890969Y-5026297D01*
G01X27885127Y-5026297D01*
G01X28007301Y-4940699D02*
G01X28075881Y-4940699D01*
G01X28075881Y-4929269D01*
G01X28070293Y-4917839D01*
G01X28064451Y-4911997D01*
G01X28053021Y-4906409D01*
G01X28036003Y-4906409D01*
G01X28024573Y-4911997D01*
G01X28013143Y-4923427D01*
G01X28007301Y-4940699D01*
G01X28007301Y-4952129D01*
G01X28013143Y-4969147D01*
G01X28024573Y-4980577D01*
G01X28036003Y-4986419D01*
G01X28053021Y-4986419D01*
G01X28064451Y-4980577D01*
G01X28075881Y-4969147D01*
G01X28123633Y-4906409D02*
G01X28123633Y-4986419D01*
G01X28123633Y-4940699D02*
G01X28129475Y-4923427D01*
G01X28140905Y-4911997D01*
G01X28152335Y-4906409D01*
G01X28169353Y-4906409D01*

G04 Image Start*
G36*
G01X12355386Y-4789714D02*
G01X12520486Y-4954814D01*
G01X12355386Y-5119914D01*
G01X12190286Y-4954814D01*
G01X12226201Y-4954814D01*
G01X12355386Y-5083999D01*
G01X12484570Y-4954814D01*
G01X12355386Y-4825630D01*
G01X12355386Y-4825630D01*
G01X12226201Y-4954814D01*
G01X12190286Y-4954814D01*
G01X12355386Y-4789714D01*
G37*
G36*
G01X12487263Y-2724604D02*
G01X12381649Y-2713123D01*
G01X12338774Y-2810329D01*
G01X12295899Y-2713123D01*
G01X12190286Y-2724604D01*
G01X12253049Y-2638879D01*
G01X12213327Y-2584624D01*
G01X12244820Y-2584624D01*
G01X12284520Y-2638879D01*
G01X12244820Y-2693133D01*
G01X12311647Y-2685869D01*
G01X12311647Y-2685869D01*
G01X12338774Y-2747362D01*
G01X12365901Y-2685869D01*
G01X12432729Y-2693133D01*
G01X12393029Y-2638879D01*
G01X12432703Y-2584650D01*
G01X12365876Y-2591914D01*
G01X12338774Y-2530395D01*
G01X12311647Y-2591889D01*
G01X12244820Y-2584624D01*
G01X12213327Y-2584624D01*
G01X12190286Y-2553154D01*
G01X12295924Y-2564634D01*
G01X12338774Y-2467429D01*
G01X12381649Y-2564634D01*
G01X12487263Y-2553154D01*
G01X12424499Y-2638879D01*
G01X12487263Y-2724604D01*
G37*
G36*
G01X12358269Y-1610299D02*
G01X12350529Y-1610887D01*
G01X12342686Y-1611086D01*
G01X12334843Y-1610887D01*
G01X12327102Y-1610299D01*
G01X12319475Y-1609330D01*
G01X12311970Y-1607990D01*
G01X12297364Y-1604235D01*
G01X12283362Y-1599110D01*
G01X12270040Y-1592693D01*
G01X12257474Y-1585060D01*
G01X12245742Y-1576287D01*
G01X12234920Y-1566452D01*
G01X12225084Y-1555629D01*
G01X12216311Y-1543897D01*
G01X12208678Y-1531332D01*
G01X12202261Y-1518010D01*
G01X12197137Y-1504008D01*
G01X12193382Y-1489402D01*
G01X12192042Y-1481896D01*
G01X12191072Y-1474269D01*
G01X12190484Y-1466529D01*
G01X12190286Y-1458686D01*
G01X12215686Y-1458686D01*
G01X12216343Y-1471652D01*
G01X12218271Y-1484248D01*
G01X12221405Y-1496410D01*
G01X12225682Y-1508072D01*
G01X12231037Y-1519172D01*
G01X12237405Y-1529643D01*
G01X12244723Y-1539423D01*
G01X12252925Y-1548446D01*
G01X12261949Y-1556649D01*
G01X12271728Y-1563966D01*
G01X12282200Y-1570335D01*
G01X12293299Y-1575690D01*
G01X12304962Y-1579966D01*
G01X12317123Y-1583101D01*
G01X12317123Y-1583101D01*
G01X12329719Y-1585029D01*
G01X12342686Y-1585686D01*
G01X12355652Y-1585029D01*
G01X12368248Y-1583101D01*
G01X12380410Y-1579966D01*
G01X12392072Y-1575690D01*
G01X12403172Y-1570335D01*
G01X12413643Y-1563966D01*
G01X12423423Y-1556649D01*
G01X12432446Y-1548446D01*
G01X12440649Y-1539423D01*
G01X12447966Y-1529643D01*
G01X12454335Y-1519172D01*
G01X12459690Y-1508072D01*
G01X12463966Y-1496410D01*
G01X12467101Y-1484248D01*
G01X12469029Y-1471652D01*
G01X12469686Y-1458686D01*
G01X12469029Y-1445719D01*
G01X12467101Y-1433123D01*
G01X12463966Y-1420962D01*
G01X12459690Y-1409299D01*
G01X12454335Y-1398200D01*
G01X12447966Y-1387728D01*
G01X12440649Y-1377949D01*
G01X12432446Y-1368925D01*
G01X12423423Y-1360723D01*
G01X12413643Y-1353405D01*
G01X12403172Y-1347037D01*
G01X12392072Y-1341682D01*
G01X12380410Y-1337405D01*
G01X12368248Y-1334271D01*
G01X12355652Y-1332343D01*
G01X12342686Y-1331686D01*
G01X12329719Y-1332343D01*
G01X12317123Y-1334271D01*
G01X12304962Y-1337405D01*
G01X12293299Y-1341682D01*
G01X12282200Y-1347037D01*
G01X12271728Y-1353405D01*
G01X12261949Y-1360723D01*
G01X12252925Y-1368925D01*
G01X12244723Y-1377949D01*
G01X12237405Y-1387728D01*
G01X12231037Y-1398200D01*
G01X12225682Y-1409299D01*
G01X12221405Y-1420962D01*
G01X12218271Y-1433123D01*
G01X12216343Y-1445719D01*
G01X12215686Y-1458686D01*
G01X12190286Y-1458686D01*
G01X12190484Y-1450843D01*
G01X12191072Y-1443102D01*
G01X12192042Y-1435475D01*
G01X12193382Y-1427970D01*
G01X12197137Y-1413364D01*
G01X12202261Y-1399362D01*
G01X12208678Y-1386040D01*
G01X12216311Y-1373474D01*
G01X12225084Y-1361742D01*
G01X12234920Y-1350920D01*
G01X12245742Y-1341084D01*
G01X12257474Y-1332311D01*
G01X12270040Y-1324678D01*
G01X12283362Y-1318261D01*
G01X12297364Y-1313137D01*
G01X12311970Y-1309382D01*
G01X12319475Y-1308042D01*
G01X12327102Y-1307072D01*
G01X12334843Y-1306484D01*
G01X12342686Y-1306286D01*
G01X12350529Y-1306484D01*
G01X12358269Y-1307072D01*
G01X12365896Y-1308042D01*
G01X12373402Y-1309382D01*
G01X12388008Y-1313137D01*
G01X12402010Y-1318261D01*
G01X12415332Y-1324678D01*
G01X12427897Y-1332311D01*
G01X12439629Y-1341084D01*
G01X12450452Y-1350920D01*
G01X12460287Y-1361742D01*
G01X12469060Y-1373474D01*
G01X12476693Y-1386040D01*
G01X12483110Y-1399362D01*
G01X12488235Y-1413364D01*
G01X12491990Y-1427970D01*
G01X12493330Y-1435475D01*
G01X12494299Y-1443102D01*
G01X12494887Y-1450843D01*
G01X12495086Y-1458686D01*
G01X12494887Y-1466529D01*
G01X12494299Y-1474269D01*
G01X12493330Y-1481896D01*
G01X12491990Y-1489402D01*
G01X12488235Y-1504008D01*
G01X12483110Y-1518010D01*
G01X12476693Y-1531332D01*
G01X12469060Y-1543897D01*
G01X12460287Y-1555629D01*
G01X12450452Y-1566452D01*
G01X12439629Y-1576287D01*
G01X12427897Y-1585060D01*
G01X12415332Y-1592693D01*
G01X12402010Y-1599110D01*
G01X12388008Y-1604235D01*
G01X12373402Y-1607990D01*
G01X12365896Y-1609330D01*
G01X12358269Y-1610299D01*
G37*
G36*
G01X12495086Y-3850237D02*
G01X12411977Y-3850237D01*
G01X12411977Y-3933371D01*
G01X12273420Y-3933371D01*
G01X12273420Y-3850263D01*
G01X12190286Y-3850263D01*
G01X12190286Y-3737106D01*
G01X12215686Y-3737106D01*
G01X12215686Y-3824837D01*
G01X12298820Y-3824837D01*
G01X12298820Y-3907971D01*
G01X12298820Y-3907971D01*
G01X12386552Y-3907971D01*
G01X12386552Y-3824863D01*
G01X12469686Y-3824863D01*
G01X12469686Y-3737106D01*
G01X12386552Y-3737106D01*
G01X12386552Y-3653971D01*
G01X12298820Y-3653971D01*
G01X12298820Y-3737106D01*
G01X12215686Y-3737106D01*
G01X12190286Y-3737106D01*
G01X12190286Y-3711706D01*
G01X12273420Y-3711706D01*
G01X12273420Y-3628571D01*
G01X12411952Y-3628571D01*
G01X12411952Y-3711706D01*
G01X12495086Y-3711706D01*
G01X12495086Y-3850237D01*
G37*
G36*
G01X12495086Y-3048000D02*
G01X12425058Y-3200400D01*
G01X12495086Y-3352800D01*
G01X12342686Y-3282772D01*
G01X12190286Y-3352800D01*
G01X12214048Y-3301086D01*
G01X12242000Y-3301086D01*
G01X12332069Y-3259684D01*
G01X12342686Y-3254807D01*
G01X12353303Y-3259684D01*
G01X12443371Y-3301086D01*
G01X12401969Y-3211017D01*
G01X12397093Y-3200400D01*
G01X12401969Y-3189783D01*
G01X12443371Y-3099714D01*
G01X12353303Y-3141116D01*
G01X12342686Y-3145993D01*
G01X12332069Y-3141116D01*
G01X12242000Y-3099714D01*
G01X12283402Y-3189783D01*
G01X12288279Y-3200400D01*
G01X12288279Y-3200400D01*
G01X12283402Y-3211017D01*
G01X12242000Y-3301086D01*
G01X12214048Y-3301086D01*
G01X12260314Y-3200400D01*
G01X12190286Y-3048000D01*
G01X12342686Y-3118028D01*
G01X12495086Y-3048000D01*
G37*
G36*
G01X12190286Y-1886857D02*
G01X12495086Y-1886857D01*
G01X12342686Y-2150814D01*
G01X12204951Y-1912257D01*
G01X12234279Y-1912257D01*
G01X12342686Y-2100014D01*
G01X12451093Y-1912257D01*
G01X12451093Y-1912257D01*
G01X12234279Y-1912257D01*
G01X12204951Y-1912257D01*
G01X12190286Y-1886857D01*
G37*
G36*
G01X12469686Y-4488543D02*
G01X12368086Y-4488543D01*
G01X12329986Y-4412343D01*
G01X12291886Y-4488543D01*
G01X12190286Y-4488543D01*
G01X12190286Y-4463143D01*
G01X12215686Y-4463143D01*
G01X12276189Y-4463143D01*
G01X12307253Y-4400989D01*
G01X12329986Y-4355548D01*
G01X12352719Y-4400989D01*
G01X12383783Y-4463143D01*
G01X12444286Y-4463143D01*
G01X12444286Y-4402640D01*
G01X12382132Y-4371550D01*
G01X12336691Y-4348843D01*
G01X12382132Y-4326135D01*
G01X12444286Y-4295046D01*
G01X12444286Y-4234543D01*
G01X12383783Y-4234543D01*
G01X12352719Y-4296697D01*
G01X12329986Y-4342137D01*
G01X12307253Y-4296697D01*
G01X12276189Y-4234543D01*
G01X12215686Y-4234543D01*
G01X12215686Y-4295046D01*
G01X12277840Y-4326135D01*
G01X12323280Y-4348843D01*
G01X12277840Y-4371550D01*
G01X12215686Y-4402640D01*
G01X12215686Y-4463143D01*
G01X12215686Y-4463143D01*
G01X12190286Y-4463143D01*
G01X12190286Y-4386943D01*
G01X12266486Y-4348843D01*
G01X12190286Y-4310743D01*
G01X12190286Y-4209143D01*
G01X12291886Y-4209143D01*
G01X12329986Y-4285343D01*
G01X12368086Y-4209143D01*
G01X12469686Y-4209143D01*
G01X12469686Y-4310743D01*
G01X12393486Y-4348843D01*
G01X12469686Y-4386943D01*
G01X12469686Y-4488543D01*
G37*
G36*
G01X12190286Y-725714D02*
G01X12469686Y-725714D01*
G01X12469686Y-1005114D01*
G01X12190286Y-1005114D01*
G01X12190286Y-751114D01*
G01X12215686Y-751114D01*
G01X12215686Y-979714D01*
G01X12444286Y-979714D01*
G01X12444286Y-751114D01*
G01X12444286Y-751114D01*
G01X12215686Y-751114D01*
G01X12190286Y-751114D01*
G01X12190286Y-725714D01*
G37*

G04 PolygonModel Start*
G54D19*
G01X11900000Y-5225143D02*
G01X28760085Y-5225143D01*
G01X11900000Y-4644571D02*
G01X28760085Y-4644571D01*
G01X11900000Y-4064000D02*
G01X28760085Y-4064000D01*
G01X11900000Y-3483429D02*
G01X28760085Y-3483429D01*
G01X11900000Y-2902857D02*
G01X28760085Y-2902857D01*
G01X11900000Y-2322286D02*
G01X28760085Y-2322286D01*
G01X11900000Y-1741714D02*
G01X28760085Y-1741714D01*
G01X11900000Y-1161143D02*
G01X28760085Y-1161143D01*
G01X11900000Y-580571D02*
G01X28760085Y-580571D01*
G01X11900000Y0D02*
G01X28760085Y0D01*
G01X11900000Y0D02*
G01X11900000Y-5199743D01*
G01X13351429Y0D02*
G01X13351429Y-5199743D01*
G01X14765592Y0D02*
G01X14765592Y-5199743D01*
G01X18800781Y0D02*
G01X18800781Y-5199743D01*
G01X20262188Y0D02*
G01X20262188Y-5199743D01*
G01X21693369Y0D02*
G01X21693369Y-5199743D01*
G01X23362548Y0D02*
G01X23362548Y-5199743D01*
G01X25281917Y0D02*
G01X25281917Y-5199743D01*
G01X28760085Y0D02*
G01X28760085Y-5199743D01*

M02*

