G04 Layer: TopSolderMaskLayer*
G04 EasyEDA Pro v3.2.121, 2026-07-22 15:45:00*
G04 Gerber Generator version 0.3*
G04 Scale: 100 percent, Rotated: No, Reflected: No*
G04 Dimensions in millimeters*
G04 Leading zeros omitted, absolute positions, 4 integers and 5 decimals*
G04 Generated by custom config*
%FSLAX45Y45*%
%MOMM*%
%AMRoundRect*1,1,$1,$2,$3*1,1,$1,$4,$5*1,1,$1,0-$2,0-$3*1,1,$1,0-$4,0-$5*20,1,$1,$2,$3,$4,$5,0*20,1,$1,$4,$5,0-$2,0-$3,0*20,1,$1,0-$2,0-$3,0-$4,0-$5,0*20,1,$1,0-$4,0-$5,$2,$3,0*4,1,4,$2,$3,$4,$5,0-$2,0-$3,0-$4,0-$5,$2,$3,0*%
%ADD10RoundRect,0.1016X-0.4X0.45X0.4X0.45*%
%ADD11RoundRect,0.1016X-0.85X-0.85X-0.85X0.85*%
%ADD12C,1.8016*%
%ADD13RoundRect,0.1016X-0.85X0.85X0.85X0.85*%
%ADD14C,1.6764*%
%ADD15RoundRect,0.1016X-0.7874X0.7874X0.7874X0.7874*%
%ADD16C,1.9016*%
%ADD17RoundRect,0.1018X-0.40005X-0.40005X-0.40005X0.40005*%
%ADD18RoundRect,0.1016X-0.40005X-0.40005X-0.40005X0.40005*%
%ADD19RoundRect,0.1016X-0.40324X0.432X0.40324X0.432*%
%ADD20RoundRect,0.1016X-0.432X-0.40324X-0.432X0.40324*%
%ADD21C,1.7016*%
%ADD22C,3.4036*%
%ADD23RoundRect,0.1016X-0.615X0.93X0.615X0.93*%
%ADD24RoundRect,0.1016X-0.93X-0.615X-0.93X0.615*%
%ADD25O,2.13711X0.67559*%
%ADD26O,1.60002X0.37003*%
%ADD27O,0.37003X1.60002*%
%ADD28O,2.516X1.286*%
%ADD29RoundRect,0.1016X-1.25X0.55X1.25X0.55*%
%ADD30RoundRect,0.1016X-1.17X1.8X1.17X1.8*%
%ADD31RoundRect,0.1016X-1.1X0.6X1.1X0.6*%
%ADD32RoundRect,0.1016X-0.37501X-0.25X-0.37501X0.25*%
%ADD33RoundRect,0.508X-0.37501X-0.25X-0.37501X0.25*%
%ADD34RoundRect,0.1016X-0.85X-0.42501X-0.85X0.42501*%
%ADD35C,2.1016*%
G75*


G04 Pad Start*
G54D10*
G01X6229198Y-190500D03*
G01X6369202Y-190500D03*
G01X6369202Y-368300D03*
G01X6229198Y-368300D03*
G01X755498Y-1028700D03*
G01X895502Y-1028700D03*
G01X6966102Y-889000D03*
G01X6826098Y-889000D03*
G01X2276200Y-1853126D03*
G01X2136195Y-1853126D03*
G01X2279802Y-2079125D03*
G01X2139798Y-2079125D03*
G01X7512202Y-3721100D03*
G01X7372198Y-3721100D03*
G01X7512435Y-3550152D03*
G01X7372430Y-3550152D03*
G54D11*
G01X7835900Y-876300D03*
G54D12*
G01X7835900Y-1130300D03*
G01X7835900Y-1384300D03*
G01X7835900Y-1638300D03*
G01X7835900Y-1892300D03*
G54D11*
G01X7835900Y-2184400D03*
G54D12*
G01X7835900Y-2438400D03*
G01X7835900Y-2692400D03*
G01X7835900Y-2946400D03*
G01X7835900Y-3200400D03*
G54D13*
G01X977900Y-4064000D03*
G54D12*
G01X1231900Y-4064000D03*
G01X1485900Y-4064000D03*
G54D13*
G01X977900Y-4330700D03*
G54D12*
G01X1231900Y-4330700D03*
G01X1485900Y-4330700D03*
G54D13*
G01X2413000Y-1257300D03*
G54D12*
G01X2667000Y-1257300D03*
G01X2921000Y-1257300D03*
G01X3175000Y-1257300D03*
G54D14*
G01X177800Y-3644900D03*
G01X431800Y-3644900D03*
G54D15*
G01X685800Y-3644900D03*
G54D16*
G01X5168900Y-3619500D03*
G01X5168900Y-3365500D03*
G01X5168900Y-3111500D03*
G01X5168900Y-2857500D03*
G01X5168900Y-2603500D03*
G01X5168900Y-2349500D03*
G01X5168900Y-2095500D03*
G01X5168900Y-1841500D03*
G01X5168900Y-1587500D03*
G01X5168900Y-1333500D03*
G01X5168900Y-1079500D03*
G01X5168900Y-825500D03*
G54D14*
G01X177800Y-2806700D03*
G01X431800Y-2806700D03*
G54D15*
G01X685800Y-2806700D03*
G54D16*
G01X1155700Y-825500D03*
G01X1155700Y-1079500D03*
G01X1155700Y-1333500D03*
G01X1155700Y-1587500D03*
G01X1155700Y-1841500D03*
G01X1155700Y-2095500D03*
G01X1155700Y-2349500D03*
G01X1155700Y-2603500D03*
G01X1155700Y-2857500D03*
G01X1155700Y-3111500D03*
G01X1155700Y-3365500D03*
G01X1155700Y-3619500D03*
G01X4572000Y-165100D03*
G01X4318000Y-165100D03*
G01X4064000Y-165100D03*
G01X3810000Y-165100D03*
G01X3556000Y-165100D03*
G01X3302000Y-165100D03*
G01X3048000Y-165100D03*
G01X2794000Y-165100D03*
G01X2540000Y-165100D03*
G01X2286000Y-165100D03*
G01X2032000Y-165100D03*
G01X1778000Y-165100D03*
G01X1790700Y-4330700D03*
G01X2044700Y-4330700D03*
G01X2298700Y-4330700D03*
G01X2552700Y-4330700D03*
G01X2806700Y-4330700D03*
G01X3060700Y-4330700D03*
G01X3314700Y-4330700D03*
G01X3568700Y-4330700D03*
G01X3822700Y-4330700D03*
G01X4076700Y-4330700D03*
G01X4330700Y-4330700D03*
G01X4584700Y-4330700D03*
G54D18*
G01X4354431Y-1332484D03*
G01X4194411Y-1332992D03*
G01X4352290Y-1510284D03*
G01X4192270Y-1510792D03*
G01X740410Y-1372616D03*
G01X900430Y-1372108D03*
G54D19*
G01X750164Y-1206500D03*
G01X900836Y-1206500D03*
G54D20*
G01X6819900Y-559664D03*
G01X6819900Y-710336D03*
G54D21*
G01X6997700Y-1320800D03*
G01X6743700Y-1574800D03*
G01X7251700Y-1574800D03*
G54D19*
G01X5764936Y-711200D03*
G01X5614264Y-711200D03*
G01X5614264Y-863600D03*
G01X5764936Y-863600D03*
G54D20*
G01X6972300Y-559664D03*
G01X6972300Y-710336D03*
G01X3898900Y-1804264D03*
G01X3898900Y-1954936D03*
G54D21*
G01X5854700Y-1320800D03*
G01X5600700Y-1574800D03*
G01X6108700Y-1574800D03*
G54D19*
G01X4053025Y-1343297D03*
G01X3902352Y-1343297D03*
G01X748436Y-1542642D03*
G01X899109Y-1542642D03*
G01X4050436Y-1511300D03*
G01X3899764Y-1511300D03*
G01X3201167Y-1040536D03*
G01X3050494Y-1040536D03*
G01X2747421Y-1040536D03*
G01X2898094Y-1040536D03*
G54D22*
G01X400000Y-400000D03*
G01X7600047Y-400007D03*
G01X400000Y-4100000D03*
G01X7600000Y-4100000D03*
G54D23*
G01X535991Y-1041400D03*
G01X99009Y-1041400D03*
G54D24*
G01X4445000Y-563728D03*
G01X4445000Y-1000709D03*
G01X4114800Y-563728D03*
G01X4114800Y-1000709D03*
G01X3784600Y-563728D03*
G01X3784600Y-1000709D03*
G01X3454400Y-563728D03*
G01X3454400Y-1000709D03*
G54D25*
G01X6009716Y-596900D03*
G01X6009716Y-723900D03*
G01X6009716Y-850900D03*
G01X6009716Y-977900D03*
G01X6563284Y-596900D03*
G01X6563284Y-723900D03*
G01X6563284Y-850900D03*
G01X6563284Y-977900D03*
G54D26*
G01X2790119Y-1962294D03*
G01X2790119Y-2012307D03*
G01X2790119Y-2062294D03*
G01X2790119Y-2112307D03*
G01X2790119Y-2162294D03*
G01X2790119Y-2212306D03*
G01X2790119Y-2262294D03*
G01X2790119Y-2312306D03*
G01X2790119Y-2362293D03*
G01X2790119Y-2412306D03*
G01X2790119Y-2462293D03*
G01X2790119Y-2512306D03*
G54D27*
G01X2940106Y-2662293D03*
G01X2990119Y-2662293D03*
G01X3040106Y-2662293D03*
G01X3090119Y-2662293D03*
G01X3140106Y-2662293D03*
G01X3190119Y-2662293D03*
G01X3240106Y-2662293D03*
G01X3290118Y-2662293D03*
G01X3340106Y-2662293D03*
G01X3390118Y-2662293D03*
G01X3440105Y-2662293D03*
G01X3490118Y-2662293D03*
G54D26*
G01X3640105Y-2512306D03*
G01X3640105Y-2462293D03*
G01X3640105Y-2412306D03*
G01X3640105Y-2362293D03*
G54D28*
G01X3640105Y-2312306D03*
G54D26*
G01X3640105Y-2262294D03*
G01X3640105Y-2212306D03*
G01X3640105Y-2162294D03*
G01X3640105Y-2112307D03*
G01X3640105Y-2062294D03*
G01X3640105Y-2012307D03*
G01X3640105Y-1962294D03*
G54D27*
G01X3490118Y-1812307D03*
G01X3440105Y-1812307D03*
G01X3390118Y-1812307D03*
G01X3340106Y-1812307D03*
G01X3290118Y-1812307D03*
G01X3240106Y-1812307D03*
G01X3190119Y-1812307D03*
G01X3140106Y-1812307D03*
G01X3090119Y-1812307D03*
G01X3040106Y-1812307D03*
G01X2990119Y-1812307D03*
G01X2940106Y-1812307D03*
G54D29*
G01X325305Y-1916303D03*
G01X325305Y-2146300D03*
G01X325305Y-2376297D03*
G54D30*
G01X919297Y-2146300D03*
G54D31*
G01X7152688Y-4370299D03*
G01X7152688Y-4170299D03*
G01X7152688Y-3970299D03*
G01X7152688Y-3770300D03*
G01X7152688Y-3570300D03*
G01X7152688Y-3370301D03*
G01X7152688Y-3170301D03*
G01X7152688Y-2970301D03*
G01X5572707Y-2970301D03*
G01X5572707Y-3170301D03*
G01X5572707Y-3370301D03*
G01X5572707Y-3570300D03*
G01X5572707Y-3770300D03*
G01X5572707Y-3970299D03*
G01X5572707Y-4170299D03*
G01X5572707Y-4370299D03*
G54D32*
G01X2821000Y-674700D03*
G01X3021000Y-674700D03*
G01X2821000Y-774700D03*
G54D33*
G01X3021000Y-774700D03*
G54D32*
G01X2821000Y-874700D03*
G01X3021000Y-874700D03*
G54D34*
G01X2480275Y-2081624D03*
G01X2480275Y-1850626D03*
G54D14*
G01X177800Y-3365500D03*
G01X431800Y-3365500D03*
G54D15*
G01X685800Y-3365500D03*
G54D14*
G01X177800Y-3086100D03*
G01X431800Y-3086100D03*
G54D15*
G01X685800Y-3086100D03*
G54D35*
G01X3959000Y-3710300D03*
G01X1629000Y-3710300D03*
G04 Pad End*

M02*

