G04 Layer: BottomSolderMaskLayer*
G04 EasyEDA Pro v3.2.121, 2026-07-22 15:45:00*
G04 Gerber Generator version 0.3*
G04 Scale: 100 percent, Rotated: No, Reflected: No*
G04 Dimensions in millimeters*
G04 Leading zeros omitted, absolute positions, 4 integers and 5 decimals*
G04 Generated by custom config*
%FSLAX45Y45*%
%MOMM*%
%AMRoundRect*1,1,$1,$2,$3*1,1,$1,$4,$5*1,1,$1,0-$2,0-$3*1,1,$1,0-$4,0-$5*20,1,$1,$2,$3,$4,$5,0*20,1,$1,$4,$5,0-$2,0-$3,0*20,1,$1,0-$2,0-$3,0-$4,0-$5,0*20,1,$1,0-$4,0-$5,$2,$3,0*4,1,4,$2,$3,$4,$5,0-$2,0-$3,0-$4,0-$5,$2,$3,0*%
%ADD10C,1.6256*%
%ADD11RoundRect,0.1016X-0.45X-0.4X-0.45X0.4*%
%ADD12RoundRect,0.1016X-0.85X-0.85X-0.85X0.85*%
%ADD13C,1.8016*%
%ADD14RoundRect,0.1016X-0.85X0.85X0.85X0.85*%
%ADD15C,1.6764*%
%ADD16RoundRect,0.1016X-0.7874X0.7874X0.7874X0.7874*%
%ADD17C,1.9071*%
%ADD18C,1.9016*%
%ADD19C,1.7016*%
%ADD20C,3.4036*%
%ADD21C,2.1016*%
G75*


G04 Pad Start*
G54D10*
G01X373046Y-1873154D03*
G01X373046Y-2127154D03*
G01X373046Y-2381154D03*
G01X373046Y-2635154D03*
G01X627046Y-2635154D03*
G01X627046Y-2381154D03*
G01X627046Y-2127154D03*
G01X627046Y-1873154D03*
G54D11*
G01X3035292Y-2215998D03*
G01X3035292Y-2356002D03*
G01X3213092Y-2215998D03*
G01X3213092Y-2356002D03*
G54D12*
G01X7835900Y-876300D03*
G54D13*
G01X7835900Y-1130300D03*
G01X7835900Y-1384300D03*
G01X7835900Y-1638300D03*
G01X7835900Y-1892300D03*
G54D12*
G01X7835900Y-2184400D03*
G54D13*
G01X7835900Y-2438400D03*
G01X7835900Y-2692400D03*
G01X7835900Y-2946400D03*
G01X7835900Y-3200400D03*
G54D14*
G01X977900Y-4064000D03*
G54D13*
G01X1231900Y-4064000D03*
G01X1485900Y-4064000D03*
G54D14*
G01X977900Y-4330700D03*
G54D13*
G01X1231900Y-4330700D03*
G01X1485900Y-4330700D03*
G54D14*
G01X2413000Y-1257300D03*
G54D13*
G01X2667000Y-1257300D03*
G01X2921000Y-1257300D03*
G01X3175000Y-1257300D03*
G54D15*
G01X177800Y-3644900D03*
G01X431800Y-3644900D03*
G54D16*
G01X685800Y-3644900D03*
G54D18*
G01X5168900Y-3619500D03*
G01X5168900Y-3365500D03*
G01X5168900Y-3111500D03*
G01X5168900Y-2857500D03*
G01X5168900Y-2603500D03*
G01X5168900Y-2349500D03*
G01X5168900Y-2095500D03*
G01X5168900Y-1841500D03*
G01X5168900Y-1587500D03*
G01X5168900Y-1333500D03*
G01X5168900Y-1079500D03*
G01X5168900Y-825500D03*
G54D15*
G01X177800Y-2806700D03*
G01X431800Y-2806700D03*
G54D16*
G01X685800Y-2806700D03*
G54D18*
G01X1155700Y-825500D03*
G01X1155700Y-1079500D03*
G01X1155700Y-1333500D03*
G01X1155700Y-1587500D03*
G01X1155700Y-1841500D03*
G01X1155700Y-2095500D03*
G01X1155700Y-2349500D03*
G01X1155700Y-2603500D03*
G01X1155700Y-2857500D03*
G01X1155700Y-3111500D03*
G01X1155700Y-3365500D03*
G01X1155700Y-3619500D03*
G01X4572000Y-165100D03*
G01X4318000Y-165100D03*
G01X4064000Y-165100D03*
G01X3810000Y-165100D03*
G01X3556000Y-165100D03*
G01X3302000Y-165100D03*
G01X3048000Y-165100D03*
G01X2794000Y-165100D03*
G01X2540000Y-165100D03*
G01X2286000Y-165100D03*
G01X2032000Y-165100D03*
G01X1778000Y-165100D03*
G01X1790700Y-4330700D03*
G01X2044700Y-4330700D03*
G01X2298700Y-4330700D03*
G01X2552700Y-4330700D03*
G01X2806700Y-4330700D03*
G01X3060700Y-4330700D03*
G01X3314700Y-4330700D03*
G01X3568700Y-4330700D03*
G01X3822700Y-4330700D03*
G01X4076700Y-4330700D03*
G01X4330700Y-4330700D03*
G01X4584700Y-4330700D03*
G54D19*
G01X6997700Y-1320800D03*
G01X6743700Y-1574800D03*
G01X7251700Y-1574800D03*
G01X5854700Y-1320800D03*
G01X5600700Y-1574800D03*
G01X6108700Y-1574800D03*
G54D20*
G01X400000Y-400000D03*
G01X7600047Y-400007D03*
G01X400000Y-4100000D03*
G01X7600000Y-4100000D03*
G54D15*
G01X177800Y-3365500D03*
G01X431800Y-3365500D03*
G54D16*
G01X685800Y-3365500D03*
G54D15*
G01X177800Y-3086100D03*
G01X431800Y-3086100D03*
G54D16*
G01X685800Y-3086100D03*
G54D21*
G01X3959000Y-3710300D03*
G01X1629000Y-3710300D03*
G04 Pad End*

M02*

